<svg width="96" height="97" viewBox="0 0 96 97" fill="none" xmlns="http://www.w3.org/2000/svg">
<rect y="0.191101" width="96" height="96" rx="16" fill="#FFCB64"/>
<path d="M36.5222 15.545C32.4548 15.545 29.1547 18.8405 29.1547 22.9125C29.1547 18.8451 25.8591 15.545 21.7871 15.545C25.8545 15.545 29.1547 12.2495 29.1547 8.17743C29.1547 12.2448 32.4548 15.545 36.5222 15.545Z" fill="white"/>
<path d="M25.2496 81.9408L9.80273 72.2252L32.5848 61.2895L52.6723 72.4563L27.1955 82.0379C26.5577 82.2782 25.8551 82.2412 25.2496 81.9408Z" fill="url(#paint0_linear_2415_27728)"/>
<path d="M26.6041 67.0894L11.1572 57.3739L33.9393 46.4381L54.0267 57.605L28.55 67.1865C27.9122 67.4268 27.2096 67.3898 26.6041 67.0894Z" fill="url(#paint1_linear_2415_27728)"/>
<path d="M56.4955 52.9499L54.1105 31.8179C52.9134 31.7763 51.8734 32.2154 51.4852 32.9134L45.2085 44.168C45.1022 44.3576 44.9173 44.487 44.7093 44.5101L38.9502 45.1757V53.1348C38.9502 53.1395 56.551 53.3336 56.4955 52.9499Z" fill="#E25966"/>
<path d="M13.6768 37.7215V49.4014C13.6768 50.1502 14.2129 50.7926 14.9524 50.922L51.499 57.0555V43.878" fill="url(#paint2_linear_2415_27728)"/>
<path d="M84.2076 47.9915V55.8629C84.2076 56.7826 83.7362 57.6239 82.9689 58.0583L63.1865 69.3084V44.4741L84.2076 47.9915Z" fill="#AF3F50"/>
<path d="M19.5923 47.5196C19.0931 47.4456 18.6494 47.8524 18.6494 48.3793V55.0073C18.6494 55.9086 19.0746 56.7637 19.7818 57.286L39.6705 71.9748V51.0046L19.5923 47.5196Z" fill="#932E49"/>
<path d="M68.3585 71.0939V80.6708C68.3585 81.7384 67.3601 82.4687 66.3987 82.099L47.6748 74.9071V66.7584L68.3585 71.0939Z" fill="#932E49"/>
<path d="M25.3887 71.0128V80.0767C25.3887 81.149 26.387 81.9255 27.353 81.6066L47.6808 74.9092V66.7605L25.3887 71.0128Z" fill="#AF3F50"/>
<path d="M83.1079 49.91L67.8459 58.2944C67.6102 58.4239 67.4716 58.6873 67.49 58.9693L68.359 71.0929C68.4052 71.8001 67.8275 72.5119 66.8568 72.914C66.3114 73.1405 65.692 73.256 65.0912 73.2422V73.2375C64.629 73.2283 64.1899 73.1497 63.7878 72.9972L47.8787 66.8406C47.7446 66.7898 47.6013 66.7852 47.4627 66.8268L29.2934 72.3455C28.845 72.4841 28.3736 72.5442 27.9114 72.535C27.3105 72.5257 26.742 72.3917 26.2844 72.1467C25.471 71.7123 25.1613 70.982 25.4848 70.284L30.9296 58.3592C31.0683 58.0495 30.9804 57.6843 30.7124 57.4856L18.9169 48.6991C18.353 48.2738 18.7135 47.3402 19.3976 47.4465L50.6103 52.2719C50.9754 52.3274 51.3128 52.0639 51.3637 51.6803L54.1138 31.8286C55.3109 31.787 56.3509 32.2261 56.7391 32.924L63.0159 44.1787C63.1222 44.3682 63.307 44.4976 63.515 44.5207L82.1188 46.6792C83.1865 46.7994 83.9907 47.3125 84.2033 48.0011C84.416 48.6806 83.9954 49.4247 83.1079 49.91Z" fill="#E25966"/>
<path d="M50.7996 44.4682L13.666 37.72C13.7076 37.4797 13.8047 37.2393 13.9387 37.0082C14.4841 36.093 15.635 35.4459 16.9153 35.335L45.988 27.2742C46.2145 27.2233 46.4456 27.2464 46.6582 27.3343C46.991 27.4729 47.2175 27.7872 47.3192 28.1292L51.4652 43.7148C51.5946 44.14 51.2341 44.5468 50.7996 44.4682Z" fill="#1176A8"/>
<path d="M49.3535 52.0692L51.2578 52.365C51.3826 52.3835 51.5028 52.2725 51.5028 52.1385L51.5074 48.1959L49.3535 52.0692Z" fill="#192956"/>
<defs>
<linearGradient id="paint0_linear_2415_27728" x1="13.8873" y1="66.3693" x2="46.5035" y2="77.7786" gradientUnits="userSpaceOnUse">
<stop offset="0.1097" stop-opacity="0"/>
<stop offset="1" stop-color="#1D1D1B" stop-opacity="0.3"/>
</linearGradient>
<linearGradient id="paint1_linear_2415_27728" x1="17.7381" y1="47.7207" x2="46.6056" y2="66.7119" gradientUnits="userSpaceOnUse">
<stop offset="0.1102" stop-opacity="0"/>
<stop offset="1" stop-color="#1D1D1B" stop-opacity="0.3"/>
</linearGradient>
<linearGradient id="paint2_linear_2415_27728" x1="32.5894" y1="43.39" x2="33.4572" y2="55.9482" gradientUnits="userSpaceOnUse">
<stop offset="0.00179344" stop-color="#213577"/>
<stop offset="0.2763" stop-color="#1E316A"/>
<stop offset="0.7806" stop-color="#152549"/>
<stop offset="0.9972" stop-color="#111F38"/>
</linearGradient>
</defs>
</svg>
