<svg width="96" height="97" viewBox="0 0 96 97" fill="none" xmlns="http://www.w3.org/2000/svg">
<rect y="0.191101" width="96" height="96" rx="16" fill="#FFCB64"/>
<path d="M44.8512 83.1343C67.2919 83.1343 85.4836 73.6773 85.4836 62.0116C85.4836 50.3458 67.2919 40.8888 44.8512 40.8888C22.4105 40.8888 4.21875 50.3458 4.21875 62.0116C4.21875 73.6773 22.4105 83.1343 44.8512 83.1343Z" fill="url(#paint0_linear_2415_27697)"/>
<path d="M82.4797 52.9172C77.1874 45.3093 64.3381 39.9385 49.3119 39.9385C47.1071 39.9385 44.9486 40.0586 42.8549 40.2805L50.4396 52.3995C50.5459 52.5659 50.5459 52.7508 50.4766 52.908L50.5228 52.9172V62.0688L13.5557 53.1113V61.0705H13.5742C13.9624 72.3113 29.8068 81.3613 49.3072 81.3613C68.8077 81.3613 84.6521 72.3159 85.0403 61.0705H85.0588V52.9172H82.4797Z" fill="#932E49"/>
<path d="M11.9111 34.6821V47.291C11.9111 47.9289 12.3641 48.4789 12.9881 48.6037L50.5838 55.9712L50.4822 42.2576L11.9111 34.6821Z" fill="url(#paint1_linear_2415_27697)"/>
<path d="M85.0588 52.6428C85.0588 64.0824 69.0573 73.3496 49.3119 73.3496C29.5665 73.3496 13.5557 64.0824 13.5557 52.6428C13.5557 51.4318 13.7359 50.2486 14.0826 49.093C14.212 48.6678 14.3599 48.2426 14.5309 47.8266C14.8683 47.0039 15.7511 46.537 16.6293 46.7081L49.5984 53.1882C49.9127 53.2436 50.5274 53.0957 50.5274 52.3654C50.5274 52.2499 50.4859 42.2478 50.4859 42.2478L41.4359 33.7155C41.0938 33.1701 41.4313 32.4444 42.0691 32.3658C44.4079 32.0793 46.8344 31.9314 49.3119 31.9314C69.0573 31.9314 85.0588 41.2032 85.0588 52.6428Z" fill="#E25966"/>
<path d="M49.6506 43.1838L12.7898 35.9456C12.0271 35.7977 11.6805 34.9103 12.1288 34.2725C16.4366 28.1482 24.9134 23.2581 35.5256 20.7946C36.3068 20.6143 37.1156 20.9378 37.5409 21.6173L50.3763 42.1253C50.7045 42.6476 50.2515 43.3039 49.6506 43.1838Z" fill="#1176A8"/>
<path d="M26.7351 16.8906C22.6677 16.8906 19.3676 20.1861 19.3676 24.2581C19.3676 20.1907 16.072 16.8906 12 16.8906C16.0674 16.8906 19.3676 13.595 19.3676 9.52301C19.3676 13.595 22.6677 16.8906 26.7351 16.8906Z" fill="white"/>
<defs>
<linearGradient id="paint0_linear_2415_27697" x1="7.09713" y1="54.2987" x2="80.7713" y2="69.3493" gradientUnits="userSpaceOnUse">
<stop offset="0.00190774" stop-opacity="0"/>
<stop offset="0.281" stop-color="#10100F" stop-opacity="0.0839"/>
<stop offset="0.595" stop-color="#1A1A18" stop-opacity="0.1783"/>
<stop offset="1" stop-color="#1D1D1B" stop-opacity="0.3"/>
</linearGradient>
<linearGradient id="paint1_linear_2415_27697" x1="31.6931" y1="41.3267" x2="30.7246" y2="50.0437" gradientUnits="userSpaceOnUse">
<stop offset="0.00179344" stop-color="#213577"/>
<stop offset="0.2763" stop-color="#1E316A"/>
<stop offset="0.7806" stop-color="#152549"/>
<stop offset="0.9972" stop-color="#111F38"/>
</linearGradient>
</defs>
</svg>
