<svg width="33" height="20" viewBox="0 0 33 20" fill="none" xmlns="http://www.w3.org/2000/svg">
<path d="M23.5439 1.39268C25.0623 1.28825 26.2424 2.25524 28.3194 4.00897C29.2399 4.7857 29.9055 5.12758 30.3146 5.73409C30.7001 6.30484 31.4585 7.77534 31.0998 9.36171C30.7221 11.0296 29.0747 12.5502 27.273 12.6918C24.1795 12.9335 21.8618 8.98693 21.4511 8.11292C20.6659 6.44645 20.3386 3.89024 21.942 1.92766C22.4188 1.34404 23.2921 1.40984 23.5439 1.39268Z" fill="#1F2F59"/>
<path d="M17.0043 19.5295H12.5293C12.5293 19.5281 12.5293 19.5266 12.5293 19.5252C12.6882 18.7885 13.0627 18.5124 13.2374 18.3994C13.9659 17.9302 14.9572 18.2249 15.2184 18.3036C16.0838 18.5611 16.6692 19.1218 17.0043 19.5295Z" fill="#38A3C6"/>
<path d="M20.6063 8.75807C20.0383 8.65365 18.6725 10.3344 18.545 10.9281C18.2665 12.2355 18.3955 12.4987 18.2177 13.4557C18.0824 14.1852 17.8055 14.4827 17.2847 16.4897C17.0958 17.2177 17.0392 18.498 17.3743 18.7526C17.5364 18.8756 18.1753 18.9243 18.6174 18.8127C19.5458 18.5781 21.3333 14.7445 20.899 11.0768C20.8282 10.4675 21.4088 8.90541 20.6063 8.75807Z" fill="#FFD38D"/>
<path d="M30.0269 17.976C29.4998 17.6727 29.1284 16.3596 28.6202 13.3371C28.4565 12.3629 28.3936 11.9295 28.4896 11.3144C28.5352 11.0283 28.7036 9.86822 29.4384 9.64936C29.9199 9.50632 30.4234 9.74234 30.5178 9.79813C31.5925 10.4304 31.6743 11.8136 31.6633 14.5258C31.6539 16.6629 31.5972 17.9874 31.2054 18.1534C30.7129 18.3622 30.1008 18.0189 30.0269 17.976Z" fill="#FFD38D"/>
<path d="M21.0185 19.4177C21.0059 19.4406 21.0453 19.5078 21.0358 19.5293H30.4469C30.3131 19.1989 29.9402 18.7111 29.6129 18.0502C29.1283 17.0704 28.5382 16.1935 28.7082 14.8217C28.7381 14.6543 28.768 14.4913 28.7979 14.3339C28.8482 14.6114 28.8986 14.8703 28.9474 15.1135C29.8694 15.4997 30.8623 15.5755 31.5798 15.2308C31.605 15.2179 31.6317 15.2051 31.6569 15.1907C31.6601 14.9719 31.6616 14.7416 31.6616 14.5013C31.6679 12.9921 31.6459 11.895 31.4398 11.1082C31.4728 10.6691 31.07 10.1613 30.7223 9.83229C30.3981 9.52331 29.8726 9.46895 29.0874 9.28585C27.7452 8.97259 26.4927 8.26308 25.7626 8.1229C23.898 7.76672 22.902 8.48337 21.4575 8.52343C19.9013 8.56634 18.792 9.51902 18.4805 10.9323C18.1925 12.2383 18.331 12.5029 18.1532 13.4599C18.0745 13.8847 18.0084 14.0521 17.8652 14.5127C18.4695 14.8617 19.1398 15.0735 19.766 15.1149C20.5276 16.3108 22.0287 17.468 21.0185 19.4177Z" fill="#D84E55"/>
<path d="M22.7415 5.17482C22.7415 5.60253 22.5353 6.45078 22.3607 6.5738C22.1482 6.72257 21.832 6.6582 21.7801 6.64103C21.4716 6.53232 21.2388 5.98446 21.2388 5.17482C21.2388 4.36519 21.4559 3.76869 21.7801 3.70861C21.8115 3.70289 22.2379 3.60419 22.4079 3.81161C22.688 4.15062 22.7415 4.69848 22.7415 5.17482Z" fill="white"/>
<path d="M22.2112 6.64116C22.5101 6.64116 22.7525 5.98472 22.7525 5.17495C22.7525 4.36518 22.5101 3.70874 22.2112 3.70874C21.9123 3.70874 21.6699 4.36518 21.6699 5.17495C21.6699 5.98472 21.9123 6.64116 22.2112 6.64116Z" fill="#F3D4AA"/>
<path d="M20.0336 15.5385C19.9675 15.3153 19.8888 15.0979 19.8274 14.879C19.7661 14.6616 19.7205 14.4456 19.711 14.2296C19.7 14.0136 19.7173 13.8005 19.7755 13.5945C19.829 13.3871 19.9234 13.1868 20.0163 12.9708C20.1091 12.7563 20.1925 12.5188 20.2114 12.2742C20.2192 12.1512 20.2177 12.031 20.2051 11.9109C20.1909 11.7921 20.1689 11.6734 20.1359 11.559C20.0729 11.3287 19.9754 11.1098 19.8558 10.9053C19.796 10.8023 19.7283 10.7036 19.6575 10.6077C19.5867 10.5119 19.508 10.4218 19.4231 10.3359C19.486 10.4361 19.5426 10.5376 19.5961 10.6406C19.6229 10.6921 19.6481 10.7436 19.6717 10.7965C19.6953 10.848 19.7189 10.901 19.7393 10.9539C19.8243 11.1656 19.8888 11.3816 19.925 11.599C19.9423 11.7077 19.9549 11.8165 19.9565 11.9252C19.958 11.9795 19.9565 12.0339 19.9533 12.0868C19.9502 12.1412 19.9439 12.1927 19.9344 12.2456C19.9171 12.35 19.8872 12.453 19.8495 12.5546C19.8117 12.6561 19.7661 12.7577 19.7189 12.8621C19.6701 12.9651 19.6213 13.0724 19.5741 13.1825C19.5285 13.2941 19.4891 13.4085 19.4593 13.5287C19.401 13.7676 19.39 14.0151 19.4278 14.2539C19.464 14.4943 19.5458 14.7231 19.6528 14.9348C19.7614 15.148 19.8904 15.3468 20.0336 15.5385Z" fill="#992E40"/>
<path d="M29.9261 11.1484C29.7562 11.2386 29.6083 11.3687 29.4902 11.5175C29.3707 11.6663 29.281 11.8308 29.2054 11.9996C29.0575 12.3386 28.971 12.6919 28.9065 13.0438C28.8435 13.3971 28.8026 13.7504 28.7712 14.1037C28.7413 14.4571 28.7208 14.8118 28.7192 15.1694C28.8294 14.8261 28.9065 14.4771 28.9757 14.1281C29.0449 13.779 29.1032 13.43 29.1645 13.0838C29.2275 12.7377 29.2936 12.3929 29.399 12.0611C29.4525 11.8951 29.5139 11.7321 29.5988 11.579C29.6397 11.5003 29.6901 11.4274 29.742 11.3544C29.7703 11.3187 29.7971 11.2829 29.8286 11.25C29.8584 11.2142 29.8946 11.1828 29.9261 11.1484Z" fill="#992E40"/>
<path d="M23.5142 6.87412C23.4229 7.1502 23.7581 8.87675 23.8226 9.0198C24.035 9.48612 24.6849 9.86662 25.3221 9.84946C26.208 9.82514 26.5589 9.22864 26.5353 8.64502C26.5038 7.85827 26.4708 7.14448 26.6124 5.58386C26.6501 5.16617 23.6888 6.342 23.5142 6.87412Z" fill="#FFD38D"/>
<path d="M24.6911 5.9959C25.02 5.88719 25.0278 5.73556 25.4621 5.8829C25.7689 5.98589 26.0034 6.25624 26.1733 6.60384C26.0632 7.06302 25.7674 7.57798 25.4385 7.9313C25.2198 8.16589 24.8815 8.52923 24.3056 8.59074C24.1309 8.60933 23.9358 8.60075 23.747 8.5607C23.6117 8.02857 23.4071 7.08018 23.4748 6.87563C23.651 6.34207 24.378 6.10032 24.6911 5.9959Z" fill="#F49B51"/>
<path d="M27.366 3.48829C27.3817 2.76734 26.9931 2.22377 26.853 2.03209C26.1796 1.11804 25.4558 0.880582 25.1867 0.823364C24.2521 0.625963 23.4527 0.641697 22.71 1.15237C21.3537 2.08645 21.5693 4.14201 21.6684 4.77713C21.7644 5.38936 22.1892 7.23321 23.3143 8.01852C23.5078 8.15441 23.7517 8.30461 24.1545 8.29317C24.721 8.276 25.2449 7.90123 25.4338 7.7167C26.0883 7.07872 26.2441 6.60953 26.4864 5.43656C26.7319 4.24214 27.3503 4.21067 27.366 3.48829Z" fill="#FFD38D"/>
<path d="M29.9936 13.041C29.8221 14.0638 29.6994 14.0781 29.5357 15.241C29.424 16.0392 29.5042 16.5527 29.6994 17.0849C29.8284 17.4368 29.8677 17.8216 30.3539 18.0662C30.431 18.1048 30.8118 18.3523 31.3673 18.1548C31.4412 18.1291 32.1524 17.6499 32.3806 16.281C32.5049 15.5357 32.4545 13.6017 32.0203 11.9696C31.479 9.9312 31.5671 10.2588 31.3657 9.65083C31.169 9.05576 31.1045 8.01583 30.3838 7.86706C30.1431 7.81699 29.8897 7.99294 29.7623 8.16459C29.5939 8.3906 29.7843 8.64951 29.8599 9.05719C30.173 10.7065 30.1714 11.9825 29.9936 13.041Z" fill="#FFD38D"/>
<path d="M24.7385 6.97C24.7574 6.9414 24.7354 6.90563 24.6992 6.9042C24.5434 6.89562 24.1657 6.88132 23.7362 6.92137C23.4419 6.94855 23.1666 7.01721 23.0517 7.04868C23.0218 7.05726 23.0092 7.08873 23.0234 7.11305C23.1036 7.24179 23.368 7.57508 23.892 7.52216C24.364 7.47352 24.6425 7.11591 24.7385 6.97Z" fill="#D65B5B"/>
<path d="M29.602 6.43497C29.5123 6.12742 29.3187 5.89998 29.2369 5.59101C29.2322 5.57098 29.218 5.49516 29.1488 5.44796C28.9804 5.33209 28.628 5.29776 28.2409 5.1161C28.1984 5.09607 27.9498 4.9473 27.8837 4.98306C27.8255 5.01453 27.7704 5.09035 27.7846 5.15901C27.7925 5.19906 27.7862 5.34783 27.9876 5.46226C28.3211 5.65251 28.7114 5.73977 28.7602 5.78125C28.8373 5.84705 28.779 6.08022 28.779 6.1732C28.7885 6.90988 29.2275 7.03862 29.1881 7.35904C29.1803 7.42341 29.1472 7.5264 29.0638 7.56073C28.9505 7.60651 28.853 7.57504 28.4911 7.43628C28.4297 7.41197 27.665 7.12588 27.5139 7.329C27.4604 7.40052 27.5234 7.52497 27.6068 7.57075C27.676 7.60937 27.9199 7.72667 28.1591 7.81821C28.5021 7.94982 28.5745 7.9727 28.7114 8.06568C28.8498 8.16009 28.8184 8.11861 28.9647 8.27596C29.185 8.51341 29.4572 8.61354 29.6051 8.66647C29.8537 8.75802 30.2172 8.74514 30.3856 8.61068C30.5476 8.48051 30.4532 8.31029 30.3242 7.9255C30.0473 7.0987 29.7955 7.0987 29.602 6.43497Z" fill="#F49B51"/>
<path d="M29.0718 5.47523C28.3196 5.13907 27.547 4.86013 26.8814 4.6942C24.0838 3.99471 23.0657 2.27817 23.0657 2.27817C23.0657 2.27817 20.4207 4.97457 21.1838 7.08734C21.4576 7.84691 21.8006 8.17734 21.8148 8.35901C21.7283 8.35901 21.6401 8.38905 21.5489 8.37904C21.5331 8.37761 21.5945 8.37618 21.5788 8.37475C21.3081 8.00283 20.8314 7.08734 20.8314 7.08734C20.4978 6.21334 20.63 5.45806 20.8943 3.94751C21.0013 3.33813 21.1398 2.38832 21.8589 1.42133C22.4473 0.631725 23.2325 0.574508 23.5362 0.601686C23.6589 0.634586 23.6463 0.651752 23.6684 0.643169C25.308 0.0452417 26.8846 0.488681 27.9278 2.65581C28.584 4.0176 29.9765 4.81293 30.5052 5.74272C31.1488 6.87707 31.133 7.6352 31.1 7.75393C31.0827 7.8183 30.6799 6.19331 29.0718 5.47523Z" fill="#19335D"/>
<path d="M23.9155 0.626104C24.419 0.524542 24.9383 0.510238 25.4292 0.604647C25.552 0.628965 25.6731 0.657574 25.7911 0.694766C25.9091 0.731957 26.024 0.774871 26.1357 0.823506C26.3592 0.919346 26.5684 1.04379 26.7573 1.18684C27.138 1.4715 27.4386 1.83912 27.6652 2.23965C27.6935 2.28972 27.7187 2.34121 27.747 2.39271C27.7753 2.44563 27.8036 2.50285 27.8351 2.55578C27.8949 2.66449 27.9626 2.76892 28.0318 2.87191C28.1718 3.07646 28.3292 3.271 28.496 3.45696C28.8311 3.82602 29.2056 4.15788 29.5675 4.48546C29.7485 4.64996 29.9278 4.81446 30.0899 4.98754C30.252 5.16063 30.392 5.35088 30.5163 5.54971C30.6391 5.74997 30.7429 5.95882 30.8216 6.17768C30.9018 6.3951 30.9601 6.61968 30.9947 6.84856C31.0639 7.3063 31.0419 7.77692 30.9585 8.24038C31.0891 7.78693 31.1505 7.31202 31.1111 6.83711C31.0907 6.59966 31.0466 6.36363 30.9774 6.13333C30.9066 5.90303 30.8106 5.67845 30.6926 5.46388C30.6343 5.3566 30.5698 5.25218 30.5006 5.14918C30.466 5.09912 30.4314 5.04762 30.3936 4.99756C30.3558 4.94749 30.3181 4.89886 30.2772 4.85022C30.1182 4.65854 29.9452 4.47973 29.7705 4.30522C29.4196 3.95905 29.0609 3.62719 28.7477 3.26814C28.6691 3.17802 28.592 3.08791 28.5196 2.99493C28.4472 2.90195 28.378 2.80754 28.3103 2.7117C28.2458 2.61443 28.1813 2.51716 28.1246 2.41703C28.0947 2.36696 28.0696 2.31689 28.0412 2.2654C28.0113 2.21104 27.9814 2.15668 27.95 2.10376C27.8241 1.88919 27.6762 1.68464 27.5062 1.49725C27.3363 1.30843 27.1428 1.13677 26.9272 0.989438C26.7116 0.843533 26.4772 0.720514 26.2286 0.628965C25.9815 0.534556 25.7187 0.478768 25.4575 0.445867C25.3254 0.431563 25.1932 0.42298 25.0626 0.425841C24.9304 0.427272 24.7998 0.432993 24.6692 0.448728C24.5386 0.463033 24.4112 0.487351 24.2853 0.51596L24.1909 0.538847C24.1594 0.547429 24.1295 0.556012 24.0981 0.566025C24.0367 0.58319 23.9769 0.606078 23.9155 0.626104Z" fill="#1F2F59"/>
<path d="M26.2096 19.5539H14.5469V19.0547H25.9468C26.0271 19.0547 26.304 19.3894 26.304 19.3894C26.3654 19.4538 26.3135 19.5525 26.2096 19.5539C26.2112 19.5539 26.2096 19.5539 26.2096 19.5539Z" fill="#0B2139"/>
<path d="M18.5087 19.5295H8.94662C8.54224 19.5295 8.1882 19.2849 8.07963 18.9316L5.82167 11.6349C5.74614 11.3917 5.94755 11.1514 6.22448 11.1514H15.8952C16.3027 11.1514 16.6599 11.3974 16.77 11.7536L18.995 18.9459C19.0862 19.2391 18.8439 19.5295 18.5087 19.5295Z" fill="#0B2139"/>
<path d="M18.5072 19.5781H8.91206C8.5124 19.5781 8.16308 19.3363 8.05451 18.9873L5.81071 11.7349C5.75721 11.5633 5.89882 11.3931 6.09551 11.3931H15.6907C16.0903 11.3931 16.4397 11.6348 16.5482 11.9838L18.792 19.2362C18.844 19.4079 18.7023 19.5781 18.5072 19.5781Z" fill="#19335D"/>
<path d="M26.4706 5.24072C26.4706 6.56532 25.6036 7.75545 24.5541 7.75545C24.4848 7.75545 24.4156 7.74973 24.348 7.74115C24.348 7.73829 24.348 7.73686 24.348 7.73399C24.348 7.60239 24.1576 7.49511 23.9215 7.49511C23.6855 7.49511 23.4951 7.60239 23.4951 7.73399C23.4951 7.8656 23.6855 7.97288 23.9215 7.97288C24.0742 7.97288 24.2079 7.92854 24.2834 7.85987C24.3936 7.88562 24.5163 7.89564 24.6595 7.89564C25.8538 7.89564 26.864 6.77559 26.864 5.29651L26.4706 5.24072Z" fill="white"/>
<path d="M22.4868 0.840551L22.501 0.829108C22.5623 0.779042 22.9054 0.514409 23.6953 0.508687C25.6653 0.491522 27.1255 2.02782 27.1255 4.03617L26.7054 4.11199C26.7054 2.31534 25.2105 0.663176 23.5269 0.643149C22.9101 0.637428 22.6111 0.763307 22.4868 0.840551Z" fill="white"/>
<path d="M27.7058 5.17482C27.7058 5.60253 27.4997 6.45078 27.325 6.5738C27.1126 6.72257 26.7963 6.6582 26.7444 6.64103C26.436 6.53232 26.2031 5.98446 26.2031 5.17482C26.2031 4.36519 26.4203 3.76869 26.7444 3.70861C26.7759 3.70289 27.2023 3.60419 27.3722 3.81161C27.6523 4.15062 27.7058 4.69848 27.7058 5.17482Z" fill="white"/>
<path d="M27.1756 6.64116C27.4745 6.64116 27.7168 5.98472 27.7168 5.17495C27.7168 4.36518 27.4745 3.70874 27.1756 3.70874C26.8766 3.70874 26.6343 4.36518 26.6343 5.17495C26.6343 5.98472 26.8766 6.64116 27.1756 6.64116Z" fill="#992E40"/>
<path d="M27.2085 6.45224C27.4622 6.45224 27.6679 5.88034 27.6679 5.17485C27.6679 4.46937 27.4622 3.89746 27.2085 3.89746C26.9547 3.89746 26.749 4.46937 26.749 5.17485C26.749 5.88034 26.9547 6.45224 27.2085 6.45224Z" fill="#D84E55"/>
<path d="M28.0299 6.76257C27.9859 6.75684 27.9198 6.74826 27.8348 6.76257C27.7483 6.77687 27.6979 6.80548 27.5831 6.86413C27.3046 7.00574 27.3282 6.97713 27.2762 7.01718C27.1409 7.11732 27.1708 7.16881 27.0245 7.27181C26.9553 7.32044 26.7727 7.40627 26.5776 7.29755C26.5084 7.2575 26.5446 7.16309 26.5493 7.14449C26.5635 7.08871 26.5949 7.07154 26.7177 6.94137C26.8089 6.8441 26.8404 6.80119 26.8294 6.78831C26.8215 6.77973 26.661 6.81406 26.661 6.68675C26.661 6.62667 26.7051 6.57661 26.7727 6.50938C27.0072 6.27192 27.0276 6.20469 27.1913 6.10313C27.2149 6.08882 27.2841 6.04019 27.443 6.00157C27.8616 5.9 28.0913 5.74838 28.2817 5.79844C28.4768 5.84994 29.6774 6.18752 29.7624 6.23044C29.904 6.30339 29.9622 6.43356 29.9858 6.48506C30.2155 6.9943 30.675 7.76102 30.7678 7.90692C30.8166 7.98274 30.9362 8.61786 30.4877 8.74517C30.1526 8.84101 29.8536 8.66649 29.8174 8.64361C29.679 8.55635 29.6129 8.4505 29.4823 8.23736C29.251 7.86258 29.2494 7.65803 29.0637 7.57649C29.0496 7.56934 28.9284 7.51784 28.7569 7.47493C28.6971 7.45919 28.6672 7.45204 28.6452 7.44918C28.4202 7.42343 28.0945 7.51355 28.0583 7.52499C28.0063 7.54073 27.86 7.68663 27.4163 7.90549C27.3581 7.9341 27.1095 8.05855 26.9977 7.95699C26.9474 7.91122 26.9694 7.83397 26.9694 7.82968C26.9946 7.73956 27.1 7.69951 27.1929 7.6523C27.4572 7.51641 27.4131 7.41199 27.7231 7.22031C27.8238 7.1588 27.9072 7.11303 28.0299 7.06725C28.4485 6.91419 28.7286 7.0415 28.7569 6.93994C28.7774 6.8627 28.4705 6.81549 28.0299 6.76257Z" fill="#FFD07D"/>
<path d="M29.0352 6.40645C28.8464 6.34208 28.6545 6.28486 28.4609 6.23193C28.3649 6.20476 28.2674 6.18187 28.1698 6.15755C28.1195 6.14611 28.0723 6.13466 28.0188 6.12751C27.9653 6.12036 27.9086 6.12036 27.852 6.12894C27.8252 6.13323 27.7922 6.14325 27.7702 6.15326C27.7466 6.16327 27.723 6.17329 27.6994 6.18473C27.6537 6.20619 27.6097 6.22764 27.5656 6.25053C27.4775 6.2963 27.3909 6.34208 27.3044 6.38928L27.1754 6.45795C27.1266 6.48369 27.0888 6.51802 27.0542 6.55235C26.9866 6.62245 26.9283 6.6954 26.856 6.7612C26.9425 6.71113 27.0133 6.64247 27.0873 6.58382C27.125 6.55379 27.1628 6.52661 27.2037 6.50944C27.2509 6.49085 27.295 6.46939 27.3406 6.44936C27.4319 6.40931 27.52 6.36497 27.6097 6.32348C27.6537 6.30203 27.6978 6.28057 27.7418 6.26054C27.7639 6.25053 27.7859 6.24052 27.8079 6.23193C27.8315 6.22335 27.8457 6.21763 27.8693 6.21477C27.9133 6.20619 27.959 6.20619 28.0046 6.21191C28.0502 6.21763 28.099 6.22907 28.1478 6.23766L28.442 6.29774C28.6387 6.33922 28.8354 6.37784 29.0352 6.40645Z" fill="#F49B51"/>
<path d="M14.7938 3.83325H1.73848C1.19877 3.83325 0.759766 4.23092 0.759766 4.72299V8.26335C0.759766 8.754 1.1972 9.15309 1.73848 9.15309H12.561L13.6766 10.08V9.15309H14.7938C15.3335 9.15309 15.7725 8.75543 15.7725 8.26335V4.72299C15.7725 4.23092 15.3335 3.83325 14.7938 3.83325Z" fill="#FFDCAE"/>
<path d="M12.4585 7.58802C12.4585 7.67957 12.3767 7.75538 12.2744 7.75538C12.1737 7.75538 12.0903 7.681 12.0903 7.58802C12.0903 7.49647 12.1722 7.42065 12.2744 7.42065C12.3767 7.42208 12.4585 7.49647 12.4585 7.58802Z" fill="white"/>
<path d="M13.0361 7.75538C13.1378 7.75538 13.2202 7.68045 13.2202 7.58802C13.2202 7.49559 13.1378 7.42065 13.0361 7.42065C12.9345 7.42065 12.8521 7.49559 12.8521 7.58802C12.8521 7.68045 12.9345 7.75538 13.0361 7.75538Z" fill="white"/>
<path d="M13.7974 7.75538C13.8991 7.75538 13.9815 7.68045 13.9815 7.58802C13.9815 7.49559 13.8991 7.42065 13.7974 7.42065C13.6957 7.42065 13.6133 7.49559 13.6133 7.58802C13.6133 7.68045 13.6957 7.75538 13.7974 7.75538Z" fill="white"/>
<path d="M13.9722 5.35523H9.74269C9.64042 5.35523 9.55859 5.28085 9.55859 5.18787C9.55859 5.09489 9.64042 5.02051 9.74269 5.02051H13.9722C14.0745 5.02051 14.1563 5.09489 14.1563 5.18787C14.1563 5.27942 14.0745 5.35523 13.9722 5.35523Z" fill="white"/>
<path d="M13.9722 6.15626H7.81984C7.71756 6.15626 7.63574 6.08188 7.63574 5.9889C7.63574 5.89592 7.71756 5.82153 7.81984 5.82153H13.9722C14.0745 5.82153 14.1563 5.89592 14.1563 5.9889C14.1563 6.08045 14.0745 6.15626 13.9722 6.15626Z" fill="white"/>
<path d="M13.9722 6.95582H7.81984C7.71756 6.95582 7.63574 6.88144 7.63574 6.78846C7.63574 6.69548 7.71756 6.62109 7.81984 6.62109H13.9722C14.0745 6.62109 14.1563 6.69548 14.1563 6.78846C14.1563 6.88144 14.0745 6.95582 13.9722 6.95582Z" fill="white"/>
<path d="M11.549 7.75684H7.81984C7.71756 7.75684 7.63574 7.68246 7.63574 7.58948C7.63574 7.4965 7.71756 7.42212 7.81984 7.42212H11.549C11.6513 7.42212 11.7331 7.4965 11.7331 7.58948C11.7331 7.68246 11.6513 7.75684 11.549 7.75684Z" fill="white"/>
<path d="M19.0405 1.80762H9.15113C8.59884 1.80762 8.15039 2.2153 8.15039 2.71738V3.47552C8.15039 3.97761 8.59884 4.38529 9.15113 4.38529H16.759L17.8998 5.33224V4.38529H19.0421C19.5944 4.38529 20.0429 3.97761 20.0429 3.47552V2.71738C20.0397 2.2153 19.5928 1.80762 19.0405 1.80762Z" fill="#FFCB64"/>
<path d="M17.9344 2.26831L18.1389 2.84049H18.8014L18.2648 3.19381L18.4694 3.76742L17.9344 3.41267L17.3978 3.76742L17.6024 3.19381L17.0674 2.84049H17.7298L17.9344 2.26831Z" fill="#F49B51"/>
<path d="M16.0145 2.26831L16.219 2.84049H16.8815L16.3465 3.19381L16.551 3.76742L16.0145 3.41267L15.4795 3.76742L15.684 3.19381L15.1475 2.84049H15.8099L16.0145 2.26831Z" fill="#F49B51"/>
<path d="M14.095 2.26831L14.2996 2.84049H14.962L14.427 3.19381L14.6316 3.76742L14.095 3.41267L13.56 3.76742L13.7646 3.19381L13.228 2.84049H13.8905L14.095 2.26831Z" fill="#F49B51"/>
<path d="M12.1766 2.26831L12.3811 2.84049H13.042L12.507 3.19381L12.7116 3.76742L12.1766 3.41267L11.64 3.76742L11.8446 3.19381L11.3096 2.84049H11.9704L12.1766 2.26831Z" fill="#F49B51"/>
<path d="M10.2571 2.26831L10.4617 2.84049H11.1241L10.5876 3.19381L10.7921 3.76742L10.2571 3.41267L9.72057 3.76742L9.92512 3.19381L9.39014 2.84049H10.0526L10.2571 2.26831Z" fill="white"/>
<path d="M4.2764 8.4893C5.47565 8.4893 6.44782 7.6055 6.44782 6.51528C6.44782 5.42506 5.47565 4.54126 4.2764 4.54126C3.07716 4.54126 2.10498 5.42506 2.10498 6.51528C2.10498 7.6055 3.07716 8.4893 4.2764 8.4893Z" fill="white"/>
<path d="M6.05127 8.14873C5.94585 7.93416 5.43289 7.79111 5.09301 7.65808C4.75156 7.52505 4.79877 7.44351 4.78618 7.33337C4.78461 7.31763 4.78303 7.3019 4.78303 7.28617C4.89947 7.19462 4.99546 7.06874 5.05682 6.92283C5.05682 6.92283 5.05997 6.91568 5.06154 6.91282C5.07413 6.88135 5.08672 6.84845 5.09616 6.81555C5.17483 6.80124 5.22047 6.72543 5.23777 6.65677C5.25508 6.62816 5.29127 6.5595 5.28341 6.47939C5.27239 6.37783 5.22676 6.33063 5.17483 6.3106C5.17483 6.30488 5.17483 6.29916 5.17483 6.29343C5.17483 6.16469 5.16067 5.9773 5.13392 5.85572C5.12763 5.82139 5.11976 5.78849 5.10875 5.75415C5.0584 5.60396 4.95297 5.46949 4.81293 5.37509C4.66817 5.27781 4.46204 5.22632 4.27952 5.22632C4.09699 5.22632 3.89244 5.27781 3.7461 5.37509C3.60606 5.46949 3.50064 5.60396 3.45029 5.75415C3.43927 5.78705 3.42983 5.82139 3.42511 5.85572C3.39836 5.97873 3.3842 6.16469 3.3842 6.29343C3.3842 6.29916 3.3842 6.30345 3.3842 6.30917C3.3307 6.32776 3.28192 6.37497 3.27091 6.47939C3.26304 6.55807 3.29923 6.62816 3.31654 6.65677C3.33385 6.72829 3.38105 6.8041 3.4613 6.81698C3.47074 6.85131 3.48333 6.88421 3.49592 6.91568C3.49749 6.91711 3.49749 6.91997 3.49906 6.9214L3.50064 6.92426C3.56358 7.0716 3.66113 7.19891 3.78229 7.29189C3.78229 7.30619 3.78072 7.3205 3.77915 7.3348C3.76656 7.44494 3.80275 7.52648 3.4613 7.65951C3.11985 7.79254 2.60689 7.93559 2.50304 8.15016C2.39762 8.36472 2.4401 8.49203 2.4401 8.49203H6.11421C6.11421 8.48917 6.15669 8.36329 6.05127 8.14873Z" fill="#FFDCAE"/>
</svg>
