<svg width="22" height="22" viewBox="0 0 22 22" fill="none" xmlns="http://www.w3.org/2000/svg">
<path d="M11 0C17.0751 0 22 4.92487 22 11C22 17.0751 17.0751 22 11 22C4.92487 22 0 17.0751 0 11C0 4.92487 4.92487 0 11 0ZM14.5416 7.66664L9.625 12.5833L7.45836 10.4166C7.13618 10.0945 6.61382 10.0945 6.29164 10.4166C5.96945 10.7388 5.96945 11.2612 6.29164 11.5834L9.04164 14.3334C9.36382 14.6555 9.88618 14.6555 10.2084 14.3334L15.7084 8.83336C16.0305 8.51118 16.0305 7.98882 15.7084 7.66664C15.3862 7.34445 14.8638 7.34445 14.5416 7.66664Z" fill="#36B077"/>
</svg>
