<svg width="192" height="56" viewBox="0 0 192 56" fill="none" xmlns="http://www.w3.org/2000/svg">
<path d="M1.036 16.952C0.905333 16.7467 0.784 16.4667 0.672 16.112C0.56 15.7573 0.504 15.384 0.504 14.992C0.504 14.264 0.662667 13.7413 0.98 13.424C1.316 13.1067 1.74533 12.948 2.268 12.948H14.476C14.6067 13.1533 14.728 13.4333 14.84 13.788C14.952 14.1427 15.008 14.516 15.008 14.908C15.008 15.636 14.84 16.1587 14.504 16.476C14.1867 16.7933 13.7667 16.952 13.244 16.952H10.136V29.888C9.93067 29.944 9.604 30 9.156 30.056C8.72667 30.112 8.29733 30.14 7.868 30.14C7.43867 30.14 7.056 30.1027 6.72 30.028C6.40267 29.972 6.132 29.86 5.908 29.692C5.684 29.524 5.516 29.2907 5.404 28.992C5.292 28.6933 5.236 28.3013 5.236 27.816V16.952H1.036ZM16.3037 16.588C16.4903 16.532 16.7797 16.476 17.1717 16.42C17.5823 16.364 18.0023 16.336 18.4317 16.336C18.8423 16.336 19.2063 16.364 19.5237 16.42C19.8597 16.476 20.1397 16.588 20.3637 16.756C20.5877 16.924 20.7557 17.1573 20.8677 17.456C20.9983 17.736 21.0637 18.1093 21.0637 18.576V24.596C21.0637 25.3613 21.2503 25.912 21.6237 26.248C21.997 26.5653 22.5383 26.724 23.2477 26.724C23.677 26.724 24.0223 26.6867 24.2837 26.612C24.5637 26.5373 24.7783 26.4627 24.9277 26.388V16.588C25.1143 16.532 25.4037 16.476 25.7957 16.42C26.2063 16.364 26.6263 16.336 27.0557 16.336C27.4663 16.336 27.8303 16.364 28.1477 16.42C28.4837 16.476 28.7637 16.588 28.9877 16.756C29.2117 16.924 29.3797 17.1573 29.4917 17.456C29.6223 17.736 29.6877 18.1093 29.6877 18.576V27.088C29.6877 28.0213 29.2957 28.7213 28.5117 29.188C27.8583 29.5987 27.0743 29.9067 26.1597 30.112C25.2637 30.336 24.2837 30.448 23.2197 30.448C22.2117 30.448 21.2783 30.336 20.4197 30.112C19.5797 29.888 18.8517 29.5427 18.2357 29.076C17.6197 28.6093 17.1437 28.012 16.8077 27.284C16.4717 26.5373 16.3037 25.6413 16.3037 24.596V16.588ZM37.3605 25.324C37.3605 25.8093 37.5099 26.1547 37.8085 26.36C38.1259 26.5653 38.5645 26.668 39.1245 26.668C39.4045 26.668 39.6939 26.6493 39.9925 26.612C40.2912 26.556 40.5525 26.4907 40.7765 26.416C40.9445 26.6213 41.0845 26.8547 41.1965 27.116C41.3272 27.3587 41.3925 27.6573 41.3925 28.012C41.3925 28.7213 41.1219 29.3 40.5805 29.748C40.0579 30.196 39.1245 30.42 37.7805 30.42C36.1379 30.42 34.8685 30.0467 33.9725 29.3C33.0952 28.5533 32.6565 27.34 32.6565 25.66V13.676C32.8619 13.62 33.1512 13.564 33.5245 13.508C33.9165 13.4333 34.3272 13.396 34.7565 13.396C35.5779 13.396 36.2125 13.5453 36.6605 13.844C37.1272 14.124 37.3605 14.7307 37.3605 15.664V17.456H41.0285C41.1405 17.6613 41.2432 17.9227 41.3365 18.24C41.4485 18.5387 41.5045 18.8747 41.5045 19.248C41.5045 19.9013 41.3552 20.3773 41.0565 20.676C40.7765 20.956 40.3939 21.096 39.9085 21.096H37.3605V25.324ZM57.7314 23.196C57.7314 24.3533 57.5541 25.3893 57.1994 26.304C56.8447 27.2 56.3407 27.956 55.6874 28.572C55.0527 29.188 54.2874 29.6547 53.3914 29.972C52.4954 30.2893 51.4967 30.448 50.3954 30.448C49.2941 30.448 48.2954 30.28 47.3994 29.944C46.5034 29.608 45.7287 29.132 45.0754 28.516C44.4407 27.8813 43.9461 27.116 43.5914 26.22C43.2367 25.324 43.0594 24.316 43.0594 23.196C43.0594 22.0947 43.2367 21.096 43.5914 20.2C43.9461 19.304 44.4407 18.548 45.0754 17.932C45.7287 17.2973 46.5034 16.812 47.3994 16.476C48.2954 16.14 49.2941 15.972 50.3954 15.972C51.4967 15.972 52.4954 16.1493 53.3914 16.504C54.2874 16.84 55.0527 17.3253 55.6874 17.96C56.3407 18.576 56.8447 19.332 57.1994 20.228C57.5541 21.124 57.7314 22.1133 57.7314 23.196ZM47.9314 23.196C47.9314 24.3347 48.1461 25.212 48.5754 25.828C49.0234 26.4253 49.6394 26.724 50.4234 26.724C51.2074 26.724 51.8047 26.416 52.2154 25.8C52.6447 25.184 52.8594 24.316 52.8594 23.196C52.8594 22.076 52.6447 21.2173 52.2154 20.62C51.7861 20.004 51.1794 19.696 50.3954 19.696C49.6114 19.696 49.0047 20.004 48.5754 20.62C48.1461 21.2173 47.9314 22.076 47.9314 23.196ZM64.8137 29.972C64.627 30.028 64.3283 30.084 63.9177 30.14C63.5257 30.196 63.115 30.224 62.6857 30.224C62.275 30.224 61.9017 30.196 61.5657 30.14C61.2483 30.084 60.9777 29.972 60.7537 29.804C60.5297 29.636 60.3523 29.412 60.2217 29.132C60.1097 28.8333 60.0537 28.4507 60.0537 27.984V19.584C60.0537 19.1547 60.1283 18.7907 60.2777 18.492C60.4457 18.1747 60.679 17.8947 60.9777 17.652C61.2763 17.4093 61.6403 17.1947 62.0697 17.008C62.5177 16.8027 62.9937 16.6253 63.4977 16.476C64.0017 16.3267 64.5243 16.2147 65.0657 16.14C65.607 16.0467 66.1483 16 66.6897 16C67.5857 16 68.295 16.1773 68.8177 16.532C69.3403 16.868 69.6017 17.428 69.6017 18.212C69.6017 18.4733 69.5643 18.7347 69.4897 18.996C69.415 19.2387 69.3217 19.4627 69.2097 19.668C68.8177 19.668 68.4163 19.6867 68.0057 19.724C67.595 19.7613 67.1937 19.8173 66.8017 19.892C66.4097 19.9667 66.0363 20.0507 65.6817 20.144C65.3457 20.2187 65.0563 20.312 64.8137 20.424V29.972ZM71.4534 12.612C71.4534 11.9027 71.6867 11.3053 72.1534 10.82C72.6387 10.3347 73.2734 10.092 74.0574 10.092C74.8414 10.092 75.4667 10.3347 75.9334 10.82C76.4187 11.3053 76.6614 11.9027 76.6614 12.612C76.6614 13.3213 76.4187 13.9187 75.9334 14.404C75.4667 14.8893 74.8414 15.132 74.0574 15.132C73.2734 15.132 72.6387 14.8893 72.1534 14.404C71.6867 13.9187 71.4534 13.3213 71.4534 12.612ZM76.4374 29.972C76.232 30.0093 75.924 30.056 75.5134 30.112C75.1214 30.1867 74.72 30.224 74.3094 30.224C73.8987 30.224 73.5254 30.196 73.1894 30.14C72.872 30.084 72.6014 29.972 72.3774 29.804C72.1534 29.636 71.976 29.412 71.8454 29.132C71.7334 28.8333 71.6774 28.4507 71.6774 27.984V16.588C71.8827 16.5507 72.1814 16.504 72.5734 16.448C72.984 16.3733 73.3947 16.336 73.8054 16.336C74.216 16.336 74.58 16.364 74.8974 16.42C75.2334 16.476 75.5134 16.588 75.7374 16.756C75.9614 16.924 76.1294 17.1573 76.2414 17.456C76.372 17.736 76.4374 18.1093 76.4374 18.576V29.972ZM85.2917 26.976C85.6091 26.976 85.9544 26.948 86.3277 26.892C86.7197 26.8173 87.0091 26.724 87.1957 26.612V24.372L85.1797 24.54C84.6571 24.5773 84.2277 24.6893 83.8917 24.876C83.5557 25.0627 83.3877 25.3427 83.3877 25.716C83.3877 26.0893 83.5277 26.3973 83.8077 26.64C84.1064 26.864 84.6011 26.976 85.2917 26.976ZM85.0677 15.972C86.0757 15.972 86.9904 16.0747 87.8117 16.28C88.6517 16.4853 89.3611 16.8027 89.9397 17.232C90.5371 17.6427 90.9944 18.1747 91.3117 18.828C91.6291 19.4627 91.7877 20.2187 91.7877 21.096V27.368C91.7877 27.8533 91.6477 28.2547 91.3677 28.572C91.1064 28.8707 90.7891 29.132 90.4157 29.356C89.2024 30.084 87.4944 30.448 85.2917 30.448C84.3024 30.448 83.4064 30.3547 82.6037 30.168C81.8197 29.9813 81.1384 29.7013 80.5597 29.328C79.9997 28.9547 79.5611 28.4787 79.2437 27.9C78.9451 27.3213 78.7957 26.6493 78.7957 25.884C78.7957 24.596 79.1784 23.6067 79.9437 22.916C80.7091 22.2253 81.8944 21.796 83.4997 21.628L87.1677 21.236V21.04C87.1677 20.4987 86.9251 20.116 86.4397 19.892C85.9731 19.6493 85.2917 19.528 84.3957 19.528C83.6864 19.528 82.9957 19.6027 82.3237 19.752C81.6517 19.9013 81.0451 20.088 80.5037 20.312C80.2611 20.144 80.0557 19.892 79.8877 19.556C79.7197 19.2013 79.6357 18.8373 79.6357 18.464C79.6357 17.9787 79.7477 17.596 79.9717 17.316C80.2144 17.0173 80.5784 16.7653 81.0637 16.56C81.6051 16.3547 82.2397 16.2053 82.9677 16.112C83.7144 16.0187 84.4144 15.972 85.0677 15.972ZM99.5422 29.972C99.3369 30.0093 99.0289 30.056 98.6182 30.112C98.2262 30.1867 97.8249 30.224 97.4142 30.224C97.0035 30.224 96.6302 30.196 96.2942 30.14C95.9769 30.084 95.7062 29.972 95.4822 29.804C95.2582 29.636 95.0809 29.412 94.9502 29.132C94.8382 28.8333 94.7822 28.4507 94.7822 27.984V11.744C94.9875 11.7067 95.2862 11.66 95.6782 11.604C96.0889 11.5293 96.4995 11.492 96.9102 11.492C97.3209 11.492 97.6849 11.52 98.0022 11.576C98.3382 11.632 98.6182 11.744 98.8422 11.912C99.0662 12.08 99.2342 12.3133 99.3462 12.612C99.4769 12.892 99.5422 13.2653 99.5422 13.732V29.972ZM114.026 25.94C114.026 27.3587 113.494 28.4693 112.43 29.272C111.366 30.0747 109.798 30.476 107.726 30.476C106.942 30.476 106.214 30.42 105.542 30.308C104.87 30.196 104.291 30.028 103.806 29.804C103.339 29.5613 102.966 29.2627 102.686 28.908C102.425 28.5533 102.294 28.1333 102.294 27.648C102.294 27.2 102.387 26.8267 102.574 26.528C102.761 26.2107 102.985 25.9493 103.246 25.744C103.787 26.0427 104.403 26.3133 105.094 26.556C105.803 26.78 106.615 26.892 107.53 26.892C108.109 26.892 108.547 26.808 108.846 26.64C109.163 26.472 109.322 26.248 109.322 25.968C109.322 25.7067 109.21 25.5013 108.986 25.352C108.762 25.2027 108.389 25.0813 107.866 24.988L107.026 24.82C105.402 24.5027 104.189 24.008 103.386 23.336C102.602 22.6453 102.21 21.6653 102.21 20.396C102.21 19.7053 102.359 19.08 102.658 18.52C102.957 17.96 103.377 17.4933 103.918 17.12C104.459 16.7467 105.103 16.4573 105.85 16.252C106.615 16.0467 107.455 15.944 108.37 15.944C109.061 15.944 109.705 16 110.302 16.112C110.918 16.2053 111.45 16.3547 111.898 16.56C112.346 16.7653 112.701 17.036 112.962 17.372C113.223 17.6893 113.354 18.072 113.354 18.52C113.354 18.9493 113.27 19.3227 113.102 19.64C112.953 19.9387 112.757 20.1907 112.514 20.396C112.365 20.3027 112.141 20.2093 111.842 20.116C111.543 20.004 111.217 19.9107 110.862 19.836C110.507 19.7427 110.143 19.668 109.77 19.612C109.415 19.556 109.089 19.528 108.79 19.528C108.174 19.528 107.698 19.6027 107.362 19.752C107.026 19.8827 106.858 20.0973 106.858 20.396C106.858 20.6013 106.951 20.7693 107.138 20.9C107.325 21.0307 107.679 21.152 108.202 21.264L109.07 21.46C110.862 21.8707 112.131 22.44 112.878 23.168C113.643 23.8773 114.026 24.8013 114.026 25.94ZM134.225 13.032C134.355 13.2373 134.467 13.5173 134.561 13.872C134.673 14.208 134.729 14.5627 134.729 14.936C134.729 15.664 134.57 16.1867 134.253 16.504C133.954 16.8027 133.543 16.952 133.021 16.952H127.141V20.116H133.273C133.422 20.3213 133.543 20.592 133.637 20.928C133.749 21.264 133.805 21.6187 133.805 21.992C133.805 22.7013 133.646 23.2147 133.329 23.532C133.03 23.8307 132.619 23.98 132.097 23.98H127.197V29.888C126.991 29.944 126.665 30 126.217 30.056C125.787 30.112 125.358 30.14 124.929 30.14C124.499 30.14 124.117 30.1027 123.781 30.028C123.463 29.972 123.193 29.86 122.969 29.692C122.745 29.524 122.577 29.2907 122.465 28.992C122.353 28.6933 122.297 28.3013 122.297 27.816V15.636C122.297 14.8333 122.53 14.1987 122.997 13.732C123.463 13.2653 124.098 13.032 124.901 13.032H134.225ZM141.021 29.972C140.834 30.028 140.535 30.084 140.125 30.14C139.733 30.196 139.322 30.224 138.893 30.224C138.482 30.224 138.109 30.196 137.773 30.14C137.455 30.084 137.185 29.972 136.961 29.804C136.737 29.636 136.559 29.412 136.429 29.132C136.317 28.8333 136.261 28.4507 136.261 27.984V19.584C136.261 19.1547 136.335 18.7907 136.485 18.492C136.653 18.1747 136.886 17.8947 137.185 17.652C137.483 17.4093 137.847 17.1947 138.277 17.008C138.725 16.8027 139.201 16.6253 139.705 16.476C140.209 16.3267 140.731 16.2147 141.273 16.14C141.814 16.0467 142.355 16 142.897 16C143.793 16 144.502 16.1773 145.025 16.532C145.547 16.868 145.809 17.428 145.809 18.212C145.809 18.4733 145.771 18.7347 145.697 18.996C145.622 19.2387 145.529 19.4627 145.417 19.668C145.025 19.668 144.623 19.6867 144.213 19.724C143.802 19.7613 143.401 19.8173 143.009 19.892C142.617 19.9667 142.243 20.0507 141.889 20.144C141.553 20.2187 141.263 20.312 141.021 20.424V29.972ZM154.449 30.448C153.348 30.448 152.321 30.2987 151.369 30C150.436 29.6827 149.614 29.216 148.905 28.6C148.214 27.984 147.664 27.2093 147.253 26.276C146.861 25.3427 146.665 24.2507 146.665 23C146.665 21.768 146.861 20.7133 147.253 19.836C147.664 18.94 148.196 18.212 148.849 17.652C149.502 17.0733 150.249 16.6533 151.089 16.392C151.929 16.112 152.788 15.972 153.665 15.972C154.654 15.972 155.55 16.1213 156.353 16.42C157.174 16.7187 157.874 17.1293 158.453 17.652C159.05 18.1747 159.508 18.8 159.825 19.528C160.161 20.256 160.329 21.0493 160.329 21.908C160.329 22.5427 160.152 23.028 159.797 23.364C159.442 23.7 158.948 23.9147 158.313 24.008L151.397 25.044C151.602 25.66 152.022 26.1267 152.657 26.444C153.292 26.7427 154.02 26.892 154.841 26.892C155.606 26.892 156.325 26.7987 156.997 26.612C157.688 26.4067 158.248 26.1733 158.677 25.912C158.976 26.0987 159.228 26.36 159.433 26.696C159.638 27.032 159.741 27.3867 159.741 27.76C159.741 28.6 159.349 29.2253 158.565 29.636C157.968 29.9533 157.296 30.168 156.549 30.28C155.802 30.392 155.102 30.448 154.449 30.448ZM153.665 19.444C153.217 19.444 152.825 19.5187 152.489 19.668C152.172 19.8173 151.91 20.0133 151.705 20.256C151.5 20.48 151.341 20.7413 151.229 21.04C151.136 21.32 151.08 21.6093 151.061 21.908L155.849 21.124C155.793 20.7507 155.588 20.3773 155.233 20.004C154.878 19.6307 154.356 19.444 153.665 19.444ZM168.444 26.976C168.761 26.976 169.107 26.948 169.48 26.892C169.872 26.8173 170.161 26.724 170.348 26.612V24.372L168.332 24.54C167.809 24.5773 167.38 24.6893 167.044 24.876C166.708 25.0627 166.54 25.3427 166.54 25.716C166.54 26.0893 166.68 26.3973 166.96 26.64C167.259 26.864 167.753 26.976 168.444 26.976ZM168.22 15.972C169.228 15.972 170.143 16.0747 170.964 16.28C171.804 16.4853 172.513 16.8027 173.092 17.232C173.689 17.6427 174.147 18.1747 174.464 18.828C174.781 19.4627 174.94 20.2187 174.94 21.096V27.368C174.94 27.8533 174.8 28.2547 174.52 28.572C174.259 28.8707 173.941 29.132 173.568 29.356C172.355 30.084 170.647 30.448 168.444 30.448C167.455 30.448 166.559 30.3547 165.756 30.168C164.972 29.9813 164.291 29.7013 163.712 29.328C163.152 28.9547 162.713 28.4787 162.396 27.9C162.097 27.3213 161.948 26.6493 161.948 25.884C161.948 24.596 162.331 23.6067 163.096 22.916C163.861 22.2253 165.047 21.796 166.652 21.628L170.32 21.236V21.04C170.32 20.4987 170.077 20.116 169.592 19.892C169.125 19.6493 168.444 19.528 167.548 19.528C166.839 19.528 166.148 19.6027 165.476 19.752C164.804 19.9013 164.197 20.088 163.656 20.312C163.413 20.144 163.208 19.892 163.04 19.556C162.872 19.2013 162.788 18.8373 162.788 18.464C162.788 17.9787 162.9 17.596 163.124 17.316C163.367 17.0173 163.731 16.7653 164.216 16.56C164.757 16.3547 165.392 16.2053 166.12 16.112C166.867 16.0187 167.567 15.972 168.22 15.972ZM191.151 27.536C191.057 28.4133 190.796 29.0853 190.367 29.552C189.956 30.0187 189.349 30.252 188.547 30.252C187.949 30.252 187.417 30.112 186.951 29.832C186.484 29.5333 185.98 29.0387 185.439 28.348L182.667 24.876V29.972C182.461 30.0093 182.153 30.056 181.743 30.112C181.351 30.1867 180.949 30.224 180.539 30.224C180.128 30.224 179.755 30.196 179.419 30.14C179.101 30.084 178.831 29.972 178.607 29.804C178.383 29.636 178.205 29.412 178.075 29.132C177.963 28.8333 177.907 28.4507 177.907 27.984V11.772C178.112 11.716 178.411 11.66 178.803 11.604C179.213 11.5293 179.624 11.492 180.035 11.492C180.445 11.492 180.809 11.52 181.127 11.576C181.463 11.632 181.743 11.744 181.967 11.912C182.191 12.08 182.359 12.3133 182.471 12.612C182.601 12.892 182.667 13.2653 182.667 13.732V21.124L187.483 16.196C188.453 16.196 189.228 16.4107 189.807 16.84C190.404 17.2693 190.703 17.8107 190.703 18.464C190.703 18.744 190.656 19.0053 190.563 19.248C190.469 19.472 190.32 19.7053 190.115 19.948C189.928 20.1907 189.676 20.452 189.359 20.732C189.06 20.9933 188.705 21.3013 188.295 21.656L186.671 23.056L191.151 27.536Z" fill="#363049"/>
<path d="M152.396 44.542C152.396 44.038 152.552 43.618 152.864 43.282C153.176 42.946 153.602 42.778 154.142 42.778C154.682 42.778 155.108 42.946 155.42 43.282C155.732 43.618 155.888 44.038 155.888 44.542C155.888 45.046 155.732 45.466 155.42 45.802C155.108 46.138 154.682 46.306 154.142 46.306C153.602 46.306 153.176 46.138 152.864 45.802C152.552 45.466 152.396 45.046 152.396 44.542ZM161.981 39.394C161.681 39.394 161.393 39.442 161.117 39.538C160.853 39.634 160.619 39.778 160.415 39.97C160.223 40.15 160.067 40.378 159.947 40.654C159.827 40.93 159.767 41.254 159.767 41.626C159.767 42.37 159.977 42.928 160.397 43.3C160.829 43.672 161.351 43.858 161.963 43.858C162.323 43.858 162.635 43.816 162.899 43.732C163.163 43.648 163.397 43.558 163.601 43.462C163.841 43.63 164.021 43.816 164.141 44.02C164.261 44.212 164.321 44.446 164.321 44.722C164.321 45.214 164.087 45.598 163.619 45.874C163.151 46.138 162.503 46.27 161.675 46.27C160.919 46.27 160.235 46.162 159.623 45.946C159.011 45.718 158.483 45.406 158.039 45.01C157.607 44.602 157.271 44.116 157.031 43.552C156.791 42.988 156.671 42.364 156.671 41.68C156.671 40.888 156.797 40.198 157.049 39.61C157.313 39.01 157.667 38.518 158.111 38.134C158.555 37.75 159.065 37.462 159.641 37.27C160.229 37.078 160.847 36.982 161.495 36.982C162.359 36.982 163.025 37.138 163.493 37.45C163.961 37.762 164.195 38.164 164.195 38.656C164.195 38.884 164.141 39.1 164.033 39.304C163.925 39.496 163.799 39.664 163.655 39.808C163.451 39.712 163.205 39.622 162.917 39.538C162.629 39.442 162.317 39.394 161.981 39.394ZM174.646 41.626C174.646 42.37 174.532 43.036 174.304 43.624C174.076 44.2 173.752 44.686 173.332 45.082C172.924 45.478 172.432 45.778 171.856 45.982C171.28 46.186 170.638 46.288 169.93 46.288C169.222 46.288 168.58 46.18 168.004 45.964C167.428 45.748 166.93 45.442 166.51 45.046C166.102 44.638 165.784 44.146 165.556 43.57C165.328 42.994 165.214 42.346 165.214 41.626C165.214 40.918 165.328 40.276 165.556 39.7C165.784 39.124 166.102 38.638 166.51 38.242C166.93 37.834 167.428 37.522 168.004 37.306C168.58 37.09 169.222 36.982 169.93 36.982C170.638 36.982 171.28 37.096 171.856 37.324C172.432 37.54 172.924 37.852 173.332 38.26C173.752 38.656 174.076 39.142 174.304 39.718C174.532 40.294 174.646 40.93 174.646 41.626ZM168.346 41.626C168.346 42.358 168.484 42.922 168.76 43.318C169.048 43.702 169.444 43.894 169.948 43.894C170.452 43.894 170.836 43.696 171.1 43.3C171.376 42.904 171.514 42.346 171.514 41.626C171.514 40.906 171.376 40.354 171.1 39.97C170.824 39.574 170.434 39.376 169.93 39.376C169.426 39.376 169.036 39.574 168.76 39.97C168.484 40.354 168.346 40.906 168.346 41.626ZM180.333 36.982C180.825 36.982 181.305 37.054 181.773 37.198C182.253 37.33 182.667 37.534 183.015 37.81C183.375 37.57 183.777 37.372 184.221 37.216C184.677 37.06 185.223 36.982 185.859 36.982C186.315 36.982 186.759 37.042 187.191 37.162C187.635 37.282 188.025 37.474 188.361 37.738C188.709 37.99 188.985 38.332 189.189 38.764C189.393 39.184 189.495 39.7 189.495 40.312V45.982C189.375 46.018 189.183 46.054 188.919 46.09C188.667 46.126 188.403 46.144 188.127 46.144C187.863 46.144 187.623 46.126 187.407 46.09C187.203 46.054 187.029 45.982 186.885 45.874C186.741 45.766 186.627 45.622 186.543 45.442C186.471 45.25 186.435 45.004 186.435 44.704V40.402C186.435 40.042 186.333 39.784 186.129 39.628C185.925 39.46 185.649 39.376 185.301 39.376C185.133 39.376 184.953 39.418 184.761 39.502C184.569 39.574 184.425 39.652 184.329 39.736C184.341 39.784 184.347 39.832 184.347 39.88C184.347 39.916 184.347 39.952 184.347 39.988V45.982C184.215 46.018 184.017 46.054 183.753 46.09C183.501 46.126 183.243 46.144 182.979 46.144C182.715 46.144 182.475 46.126 182.259 46.09C182.055 46.054 181.881 45.982 181.737 45.874C181.593 45.766 181.479 45.622 181.395 45.442C181.323 45.25 181.287 45.004 181.287 44.704V40.402C181.287 40.042 181.173 39.784 180.945 39.628C180.729 39.46 180.465 39.376 180.153 39.376C179.937 39.376 179.751 39.412 179.595 39.484C179.439 39.544 179.307 39.604 179.199 39.664V45.982C179.079 46.018 178.887 46.054 178.623 46.09C178.371 46.126 178.107 46.144 177.831 46.144C177.567 46.144 177.327 46.126 177.111 46.09C176.907 46.054 176.733 45.982 176.589 45.874C176.445 45.766 176.331 45.622 176.247 45.442C176.175 45.25 176.139 45.004 176.139 44.704V39.268C176.139 38.944 176.205 38.686 176.337 38.494C176.481 38.302 176.673 38.122 176.913 37.954C177.321 37.666 177.825 37.432 178.425 37.252C179.037 37.072 179.673 36.982 180.333 36.982Z" fill="#6B46FF"/>
</svg>
