<svg xmlns="http://www.w3.org/2000/svg" id="iz-newshub-bell-svg" width="20" height="20" viewBox="0 0 20 20" fill="none">
<g clip-path="url(#clip0_2980_2781)">
<path d="M9.99999 20.0001C11.1416 20.0001 12.08 19.1302 12.1887 18.0171H7.81128C7.92003 19.1302 8.85835 20.0001 9.99999 20.0001Z" fill="white"></path>
<path d="M17.6529 13.5882C16.982 13.5882 16.4382 13.0444 16.4382 12.3735V8.35574C16.4382 5.50652 14.5872 3.08996 12.0222 2.24203C12.0292 2.17324 12.0329 2.10352 12.0329 2.03289C12.0329 0.911953 11.1209 0 9.99999 0C8.87905 0 7.96709 0.911953 7.96709 2.03289C7.96709 2.10352 7.97077 2.17324 7.9778 2.24203C5.41283 3.08996 3.56186 5.50652 3.56186 8.35574L3.56186 12.3735C3.56186 13.0444 3.01799 13.5882 2.34713 13.5882C1.44775 13.5882 0.718689 14.3173 0.718689 15.2167C0.718689 16.1161 1.44779 16.8452 2.34713 16.8452L17.6529 16.8452C18.5523 16.8452 19.2813 16.1161 19.2813 15.2167C19.2813 14.3173 18.5522 13.5882 17.6529 13.5882ZM9.99999 1.17187C10.4552 1.17187 10.8288 1.52703 10.8588 1.97477C10.5778 1.9373 10.2912 1.91762 9.99999 1.91762C9.70874 1.91762 9.42213 1.9373 9.14116 1.97477C9.17116 1.52703 9.54475 1.17187 9.99999 1.17187V1.17187Z" fill="white"></path>
</g>
<defs>
<clipPath id="clip0_2980_2781">
<rect width="20" height="20" fill="white"></rect>
</clipPath>
</defs>
</svg>