<?xml version="1.0" encoding="UTF-8"?>
<svg width="20px" height="20px" viewBox="0 0 20 20" version="1.1" xmlns="http://www.w3.org/2000/svg" xmlns:xlink="http://www.w3.org/1999/xlink">
    <!-- Generator: Sketch 50.2 (55047) - http://www.bohemiancoding.com/sketch -->
    <title>round-offline_bolt-24px</title>
    <desc>Created with Sketch.</desc>
    <defs></defs>
    <g id="Web" stroke="none" stroke-width="1" fill="none" fill-rule="evenodd">
        <g id="04.-Priority-Card" transform="translate(-16.000000, -402.000000)" fill="#535766" fill-rule="nonzero">
            <g id="sort_hc" transform="translate(0.000000, 340.000000)">
                <g id="List" transform="translate(15.000000, 62.000000)">
                    <g id="Group-2">
                        <g id="round-offline_bolt-24px" transform="translate(1.000000, 0.000000)">
                            <path d="M10,1.82111271e-14 C4.47895792,1.82111271e-14 1.77600989e-14,4.47895792 1.77600989e-14,10 C1.77600989e-14,15.5210421 4.47895792,20 10,20 C15.5210421,20 20,15.5210421 20,10 C20,4.47895792 15.5210421,1.82111271e-14 10,1.82111271e-14 Z M9.27427357,16.4902199 L9.27427357,12.2912236 L6.51784999,12.2912236 C6.13443769,12.2912236 5.87537533,11.8855235 6.06190023,11.5508209 L9.87529826,4.27864615 C10.1136356,3.8019485 10.8493728,3.97437105 10.8493728,4.51192372 L10.8493728,8.76163254 L13.4814464,8.76163254 C13.8648587,8.76163254 14.1135586,9.15719017 13.9477587,9.49189277 L10.2587106,16.713355 C10.0100107,17.2001952 9.27427357,17.0277726 9.27427357,16.4902199 Z" id="Shape"></path>
                        </g>
                    </g>
                </g>
            </g>
        </g>
    </g>
</svg>