<svg width="82" height="80" viewBox="0 0 82 80" fill="none" xmlns="http://www.w3.org/2000/svg">
<path d="M26.6815 10.5389C26.7167 21.123 26.7367 31.707 26.6765 42.291C26.6715 43.3047 26.6715 44.3235 26.6564 45.3372H28.162C28.1419 44.3687 26.6364 44.3637 26.6564 45.3372C26.6765 46.3058 28.152 46.3108 28.162 45.3372C28.2574 37.8045 28.2574 30.2667 28.2323 22.7339C28.2172 18.6689 28.2021 14.6039 28.1871 10.5389C28.1871 9.57036 26.6765 9.57036 26.6815 10.5389Z" fill="#231F20"/>
<path d="M79.7976 10.2967C79.4564 20.1581 79.9984 30.0195 80.2041 39.8808C80.2644 42.7062 80.2894 45.5266 80.2644 48.3521C80.2543 49.3206 81.7599 49.3206 81.7699 48.3521C81.8552 38.4857 81.258 28.6344 81.1928 18.768C81.1727 15.9426 81.2028 13.1171 81.2982 10.2967C81.3333 9.32817 79.8277 9.32817 79.7926 10.2967H79.7976Z" fill="#231F20"/>
<path d="M30.9808 7.15552C32.4964 5.90089 34.3582 5.13808 36.185 4.4656C38.0117 3.79312 40.0643 3.19592 42.0516 2.75429C45.9861 1.88107 50.0109 1.51974 54.0358 1.50468C58.0606 1.48963 62.0001 1.75561 65.9096 2.38292C69.4978 2.95503 73.0961 3.93866 76.1172 6.02636C77.5374 7.00998 78.9627 8.32985 79.4896 10.0261C80.0166 11.7224 79.3893 13.1677 78.22 14.3169C77.0506 15.4662 75.3996 16.2842 73.8237 16.9015C71.997 17.6191 70.1 18.1561 68.1779 18.5676C64.1983 19.4157 60.0981 19.757 56.0432 19.9678C51.9882 20.1785 47.6974 20.1535 43.5672 19.6115C41.5497 19.3455 39.5474 18.949 37.5851 18.407C35.7283 17.8951 33.8614 17.2879 32.1902 16.3043C30.7549 15.4611 29.4351 14.2818 28.6271 12.8064C28.2808 12.174 28.05 11.4664 28.2507 10.7538C28.4514 10.0412 28.9533 9.31348 29.4401 8.72129C29.9269 8.12911 30.4237 7.62726 30.9757 7.1505C31.7135 6.51817 30.6445 5.45926 29.9118 6.08658C28.6572 7.16556 27.4327 8.55066 26.8706 10.1265C26.2634 11.8177 27.1466 13.514 28.1855 14.8238C30.7198 18.0105 34.84 19.3304 38.6591 20.2337C43.0302 21.2676 47.5469 21.6239 52.0334 21.5887C56.4698 21.5586 60.9412 21.2324 65.3324 20.5901C69.3974 19.9929 73.7585 19.0444 77.3116 16.8864C78.772 15.9981 80.132 14.7987 80.7945 13.1878C81.5171 11.4363 81.1608 9.5092 80.1571 7.94342C78.0543 4.66132 74.0345 2.81953 70.4112 1.80077C66.4215 0.681647 62.1908 0.300241 58.0606 0.0894636C53.7096 -0.131351 49.3385 0.00916752 45.0276 0.661573C40.7167 1.31398 36.3907 2.42307 32.5214 4.37527C31.583 4.84701 30.7148 5.4141 29.9068 6.08156C29.159 6.69884 30.228 7.75774 30.9707 7.14548L30.9808 7.15552Z" fill="#231F20"/>
<path d="M27.3289 31.4495C29.9185 34.0341 33.5418 35.4142 36.9645 36.5132C40.7032 37.7126 44.5826 38.4253 48.487 38.8267C55.8792 39.5896 63.5575 39.705 70.6487 37.2007C74.4828 35.8508 78.0409 33.8735 81.2227 31.3442C81.8851 30.8172 80.9918 29.6429 80.3093 30.1598C80.0132 30.3856 79.7171 30.6115 79.421 30.8373C78.6632 31.4194 79.411 32.7242 80.1788 32.1371C80.4749 31.9112 80.771 31.6854 81.0671 31.4596L80.1537 30.2752C74.7839 34.546 68.0842 37.1405 61.244 37.6524C57.5554 37.9284 53.7765 37.7628 50.0979 37.4617C46.4193 37.1606 42.7207 36.5785 39.1425 35.5848C35.5643 34.5911 31.2032 33.1809 28.3878 30.3756C27.7003 29.688 26.6364 30.757 27.3239 31.4395L27.3289 31.4495Z" fill="#231F20"/>
<path d="M55.5021 57.2915C59.4065 57.417 63.2958 57.2263 67.1149 56.3581C68.8915 55.9516 70.6429 55.4347 72.3743 54.8676C74.1057 54.3005 75.8521 53.6381 77.438 52.7096C79.1794 51.6859 80.705 50.3108 81.6585 48.5092C82.1152 47.656 80.8154 46.8932 80.3587 47.7514C78.7127 50.8478 75.3151 52.3082 72.1435 53.3621C68.9718 54.4159 65.6545 55.3092 62.2871 55.6354C60.0288 55.8563 57.7604 55.8663 55.4921 55.796C54.5235 55.7659 54.5235 57.2715 55.4921 57.3016L55.5021 57.2915Z" fill="#231F20"/>
<path d="M8.42094 61.6119C6.96558 61.6018 5.35965 61.632 4.03477 60.9294C3.0662 60.4125 2.53925 59.5392 2.28833 58.4954C2.0374 57.4515 2.04242 56.3625 2.03238 55.2986C2.01733 53.7529 1.92198 52.1771 2.03238 50.6314C2.35357 46.2803 7.26669 45.7434 10.7144 45.7735C12.6515 45.7885 14.5787 45.9792 16.5058 46.1649C18.9397 46.3958 21.3787 46.446 23.8227 46.4209C27.135 46.3908 30.4472 46.2251 33.7594 46.1047C37.0716 45.9843 40.3437 46.1398 43.6258 45.9642C45.0962 45.8889 46.5516 45.658 48.017 45.5577C49.4071 45.4623 50.9076 45.4673 52.1873 46.0947C53.3566 46.6668 54.2499 47.6755 54.4507 48.9853C54.6063 49.9991 54.5209 51.073 54.5862 52.1018C54.7066 54.039 54.9023 56.0363 54.5862 57.9634C54.4557 58.7664 54.2449 59.6296 53.7431 60.287C53.0957 61.1401 52.0067 61.2857 51.008 61.386C49.5225 61.5366 48.0019 61.4613 46.5164 61.4714C43.134 61.4965 39.7515 61.5215 36.369 61.5466C27.9028 61.6018 19.4315 61.652 10.9653 61.6269C10.1172 61.6269 9.26405 61.6219 8.41593 61.6169C7.44735 61.6119 7.44735 63.1174 8.41593 63.1224C17.1983 63.1777 25.9857 63.1224 34.7681 63.0672C38.5069 63.0422 42.2457 63.0171 45.9845 62.9869C47.6205 62.9719 49.2917 63.0672 50.9227 62.9067C52.107 62.7912 53.3566 62.6407 54.3051 61.8578C55.0178 61.2756 55.4644 60.4476 55.7505 59.5794C56.4129 57.5619 56.2875 55.3036 56.162 53.2109C56.1068 52.3176 56.0315 51.4243 56.0215 50.531C56.0114 49.0305 55.881 47.6303 54.9274 46.4058C53.0054 43.9467 49.7684 43.8564 46.9179 44.1475C45.3421 44.3081 43.7864 44.4737 42.2005 44.5038C40.4842 44.5339 38.7729 44.4837 37.0565 44.5038C33.5536 44.5339 30.0557 44.7648 26.5528 44.8601C23.5568 44.9404 20.5356 45.0056 17.5496 44.7497C15.5673 44.5841 13.595 44.3532 11.6077 44.283C8.03452 44.1625 3.10635 44.3934 1.20433 48.0167C0.501741 49.3818 0.491704 50.8974 0.501741 52.3979C0.511778 53.8984 0.486685 55.3187 0.561963 56.774C0.682407 59.198 1.4402 61.5165 3.86414 62.4951C5.30445 63.0723 6.8903 63.1074 8.42094 63.1174C9.38951 63.1224 9.38951 61.6169 8.42094 61.6119Z" fill="#231F20"/>
<path d="M20.4191 52.706C20.5646 52.8816 20.3588 52.5956 20.4793 52.7863C20.5094 52.8365 20.5445 52.8867 20.5746 52.9419C20.6048 52.9971 20.6349 53.0473 20.66 53.1025C20.66 53.1125 20.7503 53.3283 20.7001 53.1928C20.7403 53.3082 20.7804 53.4236 20.8105 53.5441C20.8256 53.6043 20.8356 53.6645 20.8507 53.7248C20.8607 53.78 20.8607 53.7749 20.8507 53.7047C20.8557 53.7549 20.8607 53.8 20.8657 53.8502C20.8758 53.9707 20.8758 54.0911 20.8657 54.2166C20.8657 54.2316 20.8306 54.4625 20.8607 54.3069C20.8507 54.3521 20.8456 54.4023 20.8306 54.4474C20.8155 54.5177 20.7955 54.5879 20.7754 54.6582C20.7754 54.6431 20.7001 54.864 20.7352 54.7736C20.7704 54.6833 20.675 54.8941 20.68 54.884C20.6399 54.9593 20.5947 55.0346 20.5496 55.1048C20.5345 55.1299 20.4341 55.2504 20.5094 55.16C20.4592 55.2152 20.409 55.2705 20.3588 55.3257C20.3237 55.3608 20.2886 55.3959 20.2484 55.431C20.2484 55.431 20.0577 55.5816 20.1681 55.5013C20.0678 55.5766 19.9574 55.6418 19.852 55.702C19.852 55.702 19.6261 55.8124 19.7616 55.7522C19.6914 55.7823 19.6211 55.8074 19.5509 55.8275C18.9988 56.0032 18.5221 55.958 17.955 55.7673C17.7793 55.7071 17.4983 55.5615 17.3026 55.406C17.3879 55.4712 17.1821 55.2905 17.1972 55.3056C17.157 55.2654 17.1169 55.2253 17.0818 55.1851C16.9362 55.0396 17.1319 55.2855 17.0215 55.1099C16.9814 55.0496 16.9412 54.9894 16.9111 54.9242C16.9061 54.9141 16.8057 54.7034 16.866 54.8439C16.8409 54.7887 16.8258 54.7335 16.8057 54.6732C16.7857 54.613 16.7706 54.5578 16.7606 54.4976C16.7606 54.4825 16.7154 54.2517 16.7355 54.4123C16.7204 54.2918 16.7154 54.1714 16.7154 54.051C16.7154 53.9907 16.7154 53.9305 16.7255 53.8703C16.7255 53.8352 16.7305 53.8 16.7355 53.7599C16.7254 53.8402 16.7254 53.8352 16.7405 53.7448C16.7706 53.6244 16.7957 53.509 16.8359 53.3935C16.8359 53.3835 16.9312 53.1677 16.866 53.3032C16.886 53.258 16.9061 53.2179 16.9312 53.1727C16.9914 53.0623 17.0567 52.9519 17.1269 52.8465C17.147 52.8164 17.2373 52.696 17.147 52.8064C17.1922 52.7461 17.2474 52.6859 17.2976 52.6307C17.3779 52.5454 17.4632 52.4601 17.5485 52.3798C17.5786 52.3497 17.6137 52.3246 17.6438 52.2995C17.5083 52.4099 17.6739 52.2844 17.694 52.2694C17.7793 52.2142 17.8697 52.159 17.96 52.1088C18.0152 52.0787 18.0704 52.0536 18.1256 52.0285C18.0102 52.0837 18.1055 52.0385 18.1708 52.0134C18.2812 51.9733 18.3966 51.9432 18.5171 51.9181C18.5522 51.9081 18.7479 51.888 18.5522 51.9081C18.6124 51.903 18.6676 51.898 18.7278 51.893C18.8483 51.888 18.9637 51.893 19.0841 51.903C19.2799 51.9131 18.9286 51.8629 19.1193 51.9081C19.1795 51.9231 19.2397 51.9331 19.2949 51.9482C19.3501 51.9633 19.4103 51.9833 19.4706 51.9984C19.5308 52.0134 19.6412 52.0686 19.5208 52.0134C19.6362 52.0686 19.7466 52.1239 19.857 52.1941C19.9122 52.2292 19.9674 52.2644 20.0176 52.3045C19.8921 52.2142 20.0778 52.3547 20.1029 52.3798C20.2183 52.4802 20.3237 52.5956 20.4241 52.711C20.6901 53.0171 21.217 52.982 21.488 52.711C21.7941 52.4049 21.754 51.9532 21.488 51.6471C20.6298 50.6584 19.31 50.1817 18.0252 50.4928C16.7405 50.804 15.6615 51.9081 15.3253 53.1727C15.1446 53.8552 15.1547 54.6231 15.4206 55.2805C15.7318 56.0483 16.3039 56.6505 17.0567 57.0069C18.5221 57.7044 20.3739 57.5539 21.5081 56.3093C22.7175 54.9844 22.5971 52.992 21.488 51.6471C21.227 51.3309 20.6901 51.3811 20.4241 51.6471C20.1129 51.9582 20.1631 52.3948 20.4241 52.711L20.4191 52.706Z" fill="#231F20"/>
<path d="M11.7037 55.7704C11.6385 55.8055 11.5782 55.8357 11.513 55.8658C11.3825 55.931 11.4678 55.8858 11.4979 55.8758C11.3775 55.921 11.2571 55.9611 11.1366 55.9912C11.0814 56.0063 11.0262 56.0163 10.971 56.0314C10.971 56.0314 10.7552 56.0665 10.8706 56.0515C10.9861 56.0364 10.7652 56.0615 10.7703 56.0615C10.705 56.0665 10.6348 56.0715 10.5695 56.0715C10.4591 56.0715 10.3487 56.0665 10.2383 56.0565C10.0275 56.0464 10.3838 56.0916 10.1781 56.0464C10.1229 56.0364 10.0727 56.0264 10.0175 56.0113C9.9121 55.9862 9.80671 55.9561 9.70634 55.921C9.65616 55.9009 9.60597 55.8858 9.55579 55.8658C9.70634 55.931 9.5307 55.8507 9.50058 55.8357C9.40523 55.7855 9.3149 55.7303 9.22457 55.6751C9.20449 55.66 9.03888 55.5346 9.16936 55.6399C9.12922 55.6048 9.08907 55.5697 9.04892 55.5346C8.96862 55.4643 8.89836 55.384 8.8281 55.3037C8.74781 55.2134 8.91844 55.4492 8.80803 55.2786C8.7729 55.2234 8.73777 55.1732 8.70264 55.113C8.67755 55.0728 8.54707 54.7968 8.60227 54.9373C8.55711 54.8219 8.51696 54.7015 8.49187 54.576C8.47681 54.5208 8.46677 54.4606 8.45674 54.4004C8.48183 54.5409 8.45674 54.3853 8.45674 54.3452C8.45172 54.1996 8.4467 54.0591 8.4467 53.9136C8.4467 53.7781 8.45674 53.6426 8.47179 53.5121C8.48685 53.3816 8.43164 53.6827 8.47179 53.477C8.48183 53.4268 8.49186 53.3716 8.5019 53.3214C8.51194 53.2712 8.52699 53.221 8.54205 53.1708C8.54205 53.1708 8.60729 52.9801 8.56714 53.0905C8.52699 53.2009 8.60227 53.0253 8.60227 53.0203C8.62736 52.9701 8.66249 52.9199 8.69261 52.8697C8.78294 52.7041 8.59224 52.9701 8.7177 52.8296C8.75283 52.7894 8.78796 52.7493 8.82309 52.7141C8.85822 52.679 8.89836 52.6389 8.94353 52.6037C8.93349 52.6088 9.10412 52.4733 9.02884 52.5335C9.15431 52.4381 9.48051 52.2424 9.70132 52.137C10.1179 51.9413 10.71 51.8359 11.1617 51.9012C11.6134 51.9664 12.0048 52.1571 12.3109 52.6288C12.6572 53.1708 12.8178 53.8383 12.6823 54.4405C12.5468 55.0427 12.2206 55.4844 11.7188 55.7704C10.8807 56.2522 11.6385 57.557 12.4766 57.0702C13.9921 56.192 14.6094 54.2649 13.9871 52.6389C13.676 51.8309 13.144 51.0781 12.336 50.7067C11.5732 50.3555 10.7301 50.3153 9.9121 50.496C8.59725 50.787 7.25229 51.7155 7.01642 53.1156C6.78055 54.5158 7.11178 55.9611 8.30618 56.8594C9.50058 57.7577 11.1818 57.7678 12.4766 57.0702C12.8329 56.8795 12.9483 56.3827 12.7476 56.0414C12.5368 55.6801 12.0751 55.5797 11.7188 55.7704H11.7037Z" fill="#231F20"/>
<path d="M5.57944 61.5748C4.32984 61.7756 3.24584 62.5133 2.48303 63.512C1.59977 64.6763 1.34885 66.0012 1.31873 67.4365C1.2836 69.1327 1.29364 70.834 1.32877 72.5302C1.35386 74.0257 1.19829 75.7521 1.81055 77.1573C3.01499 79.9225 6.17163 80.0229 8.7662 79.9978C12.1186 79.9626 15.4709 79.9927 18.8183 79.9927H39.6501C43.1329 79.9827 46.6158 79.9928 50.0936 79.9827C51.559 79.9777 53.0997 79.8974 54.3794 79.1045C55.6591 78.3116 56.2111 77.1222 56.3266 75.6919C56.4771 73.835 56.2864 71.9079 56.2463 70.0511C56.2111 68.5556 56.2965 67.0149 56.0606 65.5294C55.8448 64.1845 55.1322 62.8897 53.8826 62.2574C52.5677 61.5899 51.017 61.5899 49.5767 61.4644C48.6131 61.3791 48.6181 62.8847 49.5767 62.97C50.7008 63.0653 51.9253 63.0503 52.9842 63.4969C54.0432 63.9436 54.4747 64.9473 54.6153 65.9911C54.7708 67.1253 54.6956 68.3047 54.7206 69.4489C54.7558 70.9494 54.7859 72.4449 54.821 73.9455C54.8511 75.2151 55.0067 76.7106 53.9127 77.6039C52.8186 78.4972 51.3833 78.4772 50.0886 78.4822C47.0223 78.4972 43.956 78.4822 40.8896 78.4822C34.6416 78.4822 28.3936 78.4822 22.1455 78.4872C19.0792 78.4872 16.0079 78.4872 12.9416 78.4872C11.4862 78.4872 10.0309 78.4822 8.57549 78.4972C7.39113 78.5073 6.17163 78.5374 5.02741 78.166C3.57204 77.6943 2.9648 76.4949 2.89956 75.0345C2.82429 73.3533 2.80923 71.6671 2.80421 69.9859C2.80421 68.4803 2.56332 66.6636 3.1806 65.2534C3.69249 64.0791 4.70623 63.236 5.97089 63.0302C6.9244 62.8746 6.51791 61.4243 5.56941 61.5799L5.57944 61.5748Z" fill="#231F20"/>
<path d="M13.4717 69.2495C12.8996 68.1103 11.7704 67.3675 10.4907 67.3223C9.21095 67.2772 7.9764 67.9898 7.27883 69.0487C6.41063 70.3636 6.53107 72.1552 7.595 73.3195C8.75929 74.5942 10.6061 74.6092 12.0414 73.7962C13.6523 72.8829 14.2546 70.9156 13.4717 69.2495C13.301 68.8831 12.7691 68.7877 12.4429 68.9785C12.0665 69.1993 12.0012 69.6409 12.1719 70.0072C12.3325 70.3535 12.3676 70.8504 12.2672 71.2418C12.2472 71.3171 12.2221 71.3924 12.202 71.4626C12.202 71.4777 12.1518 71.5981 12.1919 71.4977C12.1418 71.6182 12.0765 71.7286 12.0113 71.839C12.0113 71.839 11.8657 72.0397 11.946 71.9394C11.9109 71.9795 11.8758 72.0247 11.8356 72.0598C11.7302 72.1702 11.6148 72.2756 11.5345 72.3308C11.0578 72.657 10.5409 72.8628 9.9838 72.8628C9.92358 72.8628 9.85834 72.8628 9.79812 72.8578C9.53716 72.8477 9.89347 72.8929 9.68269 72.8427C9.56225 72.8126 9.43679 72.7825 9.32136 72.7373C9.42675 72.7775 9.31133 72.7323 9.29125 72.7223C9.22601 72.6871 9.15575 72.652 9.09051 72.6119C8.9249 72.5115 8.93996 72.5215 8.81951 72.4111C8.47323 72.0899 8.27751 71.7336 8.21227 71.3121C8.14703 70.8905 8.24238 70.3987 8.45316 70.0123C8.58866 69.7613 8.6539 69.681 8.83457 69.5004C8.91486 69.4201 8.99516 69.3498 9.08047 69.2796C8.95501 69.385 9.1156 69.2545 9.13568 69.2394C9.18586 69.2043 9.24107 69.1692 9.29627 69.134C9.3866 69.0788 9.48195 69.0337 9.57229 68.9885C9.74793 68.8982 9.47694 69.0186 9.59236 68.9785C9.64255 68.9634 9.68771 68.9433 9.7379 68.9283C9.83325 68.8982 9.93362 68.8731 10.034 68.853C10.039 68.853 10.2347 68.8179 10.1143 68.8379C10.0039 68.853 10.2297 68.8279 10.2548 68.8279C10.3752 68.8229 10.4957 68.8229 10.6111 68.8279C10.6513 68.8279 10.6914 68.8329 10.7316 68.8379C10.5308 68.8128 10.7516 68.848 10.7968 68.858C10.9022 68.8831 11.0076 68.9182 11.113 68.9483C11.2987 69.0035 10.9825 68.8731 11.1531 68.9634C11.2083 68.9935 11.2635 69.0186 11.3137 69.0437C11.3639 69.0688 11.4191 69.1039 11.4693 69.139C11.4994 69.1591 11.6449 69.2695 11.5144 69.1641C11.6148 69.2444 11.7052 69.3297 11.7955 69.4201C11.8256 69.4502 11.8507 69.4853 11.8808 69.5154C11.936 69.5807 11.936 69.5807 11.8858 69.5154C11.9109 69.5506 11.936 69.5907 11.9611 69.6258C12.0414 69.7413 12.1066 69.8667 12.1719 69.9872C12.3525 70.3485 12.8644 70.4539 13.2007 70.2582C13.572 70.0424 13.6523 69.5907 13.4717 69.2294V69.2495Z" fill="#231F20"/>
<path d="M21.5425 68.7511C20.7847 67.8478 19.5803 67.3158 18.3959 67.4613C17.0961 67.6219 16.0723 68.45 15.6006 69.6695C15.0787 71.0245 15.4852 72.6705 16.5842 73.6241C17.6833 74.5776 19.4347 74.7332 20.7044 73.88C21.4472 73.3782 21.939 72.6505 22.1347 71.7722C22.2501 71.2603 22.3154 70.7284 22.2401 70.2065C22.1598 69.6444 21.8888 69.1877 21.5375 68.7561C21.2815 68.44 20.7395 68.4901 20.4736 68.7561C20.1624 69.0673 20.2176 69.5039 20.4736 69.82C20.8048 70.2316 20.8098 70.7535 20.6894 71.3306C20.6291 71.6217 20.5539 71.8676 20.4033 72.1085C20.3782 72.1486 20.3531 72.1888 20.323 72.2239C20.4083 72.0984 20.2728 72.2791 20.2628 72.2891C20.1674 72.3945 20.0671 72.4899 19.9567 72.5752C20.0771 72.4849 19.8864 72.6153 19.8814 72.6204C19.8412 72.6455 19.8011 72.6706 19.7609 72.6956C19.7007 72.7308 19.6355 72.7609 19.5753 72.791C19.3795 72.8863 19.7007 72.7609 19.495 72.8211C19.3795 72.8562 19.2691 72.8914 19.1537 72.9215C19.1637 72.9215 18.9329 72.9616 19.0433 72.9466C19.1186 72.9365 18.8877 72.9566 18.8626 72.9616C18.7472 72.9616 18.6268 72.9616 18.5113 72.9516C18.6769 72.9666 18.4561 72.9416 18.431 72.9365C18.3758 72.9265 18.3156 72.9114 18.2604 72.8914C18.2052 72.8713 18.15 72.8562 18.0948 72.8362C18.2303 72.8863 18.0145 72.796 18.0045 72.791C17.9593 72.7709 17.9191 72.7458 17.879 72.7207C17.8589 72.7057 17.6281 72.5551 17.7335 72.6304C17.332 72.3243 17.0861 71.9228 16.9656 71.5213C16.9305 71.4059 16.9054 71.2854 16.8803 71.165C16.9054 71.3206 16.8753 71.0897 16.8753 71.0747C16.8753 71.0245 16.8753 70.9793 16.8753 70.9291C16.8753 70.8539 16.8803 70.7836 16.8853 70.7083C16.8954 70.4875 16.8452 70.8338 16.9004 70.618C16.9305 70.4875 16.9606 70.352 17.0058 70.2215C17.0208 70.1814 17.0359 70.1412 17.0509 70.0961C17.1162 69.9003 16.9807 70.2215 17.076 70.0409C17.1262 69.9505 17.1714 69.8602 17.2266 69.7699C17.2567 69.7197 17.2918 69.6695 17.327 69.6193C17.2366 69.7548 17.3069 69.6444 17.337 69.6093C17.4223 69.5189 17.5026 69.4286 17.598 69.3433C17.6281 69.3182 17.6532 69.2931 17.6833 69.273C17.5377 69.3935 17.6833 69.278 17.7134 69.258C17.7887 69.2078 17.869 69.1576 17.9543 69.1174C18.0045 69.0924 18.0546 69.0673 18.1048 69.0472C17.9493 69.1174 18.0396 69.0723 18.0797 69.0622C18.1952 69.0271 18.3056 68.987 18.426 68.9619C18.4712 68.9518 18.5163 68.9468 18.5615 68.9368C18.3507 68.9769 18.5866 68.9368 18.6368 68.9368C18.7472 68.9318 18.8576 68.9318 18.973 68.9368C19.0082 68.9368 19.0483 68.9418 19.0834 68.9468C18.8676 68.9318 19.1186 68.9569 19.1637 68.9669C19.2741 68.992 19.3845 69.0221 19.495 69.0572C19.5251 69.0673 19.7057 69.1425 19.5301 69.0673C19.5853 69.0924 19.6355 69.1175 19.6907 69.1425C19.7961 69.1977 19.9015 69.258 20.0018 69.3282C20.0269 69.3433 20.1825 69.4687 20.047 69.3583C20.0972 69.3985 20.1423 69.4386 20.1875 69.4788C20.2979 69.5792 20.4033 69.6896 20.4987 69.805C20.7596 70.1161 21.2916 70.076 21.5626 69.805C21.8687 69.4989 21.8235 69.0522 21.5626 68.7411L21.5425 68.7511Z" fill="#231F20"/>
<path d="M43.2381 77.0113C43.3335 76.9962 43.4238 76.9812 43.5192 76.9711L43.3184 76.9962C43.9207 76.9159 44.5279 76.9009 45.1301 76.9561C45.3108 76.9711 45.5366 76.8607 45.6621 76.7352C45.7875 76.6098 45.8929 76.389 45.8829 76.2033C45.8728 76.0176 45.8126 75.8068 45.6621 75.6713C45.5115 75.5358 45.3409 75.4706 45.1301 75.4505C44.3623 75.3853 43.5944 75.4355 42.8367 75.5609C42.661 75.591 42.4753 75.7617 42.385 75.9072C42.2896 76.0678 42.2495 76.3087 42.3097 76.4893C42.3699 76.67 42.4803 76.8457 42.656 76.941C42.8467 77.0414 43.0274 77.0514 43.2381 77.0163V77.0113Z" fill="#231F20"/>
<path d="M51.5943 72.8667C51.6395 73.0022 51.6746 73.1428 51.6997 73.2833C51.7098 73.3385 51.7098 73.3335 51.6997 73.2783L51.7098 73.3585C51.7148 73.4388 51.7198 73.5141 51.7248 73.5944C51.7349 73.8453 51.7449 74.1013 51.7248 74.3572C51.7248 74.3673 51.6997 74.5981 51.7248 74.4526C51.7148 74.5128 51.7048 74.573 51.6897 74.6332C51.6746 74.6935 51.6596 74.7537 51.6345 74.8089C51.6897 74.6834 51.5793 74.8842 51.5793 74.8892L51.5391 74.9494C51.5743 74.9043 51.5743 74.8992 51.5391 74.9394C51.499 74.9845 51.4538 75.0297 51.4087 75.0699C51.4087 75.0699 51.228 75.2204 51.3384 75.1351C51.2932 75.1702 51.238 75.2054 51.1878 75.2355C51.0875 75.3007 50.9771 75.3509 50.8717 75.4111C50.8064 75.4513 50.9419 75.391 50.8165 75.4362C50.7462 75.4613 50.681 75.4864 50.6107 75.5065C50.4953 75.5416 50.3749 75.5717 50.2594 75.5968C50.1892 75.6119 50.1189 75.6219 50.0436 75.637C50.1641 75.6169 50.0236 75.6369 49.9734 75.642C49.3661 75.7022 48.7539 75.657 48.1517 75.6119C47.7602 75.5817 47.3838 75.9782 47.3989 76.3646C47.4189 76.7962 47.7301 77.0873 48.1517 77.1174C49.4966 77.2178 50.9871 77.2629 52.1213 76.4148C52.4324 76.184 52.7135 75.918 52.9092 75.5817C53.1049 75.2455 53.1802 74.8842 53.2153 74.5028C53.2806 73.8453 53.2505 73.0926 53.0397 72.4653C52.9142 72.0939 52.5127 71.8078 52.1113 71.9383C51.7399 72.0588 51.4538 72.4653 51.5843 72.8667H51.5943Z" fill="#231F20"/>
<path d="M29.4766 11.1562C29.9032 13.1334 31.2933 14.905 33.1201 15.7732C33.4764 15.9438 33.9481 15.8836 34.1489 15.5022C34.3245 15.1659 34.2593 14.6541 33.8779 14.4734C33.6721 14.378 33.4714 14.2676 33.2806 14.1472C33.1953 14.092 33.105 14.0368 33.0247 13.9766C32.9745 13.9414 32.9243 13.9063 32.8742 13.8661C32.7587 13.7808 32.9243 13.9113 32.8541 13.8511C32.5178 13.555 32.2017 13.2589 31.9156 12.9126C31.8253 12.8022 31.9507 12.9678 31.9006 12.8926C31.8705 12.8524 31.8403 12.8072 31.8102 12.7671C31.745 12.6768 31.6797 12.5814 31.6195 12.4861C31.5041 12.3004 31.3987 12.1147 31.3034 11.919C31.2783 11.8638 31.2532 11.8086 31.2231 11.7534C31.1628 11.6229 31.2482 11.8186 31.213 11.7333C31.1729 11.6279 31.1327 11.5225 31.0926 11.4171C31.0173 11.2013 30.9621 10.9855 30.9119 10.7597C30.8266 10.3733 30.3599 10.1123 29.9835 10.2327C29.577 10.3632 29.3712 10.7446 29.4565 11.1612L29.4766 11.1562Z" fill="#231F20"/>
<path d="M34.8629 16.6694C35.5605 16.8751 36.248 17.111 36.9205 17.387C37.0911 17.4573 37.3521 17.3971 37.5027 17.3117C37.6532 17.2264 37.8088 17.0407 37.8489 16.8601C37.8941 16.6694 37.8841 16.4536 37.7737 16.2779L37.6582 16.1274C37.5629 16.032 37.4525 15.9718 37.327 15.9316C36.6545 15.6606 35.967 15.4198 35.2694 15.214C34.893 15.1036 34.4313 15.3495 34.341 15.7409C34.2507 16.1324 34.4615 16.5489 34.868 16.6694H34.8629Z" fill="#231F20"/>
<path d="M67.8445 4.90236L70.2233 5.55477C70.6047 5.66016 71.0614 5.42429 71.1517 5.02782C71.242 4.63136 71.0313 4.21483 70.6248 4.0994L68.246 3.44699C67.8646 3.34161 67.4079 3.57748 67.3176 3.97394C67.2272 4.3704 67.438 4.78694 67.8445 4.90236Z" fill="#231F20"/>
<path d="M71.799 6.60637C73.4451 7.16844 75.066 8.12196 76.3608 9.30131C76.6619 9.57231 77.1287 9.5974 77.4247 9.30131C77.7008 9.02529 77.7259 8.5134 77.4247 8.23738C75.9092 6.85729 74.1376 5.81846 72.2005 5.15602C71.8291 5.03056 71.3624 5.30156 71.2721 5.68296C71.1767 6.0995 71.3975 6.47087 71.799 6.61139V6.60637Z" fill="#231F20"/>
<path d="M77.2883 10.3263C77.3535 10.5471 77.4188 10.7729 77.469 10.9988C77.4941 11.1142 77.5141 11.2346 77.5342 11.3551C77.5543 11.4655 77.5342 11.2949 77.5242 11.2798C77.5342 11.2949 77.5292 11.345 77.5342 11.3651C77.5392 11.4253 77.5442 11.4906 77.5493 11.5508C77.5493 11.6612 77.5493 11.7666 77.5493 11.877C77.5493 11.9021 77.5442 11.9322 77.5442 11.9573C77.5392 12.0526 77.5743 11.7816 77.5543 11.877C77.5442 11.9372 77.5342 11.9924 77.5191 12.0476C77.5041 12.0978 77.489 12.148 77.474 12.1982C77.4388 12.3036 77.4991 12.1229 77.5091 12.1279C77.5091 12.1279 77.479 12.1932 77.474 12.1982C77.4489 12.2484 77.4188 12.3036 77.3836 12.3487C77.3084 12.4491 77.3686 12.3738 77.3836 12.3487C77.469 12.2433 77.3836 12.3487 77.3636 12.3688C77.1076 12.6649 77.0474 13.1467 77.3636 13.4327C77.6446 13.6937 78.1515 13.7489 78.4275 13.4327C78.8691 12.9259 79.0699 12.3036 79.0548 11.6311C79.0448 11.054 78.9043 10.4768 78.7386 9.9248C78.6232 9.54841 78.2067 9.27239 77.8102 9.39786C77.4138 9.52332 77.1628 9.91978 77.2833 10.3263H77.2883Z" fill="#231F20"/>
<path d="M77.2856 43.3622L77.4964 45.766C77.5315 46.1474 77.5666 46.5288 77.5967 46.9102C77.6168 47.2214 77.6168 47.4623 77.4362 47.7232C76.7687 48.6767 75.509 49.2137 74.3749 49.2489C73.4063 49.279 73.4063 50.7845 74.3749 50.7544C75.9657 50.7042 77.5616 49.9866 78.5553 48.7219C78.8413 48.3606 79.032 47.9742 79.0872 47.5125C79.1424 47.0809 79.0772 46.6543 79.0421 46.2227L78.7912 43.3622C78.756 42.9557 78.47 42.6094 78.0384 42.6094C77.657 42.6094 77.2505 42.9557 77.2856 43.3622Z" fill="#231F20"/>
<path d="M50.2915 42.5044C52.1333 42.7804 54.1106 43.202 55.4857 44.557C56.123 45.1843 56.4994 45.927 56.6851 46.7952C56.9109 47.8441 57.0414 48.9482 57.1719 50.0171C57.2221 50.4186 57.483 50.7699 57.9246 50.7699C58.296 50.7699 58.7276 50.4236 58.6774 50.0171C58.5369 48.8177 58.3964 47.5781 58.1404 46.3988C57.9096 45.3298 57.4027 44.3713 56.6399 43.5834C55.0741 41.9724 52.8459 41.3803 50.693 41.0591C50.2915 40.9989 49.885 41.1595 49.7646 41.586C49.6692 41.9423 49.885 42.4492 50.2915 42.5144V42.5044Z" fill="#231F20"/>
<path d="M48.4586 60.1173C49.2063 60.1575 49.9742 60.0671 50.6918 59.8564C51.4094 59.6456 52.1421 59.3244 52.5938 58.6921C53.0455 58.0597 53.2011 57.2317 53.2914 56.4889C53.3817 55.7462 53.3315 54.9834 53.1659 54.2457C53.0756 53.8492 52.6189 53.6184 52.2375 53.7187C51.826 53.8291 51.6252 54.2457 51.7106 54.6472C51.7758 54.9483 51.8059 55.1239 51.821 55.42C51.836 55.7312 51.831 56.0473 51.7959 56.3585C51.7908 56.4137 51.7959 56.3785 51.7808 56.4689C51.7708 56.5442 51.7557 56.6144 51.7407 56.6897C51.7106 56.8352 51.6754 56.9808 51.6353 57.1213C51.55 57.4224 51.5048 57.6181 51.3342 57.864C51.3643 57.8189 51.1384 58.0547 51.2238 57.9895C51.1234 58.0698 51.008 58.13 50.8925 58.1852C50.8775 58.1952 50.7069 58.2705 50.7721 58.2404C50.8373 58.2103 50.6416 58.2906 50.6215 58.2956C50.481 58.3458 50.3405 58.391 50.195 58.4311C49.5978 58.5967 49.0909 58.6469 48.4485 58.6118C48.0571 58.5917 47.6807 58.9731 47.6957 59.3646C47.7158 59.7911 48.027 60.0973 48.4485 60.1173H48.4586Z" fill="#231F20"/>
<path d="M53.1425 52.2563L53.2429 50.8863C53.258 50.7006 53.1476 50.4797 53.0221 50.3543C52.8966 50.2288 52.6758 50.1234 52.4901 50.1335C52.3044 50.1435 52.0937 50.2037 51.9582 50.3543L51.8427 50.5048C51.7725 50.6203 51.7424 50.7508 51.7424 50.8863L51.642 52.2563C51.6269 52.442 51.7374 52.6628 51.8628 52.7883C51.9883 52.9137 52.2091 53.0191 52.3948 53.0091C52.5805 52.999 52.7912 52.9388 52.9267 52.7883L53.0422 52.6377C53.1124 52.5223 53.1425 52.3918 53.1425 52.2563Z" fill="#231F20"/>
</svg>
