<svg width="91" height="91" viewBox="0 0 91 91" fill="none" xmlns="http://www.w3.org/2000/svg">
<path d="M15.9308 72.8816C15.9034 74.4881 15.8578 76.0901 15.8441 77.6966C15.8349 78.9563 16.0129 80.2707 16.9896 81.1698C18.7696 82.8082 21.6266 82.4431 23.831 82.3382C26.9756 82.183 30.1156 81.9183 33.2556 81.7494C36.3956 81.5805 39.5538 81.5714 42.7075 81.6809C45.8703 81.7905 49.0423 82.0643 52.2051 82.078C53.7523 82.0871 55.2995 82.0095 56.8467 82.0917C57.9557 82.151 59.0465 82.3336 60.151 82.4431C61.6434 82.5846 63.3777 82.6074 64.5095 81.4573C65.112 80.8457 65.4452 80.006 65.6186 79.1753C65.9061 77.8016 65.9244 76.3457 66.0111 74.9445C66.787 62.243 65.8331 49.5279 65.5091 36.8264C65.4315 33.7548 65.4315 30.6787 65.4041 27.6072C65.3813 24.919 65.3082 22.2217 65.5866 19.5472C65.8331 17.1968 66.3443 14.6182 67.823 12.7013C69.0324 11.1313 70.8443 10.328 72.8159 10.4102C75.1436 10.506 77.64 11.6196 78.8221 13.7054C79.5021 14.9057 79.7121 16.3068 79.8034 17.6623C79.8444 18.2693 79.881 18.8809 79.8718 19.4879C79.8627 20.0036 79.8399 20.67 79.4291 21.0488C78.8404 21.5919 77.5898 21.5919 76.8231 21.6558C75.8145 21.7334 74.8058 21.7562 73.7972 21.7608C71.6156 21.7699 69.4341 21.6832 67.2571 21.5873C66.4173 21.5508 65.5775 21.5097 64.7377 21.4778C63.8569 21.4413 63.8569 22.8105 64.7377 22.847C68.8316 23.0067 72.9848 23.3718 77.0787 23.0067C78.0143 22.9246 79.1005 22.847 79.9266 22.3723C81.0082 21.7516 81.2501 20.4828 81.241 19.3282C81.2273 16.7039 80.958 13.8423 79.1279 11.8068C76.2115 8.56179 70.4564 7.95479 67.3346 11.1906C65.6551 12.9295 64.8747 15.353 64.473 17.6851C64.0121 20.3824 63.9938 23.1299 64.0212 25.8546C64.0805 32.0707 64.1581 38.2777 64.3955 44.4893C64.6328 50.7008 64.9203 57.2729 64.9386 63.667C64.9477 66.9029 64.8929 70.1387 64.7332 73.3654C64.6556 74.9537 64.5826 76.551 64.4091 78.1302C64.3224 78.938 64.1353 79.8782 63.542 80.4852C62.5105 81.544 60.5206 81.1241 59.229 80.969C57.9375 80.8138 56.6504 80.6906 55.3406 80.686C53.7523 80.6814 52.1686 80.7362 50.5849 80.6677C47.3947 80.5308 44.2091 80.3391 41.0143 80.2661C37.8241 80.1931 34.6384 80.2889 31.4574 80.4897C28.2763 80.6906 25.0268 80.969 21.8046 81.0557C20.7412 81.0831 19.5774 81.0785 18.5916 80.6175C17.3547 80.0379 17.195 78.8513 17.2087 77.6099C17.227 76.0353 17.2635 74.4608 17.2954 72.8908C17.3137 72.0099 15.9445 72.0099 15.9262 72.8908L15.9308 72.8816Z" fill="#231F20"/>
<path d="M17.7323 45.9154C17.6227 40.0324 17.5132 34.1449 17.3991 28.262C17.3443 25.405 17.2211 22.5388 17.285 19.6818C17.3398 17.167 17.4173 14.1776 19.3433 12.3064C21.105 10.5949 23.6426 10.0975 26.0067 9.96966C28.6675 9.82361 31.3511 9.97879 34.0165 9.92859C39.8811 9.81905 45.7458 9.91489 51.6059 9.94228C58.1598 9.97423 64.7182 10.0153 71.2675 10.3622L71.0849 9.01579C70.7654 9.13902 70.446 9.26225 70.1265 9.38548C69.3141 9.70039 69.6655 11.0239 70.4916 10.7045C70.8111 10.5812 71.1306 10.458 71.45 10.3348C72.1574 10.0609 72.0753 9.03405 71.2675 8.98841C65.2476 8.66893 59.2141 8.60504 53.1851 8.57765C47.1561 8.55027 41.086 8.4453 35.0388 8.53658C33.6011 8.5594 32.168 8.60504 30.7304 8.58678C29.2928 8.56853 27.9875 8.52289 26.6183 8.56853C24.1629 8.64611 21.5979 9.01579 19.5168 10.4169C18.5629 11.0604 17.7231 11.8911 17.1663 12.9089C16.5502 14.0316 16.29 15.2821 16.1303 16.5418C15.7515 19.522 15.9204 22.5525 15.9797 25.5464C16.1075 32.3376 16.2353 39.1242 16.3631 45.9154C16.3813 46.7962 17.7505 46.7962 17.7323 45.9154Z" fill="#231F20"/>
<path d="M40.3911 34.0384C35.7039 31.3411 30.857 28.9359 25.9873 26.59V27.7721C28.073 26.6037 30.396 25.9556 32.5 24.8284C34.7546 23.6235 37.0001 22.3912 39.2501 21.1726C40.0077 20.7619 40.5737 20.4606 41.4545 20.5793C42.276 20.6888 43.0793 21.0083 43.8278 21.3506C45.3704 22.058 46.8628 22.9161 48.3507 23.7239C50.692 24.9972 52.9283 26.4622 55.0277 28.1007L55.1646 27.0236C52.869 28.6666 50.4775 30.1727 47.9992 31.5237C46.7761 32.19 45.5301 32.8198 44.2705 33.4086C43.6361 33.7052 43.0063 34.0065 42.3536 34.2666C41.5823 34.5724 41.0894 34.4309 40.3911 34.0339C39.6244 33.5957 38.9352 34.7778 39.702 35.2159C40.3044 35.5628 40.9479 35.8868 41.6645 35.8457C42.381 35.8047 43.0702 35.4441 43.7274 35.1566C45.1604 34.5222 46.5707 33.8376 47.9582 33.1028C50.7011 31.6515 53.3391 30.013 55.8584 28.2057C56.1733 27.9775 56.3741 27.4252 55.9953 27.1286C54.0465 25.6042 52.0064 24.2122 49.8522 22.9891C48.2046 22.0489 46.5114 21.1133 44.7999 20.2918C43.3531 19.5981 41.523 18.8085 39.8982 19.3197C39.4281 19.4703 38.9945 19.7441 38.5655 19.9769C37.9357 20.3192 37.3104 20.6569 36.6806 20.9992C35.4894 21.6427 34.2982 22.2908 33.107 22.9343C31.8246 23.628 30.5467 24.2807 29.1912 24.8284C27.8357 25.376 26.5486 25.8826 25.3027 26.5763C24.8782 26.8137 24.8371 27.5348 25.3027 27.7584C30.1724 30.1088 35.0193 32.5141 39.7065 35.2068C40.4733 35.6449 41.1624 34.4629 40.3957 34.0247L40.3911 34.0384Z" fill="#231F20"/>
<path d="M25.1029 27.2773C24.8108 30.5542 24.6784 33.8448 24.6648 37.1354C24.6602 38.7419 24.6784 40.3484 24.715 41.9549C24.7332 42.7399 24.756 43.5249 24.7834 44.3054C24.7971 44.6796 24.8108 45.0539 24.8245 45.4235C24.8336 45.6974 24.8062 45.9986 24.9477 46.2451C25.1759 46.6467 25.7418 46.8749 26.1343 47.0757C26.8281 47.4271 27.5355 47.742 28.2475 48.0569C29.5847 48.6503 30.9539 49.1842 32.2774 49.8095C35.1436 51.1604 37.8774 52.6848 40.9033 53.6889C41.3095 53.8258 41.7978 53.4607 41.7705 53.0271C41.4099 47.0574 41.3643 41.0741 41.6335 35.1044C41.6746 34.2008 40.3739 34.2601 40.2644 35.1044C40.2233 35.4148 40.1822 35.7251 40.1411 36.04C40.0909 36.4097 40.4926 36.7201 40.8257 36.7246C41.2365 36.7246 41.4601 36.4052 41.5103 36.04C41.5514 35.7297 41.5925 35.4194 41.6335 35.1044H40.2644C39.9951 41.0787 40.0407 47.062 40.4013 53.0271L41.2684 52.3653C38.4296 51.4206 35.8236 50.0286 33.1491 48.7096C32.0538 48.171 30.9037 47.7283 29.7809 47.24C28.5122 46.6878 27.2936 46.0625 26.0568 45.4601C25.9655 45.4144 26.1389 45.5559 26.1343 45.5559C26.2621 45.5787 26.1663 45.9393 26.1982 45.4235C26.2119 45.2045 26.18 44.9717 26.1709 44.7526C26.1435 44.0042 26.1207 43.2602 26.0978 42.5117C26.0568 40.9417 26.0294 39.3717 26.0294 37.8017C26.0294 34.2875 26.1526 30.7732 26.4675 27.2727C26.5451 26.3964 25.1759 26.401 25.0983 27.2727L25.1029 27.2773Z" fill="#231F20"/>
<path d="M41.5106 53.461C46.2891 51.074 51.1543 48.8605 56.1016 46.8432C56.3709 46.7337 56.6219 46.5055 56.6036 46.1815C56.2841 39.9973 56.558 33.804 56.1974 27.6199C56.1472 26.7436 54.778 26.739 54.8282 27.6199C55.1934 33.804 54.9195 39.9973 55.2344 46.1815L55.7365 45.5197C50.6796 47.5826 45.7049 49.8372 40.8169 52.2789C40.0273 52.6714 40.7211 53.8535 41.5061 53.461H41.5106Z" fill="#231F20"/>
<path d="M16.583 65.1946C20.4533 65.0577 24.3144 65.4913 28.1572 64.8386C28.673 64.7519 28.8053 64.0262 28.4584 63.6931C26.3955 61.7305 23.8671 60.3568 21.5669 58.6955C20.686 58.0611 19.8097 57.4176 18.9609 56.7421C18.5775 56.4364 18.1941 56.126 17.8336 55.7974C17.7012 55.6787 17.5734 55.5555 17.4547 55.4232C17.3498 55.3091 17.3589 55.373 17.4045 55.373C17.3909 55.3501 17.3726 55.3273 17.3589 55.3045C17.4 55.3775 17.4182 55.4551 17.4182 55.5418C17.3361 54.6838 16.0536 54.6427 16.049 55.5418C16.0399 58.5358 15.8984 61.5252 15.8984 64.5146C15.8984 65.3954 17.2676 65.3954 17.2676 64.5146C17.2676 61.5206 17.4045 58.5312 17.4182 55.5418H16.049C16.1266 56.336 17.0257 56.9293 17.5917 57.3948C18.5181 58.157 19.4811 58.8735 20.4487 59.5764C22.7854 61.2787 25.396 62.6707 27.4955 64.6697L27.7967 63.5242C24.0862 64.1494 20.3255 63.6976 16.583 63.83C15.7068 63.8619 15.7022 65.2311 16.583 65.1992V65.1946Z" fill="#231F20"/>
<path d="M79.0074 36.8979C79.8289 37.7423 79.8745 38.9837 79.8426 40.0973C79.806 41.3569 79.7056 42.6029 79.7102 43.8671C79.7239 47.2216 79.7513 50.5761 79.7969 53.9306C79.8426 57.2851 79.911 60.6122 80.016 63.9485C80.121 67.2848 80.4359 70.4567 80.0479 73.6697C79.8791 75.0709 79.5459 76.4811 78.9754 77.7727C78.7016 78.3934 78.3684 78.9959 77.985 79.5572C77.807 79.8128 77.6153 80.0593 77.41 80.2966C77.305 80.4153 77.1042 80.5659 77.0312 80.7028L76.8988 80.8351C77.2411 80.9036 77.3141 80.8351 77.1179 80.648C77.0448 80.3605 76.6752 79.9954 76.5109 79.7489C76.3009 79.4386 76.0955 79.1282 75.8947 78.8133C75.4977 78.1835 75.1143 77.5354 74.8131 76.8554C74.1696 75.4177 74.1741 73.9162 74.1741 72.369C74.1741 69.0419 74.1741 65.7148 74.1285 62.3876C74.0828 59.0605 73.8729 55.7334 73.8638 52.4063C73.8546 48.7688 74.1102 45.1359 74.2654 41.4984C74.3019 40.6039 74.3339 39.7139 74.3521 38.8194C74.3704 37.9248 74.3475 37.085 75.023 36.4689C76.2233 35.369 77.9439 35.903 79.0074 36.8979C79.6509 37.5004 80.6184 36.5328 79.9749 35.9304C78.8613 34.8898 77.3552 34.2417 75.8217 34.5703C74.4297 34.867 73.3252 35.9532 73.0833 37.3589C72.9373 38.2032 72.9829 39.0841 72.9555 39.9375C72.9282 40.791 72.8916 41.722 72.846 42.612C72.7593 44.465 72.6543 46.3179 72.5813 48.1709C72.4398 51.7582 72.5904 55.3226 72.6863 58.9099C72.7821 62.4972 72.8049 66.2305 72.8049 69.8908C72.8049 71.6114 72.6863 73.3776 72.9053 75.0891C73.1244 76.8006 73.9185 78.2611 74.8222 79.6713C75.2147 80.2829 75.6163 80.9036 76.0408 81.4969C76.52 82.1678 77.2091 82.396 77.8618 81.8027C78.948 80.8214 79.733 79.466 80.2944 78.1287C81.6088 74.9978 81.6453 71.5566 81.5267 68.2158C81.3989 64.5144 81.2711 60.8176 81.2026 57.1163C81.125 53.0361 81.0931 48.9605 81.0703 44.8803C81.0611 43.251 81.1615 41.6399 81.198 40.0151C81.23 38.5455 81.0292 37.0257 79.9612 35.9304C79.3451 35.3005 78.3775 36.2681 78.9937 36.8979H79.0074Z" fill="#231F20"/>
<path d="M73.5127 45.7493C75.8403 45.4892 78.1771 45.3614 80.5184 45.3614C81.3992 45.3614 81.3992 43.9922 80.5184 43.9922C78.1771 43.9922 75.8403 44.12 73.5127 44.3801C73.143 44.4212 72.8281 44.6677 72.8281 45.0647C72.8281 45.4025 73.143 45.7904 73.5127 45.7493Z" fill="#231F20"/>
<path d="M26.8126 54.9413C29.9982 57.4013 33.193 59.8476 36.4015 62.2756C38.0034 63.4896 39.6145 64.6899 41.221 65.8994C42.7317 67.0404 44.2195 68.2224 45.8078 69.2539C46.5928 69.765 47.396 70.2123 48.2404 70.6185C48.9295 70.9562 49.751 71.3122 50.1983 71.9649L50.4448 71.0292C49.1897 71.6408 47.5969 71.5632 46.2414 71.5222C44.8859 71.4811 43.503 71.3487 42.1338 71.3761C41.2256 71.3944 40.3173 71.4218 39.4091 71.4446C35.5571 71.5404 31.7052 71.6317 27.8486 71.7093C23.5631 71.796 19.2775 71.8781 14.9874 71.901C13.5634 71.9101 12.1395 71.9147 10.7155 71.8781C10.3276 71.869 9.94421 71.8462 9.55628 71.8234C9.36915 71.8143 9.56084 71.8234 9.56084 71.8234C9.53346 71.8051 9.48782 71.8143 9.45587 71.8006C9.49695 71.8234 9.59735 71.8645 9.65212 71.9055C9.70232 71.942 9.88032 72.2022 9.91227 72.2022C9.91227 72.2022 9.91227 71.7093 9.91227 71.7458C9.91227 71.1753 9.91227 70.6094 9.91227 70.0389C9.91683 61.3126 9.92596 52.5863 9.93052 43.8555C9.93052 42.7555 9.93052 41.6556 9.93052 40.5557L8.65261 40.9026C9.66581 42.2626 11.0213 43.2028 12.4133 44.1339C14.0426 45.2246 15.6218 46.3976 17.1918 47.5659C20.4322 49.9757 23.6178 52.4631 26.8126 54.9322C27.1093 55.1604 27.4926 55.2151 27.7802 54.9322C28.0175 54.6994 28.0723 54.1882 27.7802 53.9646C24.6675 51.5594 21.5686 49.136 18.4149 46.7809C16.8677 45.6263 15.316 44.467 13.7232 43.3717C12.3494 42.4269 10.8479 41.5689 9.83011 40.2089C9.44674 39.6977 8.55677 39.8209 8.55221 40.5557C8.54764 49.5467 8.53851 58.5423 8.53395 67.5333C8.53395 68.6697 8.53395 69.8107 8.53395 70.9471C8.53395 71.4446 8.4518 72.0288 8.54308 72.5171C8.58415 72.7362 8.68456 72.9096 8.88081 73.0328C9.13639 73.1926 9.48325 73.188 9.77078 73.2063C10.9255 73.2838 12.0847 73.2702 13.2394 73.2702C17.4337 73.2702 21.6279 73.1926 25.8222 73.115C30.0074 73.0328 34.188 72.9416 38.3731 72.8366C39.5141 72.8092 40.6596 72.7818 41.8006 72.7499C44.2469 72.686 46.7023 73.1059 49.144 72.7727C49.8378 72.6768 50.495 72.5125 51.1248 72.2068C51.4397 72.0516 51.5675 71.5587 51.3713 71.2711C50.5178 70.0206 49.071 69.5779 47.8068 68.8705C46.1318 67.9395 44.5983 66.7574 43.0785 65.5981C39.8381 63.129 36.5703 60.701 33.3299 58.2273C31.4724 56.8125 29.6194 55.3886 27.771 53.9601C27.4744 53.7319 27.091 53.6771 26.8035 53.9601C26.5661 54.1928 26.5114 54.704 26.8035 54.9276L26.8126 54.9413Z" fill="#231F20"/>
<path d="M10.6254 46.5947C10.9266 46.0516 11.2552 45.5268 11.6112 45.0202C11.698 44.9015 11.7847 44.7783 11.8714 44.6596C11.8942 44.6322 11.917 44.6003 11.9398 44.5729C11.9992 44.4908 11.8714 44.6596 11.9353 44.5775C11.9855 44.5136 12.0402 44.4451 12.0905 44.3812C12.2867 44.1348 12.4921 43.8974 12.702 43.6647C12.9439 43.4 12.985 42.9573 12.702 42.6971C12.4419 42.4552 11.99 42.4142 11.7345 42.6971C10.8536 43.6738 10.0777 44.7509 9.43879 45.9056C9.26536 46.2205 9.35208 46.6678 9.68525 46.8412C10.0184 47.0146 10.4383 46.9325 10.6209 46.5947H10.6254Z" fill="#231F20"/>
<path d="M10.2768 51.9235C11.9518 49.8743 13.6313 47.8251 15.3063 45.7758C15.5391 45.4883 15.5847 45.0867 15.3063 44.8083C15.0644 44.5664 14.5715 44.5207 14.3387 44.8083C12.6638 46.8575 10.9842 48.9067 9.30925 50.9559C9.07649 51.2435 9.03085 51.6451 9.30925 51.9235C9.55114 52.1654 10.0441 52.211 10.2768 51.9235Z" fill="#231F20"/>
<path d="M10.2689 57.1858C12.8612 54.0458 15.5631 50.9971 18.3699 48.0442C18.9769 47.4053 18.0093 46.4377 17.4023 47.0767C14.5955 50.025 11.8936 53.0737 9.30131 56.2183C9.06398 56.5058 9.02747 56.9029 9.30131 57.1858C9.54319 57.4323 10.0361 57.4688 10.2689 57.1858Z" fill="#231F20"/>
<path d="M10.278 62.2019C11.8663 60.1253 13.9885 58.5461 15.9419 56.8392C17.9911 55.0456 19.8715 53.0694 21.5647 50.938C22.1078 50.2534 21.1448 49.2813 20.5971 49.9704C18.8628 52.152 16.9323 54.1693 14.8237 55.9994C12.7152 57.8296 10.7253 59.3813 9.09595 61.5081C8.56197 62.2064 9.7486 62.891 10.278 62.1973V62.2019Z" fill="#231F20"/>
<path d="M10.1925 67.2963C12.3376 64.7724 14.6971 62.4402 17.2484 60.3271C17.5314 60.0898 17.4903 59.6014 17.2484 59.3595C16.9654 59.0766 16.5638 59.1222 16.2808 59.3595C13.7296 61.4727 11.3654 63.8048 9.22495 66.3287C8.98763 66.6117 8.94655 67.0224 9.22495 67.2963C9.47141 67.5427 9.95062 67.5792 10.1925 67.2963Z" fill="#231F20"/>
<path d="M20.2783 57.7626C21.6886 56.147 23.2175 54.6363 24.8514 53.2488C25.1344 53.0115 25.0979 52.5277 24.8514 52.2813C24.573 52.0029 24.1668 52.0394 23.8839 52.2813C22.25 53.6687 20.721 55.1794 19.3108 56.795C19.0689 57.0734 19.0369 57.4888 19.3108 57.7626C19.5572 58.0091 20.0364 58.041 20.2783 57.7626Z" fill="#231F20"/>
<path d="M9.72286 72.9944C12.8766 71.0365 14.8893 67.8371 17.6459 65.4274C18.3122 64.8477 17.3401 63.8802 16.6783 64.4598C14.0175 66.7828 12.0733 69.9274 9.0337 71.8123C8.28521 72.2779 8.97437 73.4599 9.72286 72.9944Z" fill="#231F20"/>
<path d="M23.1665 60.8268C25.0651 59.2659 26.9591 57.7005 28.8577 56.1396C29.1452 55.9023 29.0996 55.4139 28.8577 55.172C28.5747 54.8891 28.1777 54.9347 27.8902 55.172C25.9915 56.7329 24.0975 58.2984 22.1989 59.8592C21.9114 60.0966 21.957 60.5849 22.1989 60.8268C22.4819 61.1098 22.8789 61.0641 23.1665 60.8268Z" fill="#231F20"/>
<path d="M15.6746 72.7702C18.4312 70.0958 21.302 67.5491 24.2868 65.1302C24.5743 64.8974 24.5287 64.4045 24.2868 64.1626C24.0038 63.8796 23.6068 63.9298 23.3192 64.1626C20.339 66.5815 17.4637 69.1282 14.707 71.8027C14.0727 72.4188 15.0402 73.3864 15.6746 72.7702Z" fill="#231F20"/>
<path d="M26.6976 62.7309C28.368 61.3298 30.0247 59.9195 31.6723 58.491C31.9507 58.2491 31.9187 57.7699 31.6723 57.5235C31.3939 57.2451 30.9831 57.2816 30.7047 57.5235C29.0571 58.952 27.4004 60.3623 25.73 61.7634C25.4471 62.0007 25.4836 62.4845 25.73 62.7309C26.0084 63.0093 26.4146 62.9683 26.6976 62.7309Z" fill="#231F20"/>
<path d="M21.8592 72.4358C26.0078 68.5519 30.1929 64.7136 34.4237 60.9164C35.0809 60.3276 34.1088 59.3601 33.4562 59.9488C29.2299 63.746 25.0402 67.5843 20.8916 71.4683C20.2481 72.0707 21.2156 73.0383 21.8592 72.4358Z" fill="#231F20"/>
<path d="M27.384 72.6774C30.8161 69.6287 34.2482 66.58 37.6803 63.5312C38.3421 62.9471 37.37 61.9795 36.7127 62.5637C33.2807 65.6124 29.8486 68.6611 26.4165 71.7099C25.7547 72.294 26.7268 73.2616 27.384 72.6774Z" fill="#231F20"/>
<path d="M33.8034 72.0902C36.2223 69.9132 38.5956 67.6768 40.9186 65.3949L39.9511 64.4273C39.8644 64.5323 39.7777 64.6327 39.6864 64.7377C39.449 65.0206 39.408 65.4268 39.6864 65.7052C39.9328 65.9517 40.4166 65.9882 40.6539 65.7052C40.7406 65.6002 40.8274 65.4998 40.9186 65.3949C41.48 64.7331 40.59 63.7975 39.9511 64.4273C37.6326 66.7138 35.2593 68.9456 32.8359 71.1226C32.1787 71.7114 33.1508 72.6789 33.8034 72.0902Z" fill="#231F20"/>
<path d="M38.7275 72.2274C40.439 70.4839 42.1504 68.7359 43.8574 66.9925C44.4735 66.3627 43.5059 65.3951 42.8898 66.0249C41.1783 67.7684 39.4668 69.5164 37.7599 71.2598C37.1438 71.8896 38.1113 72.8572 38.7275 72.2274Z" fill="#231F20"/>
<path d="M42.7286 72.09C43.7966 71.1362 44.86 70.1869 45.9279 69.233C46.1972 68.9957 46.1881 68.5073 45.9279 68.2654C45.6404 68.0007 45.2433 68.0099 44.9604 68.2654C43.8924 69.2193 42.829 70.1686 41.761 71.1225C41.4918 71.3598 41.5009 71.8481 41.761 72.09C42.0486 72.3547 42.4456 72.3456 42.7286 72.09Z" fill="#231F20"/>
<path d="M46.5479 72.0736C46.8765 71.6765 47.2417 71.3205 47.6478 71.0056L47.5109 71.1106C47.6752 70.9873 47.8395 70.8687 48.013 70.7546C48.1636 70.6587 48.2822 70.5172 48.3279 70.3438C48.3735 70.1795 48.3507 69.9605 48.2594 69.8144C48.1681 69.6684 48.0267 69.5406 47.8487 69.4995C47.6707 69.4584 47.479 69.4675 47.3192 69.5679C46.6666 69.9878 46.0687 70.499 45.5758 71.0969C45.4572 71.2429 45.375 71.389 45.375 71.5807C45.375 71.7495 45.448 71.9503 45.5758 72.0644C45.7036 72.1785 45.877 72.2744 46.0596 72.2652C46.233 72.2561 46.4293 72.2014 46.5434 72.0644L46.5479 72.0736Z" fill="#231F20"/>
<path d="M76.2222 39.2454C76.2541 39.2134 76.3043 39.1769 76.3271 39.1404C76.2359 39.2088 76.2176 39.2225 76.2769 39.1815L76.3089 39.1632C76.3773 39.1221 76.4869 39.113 76.3043 39.1541C76.3363 39.1449 76.3728 39.1313 76.4047 39.1221C76.4504 39.1084 76.5006 39.1039 76.5416 39.0902C76.3545 39.1449 76.4367 39.1039 76.5006 39.0993C76.5508 39.0993 76.5964 39.0993 76.6466 39.0993C76.7744 39.1084 76.6694 39.1176 76.6101 39.0902C76.6831 39.1267 76.7881 39.1267 76.8657 39.1541C76.8885 39.1632 76.9159 39.1723 76.9387 39.1815C76.8337 39.1358 76.8155 39.1267 76.8794 39.1586C76.9159 39.1769 76.9478 39.1906 76.9843 39.2088C77.0619 39.2499 77.135 39.3138 77.2125 39.3549C77.0482 39.2682 77.1715 39.3275 77.2217 39.3731C77.2536 39.4051 77.2856 39.437 77.3175 39.469C77.3312 39.4827 77.3449 39.4964 77.354 39.5146C77.3997 39.5694 77.386 39.5557 77.3175 39.469C77.3312 39.5055 77.3723 39.5511 77.3951 39.5877C77.427 39.6379 77.4499 39.6926 77.4772 39.7428C77.5457 39.8661 77.4362 39.6196 77.4955 39.7885C77.5366 39.898 77.5685 40.0121 77.5959 40.1262C77.6096 40.1855 77.6187 40.2403 77.6324 40.2996C77.6598 40.4411 77.6187 40.1581 77.637 40.3453C77.6918 40.8336 77.6552 41.3265 77.6142 41.8149C77.5868 42.1709 77.9519 42.5132 78.2988 42.4995C78.6958 42.4812 78.9514 42.1982 78.9834 41.8149C79.0609 40.8656 79.0838 39.8843 78.6365 39.0126C78.2486 38.2595 77.4179 37.7484 76.569 37.7347C76.0761 37.7256 75.5832 37.9172 75.25 38.2824C75.0081 38.5471 74.9716 38.9943 75.25 39.2499C75.5147 39.4918 75.9574 39.5329 76.2176 39.2499L76.2222 39.2454Z" fill="#231F20"/>
<path d="M55.1593 79.2931L58.6416 79.3067C59.6 79.3067 60.7958 79.4847 61.663 78.9827C62.6214 78.4305 62.6396 77.3077 62.6762 76.3265C62.7172 75.1764 62.7218 74.0263 62.6944 72.8716C62.6716 71.9907 61.3024 71.9907 61.3252 72.8716C61.3526 73.8893 61.3526 74.9071 61.3252 75.9249C61.3115 76.363 61.3298 76.824 61.2613 77.2575C61.2203 77.5222 61.1381 77.7413 60.8734 77.8417C60.5357 77.9695 60.1432 77.9376 59.7872 77.933H58.2491C57.2222 77.9239 56.1953 77.9193 55.1684 77.9147C54.2876 77.9147 54.2876 79.2794 55.1684 79.2839L55.1593 79.2931Z" fill="#231F20"/>
<path d="M62.6827 70.0034C62.7512 68.94 62.8196 67.8812 62.8927 66.8178C62.9155 66.4618 62.5595 66.1195 62.2081 66.1332C61.8156 66.1515 61.5509 66.4344 61.5235 66.8178C61.455 67.8812 61.3866 68.94 61.3135 70.0034C61.2907 70.3594 61.6467 70.7017 61.9981 70.688C62.3906 70.6698 62.6553 70.3868 62.6827 70.0034Z" fill="#231F20"/>
<path d="M67.5589 18.6117C67.9332 16.5944 68.7501 14.5041 70.4981 13.2901C72.027 12.2267 74.1904 12.0031 75.6371 13.3449C76.2852 13.9428 77.2528 12.9752 76.6047 12.3773C74.8019 10.7069 72.0773 10.6795 70.0463 11.9529C67.8465 13.3312 66.7009 15.7729 66.24 18.2466C66.0802 19.1092 67.3992 19.4789 67.5589 18.6117Z" fill="#231F20"/>
<path d="M73.5049 21.0358L75.9329 20.8715C76.3391 20.8441 76.7407 20.8167 77.1469 20.7894C77.5075 20.762 77.8954 20.7346 78.2149 20.5475C78.9588 20.1139 78.936 19.1737 78.8539 18.4252C78.7671 17.6311 78.5481 16.8826 78.1784 16.1706C78.0095 15.842 77.5486 15.7462 77.2428 15.9242C76.9096 16.1204 76.8275 16.5312 76.9963 16.8598C77.2382 17.3253 77.4299 17.9278 77.4847 18.4252C77.5166 18.731 77.5166 19.0368 77.5029 19.3426V19.411C77.5029 19.3563 77.5029 19.3563 77.4938 19.4019C77.4801 19.4475 77.4847 19.4475 77.4984 19.4019C77.5121 19.3791 77.5303 19.3608 77.5531 19.3471C77.5896 19.2969 77.471 19.3882 77.5714 19.3471C77.5121 19.37 77.4482 19.3837 77.3843 19.3973C77.261 19.4247 77.4117 19.3973 77.3386 19.4019C77.2747 19.4065 77.2108 19.411 77.1469 19.4156C76.9598 19.4293 76.7727 19.443 76.5856 19.4521L75.5587 19.5206L73.5049 19.6621C73.1352 19.6894 72.8203 19.9587 72.8203 20.3466C72.8203 20.6981 73.1352 21.0586 73.5049 21.0312V21.0358Z" fill="#231F20"/>
</svg>
