<svg width="80" height="81" viewBox="0 0 80 81" fill="none" xmlns="http://www.w3.org/2000/svg">
<path d="M38.3399 56.6441C31.4366 56.8156 24.5333 56.9041 17.63 56.8986C14.123 56.8986 10.616 56.8654 7.1146 56.8156C5.80917 56.799 4.07781 57.0535 3.24809 55.8089C2.58431 54.8187 2.54005 53.4801 2.45708 52.3296C1.9869 45.3931 1.72692 38.44 1.67161 31.4869C1.64395 27.991 1.67161 24.4951 1.74905 20.9991C1.78777 19.2069 1.84309 17.4092 1.90946 15.617C1.97031 14.0073 2.15838 12.4087 2.22476 10.7991C2.32986 8.23797 1.39503 4.91354 3.87315 3.12133C4.95179 2.34139 6.35126 2.19204 7.64563 2.16438C9.22211 2.1312 10.7986 2.24736 12.3751 2.29714C19.3226 2.535 26.2702 2.68988 33.2233 2.76179C40.1764 2.8337 47.0465 2.82263 53.9554 2.7286C57.3185 2.68435 60.7038 2.69541 64.0614 2.52946C65.5217 2.45755 67.0429 2.19204 68.4866 2.50181C69.6427 2.75072 71.1749 3.52513 71.6451 4.68675C71.9161 5.36159 71.894 6.11388 71.8995 6.82191C71.8995 7.72354 71.9493 8.61965 71.9936 9.52128C72.0821 11.2526 72.0931 12.9895 72.0876 14.7209C72.0766 18.1891 71.9549 21.6574 71.811 25.1201C71.5179 32.029 71.1196 38.9433 71.2745 45.8632C71.3132 47.5891 71.3906 49.3094 71.5068 51.0352C71.5787 52.0972 73.2382 52.1028 73.1663 51.0352C72.674 43.7723 72.9616 36.4929 73.2879 29.23C73.4484 25.5792 73.6198 21.9284 73.7028 18.2776C73.7415 16.4523 73.7581 14.6324 73.7415 12.807C73.7249 10.9816 73.5977 9.25024 73.5645 7.46909C73.5369 5.92581 73.6198 4.31061 72.5689 3.05496C71.7336 2.04822 70.4116 1.27381 69.1504 0.947454C67.6348 0.554718 66.0583 0.737257 64.5205 0.836824C62.7947 0.947454 61.0578 0.941923 59.332 0.975112C52.0912 1.11893 44.8505 1.16871 37.6098 1.12999C30.369 1.09127 23.1615 0.964049 15.9373 0.74832C14.1064 0.693005 12.281 0.632159 10.4501 0.565781C8.94 0.510466 7.4299 0.421962 5.92533 0.63769C4.55905 0.836824 3.22043 1.34572 2.23582 2.34139C1.25121 3.33706 0.725722 4.66462 0.532119 6.00878C0.316391 7.51335 0.620623 9.02345 0.57084 10.5335C0.515525 12.2262 0.310859 13.9133 0.250013 15.6059C0.106194 19.2401 0.0287528 22.8799 0.00662678 26.5141C-0.0376252 33.799 0.139383 41.084 0.548714 48.3524C0.642749 50.0617 0.698064 51.7819 0.886135 53.4801C1.02442 54.7302 1.2844 56.0191 2.08647 57.0258C3.03236 58.2096 4.43183 58.4253 5.86449 58.4529C7.69541 58.4917 9.52634 58.5083 11.3628 58.5248C18.5206 58.5912 25.6839 58.558 32.8416 58.4253C34.6725 58.3921 36.5035 58.3478 38.3344 58.3036C39.402 58.2759 39.402 56.6165 38.3344 56.6441H38.3399Z" fill="#231F20"/>
<path d="M9.52053 50.8304L18.4263 50.9134C21.2252 50.9411 24.0628 51.096 26.8507 50.8194C27.9017 50.7143 27.9128 49.0548 26.8507 49.1599C24.0628 49.442 21.2252 49.2816 18.4263 49.254L9.52053 49.171C8.45295 49.1599 8.45295 50.8194 9.52053 50.8304Z" fill="#231F20"/>
<path d="M9.45498 44.4529C14.0683 44.6686 18.6539 44.9618 23.2727 44.7184C27.2332 44.5082 31.1993 44.6188 35.1599 44.4086C36.2219 44.3533 36.2274 42.6938 35.1599 42.7492C31.1993 42.9594 27.2332 42.8487 23.2727 43.0589C18.6594 43.3023 14.0683 43.0091 9.45498 42.7934C8.3874 42.7436 8.3874 44.4031 9.45498 44.4529Z" fill="#231F20"/>
<path d="M8.33594 22.4593C8.8393 27.3713 9.00525 32.3054 8.8393 37.2395C8.82271 37.7926 9.38139 38.1633 9.89029 38.0416C12.468 37.411 15.2227 38.0858 17.8335 38.1688C20.638 38.2573 23.448 38.213 26.2469 38.1522C29.0459 38.0913 31.9223 38.0084 34.7489 37.8092C35.2633 37.7705 35.7556 37.7318 36.0432 37.2395C36.3309 36.7472 36.3032 35.9838 36.3585 35.4362C36.5023 34.0478 36.5521 32.6483 36.5521 31.2489C36.5521 28.0627 36.3419 24.8766 36.2036 21.696C36.187 21.2866 35.8386 20.8109 35.3739 20.8663C33.2332 21.1096 31.0759 20.8607 28.9297 20.8109C26.7835 20.7612 24.5764 20.822 22.397 20.9216C18.0437 21.1207 13.6904 21.4692 9.33161 21.4471C8.26403 21.4471 8.26403 23.101 9.33161 23.1065C13.696 23.1231 18.0437 22.7802 22.397 22.581C24.5709 22.4815 26.7503 22.4206 28.9297 22.4704C31.1091 22.5202 33.2332 22.7691 35.3739 22.5257L34.5442 21.696C34.6659 24.3843 34.8152 27.0726 34.8761 29.7609C34.9037 31.0719 34.9037 32.3773 34.8374 33.6883C34.8042 34.3189 34.7544 34.9495 34.688 35.5745C34.6714 35.7515 34.6493 35.9341 34.6272 36.1111L34.605 36.2715C34.5221 36.5812 34.6659 36.537 35.0254 36.1387C34.9646 36.0613 34.0353 36.194 33.9302 36.2051C28.6255 36.4983 23.2821 36.6753 17.9663 36.5259C15.1397 36.4485 12.2467 35.7736 9.4533 36.454L10.5043 37.2561C10.6702 32.322 10.5043 27.3824 10.0009 22.4759C9.89582 21.4249 8.23084 21.4139 8.34147 22.4759L8.33594 22.4593Z" fill="#231F20"/>
<path d="M10.3181 5.96489C9.51604 5.56109 8.58122 5.56109 7.79021 6.00914C7.07112 6.41848 6.55669 7.19842 6.57881 8.03921C6.60647 9.06253 7.3311 10.0361 8.35996 10.2297C8.97395 10.3458 9.55476 10.2407 10.1134 9.97523C10.567 9.7595 10.9929 9.38889 11.2419 8.94637C11.8227 7.90092 11.3636 6.52911 10.3181 5.96489C9.93643 5.76023 9.39988 5.85426 9.18415 6.26359C8.96842 6.67292 9.07352 7.18182 9.48285 7.39755C9.53263 7.42521 9.57689 7.45287 9.62114 7.48052C9.7373 7.55243 9.45519 7.3367 9.61007 7.48052C9.6488 7.51924 9.68752 7.55796 9.72624 7.59669C9.83133 7.70732 9.60454 7.41968 9.70964 7.57456C9.7373 7.61328 9.75943 7.652 9.78155 7.69625C9.79261 7.71838 9.80921 7.74604 9.82027 7.76816C9.85346 7.8456 9.8424 7.81795 9.78708 7.67966C9.80921 7.78476 9.85346 7.88432 9.87006 7.98942L9.8424 7.76816C9.85346 7.87326 9.85899 7.97836 9.8424 8.08899L9.87006 7.86773C9.85899 7.93964 9.84793 8.01155 9.8258 8.08346C9.78155 8.22728 9.85899 8.04474 9.85346 8.02814C9.85346 8.04474 9.79815 8.13324 9.78708 8.14984C9.76496 8.18302 9.74283 8.21068 9.72624 8.24387C9.67092 8.32684 9.85346 8.10005 9.75389 8.19962C9.69305 8.26047 9.6322 8.31578 9.57135 8.37663C9.50498 8.443 9.74836 8.25493 9.61007 8.34344C9.57689 8.36556 9.54923 8.38769 9.51604 8.40982C9.4386 8.4596 9.35563 8.50385 9.27265 8.54257C9.1399 8.60895 9.40541 8.49832 9.30584 8.53151C9.26712 8.54257 9.2284 8.55917 9.18415 8.57576C9.08458 8.60342 8.99055 8.62554 8.88545 8.64214L9.10671 8.61448C8.95736 8.63661 8.80801 8.63661 8.65866 8.62001L8.87992 8.64767C8.80801 8.63661 8.7361 8.62554 8.66419 8.60342C8.65866 8.60342 8.53696 8.57023 8.53696 8.5647C8.53696 8.5647 8.72503 8.6532 8.6144 8.59789C8.54803 8.5647 8.48718 8.52598 8.42633 8.48726C8.29358 8.40428 8.56462 8.62001 8.45952 8.50938C8.43186 8.48173 8.40421 8.4596 8.38208 8.43194C8.32123 8.36556 8.35442 8.33791 8.41527 8.48173C8.40421 8.44854 8.37102 8.42088 8.35442 8.39322C8.3157 8.33238 8.28805 8.27153 8.25486 8.20515C8.21614 8.12771 8.32677 8.41535 8.28805 8.27153C8.27698 8.23834 8.26592 8.21068 8.26039 8.17749C8.24379 8.11111 8.2272 8.04474 8.21614 7.97836L8.24379 8.19962C8.2272 8.07239 8.2272 7.94517 8.24379 7.81795L8.21614 8.03921C8.2272 7.96176 8.24379 7.88432 8.27145 7.81241C8.3323 7.62987 8.18848 7.97283 8.24933 7.85667C8.26592 7.82901 8.27698 7.79582 8.29358 7.76816C8.3157 7.72944 8.33783 7.69072 8.36549 7.65753C8.45399 7.52478 8.34336 7.71285 8.3157 7.71838C8.35996 7.70732 8.45399 7.56903 8.49271 7.53584C8.54803 7.48606 8.66419 7.41968 8.44293 7.56903C8.47612 7.5469 8.50931 7.52478 8.54249 7.50265C8.60887 7.4584 8.68078 7.41968 8.75269 7.38649C8.90757 7.30905 8.56462 7.45287 8.69738 7.40861C8.7361 7.39755 8.77482 7.38096 8.81354 7.36989C8.89651 7.34224 8.98501 7.32564 9.07352 7.31458L8.85226 7.34224C9.00714 7.32011 9.16202 7.32011 9.32244 7.34224L9.10118 7.31458C9.19521 7.32564 9.28372 7.34777 9.37222 7.36989C9.41647 7.38096 9.45519 7.39755 9.49944 7.41415C9.6322 7.4584 9.28925 7.31458 9.47732 7.41415C9.86452 7.60775 10.3955 7.53031 10.6113 7.11544C10.8104 6.7393 10.7274 6.18615 10.3126 5.98149L10.3181 5.96489Z" fill="#231F20"/>
<path d="M19.239 8.4424C19.4602 7.53523 19.1173 6.50637 18.3927 5.9145C17.9833 5.58261 17.491 5.36135 16.9545 5.38348C16.4179 5.40561 15.8426 5.63793 15.4057 5.95876C14.5427 6.58935 14.0173 7.57395 14.2109 8.65813C14.4155 9.79762 15.4776 10.5444 16.606 10.478C17.8063 10.4061 18.9182 9.62061 19.2445 8.4424C19.3607 8.02201 19.1007 7.51864 18.6637 7.41907C18.2267 7.3195 17.7676 7.55183 17.6404 7.99988C17.6293 8.04413 17.6127 8.09392 17.5961 8.13817C17.5685 8.22667 17.5463 8.15476 17.6238 8.07179C17.5795 8.11604 17.5463 8.22667 17.5076 8.28199C17.491 8.30964 17.4689 8.3373 17.4523 8.35943C17.3583 8.50325 17.5795 8.21561 17.4634 8.34283C17.4025 8.40921 17.3417 8.47006 17.2753 8.5309C17.2255 8.57516 17.137 8.61388 17.3085 8.50878C17.2808 8.52537 17.2532 8.5475 17.2311 8.56409C17.1647 8.60834 17.0928 8.6526 17.0209 8.69132C16.9821 8.70791 16.9489 8.72451 16.9102 8.74663C16.8051 8.79642 17.1094 8.67472 16.9489 8.72451C16.866 8.75216 16.7775 8.77982 16.689 8.79642C16.6502 8.80195 16.606 8.80748 16.5673 8.81854C16.7222 8.75216 16.7166 8.80195 16.6171 8.80748C16.5451 8.80748 16.4677 8.81301 16.3958 8.80748H16.346C16.2575 8.79642 16.2796 8.80195 16.4179 8.81854C16.3903 8.80748 16.346 8.80748 16.3184 8.80195C16.2796 8.79088 16.2409 8.78535 16.1967 8.77429C16.1745 8.76876 16.1469 8.7577 16.1248 8.75216C16.0418 8.71897 16.0639 8.73004 16.1856 8.77982C16.1469 8.73557 16.0473 8.70238 15.9975 8.67472C15.9035 8.62494 16.1524 8.81854 16.0307 8.70238C16.0086 8.68025 15.9865 8.65813 15.9588 8.636C15.8316 8.52537 16.0639 8.80195 15.9588 8.64706C15.9422 8.61941 15.9201 8.58622 15.9035 8.55856C15.8758 8.51431 15.8537 8.47006 15.8316 8.42027C15.7597 8.28199 15.8869 8.59175 15.8426 8.43687C15.8205 8.36496 15.815 8.26539 15.7873 8.20455C15.7929 8.22114 15.8039 8.42027 15.7984 8.28752C15.7984 8.2488 15.7984 8.21008 15.7984 8.17136C15.7984 8.13264 15.7984 8.09391 15.7984 8.05519C15.7984 7.92244 15.7929 8.1271 15.7873 8.13817C15.8261 8.06626 15.8261 7.95563 15.8537 7.87265C15.8592 7.85053 15.9146 7.70118 15.8592 7.845C15.8039 7.98882 15.8592 7.845 15.8758 7.81734C15.909 7.75096 15.9533 7.68458 15.992 7.61821C16.0086 7.59055 16.0307 7.56842 16.0473 7.54076C15.9367 7.7233 15.9754 7.62927 16.0197 7.57949C16.075 7.51311 16.1358 7.45226 16.2022 7.39141C16.2299 7.36376 16.263 7.34163 16.2907 7.31397C16.3737 7.23653 16.1192 7.43567 16.252 7.34163C16.3184 7.29738 16.3847 7.25313 16.4511 7.21441C16.523 7.17569 16.6005 7.13696 16.6724 7.10378C16.7111 7.08718 16.8051 7.02634 16.6447 7.11484C16.6945 7.08718 16.7609 7.07059 16.8162 7.05399C16.8328 7.05399 16.9877 6.99868 16.9932 7.00974C16.9987 7.0208 16.783 7.01527 16.9213 7.02634C16.9545 7.02634 16.9932 7.02634 17.0264 7.02634C17.1149 7.02634 17.137 7.08165 16.9545 7.01527C17.0153 7.0374 17.0928 7.04846 17.1536 7.06506C17.2255 7.08718 17.22 7.13143 17.0706 7.02634C17.1038 7.04846 17.1481 7.06506 17.1813 7.08165C17.2145 7.09824 17.2532 7.1259 17.2864 7.14803C17.4136 7.231 17.1425 7.01527 17.2532 7.12037C17.314 7.18122 17.3749 7.23653 17.4302 7.30291C17.4744 7.35269 17.4689 7.40248 17.3804 7.23653C17.4025 7.27525 17.4302 7.30844 17.4523 7.34163C17.4966 7.41354 17.5298 7.49651 17.574 7.56842C17.4744 7.41907 17.5187 7.41907 17.5408 7.49098C17.5574 7.54077 17.574 7.58502 17.5851 7.6348C17.5961 7.66799 17.6017 7.70118 17.6127 7.73437C17.6183 7.76202 17.6238 7.78968 17.6293 7.81734L17.6127 7.67905C17.6404 7.74543 17.6238 7.85606 17.6238 7.92797C17.6238 7.95563 17.6183 7.98328 17.6183 8.01094C17.6404 7.85606 17.6459 7.82287 17.6293 7.91138C17.6293 7.93903 17.6183 7.96669 17.6127 7.98882C17.5076 8.40921 17.7455 8.90705 18.1935 9.01214C18.6416 9.11724 19.1007 8.88492 19.2169 8.43134L19.239 8.4424Z" fill="#231F20"/>
<path d="M23.9465 10.5116C24.5937 10.6167 25.2188 10.5614 25.8162 10.2793C26.3527 10.0249 26.7289 9.56022 26.9335 9.0126C27.2433 8.18841 27.2599 7.18721 26.6459 6.5013C26.3693 6.19153 25.9655 6.009 25.5728 5.8873C25.18 5.76561 24.732 5.6937 24.3171 5.72136C23.7806 5.76008 23.3049 5.92602 22.89 6.27451C22.5028 6.60087 22.2317 7.12636 22.1543 7.61866C22.0492 8.26585 22.1156 8.97941 22.4917 9.53809C22.8347 10.0415 23.3491 10.3955 23.952 10.5116C24.378 10.5946 24.8703 10.3955 24.9754 9.93083C25.0694 9.5215 24.8537 8.99601 24.3946 8.9075C24.3171 8.89091 24.2341 8.87431 24.1622 8.84666C24.129 8.83559 24.0959 8.819 24.0571 8.80794C24.2507 8.85772 24.1899 8.86325 24.118 8.83006C24.0848 8.81347 24.0571 8.79687 24.0239 8.77475C23.941 8.72496 23.9354 8.65858 24.0516 8.8024C24.0018 8.74156 23.9354 8.69177 23.8801 8.63093C23.8082 8.55349 23.9908 8.81347 23.9133 8.66965C23.8912 8.63093 23.8691 8.58668 23.8414 8.54795C23.7861 8.45945 23.8801 8.53689 23.8635 8.6088C23.8691 8.58667 23.8193 8.48711 23.8138 8.45945C23.7916 8.38754 23.7916 8.26585 23.7584 8.205C23.8193 8.29904 23.7695 8.36542 23.7695 8.27138C23.7695 8.19947 23.764 8.13309 23.7695 8.06118C23.7695 8.06118 23.7806 7.96715 23.775 7.95608L23.7584 8.07225C23.7584 8.03906 23.7695 8.00587 23.775 7.96715C23.7916 7.88417 23.8193 7.8012 23.8469 7.71823C23.8967 7.55228 23.7806 7.85099 23.8359 7.74589C23.858 7.7127 23.8691 7.67398 23.8912 7.64079C23.9078 7.6076 23.9299 7.57441 23.952 7.54675C24.0571 7.38634 23.8359 7.66291 23.941 7.56335C23.9631 7.54122 23.9908 7.51356 24.0129 7.49144C24.0627 7.43612 24.1456 7.41953 23.952 7.53016C24.0074 7.49697 24.0627 7.45825 24.118 7.42506C24.1954 7.38634 24.2729 7.39187 24.0627 7.44165C24.0848 7.43612 24.1125 7.42506 24.1346 7.414C24.212 7.39187 24.2895 7.38081 24.3669 7.35868C24.1456 7.42506 24.2176 7.37528 24.3061 7.36974C24.3337 7.36974 24.3614 7.36974 24.389 7.36974C24.4554 7.36974 24.5273 7.36974 24.5937 7.36974C24.6379 7.36974 24.6767 7.36974 24.7209 7.38081C24.7486 7.38081 24.8979 7.40293 24.7375 7.38081C24.5771 7.35868 24.7209 7.38081 24.7541 7.38081C24.7984 7.38634 24.8371 7.3974 24.8813 7.40847C25.0252 7.44165 25.1579 7.48037 25.2962 7.53016C25.3626 7.55228 25.4345 7.61313 25.2188 7.49697C25.2519 7.51356 25.2851 7.52463 25.3128 7.54122C25.357 7.56335 25.4345 7.63526 25.4843 7.64632C25.4843 7.64632 25.3183 7.49697 25.3902 7.57441C25.4124 7.59654 25.4345 7.61313 25.4566 7.63526C25.4677 7.65185 25.4843 7.66291 25.4953 7.67951C25.5894 7.76801 25.3792 7.49144 25.44 7.60207C25.4621 7.64079 25.4843 7.6961 25.5119 7.72929C25.3792 7.55228 25.4455 7.54675 25.4621 7.61313C25.4732 7.65185 25.4898 7.69057 25.4953 7.72929C25.4953 7.75142 25.5064 7.77354 25.5064 7.79014C25.534 7.92843 25.4898 7.55782 25.4953 7.70164C25.4953 7.76248 25.5009 7.8178 25.4953 7.87864C25.4953 7.94502 25.4843 8.00587 25.4787 8.07225C25.4898 7.76801 25.4787 8.07225 25.4566 8.14969C25.4345 8.24925 25.4068 8.35435 25.3792 8.44839C25.3681 8.47604 25.2962 8.61433 25.3681 8.49817C25.44 8.37648 25.3349 8.55902 25.3183 8.58114C25.3073 8.59774 25.2741 8.63646 25.2685 8.65858C25.3515 8.55349 25.3681 8.53136 25.3128 8.59774C25.2907 8.61986 25.2685 8.64199 25.2464 8.66412C25.2243 8.68624 25.2022 8.70284 25.18 8.72496C25.1137 8.78028 25.1302 8.76368 25.2353 8.68071C25.2077 8.6973 25.1856 8.7139 25.1579 8.73049C25.1302 8.74709 25.1026 8.76368 25.0749 8.77475C25.0473 8.79134 25.0196 8.8024 24.992 8.819C25.1192 8.76921 25.1413 8.75815 25.0583 8.79134C24.9698 8.819 24.8813 8.84666 24.7873 8.86878C24.7541 8.87431 24.7043 8.87431 24.6711 8.89091C24.7928 8.87431 24.8094 8.87431 24.7154 8.87984C24.6877 8.87984 24.6545 8.87984 24.6269 8.87984C24.5771 8.87984 24.5273 8.87984 24.4775 8.87984C24.4222 8.87984 24.1622 8.84112 24.4056 8.87984C24.1788 8.84112 23.9742 8.84112 23.764 8.96282C23.5925 9.06238 23.4265 9.26152 23.3823 9.46065C23.2938 9.85892 23.504 10.4065 23.9631 10.484L23.9465 10.5116Z" fill="#231F20"/>
<path d="M1.79935 15.0304C10.965 15.7938 20.1529 15.0526 29.3186 14.7483C38.4843 14.4441 47.6887 14.9585 56.8765 15.2628C62.0816 15.4342 67.2923 15.5062 72.4975 15.2628C73.5595 15.213 73.565 13.5535 72.4975 13.6033C63.3152 14.0348 54.1273 13.4706 44.9506 13.1553C40.3373 13.0004 35.7185 12.9174 31.1052 13.0391C26.492 13.1608 21.9672 13.4208 17.3982 13.5812C12.1986 13.7637 6.98789 13.808 1.79935 13.3765C0.737298 13.288 0.742829 14.9475 1.79935 15.036V15.0304Z" fill="#231F20"/>
<path d="M54.8845 48.4244L54.8402 48.5793L56.472 48.8005C56.3669 47.8325 56.472 46.8645 56.4388 45.8965C56.4056 44.9285 56.3227 43.9383 56.3005 42.9537C56.2508 41.0122 56.2895 39.0651 56.3946 37.1235C56.4775 35.5913 56.5992 33.9097 55.6755 32.5822C54.8015 31.3321 53.1476 30.5134 51.6319 30.447C50.1163 30.3806 48.7003 31.3652 47.9701 32.6873C47.2012 34.0757 47.0961 35.7075 47.1293 37.2618C47.2123 41.0288 47.2233 44.7902 47.1736 48.5627C47.1127 53.0543 46.9855 57.5458 46.7919 62.0319C46.7476 63.0995 48.4071 63.0995 48.4513 62.0319C48.7556 54.8907 48.8939 47.7385 48.8717 40.5863C48.8717 39.1425 48.739 37.6988 48.7888 36.2551C48.833 34.9275 49.093 33.3953 50.227 32.549C51.3609 31.7027 53.0867 32.2448 54.016 33.1796C55.0283 34.1974 54.796 35.8181 54.7241 37.1235C54.619 39.0651 54.5802 41.0122 54.63 42.9537C54.6522 43.9328 54.7407 44.9119 54.7683 45.8965C54.796 46.8811 54.6909 47.8325 54.8015 48.8005C54.9011 49.6856 56.1567 49.9843 56.4333 49.0218L56.4775 48.8669C56.7707 47.8381 55.1666 47.3955 54.8789 48.4244H54.8845Z" fill="#231F20"/>
<path d="M56.5939 48.7728C56.3395 46.87 58.8065 45.8688 60.3498 46.2338C62.1254 46.6487 63.1598 48.4575 62.9994 50.2055C62.9607 50.6535 63.4087 51.0352 63.8291 51.0352C64.3104 51.0352 64.6201 50.6535 64.6589 50.2055C64.8857 47.6831 63.1211 45.0446 60.5711 44.591C59.321 44.3697 57.9934 44.5855 56.9148 45.2603C55.7531 45.9905 54.7464 47.3401 54.94 48.7783C55.0009 49.2209 55.2774 49.6081 55.7697 49.6081C56.1735 49.6081 56.6603 49.2264 56.5995 48.7783L56.5939 48.7728Z" fill="#231F20"/>
<path d="M64.6253 50.0397C64.5146 49.3925 64.8521 48.5849 65.4439 48.1866C65.8699 47.899 66.423 47.7773 66.9264 47.7164C67.3689 47.6611 67.8612 47.639 68.2816 47.8049C69.0726 48.1147 69.5704 49.0772 69.8581 49.8239C70.2342 50.8085 70.3614 51.8374 70.2619 52.8884C70.2176 53.3364 70.6767 53.7181 71.0916 53.7181C71.5784 53.7181 71.8771 53.3364 71.9213 52.8884C72.0264 51.8153 71.9047 50.7034 71.5618 49.6746C71.2409 48.701 70.7431 47.6943 69.9853 46.9807C69.1556 46.1953 68.0603 45.9353 66.943 46.057C65.8256 46.1787 64.7359 46.4608 63.956 47.285C63.1318 48.1534 62.822 49.3206 63.0156 50.4877C63.0875 50.9302 63.6351 51.1792 64.0389 51.0685C64.5091 50.9413 64.6917 50.4932 64.6197 50.0452L64.6253 50.0397Z" fill="#231F20"/>
<path d="M48.661 49.6747C47.422 46.7208 44.1529 44.0215 40.7621 44.8401C38.9699 45.2716 38.1125 46.7872 37.9244 48.5186C37.7031 50.5763 37.8304 52.7004 37.8746 54.7581C37.9576 58.9344 37.6866 63.2379 38.4997 67.3589C39.2686 71.2531 41.2931 74.5719 43.8929 77.5147C44.9771 78.7482 46.2991 80.0371 48.0083 80.2362C49.0261 80.3524 50.0937 80.2805 51.117 80.2915C52.3008 80.3026 53.4845 80.3137 54.6683 80.3302C56.8532 80.3524 59.0381 80.3745 61.2231 80.3966C63.408 80.4188 65.6262 80.5958 67.789 80.4298C71.0526 80.1809 73.409 78.1951 75.1569 75.551C77.364 72.2155 79.3609 68.7418 79.5324 64.654C79.6319 62.2256 79.5932 59.7807 79.5766 57.3469C79.5711 56.3567 79.5821 55.3666 79.6043 54.3764C79.6209 53.5522 79.5932 52.6838 79.3166 51.8983C78.6528 50.0176 76.7113 49.1381 74.8029 49.3704C72.8946 49.6028 71.2351 50.8197 70.433 52.54C69.985 53.5025 71.4176 54.3488 71.8657 53.3752C72.4797 52.0587 73.7188 51.0797 75.1957 50.9912C76.6726 50.9027 77.7125 51.6937 77.9006 53.1208C77.9835 53.768 77.9393 54.4428 77.9172 55.09C77.8895 55.9308 77.9116 56.7716 77.9172 57.6124C77.9282 59.5429 77.9282 61.4678 77.9006 63.3983C77.8784 65.2182 77.707 66.9385 77.0708 68.6588C76.4845 70.2353 75.6271 71.7011 74.7365 73.1172C73.2873 75.4349 71.7219 77.8798 68.9008 78.5768C67.2248 78.9916 65.3883 78.7704 63.6791 78.7482C61.7652 78.7261 59.8568 78.7095 57.9429 78.6874C56.029 78.6653 53.9381 78.6487 51.9357 78.6265C51.023 78.6155 50.1158 78.6099 49.2031 78.5989C48.3789 78.5878 47.7207 78.5657 47.0016 78.1232C45.7459 77.3488 44.7447 76.0267 43.832 74.8872C42.77 73.5542 41.885 72.0662 41.1935 70.5063C39.7332 67.204 39.617 63.5587 39.5949 60.0075C39.5839 57.8945 39.5396 55.7814 39.5064 53.6684C39.4898 52.5898 39.4788 51.5111 39.4954 50.4325C39.5119 49.5419 39.4511 48.5407 39.7609 47.6889C40.3417 46.0737 42.322 46.1677 43.644 46.7208C45.1541 47.3459 46.4208 48.596 47.0514 50.1061C47.2284 50.521 47.599 50.8086 48.0747 50.6869C48.4674 50.5818 48.827 50.0785 48.6555 49.6636L48.661 49.6747Z" fill="#231F20"/>
<path d="M47.9148 33.6772C45.5031 33.9428 43.4122 31.5421 44.6733 29.2631C45.3427 28.0517 46.4434 27.6977 47.7599 27.659C49.4083 27.6147 51.0622 27.6092 52.7106 27.6037C54.359 27.5981 56.0406 27.6037 57.7 27.6147C58.9667 27.6258 60.2943 27.5539 61.55 27.7475C62.612 27.9134 63.5026 28.4223 63.9396 29.4456C64.288 30.2588 64.2659 31.2655 63.9396 32.0842C63.4362 33.3343 62.3244 33.456 61.1074 33.5002C59.365 33.5611 57.6226 33.5224 55.8746 33.5555C54.8071 33.5777 54.8071 35.2371 55.8746 35.215C57.7719 35.1763 59.6748 35.2592 61.5721 35.1376C63.0435 35.0491 64.3378 34.6729 65.151 33.3564C66.5394 31.0996 65.8092 27.6922 63.32 26.5527C61.998 25.9497 60.4824 25.994 59.0608 25.9719C56.9865 25.9387 54.9122 25.9387 52.8378 25.9442C50.7635 25.9497 48.7058 25.817 46.7034 26.077C45.1657 26.2761 43.8436 27.1943 43.1467 28.5883C42.3833 30.1205 42.4497 31.9293 43.473 33.3288C44.4963 34.7282 46.1945 35.5248 47.9037 35.3367C48.9547 35.2205 48.9658 33.5611 47.9037 33.6772H47.9148Z" fill="#231F20"/>
<path d="M45.7362 33.279C46.2727 32.3331 46.8701 31.4204 47.4952 30.5299C47.8049 30.0929 48.1147 29.6559 48.43 29.2244C48.5959 28.9976 48.7619 28.7708 48.9278 28.544C49.0163 28.4279 49.0993 28.3062 49.1878 28.19C49.2321 28.1292 49.2763 28.0739 49.315 28.013C49.3869 27.9135 49.4035 27.8969 49.3482 27.9688L48.9831 28.1845L49.0274 28.1734L48.2198 27.9577L48.2419 27.9798L47.9985 27.3935V27.4211C48.1977 27.1556 48.4023 26.8901 48.607 26.6191H48.5849C48.1645 26.785 47.8768 27.1888 48.0041 27.6479C48.1147 28.0517 48.6015 28.3836 49.0274 28.2287H49.0495C49.4201 28.0849 49.6303 27.8139 49.658 27.4211C49.6746 27.1833 49.5584 26.951 49.398 26.785C49.1933 26.5748 48.8725 26.4919 48.5904 26.5693C48.1977 26.6855 48.0151 27.0008 47.7883 27.3105C47.6058 27.5594 47.4288 27.8028 47.2463 28.0517C46.8978 28.5274 46.5548 29.0032 46.2119 29.4789C45.5315 30.4358 44.8843 31.4149 44.3035 32.4382C44.0822 32.831 44.2095 33.3454 44.6022 33.5722C44.9949 33.799 45.5149 33.6662 45.7362 33.2735V33.279Z" fill="#231F20"/>
<path d="M50.6684 31.8574C50.7016 31.8131 50.7348 31.7689 50.768 31.7246C50.7901 31.697 50.8454 31.625 50.7901 31.6914C50.8565 31.6029 50.9284 31.5144 50.9948 31.4259C51.1331 31.2489 51.2713 31.0774 51.4096 30.9004C51.6973 30.5409 51.9849 30.1869 52.2781 29.8328C52.8478 29.1414 53.4176 28.45 53.9873 27.7585C54.2639 27.4266 54.3413 26.9067 53.9873 26.5859C53.6831 26.3037 53.1078 26.2263 52.8146 26.5859C51.6032 28.0517 50.3808 29.5065 49.2302 31.0111C48.9647 31.3595 49.1638 31.9569 49.5289 32.145C49.9659 32.3773 50.3808 32.2169 50.6629 31.8463L50.6684 31.8574Z" fill="#231F20"/>
<path d="M54.7626 32.1949C55.5481 31.4481 56.2174 30.6018 56.8701 29.7389C57.1799 29.3296 57.4841 28.9147 57.7939 28.5054C57.827 28.4611 57.8602 28.4169 57.8934 28.3726C58.0538 28.1624 57.8492 28.4279 57.9432 28.3118C58.0206 28.2122 58.0981 28.1126 58.1755 28.0186C58.3415 27.8139 58.5019 27.5816 58.6955 27.4046L58.3304 27.6203L58.3857 27.6093L57.5781 27.3935L57.6003 27.4212L57.3569 26.8349V26.868C57.4896 26.6302 57.6279 26.3923 57.7662 26.149L57.7385 26.16C57.3403 26.3315 57.2186 26.951 57.4398 27.294C57.7054 27.7088 58.1479 27.7752 58.5738 27.5927L58.6015 27.5816C58.8725 27.4654 58.9942 27.1336 59.0108 26.8625C59.0495 26.1987 58.2474 25.7396 57.6888 26.0992C57.4122 26.2817 57.2075 26.5915 56.9973 26.8459C56.5991 27.3438 56.2174 27.8582 55.8302 28.3726C55.6587 28.6049 55.4817 28.8373 55.3047 29.0696C55.3047 29.0696 55.1498 29.2743 55.2328 29.1636C55.1885 29.2189 55.1498 29.2742 55.1056 29.3296C55.0115 29.4513 54.9175 29.5674 54.8179 29.6836C54.4307 30.1538 54.0269 30.6073 53.5844 31.0222C53.2691 31.3209 53.258 31.8962 53.5844 32.1949C53.9107 32.4936 54.4196 32.5157 54.7571 32.1949H54.7626Z" fill="#231F20"/>
<path d="M57.6333 34.3022C59.326 32.1615 60.9522 29.971 62.501 27.7308C62.7555 27.3601 62.5674 26.807 62.2023 26.5968C61.7875 26.3534 61.3228 26.5249 61.0684 26.8955C59.597 29.0196 58.0593 31.105 56.4606 33.135C56.1841 33.489 56.1177 33.9648 56.4606 34.3077C56.7483 34.5953 57.3568 34.6617 57.6333 34.3077V34.3022Z" fill="#231F20"/>
<path d="M61.9806 33.8816C61.975 33.7821 61.9806 33.8374 61.964 33.9038C61.9474 33.9701 61.9142 33.9923 61.964 33.9148C62.0138 33.8374 62.0746 33.7544 62.1299 33.677C62.2572 33.5055 62.3844 33.3395 62.5116 33.1736C62.5448 33.1293 62.578 33.0906 62.6056 33.0464C62.5503 33.1128 62.589 33.0685 62.6222 33.0243C62.6886 32.9413 62.7495 32.8583 62.8158 32.7753C62.9541 32.5983 63.0924 32.4213 63.2362 32.2498C63.7728 31.5805 64.3315 30.9278 64.9012 30.2862C65.1888 29.9598 65.2442 29.4288 64.9012 29.1135C64.5859 28.8258 64.0328 28.765 63.7285 29.1135C63.109 29.816 62.5005 30.5295 61.9142 31.2597C61.5989 31.6524 61.2891 32.0562 60.9794 32.4545C60.6696 32.8528 60.2658 33.3119 60.3156 33.8761C60.3488 34.3076 60.6696 34.728 61.1453 34.7058C61.5657 34.6892 62.0138 34.3407 61.975 33.8761L61.9806 33.8816Z" fill="#231F20"/>
<path d="M11.1311 30.6846L11.369 34.7281C11.3967 35.154 11.7285 35.5855 12.1987 35.5578C12.7021 35.5302 13.211 35.5246 13.7144 35.5523C13.9577 35.5633 14.2067 35.5799 14.45 35.6076C14.5717 35.6187 14.6934 35.6353 14.8151 35.6519C14.7266 35.6408 14.7819 35.6519 14.8373 35.6519C14.9202 35.6629 14.9977 35.674 15.0806 35.6906C15.5066 35.757 15.9933 35.5799 16.104 35.1098C16.1925 34.7115 15.9823 34.1639 15.5232 34.0864C14.4224 33.9094 13.3161 33.832 12.1987 33.8984L13.0284 34.7281L12.7906 30.6846C12.7629 30.2531 12.4255 29.8327 11.9609 29.8548C11.5349 29.8714 11.1035 30.2199 11.1311 30.6846Z" fill="#231F20"/>
<path d="M18.0615 35.7403C18.0947 35.7237 18.1279 35.7071 18.1611 35.6961L17.962 35.7791C18.0836 35.7293 18.2109 35.6961 18.3436 35.674L18.1224 35.7016C18.2662 35.685 18.4155 35.685 18.5594 35.7016L18.3381 35.674C18.4709 35.6906 18.5981 35.7293 18.7198 35.7791L18.5206 35.6961L18.5428 35.7072C18.6368 35.768 18.7419 35.8012 18.8525 35.8067C18.9632 35.8288 19.0738 35.8288 19.1844 35.7901C19.378 35.7348 19.5882 35.591 19.6823 35.4084C19.7818 35.2148 19.8371 34.9825 19.7652 34.7668L19.6823 34.5677C19.6103 34.4404 19.5108 34.3464 19.3835 34.269C19.2121 34.197 19.0461 34.1196 18.8581 34.0864C18.67 34.0532 18.4819 34.0256 18.2994 34.0311C17.9177 34.0422 17.5637 34.1362 17.2207 34.3077C17.0437 34.3962 16.8888 34.6174 16.8391 34.8055C16.7837 35.0046 16.8114 35.2702 16.922 35.4472C17.0327 35.6242 17.2041 35.7791 17.4199 35.8288L17.6411 35.8565C17.7905 35.8565 17.9288 35.8178 18.0615 35.7459V35.7403Z" fill="#231F20"/>
<path d="M21.1146 35.9952H21.4465C21.5627 35.9952 21.6678 35.9731 21.7673 35.9233C21.8724 35.8901 21.9609 35.8348 22.0328 35.7518C22.1158 35.6744 22.1711 35.5859 22.2043 35.4863C22.2541 35.3868 22.2818 35.2817 22.2762 35.1655L22.2486 34.9442C22.2098 34.806 22.1379 34.6843 22.0328 34.5792L21.8669 34.4519C21.7397 34.3745 21.5958 34.3413 21.4465 34.3413H21.1146C20.9984 34.3413 20.8933 34.3634 20.7938 34.4132C20.6887 34.4464 20.6002 34.5017 20.5283 34.5847C20.4453 34.6621 20.39 34.7506 20.3568 34.8502C20.307 34.9498 20.2793 35.0549 20.2849 35.171L20.3125 35.3923C20.3513 35.5306 20.4232 35.6523 20.5283 35.7574L20.6942 35.8846C20.8214 35.962 20.9653 35.9952 21.1146 35.9952Z" fill="#231F20"/>
<path d="M27.5863 24.5445H28.582C28.7921 24.5445 29.0189 24.4504 29.1683 24.3011C29.2513 24.2236 29.3066 24.1351 29.3398 24.0356C29.3896 23.936 29.4172 23.8309 29.4117 23.7147C29.4006 23.499 29.3342 23.2777 29.1683 23.1284C29.0023 22.979 28.8087 22.885 28.582 22.885H27.5863C27.3761 22.885 27.1493 22.979 26.9999 23.1284C26.917 23.2058 26.8617 23.2943 26.8285 23.3939C26.7787 23.4935 26.751 23.5986 26.7566 23.7147C26.7676 23.9305 26.834 24.1517 26.9999 24.3011C27.1659 24.4504 27.3595 24.5445 27.5863 24.5445Z" fill="#231F20"/>
<path d="M30.906 24.7053C31.7524 24.7661 32.5932 24.7053 33.4229 24.556L32.3996 23.9751C32.5766 24.4287 32.6983 24.8989 32.7646 25.3801L32.737 25.1589V25.2087C32.7757 25.4355 32.8144 25.6235 32.9859 25.795C33.1297 25.9388 33.3676 26.0495 33.5722 26.0384C33.7769 26.0273 34.0092 25.961 34.1586 25.795C34.2969 25.6457 34.4296 25.4189 34.402 25.2087C34.3245 24.6334 34.2084 24.0747 33.9982 23.5326C33.9207 23.3335 33.8156 23.1399 33.6165 23.0348C33.4118 22.9242 33.2072 22.9076 32.9748 22.9518C32.8421 22.9739 32.7038 22.9961 32.571 23.0182L32.7923 22.9905C32.1617 23.0735 31.5311 23.0956 30.9005 23.0459C30.4691 23.0127 30.0542 23.4497 30.0708 23.8756C30.0929 24.3513 30.4359 24.6721 30.9005 24.7053H30.906Z" fill="#231F20"/>
<path d="M4.34818 48.275C4.33159 49.3868 4.36478 50.5042 4.45881 51.6105C4.55285 52.7168 4.69667 53.7069 5.69234 54.3098C6.53313 54.8243 7.65049 54.9515 8.60744 55.0621C9.69714 55.1838 10.7813 55.1396 11.8655 54.9902C12.308 54.9294 12.5514 54.3596 12.4463 53.9669C12.3135 53.4856 11.871 53.3252 11.423 53.3861C10.5711 53.5022 9.69714 53.5022 8.84529 53.4248C8.43043 53.3861 8.02663 53.3197 7.62283 53.2312C7.27988 53.1538 6.85948 53.0597 6.60503 52.9214C6.53866 52.8827 6.47228 52.844 6.4059 52.7942C6.48887 52.8495 6.3174 52.6836 6.37271 52.761C6.27315 52.6172 6.23996 52.5121 6.20124 52.3406C6.12379 51.9866 6.1072 51.5496 6.07954 51.1569C6.01316 50.1944 5.98551 49.2319 6.0021 48.2694C6.0187 47.2019 4.35925 47.2019 4.34265 48.2694L4.34818 48.275Z" fill="#231F20"/>
<path d="M65.5873 17.7523C66.2898 17.7136 66.9867 17.7136 67.6892 17.7634C67.8607 17.7745 68.0322 17.7911 68.2092 17.8076C68.093 17.7966 68.1428 17.7966 68.2313 17.8132C68.2866 17.8242 68.3475 17.8353 68.4028 17.8519C68.4692 17.8685 68.5356 17.8961 68.6019 17.9127C68.436 17.863 68.6019 17.9183 68.6462 17.9404C68.7845 18.0123 68.5798 17.9017 68.6628 17.9459C68.6849 17.9681 68.7126 17.9902 68.7292 18.0178C68.6739 17.9459 68.6628 17.9349 68.7015 17.9902C68.7292 18.04 68.7292 18.0344 68.7015 17.9736L68.7236 18.051C68.779 18.2834 68.7292 17.9127 68.7402 18.1561C68.7458 18.3165 68.7458 18.4714 68.7458 18.6318C68.7458 18.9859 68.7458 19.3399 68.7458 19.6994C68.7458 20.424 68.7458 21.1542 68.7458 21.8788C68.7458 22.3103 69.1274 22.7307 69.5755 22.7086C70.0235 22.6864 70.4052 22.3435 70.4052 21.8788C70.4052 21.0712 70.4052 20.2636 70.4052 19.456C70.4052 18.6484 70.538 17.6638 70.0069 16.9779C69.5202 16.3529 68.7734 16.1924 68.0211 16.1205C67.2135 16.0431 66.4004 16.032 65.5873 16.0818C65.1558 16.1039 64.7354 16.4469 64.7576 16.9115C64.7741 17.3375 65.1226 17.7689 65.5873 17.7413V17.7523Z" fill="#231F20"/>
</svg>
