<svg width="147" height="47" viewBox="0 0 147 47" fill="none" xmlns="http://www.w3.org/2000/svg">
<rect x="0.6125" y="0.613477" width="145.775" height="45.7741" rx="7.3875" fill="black"/>
<path d="M99.8689 22.5616V25.2535H98.1098V27.0188H99.8689V33.0171C99.8689 35.0653 100.835 35.8845 103.265 35.8845C103.692 35.8845 104.099 35.8358 104.455 35.7772V34.0314C104.15 34.0607 103.957 34.0802 103.621 34.0802C102.533 34.0802 102.055 33.5925 102.055 32.4806V27.0188H104.455V25.2535H102.055V22.5616H99.8689Z" fill="white"/>
<path d="M110.646 36.0308C113.879 36.0308 115.862 33.9534 115.862 30.5105C115.862 27.0871 113.869 24.9999 110.646 24.9999C107.412 24.9999 105.419 27.0871 105.419 30.5105C105.419 33.9534 107.402 36.0308 110.646 36.0308ZM110.646 34.168C108.744 34.168 107.677 32.8318 107.677 30.5105C107.677 28.2087 108.744 26.8628 110.646 26.8628C112.537 26.8628 113.615 28.2087 113.615 30.5105C113.615 32.822 112.537 34.168 110.646 34.168Z" fill="white"/>
<path d="M117.559 35.826H119.745V29.5547C119.745 28.0624 120.914 27.0579 122.572 27.0579C122.958 27.0579 123.609 27.1261 123.792 27.1846V25.117C123.558 25.0584 123.141 25.0292 122.816 25.0292C121.372 25.0292 120.142 25.7899 119.826 26.8335H119.664V25.2047H117.559V35.826Z" fill="white"/>
<path d="M129.22 26.7848C130.837 26.7848 131.895 27.8674 131.946 29.5352H126.353C126.475 27.8771 127.604 26.7848 129.22 26.7848ZM131.935 32.9586C131.529 33.7876 130.624 34.246 129.302 34.246C127.553 34.246 126.424 33.0658 126.353 31.203V31.0859H134.172V30.3544C134.172 27.0188 132.312 24.9999 129.231 24.9999C126.109 24.9999 124.126 27.1554 124.126 30.5495C124.126 33.9436 126.068 36.0308 129.241 36.0308C131.773 36.0308 133.542 34.8604 134.04 32.9586H131.935Z" fill="white"/>
<path d="M85.532 31.9037C85.7007 34.5118 87.9666 36.1798 91.3392 36.1798C94.9436 36.1798 97.1991 34.431 97.1991 31.6409C97.1991 29.4473 95.9133 28.2342 92.7936 27.5367L91.1179 27.1424C89.1365 26.6976 88.3355 26.1012 88.3355 25.06C88.3355 23.7458 89.5791 22.8866 91.4446 22.8866C93.2152 22.8866 94.4378 23.7256 94.6591 25.0701H96.9567C96.8196 22.6136 94.5642 20.885 91.4762 20.885C88.1563 20.885 85.9431 22.6136 85.9431 25.2116C85.9431 27.3547 87.1973 28.6284 89.948 29.2451L91.9083 29.7C93.9213 30.1549 94.8066 30.8221 94.8066 31.9341C94.8066 33.228 93.4155 34.1681 91.5184 34.1681C89.4843 34.1681 88.072 33.2887 87.8718 31.9037H85.532Z" fill="white"/>
<path d="M62.8851 25.0292C61.3801 25.0292 60.0786 25.7509 59.4075 26.9603H59.2448V25.2047H57.1399V39.3567H59.3261V34.2167H59.499C60.0786 35.3383 61.3293 36.0016 62.9054 36.0016C65.7017 36.0016 67.4812 33.8851 67.4812 30.5105C67.4812 27.1359 65.7017 25.0292 62.8851 25.0292ZM62.2648 34.1192C60.4345 34.1192 59.2854 32.7342 59.2854 30.5203C59.2854 28.2965 60.4345 26.9116 62.275 26.9116C64.1256 26.9116 65.234 28.2673 65.234 30.5105C65.234 32.7635 64.1256 34.1192 62.2648 34.1192Z" fill="white"/>
<path d="M75.1311 25.0292C73.6262 25.0292 72.3246 25.7509 71.6535 26.9603H71.4908V25.2047H69.386V39.3567H71.5722V34.2167H71.745C72.3246 35.3383 73.5754 36.0016 75.1515 36.0016C77.9478 36.0016 79.7273 33.8851 79.7273 30.5105C79.7273 27.1359 77.9478 25.0292 75.1311 25.0292ZM74.5109 34.1192C72.6805 34.1192 71.5315 32.7342 71.5315 30.5203C71.5315 28.2965 72.6805 26.9116 74.521 26.9116C76.3717 26.9116 77.4801 28.2673 77.4801 30.5105C77.4801 32.7635 76.3717 34.1192 74.5109 34.1192Z" fill="white"/>
<path d="M53.2174 35.826H55.7258L50.2348 21.2388H47.6948L42.2039 35.826H44.6279L46.0296 31.9543H51.8262L53.2174 35.826ZM48.8436 23.8874H49.0228L51.2255 30.0538H46.6304L48.8436 23.8874Z" fill="white"/>
<path d="M43.6729 10.2361V17.2731H46.3218C48.508 17.2731 49.774 15.9808 49.774 13.7327C49.774 11.5187 48.4978 10.2361 46.3218 10.2361H43.6729ZM44.8118 11.231H46.1947C47.7149 11.231 48.6148 12.1575 48.6148 13.7473C48.6148 15.3614 47.7301 16.2783 46.1947 16.2783H44.8118V11.231Z" fill="white"/>
<path d="M53.6512 17.3755C55.268 17.3755 56.2594 16.3368 56.2594 14.6153C56.2594 12.9036 55.2629 11.86 53.6512 11.86C52.0344 11.86 51.0379 12.9036 51.0379 14.6153C51.0379 16.3368 52.0294 17.3755 53.6512 17.3755ZM53.6512 16.4441C52.7005 16.4441 52.1666 15.776 52.1666 14.6153C52.1666 13.4644 52.7005 12.7915 53.6512 12.7915C54.5969 12.7915 55.1358 13.4644 55.1358 14.6153C55.1358 15.7711 54.5969 16.4441 53.6512 16.4441Z" fill="white"/>
<path d="M64.7023 11.9625H63.6092L62.6228 16.0149H62.5364L61.3976 11.9625H60.3502L59.2113 16.0149H59.13L58.1386 11.9625H57.0302L58.5555 17.2731H59.6791L60.8179 13.362H60.9044L62.0483 17.2731H63.1821L64.7023 11.9625Z" fill="white"/>
<path d="M65.9612 17.2731H67.0543V14.1667C67.0543 13.3377 67.5678 12.8207 68.3762 12.8207C69.1846 12.8207 69.571 13.245 69.571 14.0984V17.2731H70.6641V13.8351C70.6641 12.572 69.9828 11.86 68.7473 11.86C67.9135 11.86 67.3644 12.216 67.0949 12.8061H67.0136V11.9625H65.9612V17.2731Z" fill="white"/>
<path d="M72.3856 17.2731H73.4787V9.88989H72.3856V17.2731Z" fill="white"/>
<path d="M77.5898 17.3755C79.2066 17.3755 80.198 16.3368 80.198 14.6153C80.198 12.9036 79.2015 11.86 77.5898 11.86C75.973 11.86 74.9765 12.9036 74.9765 14.6153C74.9765 16.3368 75.9679 17.3755 77.5898 17.3755ZM77.5898 16.4441C76.639 16.4441 76.1052 15.776 76.1052 14.6153C76.1052 13.4644 76.639 12.7915 77.5898 12.7915C78.5355 12.7915 79.0744 13.4644 79.0744 14.6153C79.0744 15.7711 78.5355 16.4441 77.5898 16.4441Z" fill="white"/>
<path d="M83.455 16.4782C82.8601 16.4782 82.428 16.2002 82.428 15.7223C82.428 15.2542 82.7737 15.0055 83.5363 14.9567L84.8887 14.8738V15.3176C84.8887 15.9759 84.2786 16.4782 83.455 16.4782ZM83.1753 17.3609C83.9024 17.3609 84.5074 17.0585 84.8379 16.527H84.9243V17.2731H85.9767V13.6449C85.9767 12.5233 85.1938 11.86 83.8058 11.86C82.55 11.86 81.6552 12.4452 81.5433 13.3572H82.6008C82.7228 12.9817 83.1448 12.7671 83.7549 12.7671C84.5023 12.7671 84.8887 13.0841 84.8887 13.6449V14.1033L83.3889 14.1862C82.0721 14.2642 81.3298 14.8153 81.3298 15.7711C81.3298 16.7415 82.1076 17.3609 83.1753 17.3609Z" fill="white"/>
<path d="M89.6862 17.3609C90.4488 17.3609 91.0945 17.0146 91.425 16.4343H91.5114V17.2731H92.5588V9.88989H91.4657V12.8061H91.3843C91.0844 12.2209 90.4437 11.8747 89.6862 11.8747C88.288 11.8747 87.3881 12.9378 87.3881 14.6153C87.3881 16.2978 88.2779 17.3609 89.6862 17.3609ZM89.9963 12.8159C90.9115 12.8159 91.486 13.5132 91.486 14.6202C91.486 15.7321 90.9166 16.4197 89.9963 16.4197C89.071 16.4197 88.5168 15.7418 88.5168 14.6153C88.5168 13.4986 89.0761 12.8159 89.9963 12.8159Z" fill="white"/>
<path d="M99.6472 17.3755C101.264 17.3755 102.255 16.3368 102.255 14.6153C102.255 12.9036 101.259 11.86 99.6472 11.86C98.0304 11.86 97.0339 12.9036 97.0339 14.6153C97.0339 16.3368 98.0253 17.3755 99.6472 17.3755ZM99.6472 16.4441C98.6965 16.4441 98.1626 15.776 98.1626 14.6153C98.1626 13.4644 98.6965 12.7915 99.6472 12.7915C100.593 12.7915 101.132 13.4644 101.132 14.6153C101.132 15.7711 100.593 16.4441 99.6472 16.4441Z" fill="white"/>
<path d="M103.702 17.2731H104.796V14.1667C104.796 13.3377 105.309 12.8207 106.117 12.8207C106.926 12.8207 107.312 13.245 107.312 14.0984V17.2731H108.405V13.8351C108.405 12.572 107.724 11.86 106.489 11.86C105.655 11.86 105.106 12.216 104.836 12.8061H104.755V11.9625H103.702V17.2731Z" fill="white"/>
<path d="M113.44 10.6409V11.9868H112.56V12.8695H113.44V15.8686C113.44 16.8927 113.923 17.3023 115.138 17.3023C115.351 17.3023 115.555 17.278 115.733 17.2487V16.3758C115.58 16.3904 115.484 16.4002 115.316 16.4002C114.772 16.4002 114.533 16.1563 114.533 15.6004V12.8695H115.733V11.9868H114.533V10.6409H113.44Z" fill="white"/>
<path d="M117.2 17.2731H118.293V14.1716C118.293 13.3669 118.791 12.8256 119.686 12.8256C120.459 12.8256 120.871 13.2548 120.871 14.1033V17.2731H121.964V13.8448C121.964 12.5818 121.237 11.8649 120.057 11.8649C119.224 11.8649 118.639 12.2209 118.369 12.8159H118.283V9.88989H117.2V17.2731Z" fill="white"/>
<path d="M125.907 12.7525C126.716 12.7525 127.244 13.2938 127.27 14.1277H124.474C124.535 13.2986 125.099 12.7525 125.907 12.7525ZM127.265 15.8394C127.061 16.2539 126.609 16.4831 125.948 16.4831C125.073 16.4831 124.509 15.893 124.474 14.9616V14.903H128.383V14.5373C128.383 12.8695 127.453 11.86 125.912 11.86C124.351 11.86 123.36 12.9378 123.36 14.6348C123.36 16.3319 124.331 17.3755 125.917 17.3755C127.183 17.3755 128.068 16.7903 128.317 15.8394H127.265Z" fill="white"/>
<path d="M30.342 23.854C30.3685 21.8788 31.4744 20.0099 33.2288 18.9754C32.122 17.4593 30.2683 16.498 28.3396 16.4402C26.2826 16.2331 24.2883 17.6208 23.2401 17.6208C22.1715 17.6208 20.5576 16.4607 18.8197 16.495C16.5543 16.5652 14.4425 17.8006 13.3403 19.7002C10.9712 23.6345 12.7384 29.4166 15.0078 32.5968C16.1433 34.1541 17.4703 35.8936 19.2066 35.8319C20.9058 35.7643 21.5404 34.7927 23.5914 34.7927C25.6234 34.7927 26.2188 35.8319 27.9904 35.7927C29.8137 35.7643 30.9624 34.2285 32.058 32.6565C32.8738 31.5469 33.5016 30.3206 33.9181 29.0229C31.7754 28.1536 30.3445 26.0854 30.342 23.854Z" fill="white"/>
<path d="M26.9957 14.3487C27.9898 13.204 28.4796 11.7328 28.361 10.2473C26.8422 10.4003 25.4393 11.0966 24.4317 12.1973C23.4465 13.2728 22.9337 14.7182 23.0307 16.1469C24.55 16.1619 26.0437 15.4845 26.9957 14.3487Z" fill="white"/>
<rect x="0.6125" y="0.613477" width="145.775" height="45.7741" rx="7.3875" stroke="#A6A6A6" stroke-width="1.225"/>
</svg>
