<svg width="52" height="54" viewBox="0 0 52 54" fill="none" xmlns="http://www.w3.org/2000/svg">
<g clip-path="url(#clip0_13052_179140)">
<path d="M52 28.2704C52 35.7574 48.7677 42.4994 43.6078 47.2006C43.5163 47.2848 43.4232 47.3674 43.3301 47.45C42.6416 48.0583 41.921 48.6332 41.1699 49.1684C41.0206 49.2748 40.8698 49.3797 40.7189 49.4813C36.5348 52.3306 31.4648 53.9998 26 53.9998C21.5431 53.9998 17.3494 52.8913 13.6837 50.9345C12.854 50.493 12.0515 50.007 11.2811 49.4813C11.2699 49.4734 11.257 49.4654 11.2458 49.4575C10.3438 48.8413 9.48358 48.1694 8.66988 47.4468C3.34951 42.7377 0 35.8908 0 28.2704C0 20.6501 3.34951 13.8032 8.66988 9.09407C9.48358 8.37143 10.3438 7.6996 11.2458 7.08337C15.4363 4.21819 20.5191 2.54102 26 2.54102C30.0172 2.54102 33.8225 3.44313 37.2185 5.0536C38.6036 5.70955 39.9228 6.48619 41.1602 7.36607C41.9162 7.9029 42.64 8.47943 43.3301 9.0909C43.4232 9.17349 43.5163 9.25607 43.6078 9.34025C48.7677 14.0414 52 20.7835 52 28.2704Z" fill="#C21921"/>
<path opacity="0.5" d="M42 4.75753V46.5714C41.3246 47.1684 40.6177 47.7327 39.8809 48.2581C39.7345 48.3625 39.5865 48.4654 39.4385 48.5651C35.3341 51.3617 30.3607 53 25 53C20.628 53 16.5234 51.4853 12.9275 49.5648C12.1136 49.1315 11.7122 48.6086 10.9565 48.0926C10.9455 48.0848 11.3862 47.6434 10.9565 48.0926C10.0717 47.4878 9.48806 47.3296 8.68986 46.6204L8 4.75753C11.081 4.75753 13.578 2.74197 13.578 0H15.2972V0.380353C15.2972 0.618853 15.4058 0.835529 15.5821 0.991412C15.7569 1.14729 15.9994 1.24394 16.267 1.24394C16.8039 1.24394 17.2384 0.857353 17.2384 0.380353V0H18.945V0.380353C18.945 0.857353 19.3795 1.24394 19.9164 1.24394C20.4532 1.24394 20.8862 0.857353 20.8862 0.380353V0H22.788C22.788 1.08806 23.7783 1.96879 25 1.96879C26.2217 1.96879 27.212 1.08806 27.212 0H29.1532V0.380353C29.1532 0.857353 29.5877 1.24394 30.123 1.24394C30.6583 1.24394 31.0944 0.857353 31.0944 0.380353V0H32.801V0.380353C32.801 0.857353 33.2355 1.24394 33.7724 1.24394C34.3092 1.24394 34.7422 0.857353 34.7422 0.380353V0H36.4236C36.4236 2.74197 38.9205 4.75753 42 4.75753Z" fill="#323232"/>
<path d="M43.3302 4.84729V47.4501C42.6417 48.0584 41.921 48.6334 41.1699 49.1686C41.0207 49.275 40.8698 49.3798 40.7189 49.4815C36.5349 52.3308 31.4649 54 26 54C21.5431 54 17.3494 52.8914 13.6838 50.9347C12.854 50.4932 12.0515 50.0072 11.2812 49.4815C11.2699 49.4735 11.2571 49.4656 11.2458 49.4576C10.3439 48.8414 9.48363 48.1696 8.66992 47.4469V4.84729C11.8108 4.84729 14.3562 2.79371 14.3562 0H16.1088V0.387529C16.1088 0.630529 16.2196 0.851294 16.3993 1.01012C16.5775 1.16894 16.8246 1.26741 17.0975 1.26741C17.6447 1.26741 18.0877 0.873529 18.0877 0.387529V0H19.8275V0.387529C19.8275 0.873529 20.2704 1.26741 20.8177 1.26741C21.365 1.26741 21.8063 0.873529 21.8063 0.387529V0H23.7451C23.7451 1.10859 24.7546 2.00594 26 2.00594C27.2455 2.00594 28.255 1.10859 28.255 0H30.2339V0.387529C30.2339 0.873529 30.6768 1.26741 31.2225 1.26741C31.7682 1.26741 32.2128 0.873529 32.2128 0.387529V0H33.9525V0.387529C33.9525 0.873529 34.3955 1.26741 34.9428 1.26741C35.49 1.26741 35.9314 0.873529 35.9314 0.387529V0H37.6455C37.6455 2.79371 40.1909 4.84729 43.3302 4.84729Z" fill="#EFBB03"/>
<path d="M40.719 9.50077V49.4814C36.535 52.3307 31.465 53.9999 26.0001 53.9999C21.5432 53.9999 17.3495 52.8913 13.6838 50.9346C12.8541 50.4931 12.0516 50.0071 11.2812 49.4814V9.50077C11.2812 8.02053 12.631 6.81982 14.2953 6.81982H37.705C39.2922 6.81982 40.5938 7.91253 40.7094 9.29747C40.7158 9.36418 40.719 9.43247 40.719 9.50077Z" fill="#FEF9E4"/>
<path fill-rule="evenodd" clip-rule="evenodd" d="M10.8359 12.8807C10.8359 12.6127 11.0555 12.3955 11.3262 12.3955H12.0613C12.3321 12.3955 12.5516 12.6127 12.5516 12.8807C12.5516 13.1487 12.3321 13.3659 12.0613 13.3659H11.3262C11.0555 13.3659 10.8359 13.1487 10.8359 12.8807Z" fill="#EFBB03"/>
<path fill-rule="evenodd" clip-rule="evenodd" d="M14.3555 12.8807C14.3555 12.6127 14.575 12.3955 14.8458 12.3955H38.5154C38.7862 12.3955 39.0057 12.6127 39.0057 12.8807C39.0057 13.1487 38.7862 13.3659 38.5154 13.3659H14.8458C14.575 13.3659 14.3555 13.1487 14.3555 12.8807Z" fill="#EFBB03"/>
<path fill-rule="evenodd" clip-rule="evenodd" d="M39.4185 12.8807C39.4185 12.6127 39.638 12.3955 39.9088 12.3955H40.6438C40.9146 12.3955 41.1341 12.6127 41.1341 12.8807C41.1341 13.1487 40.9146 13.3659 40.6438 13.3659H39.9088C39.638 13.3659 39.4185 13.1487 39.4185 12.8807Z" fill="#EFBB03"/>
<path d="M33.4995 23.5793L36.2994 23.557L36.3078 24.593L33.5079 24.6153L33.4995 23.5793ZM33.6184 25.9464L36.7839 25.9213L36.7926 26.9901L32.2894 27.0259L32.2427 21.2705L36.6379 21.2356L36.6465 22.3045L33.589 22.3287L33.6184 25.9464Z" fill="#DD121D"/>
<path d="M27.9252 23.6237L30.7252 23.6015L30.7336 24.6374L27.9336 24.6597L27.9252 23.6237ZM28.0441 25.9909L31.2097 25.9657L31.2184 27.0346L26.7152 27.0704L26.6685 21.3149L31.0637 21.28L31.0723 22.3489L28.0148 22.3732L28.0441 25.9909Z" fill="#DD121D"/>
<path d="M20.6058 27.1187L20.5591 21.3633L23.0766 21.3433C23.5972 21.3391 24.0466 21.4205 24.4246 21.5875C24.8026 21.7489 25.0953 21.985 25.3028 22.2959C25.5103 22.6067 25.6158 22.9786 25.6193 23.4116C25.6228 23.8392 25.5233 24.21 25.3209 24.524C25.1184 24.8326 24.8295 25.0706 24.4542 25.238C24.0789 25.4055 23.6309 25.4913 23.1102 25.4954L21.3405 25.5095L21.934 24.9209L21.9518 27.108L20.6058 27.1187ZM24.3031 27.0893L22.8321 25.0125L24.2695 25.0011L25.757 27.0778L24.3031 27.0893ZM21.9352 25.0689L21.3319 24.4488L23.0269 24.4354C23.4423 24.4321 23.7518 24.3419 23.9553 24.1649C24.1588 23.9823 24.2592 23.7349 24.2567 23.4224C24.2541 23.1045 24.1496 22.8587 23.9433 22.6849C23.7369 22.5111 23.426 22.4259 23.0106 22.4292L21.3157 22.4426L21.9087 21.8048L21.9352 25.0689Z" fill="#DD121D"/>
<path d="M16.5197 23.9858L19.3114 23.9636L19.3201 25.0325L16.5284 25.0547L16.5197 23.9858ZM16.6451 27.1505L15.2991 27.1612L15.2524 21.4058L19.6476 21.3708L19.6563 22.4397L16.6071 22.4639L16.6451 27.1505Z" fill="#DD121D"/>
<path d="M35.7871 29.0278H16.2133C14.6072 29.0278 13.3052 30.3159 13.3052 31.9049C13.3052 33.4939 14.6072 34.782 16.2133 34.782H35.7871C37.3933 34.782 38.6953 33.4939 38.6953 31.9049C38.6953 30.3159 37.3933 29.0278 35.7871 29.0278Z" fill="#DD121D"/>
<path d="M32.3158 33.3878V30.787H31.2793V30.1826H34.1018V30.787H33.0653V33.3878H32.3158Z" fill="white"/>
<path d="M29.23 31.4739H30.7893V32.0508H29.23V31.4739ZM29.2855 32.7926H31.0484V33.3878H28.5405V30.1826H30.9882V30.7779H29.2855V32.7926Z" fill="white"/>
<path d="M25.7866 32.6552L25.745 31.799L27.2951 30.1826H28.1279L26.7306 31.6708L26.3141 32.1103L25.7866 32.6552ZM25.1157 33.3878V30.1826H25.8607V33.3878H25.1157ZM27.3321 33.3878L26.1799 31.9913L26.6704 31.4647L28.2066 33.3878H27.3321Z" fill="white"/>
<path d="M23.2722 33.4426C23.0223 33.4426 22.7894 33.4029 22.5735 33.3235C22.3607 33.2411 22.1756 33.1251 22.0183 32.9755C21.861 32.8259 21.7376 32.6504 21.6481 32.4489C21.5617 32.2475 21.5186 32.0262 21.5186 31.785C21.5186 31.5438 21.5617 31.3225 21.6481 31.1211C21.7376 30.9196 21.861 30.7441 22.0183 30.5945C22.1787 30.4449 22.3653 30.3304 22.5781 30.2511C22.791 30.1687 23.0239 30.1274 23.2768 30.1274C23.5575 30.1274 23.8105 30.1763 24.0357 30.274C24.2639 30.3686 24.4552 30.509 24.6094 30.6952L24.1282 31.1348C24.0172 31.0096 23.8938 30.9165 23.758 30.8555C23.6223 30.7914 23.4742 30.7593 23.3138 30.7593C23.1627 30.7593 23.0239 30.7837 22.8974 30.8326C22.7709 30.8814 22.6614 30.9516 22.5689 31.0432C22.4764 31.1348 22.4039 31.2432 22.3514 31.3683C22.3021 31.4935 22.2774 31.6324 22.2774 31.785C22.2774 31.9376 22.3021 32.0765 22.3514 32.2017C22.4039 32.3268 22.4764 32.4352 22.5689 32.5268C22.6614 32.6184 22.7709 32.6886 22.8974 32.7374C23.0239 32.7862 23.1627 32.8107 23.3138 32.8107C23.4742 32.8107 23.6223 32.7801 23.758 32.7191C23.8938 32.655 24.0172 32.5588 24.1282 32.4306L24.6094 32.8702C24.4552 33.0564 24.2639 33.1983 24.0357 33.296C23.8105 33.3937 23.556 33.4426 23.2722 33.4426Z" fill="white"/>
<path d="M20.2036 33.3878V30.1826H20.9532V33.3878H20.2036Z" fill="white"/>
<path d="M18.0145 33.3878V30.787H16.978V30.1826H19.8005V30.787H18.7641V33.3878H18.0145Z" fill="white"/>
</g>
<defs>
<clipPath id="clip0_13052_179140">
<rect width="52" height="54" fill="white"/>
</clipPath>
</defs>
</svg>
