<svg width="464" height="207" viewBox="0 0 464 207" fill="none" xmlns="http://www.w3.org/2000/svg">
<path d="M205.536 36.0822C221.831 35.1165 238.467 34.3246 254.794 33.5649C255.039 33.5584 255.206 33.5713 255.335 33.346L256.024 31.627C257.807 27.1847 263.46 12.9887 265.217 8.75885L265.642 7.72232L265.855 7.20084C267.129 3.22853 273.052 2.89374 274.147 7.21371C276.252 15.8408 278.274 24.6867 280.295 33.3331C280.218 32.8567 279.606 32.3931 279.22 32.4189C282.928 32.3867 286.714 32.3288 290.422 32.3288C294.903 32.3288 302.513 32.2773 306.943 32.2901C311.887 32.5927 312.879 38.9471 308.861 41.2842C301.728 46.1578 292.798 52.0873 285.626 56.9095L285.169 57.2185C285.459 57.0253 285.568 56.6198 285.484 56.2592L285.51 56.3751C287.21 64.0751 288.819 71.936 290.448 79.6617L290.912 81.8571L291.028 82.4044C292.025 86.3059 287.274 89.7309 283.959 87.3038C280.707 84.9989 268.037 75.8954 264.567 73.4039L263.659 72.7536C263.357 72.5412 263.621 72.715 263.704 72.6893C263.769 72.6828 263.775 72.6635 263.769 72.6571C263.762 72.6571 263.775 72.6442 263.743 72.6635L263.505 72.8116L263.035 73.1142C255.824 77.7303 247.577 83.0096 240.334 87.5356C239.606 87.9734 238.692 88.7009 237.72 88.6815C235.377 88.7781 233.98 86.2544 235.19 84.2779C237.495 79.4879 239.922 74.3889 242.285 69.6505C242.452 69.3222 242.941 69.5475 242.819 69.8758C241.802 72.6893 240.759 75.4899 239.716 78.2969C239.265 79.5523 237.791 83.3443 237.34 84.5869L237.141 85.1084C237.076 85.2758 236.993 85.4947 236.98 85.5526C236.806 86.2029 237.52 86.5119 237.99 86.0741C243.92 81.7606 251.066 76.6101 257.092 72.3352L260.743 69.7277L261.2 69.3994C262.468 68.3629 264.457 68.144 265.867 69.1032C270.091 71.9167 282.665 80.1832 286.746 82.9259L286.862 83.0031L286.92 83.0417C286.785 82.9065 286.302 82.8422 286.154 82.9323C285.922 83.0224 285.819 83.3701 285.871 83.6083L285.858 83.5375L285.729 82.9902C283.881 75.0327 281.937 66.9529 280.147 58.989L279.903 57.8945C279.207 55.5897 280.34 53.214 282.362 52.0616C289.148 47.439 297.768 41.5159 304.593 36.9449L305.52 36.3204L305.751 36.1659C305.809 36.1273 305.784 36.1466 305.771 36.153L305.739 36.1788C304.979 36.829 305.655 38.1939 306.672 38.2261C306.685 38.2261 306.749 38.2261 306.672 38.2261H306.112L303.872 38.2196C296.081 38.2003 286.984 38.1874 279.233 38.0909C277.231 38.1424 275.274 36.6487 274.842 34.698L273.896 30.2364C272.672 24.3906 271.398 18.5512 270.22 12.6925L269.331 8.33393C269.351 8.4305 269.486 8.67516 269.672 8.80392C269.962 9.02282 270.303 8.99063 270.413 8.74598L266.827 16.7421L259.384 33.0498L258.921 34.0671C258.785 34.3761 258.663 34.64 258.496 34.9684C257.794 36.2689 256.326 37.0543 254.858 36.9578C238.525 37.0543 221.908 37.1187 205.581 37.0028C205.324 37.0028 205.118 36.7904 205.118 36.5329C205.098 36.2947 205.298 36.0951 205.536 36.0822Z" fill="#FFC84C"/>
<path d="M205.549 33.79C205.587 33.9445 253.918 29.7726 252.56 30.3907C254.62 25.0599 260.009 11.0441 262.011 5.8679C263.421 1.38054 268.855 -1.2784 273.245 0.620845C276.226 1.73464 278.003 4.72191 278.415 7.75426L279.368 12.0292L283.192 29.1223L282.658 28.691L300.221 28.6652C301.567 28.6846 305.481 28.6395 306.814 28.6588C309.177 28.6717 311.514 29.7533 313.039 31.5624C315.106 33.9767 315.576 37.5627 314.256 40.4405C313.6 41.8698 312.557 43.1188 311.269 44.0137L303.981 48.9324L289.418 58.7441L289.65 58.1646L293.21 74.305C293.474 75.5475 294.285 79.1336 294.543 80.3568C295.116 82.4106 295.264 84.7412 294.35 86.7434C292.367 91.6621 285.729 93.703 281.499 90.3488L279.857 89.0998C277.823 87.5289 265.739 78.361 263.421 76.5841L263.852 76.6034C259.738 79.1593 249.907 85.3528 245.845 87.7542C242.819 89.4989 239.658 91.9196 235.95 91.2436C233.291 90.8574 232.415 87.8765 232.608 85.533C232.666 84.3227 233.213 83.2153 233.78 82.1852C235.969 78.0198 237.971 73.7577 240.199 69.6116C238.036 73.7899 236.098 78.0842 233.973 82.2818C232.737 84.2841 232.512 86.7692 233.458 88.9324C235.196 92.3832 239.999 90.7801 242.549 89.1126C244.486 87.9602 249.534 84.7862 251.536 83.5308L263.447 75.9531C263.582 75.863 263.756 75.8759 263.878 75.9724L277.108 85.8743C278.145 86.6275 281.055 88.8422 282.072 89.589C285.793 92.5119 291.697 90.6578 293.41 86.3378C294.581 83.8334 293.629 81.1165 293.075 78.567L292.174 74.5368L288.568 58.4093C288.517 58.1775 288.62 57.9522 288.8 57.8234L303.337 47.9667L310.593 43.0415C314.07 40.7431 314.907 35.4961 312.145 32.3285C310.838 30.7769 308.835 29.837 306.801 29.8241L304.612 29.8176L300.221 29.8112L282.658 29.7855C282.394 29.7855 282.175 29.5988 282.124 29.3541L278.351 12.2481C278.055 11.0441 277.263 7.07825 276.909 5.89364C275.885 2.57157 272.267 0.44701 268.842 1.07794C266.074 1.5093 263.756 3.53085 262.835 6.19623C260.826 11.2952 255.27 25.3303 253.184 30.6289C252.927 31.1439 205.954 33.6226 205.549 33.79Z" fill="#FFC84C"/>
<path d="M161.621 35.3546C163.527 36.9384 164.48 39.1788 164.48 42.0695C164.48 44.9281 163.849 47.4389 162.587 49.5893C161.325 51.746 159.51 53.4135 157.14 54.5981C154.771 55.7827 151.971 56.375 148.739 56.375H143.015L141.212 65.3304H132.766L139.23 32.9789H153.4C156.973 32.9789 159.709 33.7708 161.621 35.3546ZM154.514 47.9991C155.685 46.9046 156.265 45.4238 156.265 43.5439C156.265 42.3142 155.872 41.3678 155.087 40.7047C154.301 40.0415 153.175 39.7132 151.694 39.7132H146.337L144.354 49.6343H149.711C151.739 49.6408 153.342 49.0935 154.514 47.9991Z" fill="#1F2F59"/>
<path d="M185.802 40.0374L184.83 47.5571C184.553 47.5249 184.154 47.5121 183.632 47.5121C181.604 47.5121 179.827 48.0529 178.302 49.128C176.776 50.2032 175.804 51.5874 175.372 53.2806L172.971 65.3263H164.756L169.739 40.3593H177.954L177.169 44.2351C179.415 41.4345 182.293 40.0374 185.802 40.0374Z" fill="#1F2F59"/>
<path d="M193.09 65.329H184.875L189.858 40.362H198.028L193.09 65.329ZM198.814 29.8615C199.457 30.5246 199.786 31.3938 199.786 32.4689C199.786 33.9175 199.271 35.1407 198.241 36.1386C197.21 37.1365 195.955 37.6387 194.481 37.6387C193.406 37.6387 192.543 37.3104 191.899 36.6472C191.255 35.9841 190.927 35.115 190.927 34.0398C190.927 32.5912 191.442 31.368 192.472 30.3701C193.502 29.3722 194.738 28.87 196.187 28.87C197.294 28.87 198.17 29.2048 198.814 29.8615Z" fill="#1F2F59"/>
<path d="M243.307 42.2779C244.846 43.7715 245.612 45.7351 245.612 48.1623C245.612 49.0572 245.535 49.8555 245.38 50.5637L242.425 65.3327H234.21L236.888 51.7612C236.978 51.2977 237.03 50.8856 237.03 50.5122C237.03 49.4371 236.708 48.5808 236.058 47.9499C235.414 47.3189 234.519 47.0035 233.38 47.0035C232.028 47.0035 230.804 47.5249 229.71 48.5744C228.615 49.6238 227.901 50.9758 227.566 52.6368L225.029 65.3263H216.814L219.538 51.7548C219.628 51.3234 219.673 50.9243 219.673 50.5573C219.673 49.4499 219.351 48.5808 218.701 47.9499C218.057 47.3189 217.162 47.0035 216.022 47.0035C214.638 47.0035 213.402 47.5249 212.308 48.5744C211.213 49.6238 210.499 50.9758 210.164 52.6368L207.627 65.3263H199.412L204.35 40.3593H212.565L211.921 43.6814C213.924 41.2542 216.505 40.0374 219.673 40.0374C221.765 40.0374 223.529 40.5203 224.958 41.4924C226.388 42.4646 227.354 43.7908 227.843 45.484C230.302 41.853 233.38 40.0374 237.075 40.0374C239.689 40.0374 241.768 40.7842 243.307 42.2779Z" fill="#1F2F59"/>
<path d="M270.116 41.516C271.989 42.4688 273.438 43.8079 274.455 45.5333C275.472 47.2587 275.981 49.2739 275.981 51.5787C275.981 54.3149 275.343 56.7485 274.062 58.8731C272.787 60.9977 271.01 62.6523 268.731 63.8369C266.452 65.0215 263.871 65.6138 260.98 65.6138C258.456 65.6138 256.254 65.1374 254.381 64.1845C252.501 63.2317 251.059 61.8861 250.042 60.1478C249.024 58.4096 248.516 56.388 248.516 54.0767C248.516 51.3405 249.153 48.9069 250.434 46.7823C251.709 44.6578 253.479 43.016 255.739 41.8443C257.999 40.6726 260.594 40.0931 263.516 40.0931C266.04 40.0867 268.242 40.5631 270.116 41.516ZM258.533 48.6687C257.394 49.9627 256.827 51.6367 256.827 53.6968C256.827 55.3257 257.259 56.6455 258.121 57.6434C258.984 58.6413 260.136 59.1435 261.585 59.1435C263.336 59.1435 264.785 58.4997 265.924 57.2056C267.064 55.9116 267.63 54.2377 267.63 52.1775C267.63 50.5486 267.199 49.2288 266.336 48.2309C265.474 47.233 264.321 46.7308 262.873 46.7308C261.121 46.7308 259.673 47.3811 258.533 48.6687Z" fill="#1F2F59"/>
<path d="M456.145 108.897H405.889C404.414 108.897 403.21 107.95 402.901 106.547L392.291 58.7568C391.596 55.6279 387.167 55.6279 385.828 58.7568L365.38 106.547C364.781 107.944 363.378 108.897 361.91 108.897L2.41236 110.126L2.90167 110.21C1.27282 110.59 0.326397 112.238 1.10541 113.687L14.8508 135.615C15.5848 136.986 15.5848 138.576 14.8508 139.948L1.10541 161.876C0.216949 163.524 1.55616 165.436 3.60348 165.436H340.407L327.041 199.79C325.702 202.919 329.018 205.52 331.876 203.588L375.572 174.05C376.853 173.188 378.462 173.188 379.563 174.05L417.181 199.97C419.647 201.902 423.497 199.301 422.802 196.172L412.192 148.382C411.883 146.985 412.539 145.446 413.814 144.583L457.509 115.045C460.374 113.107 459.434 108.897 456.145 108.897Z" fill="url(#paint0_linear_2358_37035)"/>
<path d="M2.41276 109.383C98.2762 108.507 264.109 106.821 358.253 106.19L361.376 106.164C362.078 106.164 361.981 106.145 362.136 106.093C362.387 106.003 362.631 105.739 362.741 105.494C365.496 98.6055 373.222 79.5101 376.087 72.3896L380.825 60.8331L382.01 57.9424L382.313 57.202C383.781 53.7062 387.733 51.6395 391.538 52.8241C393.76 53.4036 395.813 55.7535 396.187 57.9296C399 69.5825 402.02 82.639 404.737 94.4014C405.451 97.4595 406.591 102.43 407.286 105.423C407.293 105.456 407.331 105.617 407.318 105.546C407.234 105.127 406.906 104.715 406.533 104.516C406.314 104.387 406.018 104.335 405.934 104.342L409.057 104.316C422.383 104.123 442.947 104.2 456.415 104.129C463.42 104.303 466.375 112.731 461.817 117.617C461.289 118.203 460.697 118.686 460.059 119.117L459.737 119.336L449.411 126.354C441.569 131.588 423.761 143.601 416.576 148.346C416.692 148.205 416.827 147.999 416.789 147.529C420.059 162.278 423.291 177.994 426.446 192.801L426.768 194.327L426.929 195.093L426.974 195.325C428.403 201.841 420.716 207.384 415.095 203.572C414.271 202.967 411.973 201.383 411.104 200.759C400.61 193.259 388.017 184.271 377.535 176.777C377.497 176.738 377.523 176.764 377.542 176.764C377.568 176.783 377.69 176.783 377.639 176.758C377.613 176.745 377.555 176.751 377.478 176.777C377.523 176.738 377.188 176.957 376.995 177.08L376.338 177.505C362.58 186.37 348.081 195.712 334.265 204.442L332.92 205.298C332.276 205.697 331.529 206.006 330.718 206.122C326.984 206.753 323.816 202.954 325.355 199.394C326.655 196.355 328.78 191.308 330.112 188.205C333.357 180.543 336.667 172.908 339.995 165.272C340.24 164.725 341.051 165.06 340.864 165.607C337.008 176.874 332.971 188.295 328.992 199.536L328.735 200.27L328.632 200.572C328.464 201.094 328.567 201.718 328.922 202.002C329.952 202.929 331.143 201.635 332.005 201.068C342.647 193.407 354.275 185.082 365.039 177.479C366.803 176.236 370.995 173.249 372.681 172.058L373.319 171.607C375.501 169.805 379.048 169.438 381.45 171.182C392.234 178.367 405.194 186.943 415.997 194.134L418.585 195.879L419.712 196.639C419.621 196.561 419.37 196.465 419.21 196.452C418.849 196.439 418.862 196.497 418.836 196.484C418.823 196.491 418.791 196.51 418.752 196.587C418.688 196.684 418.649 196.928 418.682 197.076C418.688 197.096 418.656 196.973 418.649 196.928L418.475 196.169C415.012 181.213 411.284 165.491 407.936 150.548L407.763 149.788C406.829 146.357 408.316 142.752 411.027 140.846C411.535 140.505 412.559 139.784 413.068 139.449C419.699 134.929 437.191 123.006 444.022 118.358L454.381 111.392L454.703 111.173L454.851 111.07C454.819 111.089 454.786 111.121 454.735 111.173C453.962 112.016 454.877 113.542 456.003 113.664C446.314 113.703 425.422 113.581 415.314 113.542C412.701 113.478 407.614 113.542 405.071 113.407C401.878 113.111 399.065 110.555 398.485 107.394C398.337 106.672 398.202 106.099 398.08 105.488C397.655 103.441 396.567 98.4124 396.129 96.3264C393.592 84.5254 390.85 71.4303 388.435 59.6678C388.422 59.6163 388.461 59.7193 388.493 59.7837C388.532 59.8546 388.596 59.9447 388.667 60.0284C388.847 60.228 389.298 60.4533 389.408 60.2859C389.42 60.273 389.42 60.2473 389.414 60.2537C389.408 60.2473 389.401 60.2666 389.382 60.2859L389.073 60.9812L387.804 63.8333C382.416 76.0078 373.55 95.4637 368.065 107.587C367.106 109.866 364.859 111.501 362.374 111.643C361.376 111.649 359.219 111.656 358.279 111.649C264.727 111.553 97.4393 111.231 2.43209 110.889C2.02005 110.889 1.69177 110.555 1.69177 110.143C1.6789 109.718 2.00716 109.389 2.41276 109.383Z" fill="#FFC84C"/>
<path d="M25.7012 148.696L30.1887 126.272H34.56L39.0475 148.696H35.2554L34.367 143.52H30.4655L29.5513 148.696H25.7012ZM30.8774 140.919H33.9227L32.4033 131.506L30.8774 140.919Z" fill="white"/>
<path d="M52.9424 148.997C51.3007 148.997 50.0131 148.675 49.0796 148.025C48.146 147.381 47.4958 146.499 47.1288 145.379C46.7618 144.265 46.5752 142.977 46.5752 141.516V133.513C46.5752 131.981 46.7618 130.655 47.1288 129.528C47.4958 128.401 48.146 127.532 49.0796 126.927C50.0131 126.315 51.3007 126.013 52.9424 126.013C54.494 126.013 55.7045 126.277 56.58 126.805C57.4556 127.333 58.0801 128.086 58.447 129.058C58.814 130.037 59.0008 131.17 59.0008 132.464V134.344H55.067V132.406C55.067 131.781 55.0349 131.208 54.9705 130.687C54.9061 130.172 54.7323 129.76 54.4425 129.457C54.1528 129.154 53.6635 129 52.9617 129C52.26 129 51.7515 129.161 51.4231 129.483C51.1012 129.805 50.8952 130.243 50.7986 130.783C50.7085 131.331 50.6633 131.942 50.6633 132.625V142.372C50.6633 143.183 50.7277 143.853 50.8565 144.381C50.9852 144.909 51.2235 145.301 51.5647 145.572C51.9059 145.842 52.3694 145.971 52.9617 145.971C53.6442 145.971 54.1271 145.81 54.4168 145.488C54.7 145.166 54.8804 144.735 54.9576 144.2C55.0284 143.666 55.067 143.067 55.067 142.404V140.383H59.0008V142.179C59.0008 143.505 58.8269 144.683 58.4728 145.707C58.1251 146.731 57.507 147.535 56.6314 148.115C55.7623 148.707 54.5262 148.997 52.9424 148.997Z" fill="white"/>
<path d="M67.3871 148.997C65.7969 148.997 64.5351 148.701 63.5952 148.108C62.6552 147.516 61.9793 146.666 61.5737 145.559C61.1681 144.451 60.9619 143.138 60.9619 141.625V133.236C60.9619 131.723 61.1681 130.429 61.5737 129.348C61.9793 128.266 62.6552 127.442 63.5952 126.869C64.5351 126.296 65.8034 126.013 67.3871 126.013C69.0095 126.013 70.2909 126.296 71.2244 126.869C72.1579 127.442 72.8274 128.266 73.2459 129.348C73.6579 130.429 73.8704 131.723 73.8704 133.236V141.651C73.8704 143.145 73.6644 144.445 73.2459 145.539C72.8274 146.64 72.1579 147.484 71.2244 148.089C70.2909 148.701 69.0095 148.997 67.3871 148.997ZM67.3871 145.984C68.0696 145.984 68.5718 145.836 68.8937 145.539C69.2156 145.243 69.4345 144.838 69.544 144.323C69.6534 143.808 69.7114 143.241 69.7114 142.636V132.309C69.7114 131.685 69.6534 131.118 69.544 130.622C69.4345 130.127 69.2156 129.734 68.8937 129.444C68.5718 129.161 68.0696 129.013 67.3871 129.013C66.7433 129.013 66.2542 129.154 65.9194 129.444C65.5846 129.734 65.3657 130.12 65.2562 130.622C65.1468 131.118 65.0888 131.685 65.0888 132.309V142.629C65.0888 143.241 65.1403 143.801 65.2434 144.316C65.3464 144.831 65.5653 145.237 65.8936 145.533C66.2219 145.829 66.724 145.984 67.3871 145.984Z" fill="white"/>
<path d="M76.3291 148.696V126.272H80.4237V145.87H85.8511V148.696H76.3291Z" fill="white"/>
<path d="M87.4287 148.696V126.272H91.5233V145.87H96.9507V148.696H87.4287Z" fill="white"/>
<path d="M98.5361 148.696V126.272H107.949V129.15H102.631V135.601H106.809V138.453H102.631V145.87H108V148.696H98.5361Z" fill="white"/>
<path d="M115.871 148.997C114.229 148.997 112.942 148.675 112.008 148.025C111.075 147.381 110.424 146.499 110.057 145.379C109.691 144.265 109.504 142.977 109.504 141.516V133.513C109.504 131.981 109.691 130.655 110.057 129.528C110.424 128.401 111.075 127.532 112.008 126.927C112.942 126.315 114.229 126.013 115.871 126.013C117.423 126.013 118.633 126.277 119.509 126.805C120.384 127.333 121.009 128.086 121.376 129.058C121.743 130.037 121.929 131.17 121.929 132.464V134.344H117.996V132.406C117.996 131.781 117.964 131.208 117.899 130.687C117.835 130.172 117.661 129.76 117.371 129.457C117.082 129.154 116.592 129 115.89 129C115.189 129 114.68 129.161 114.352 129.483C114.03 129.805 113.824 130.243 113.727 130.783C113.637 131.331 113.592 131.942 113.592 132.625V142.372C113.592 143.183 113.656 143.853 113.785 144.381C113.914 144.909 114.152 145.301 114.493 145.572C114.835 145.842 115.298 145.971 115.89 145.971C116.573 145.971 117.056 145.81 117.345 145.488C117.629 145.166 117.809 144.735 117.886 144.2C117.957 143.666 117.996 143.067 117.996 142.404V140.383H121.929V142.179C121.929 143.505 121.756 144.683 121.402 145.707C121.054 146.731 120.436 147.535 119.56 148.115C118.685 148.707 117.455 148.997 115.871 148.997Z" fill="white"/>
<path d="M126.465 148.696V129.292H122.892V126.272H134.075V129.292H130.559V148.696H126.465Z" fill="white"/>
<path d="M135.683 148.696V126.272H139.726V148.696H135.683Z" fill="white"/>
<path d="M148.726 148.997C147.136 148.997 145.874 148.701 144.934 148.108C143.994 147.516 143.318 146.666 142.912 145.559C142.507 144.451 142.301 143.138 142.301 141.625V133.236C142.301 131.723 142.507 130.429 142.912 129.348C143.318 128.266 143.994 127.442 144.934 126.869C145.874 126.296 147.142 126.013 148.726 126.013C150.348 126.013 151.63 126.296 152.563 126.869C153.497 127.442 154.166 128.266 154.585 129.348C154.997 130.429 155.209 131.723 155.209 133.236V141.651C155.209 143.145 155.003 144.445 154.585 145.539C154.166 146.64 153.497 147.484 152.563 148.089C151.623 148.701 150.348 148.997 148.726 148.997ZM148.726 145.984C149.408 145.984 149.911 145.836 150.233 145.539C150.554 145.243 150.773 144.838 150.883 144.323C150.992 143.808 151.05 143.241 151.05 142.636V132.309C151.05 131.685 150.992 131.118 150.883 130.622C150.773 130.127 150.554 129.734 150.233 129.444C149.911 129.161 149.408 129.013 148.726 129.013C148.082 129.013 147.593 129.154 147.258 129.444C146.923 129.734 146.704 130.12 146.595 130.622C146.486 131.118 146.428 131.685 146.428 132.309V142.629C146.428 143.241 146.479 143.801 146.582 144.316C146.685 144.831 146.904 145.237 147.232 145.533C147.561 145.829 148.056 145.984 148.726 145.984Z" fill="white"/>
<path d="M157.67 148.696V126.272H160.522L165.975 139.065V126.272H169.355V148.696H166.645L161.166 135.298V148.696H157.67Z" fill="white"/>
<path d="M184.464 148.997C182.874 148.997 181.612 148.701 180.672 148.108C179.732 147.516 179.056 146.666 178.651 145.559C178.245 144.451 178.039 143.138 178.039 141.625V133.236C178.039 131.723 178.239 130.429 178.651 129.348C179.056 128.266 179.732 127.442 180.672 126.869C181.612 126.296 182.874 126.013 184.464 126.013C186.087 126.013 187.368 126.296 188.301 126.869C189.235 127.442 189.905 128.266 190.323 129.348C190.735 130.429 190.948 131.723 190.948 133.236V141.651C190.948 143.145 190.741 144.445 190.323 145.539C189.905 146.64 189.235 147.484 188.301 148.089C187.368 148.701 186.087 148.997 184.464 148.997ZM184.464 145.984C185.147 145.984 185.649 145.836 185.971 145.539C186.293 145.243 186.512 144.838 186.621 144.323C186.731 143.808 186.789 143.241 186.789 142.636V132.309C186.789 131.685 186.731 131.118 186.621 130.622C186.512 130.127 186.293 129.734 185.971 129.444C185.649 129.161 185.147 129.013 184.464 129.013C183.82 129.013 183.331 129.154 182.996 129.444C182.662 129.727 182.443 130.12 182.333 130.622C182.224 131.118 182.166 131.685 182.166 132.309V142.629C182.166 143.241 182.217 143.801 182.32 144.316C182.423 144.831 182.636 145.237 182.971 145.533C183.299 145.836 183.801 145.984 184.464 145.984Z" fill="white"/>
<path d="M193.406 148.696V126.272H202.626V129.098H197.501V135.633H201.679V138.485H197.501V148.702H193.406V148.696Z" fill="white"/>
<path d="M212.706 148.696V129.292H209.133V126.272H220.316V129.292H216.801V148.696H212.706Z" fill="white"/>
<path d="M227.79 148.997C226.2 148.997 224.938 148.701 223.998 148.108C223.058 147.516 222.382 146.666 221.977 145.559C221.571 144.451 221.365 143.138 221.365 141.625V133.236C221.365 131.723 221.565 130.429 221.977 129.348C222.389 128.266 223.058 127.442 223.998 126.869C224.938 126.296 226.2 126.013 227.79 126.013C229.413 126.013 230.694 126.296 231.628 126.869C232.561 127.442 233.231 128.266 233.649 129.348C234.061 130.429 234.274 131.723 234.274 133.236V141.651C234.274 143.145 234.068 144.445 233.649 145.539C233.231 146.64 232.561 147.484 231.628 148.089C230.694 148.701 229.419 148.997 227.79 148.997ZM227.79 145.984C228.473 145.984 228.975 145.836 229.297 145.539C229.619 145.243 229.838 144.838 229.947 144.323C230.057 143.808 230.115 143.241 230.115 142.636V132.309C230.115 131.685 230.057 131.118 229.947 130.622C229.838 130.127 229.619 129.734 229.297 129.444C228.975 129.161 228.473 129.013 227.79 129.013C227.147 129.013 226.657 129.154 226.323 129.444C225.988 129.727 225.769 130.12 225.659 130.622C225.55 131.118 225.492 131.685 225.492 132.309V142.629C225.492 143.241 225.544 143.801 225.647 144.316C225.75 144.831 225.962 145.237 226.297 145.533C226.632 145.836 227.127 145.984 227.79 145.984Z" fill="white"/>
<path d="M236.729 148.696V126.272H243.315C244.66 126.272 245.755 126.523 246.592 127.019C247.429 127.515 248.047 128.242 248.446 129.195C248.845 130.148 249.038 131.294 249.038 132.639C249.038 134.094 248.787 135.273 248.291 136.167C247.796 137.062 247.094 137.713 246.199 138.118C245.304 138.524 244.248 138.73 243.031 138.73H240.817V148.696H236.729ZM240.83 135.852H242.381C243.122 135.852 243.695 135.749 244.113 135.537C244.531 135.324 244.815 134.983 244.969 134.513C245.124 134.043 245.208 133.412 245.208 132.614C245.208 131.802 245.15 131.139 245.027 130.631C244.905 130.122 244.648 129.749 244.255 129.51C243.856 129.272 243.237 129.15 242.388 129.15H240.836V135.852H240.83Z" fill="white"/>
<path d="M256.94 148.696V126.272H262.31C263.823 126.272 265.104 126.452 266.147 126.813C267.19 127.173 267.982 127.785 268.529 128.654C269.076 129.523 269.347 130.702 269.347 132.195C269.347 133.103 269.263 133.914 269.096 134.629C268.928 135.343 268.645 135.961 268.252 136.47C267.853 136.979 267.306 137.371 266.604 137.648L269.733 148.696H265.638L262.928 138.427H261.048V148.696H256.94ZM261.041 135.852H262.316C263.108 135.852 263.739 135.736 264.216 135.504C264.686 135.273 265.02 134.906 265.226 134.397C265.426 133.888 265.529 133.238 265.529 132.446C265.529 131.32 265.323 130.476 264.904 129.916C264.492 129.35 263.7 129.073 262.535 129.073H261.041V135.852Z" fill="white"/>
<path d="M270.779 148.696L275.267 126.272H279.638L284.125 148.696H280.333L279.445 143.52H275.543L274.629 148.696H270.779ZM275.956 140.919H279.001L277.475 131.506L275.956 140.919Z" fill="white"/>
<path d="M287.006 148.696V129.292H283.433V126.272H294.616V129.292H291.101V148.696H287.006Z" fill="white"/>
<path d="M296.114 148.696V126.272H305.527V129.15H300.209V135.601H304.387V138.453H300.209V145.87H305.578V148.696H296.114Z" fill="white"/>
<path d="M307.408 148.696V126.272H312.694C314.522 126.272 315.945 126.523 316.969 127.019C317.993 127.515 318.72 128.281 319.158 129.317C319.589 130.354 319.808 131.661 319.808 133.251V141.447C319.808 143.069 319.589 144.421 319.158 145.503C318.726 146.584 318.005 147.383 317.001 147.911C315.997 148.439 314.612 148.702 312.861 148.702H307.408V148.696ZM311.509 145.844H312.752C313.692 145.844 314.368 145.677 314.773 145.348C315.179 145.013 315.43 144.531 315.52 143.893C315.61 143.256 315.655 142.477 315.655 141.556V132.974C315.655 132.073 315.591 131.339 315.462 130.785C315.334 130.232 315.063 129.826 314.658 129.568C314.252 129.311 313.595 129.182 312.694 129.182H311.503V145.844H311.509Z" fill="white"/>
<path d="M328.446 148.696V126.272H333.957C334.955 126.272 335.857 126.362 336.655 126.549C337.46 126.736 338.149 127.045 338.735 127.476C339.32 127.907 339.765 128.493 340.074 129.234C340.383 129.974 340.544 130.901 340.544 132.028C340.544 132.936 340.421 133.708 340.17 134.352C339.919 134.996 339.558 135.511 339.076 135.891C338.593 136.27 337.994 136.522 337.28 136.65C338.168 136.798 338.902 137.107 339.481 137.577C340.061 138.047 340.499 138.659 340.782 139.419C341.065 140.178 341.213 141.086 341.213 142.161C341.213 143.237 341.078 144.176 340.814 145.001C340.544 145.825 340.151 146.507 339.623 147.048C339.095 147.595 338.445 148.001 337.659 148.278C336.874 148.554 335.96 148.69 334.904 148.69H328.446V148.696ZM332.547 135.434H333.932C334.743 135.434 335.374 135.311 335.812 135.073C336.256 134.835 336.565 134.461 336.739 133.966C336.912 133.47 337.003 132.839 337.003 132.086C337.003 131.294 336.867 130.676 336.603 130.244C336.333 129.813 335.934 129.517 335.399 129.356C334.865 129.201 334.183 129.118 333.352 129.118H332.547V135.434ZM332.547 145.818H334.099C335.335 145.818 336.179 145.516 336.616 144.917C337.061 144.318 337.28 143.391 337.28 142.136C337.28 141.234 337.17 140.5 336.964 139.934C336.752 139.374 336.397 138.949 335.915 138.672C335.425 138.395 334.775 138.253 333.964 138.253H332.554V145.818H332.547Z" fill="white"/>
<path d="M349.463 148.999C347.802 148.999 346.508 148.696 345.588 148.084C344.667 147.473 344.03 146.61 343.675 145.483C343.328 144.357 343.147 143.011 343.147 141.44V126.272H347.133V141.91C347.133 142.612 347.178 143.275 347.274 143.893C347.365 144.511 347.583 145.007 347.924 145.387C348.266 145.767 348.781 145.953 349.463 145.953C350.184 145.953 350.706 145.767 351.028 145.387C351.35 145.007 351.562 144.511 351.665 143.893C351.768 143.275 351.82 142.612 351.82 141.91V126.272H355.779V141.44C355.779 143.011 355.605 144.357 355.251 145.483C354.903 146.61 354.266 147.479 353.352 148.084C352.438 148.696 351.144 148.999 349.463 148.999Z" fill="white"/>
<path d="M364.076 148.998C362.73 148.998 361.604 148.734 360.696 148.206C359.788 147.678 359.106 146.912 358.649 145.895C358.185 144.878 357.927 143.635 357.876 142.161L361.391 141.466C361.43 142.335 361.533 143.101 361.713 143.764C361.887 144.427 362.157 144.942 362.518 145.303C362.878 145.663 363.355 145.844 363.941 145.844C364.604 145.844 365.074 145.644 365.351 145.251C365.627 144.852 365.763 144.35 365.763 143.745C365.763 142.766 365.544 141.961 365.1 141.337C364.655 140.712 364.063 140.082 363.329 139.457L360.503 136.965C359.711 136.283 359.08 135.523 358.603 134.68C358.133 133.843 357.895 132.8 357.895 131.564C357.895 129.793 358.41 128.429 359.447 127.469C360.483 126.51 361.893 126.027 363.683 126.027C364.733 126.027 365.614 126.188 366.31 126.51C367.012 126.832 367.572 127.283 367.984 127.849C368.396 128.422 368.705 129.072 368.911 129.8C369.117 130.527 369.246 131.3 369.297 132.111L365.808 132.723C365.769 132.021 365.692 131.396 365.569 130.843C365.447 130.289 365.235 129.858 364.932 129.542C364.63 129.227 364.179 129.072 363.593 129.072C362.981 129.072 362.518 129.272 362.196 129.665C361.874 130.064 361.713 130.553 361.713 131.145C361.713 131.905 361.868 132.523 362.183 133.012C362.498 133.502 362.949 134.004 363.541 134.519L366.336 136.985C367.256 137.757 368.048 138.672 368.705 139.715C369.361 140.757 369.69 142.019 369.69 143.494C369.69 144.562 369.452 145.515 368.982 146.346C368.512 147.176 367.855 147.827 367.018 148.297C366.188 148.766 365.202 148.998 364.076 148.998Z" fill="white"/>
<path d="M371.55 148.696V126.272H380.962V129.15H375.644V135.601H379.823V138.453H375.644V145.87H381.014V148.696H371.55Z" fill="white"/>
<path d="M388.494 148.998C387.148 148.998 386.022 148.734 385.114 148.206C384.206 147.678 383.524 146.912 383.066 145.895C382.603 144.878 382.345 143.635 382.294 142.161L385.809 141.466C385.848 142.335 385.951 143.101 386.131 143.764C386.305 144.427 386.575 144.942 386.936 145.303C387.296 145.663 387.773 145.844 388.359 145.844C389.022 145.844 389.492 145.644 389.768 145.251C390.045 144.852 390.181 144.35 390.181 143.745C390.181 142.766 389.962 141.961 389.517 141.337C389.073 140.712 388.481 140.082 387.747 139.457L384.921 136.965C384.129 136.283 383.498 135.523 383.021 134.68C382.551 133.843 382.313 132.8 382.313 131.564C382.313 129.793 382.828 128.429 383.865 127.469C384.901 126.51 386.311 126.027 388.101 126.027C389.151 126.027 390.033 126.188 390.728 126.51C391.43 126.832 391.99 127.283 392.402 127.849C392.814 128.422 393.123 129.072 393.329 129.8C393.535 130.527 393.664 131.3 393.715 132.111L390.226 132.723C390.187 132.021 390.11 131.396 389.987 130.843C389.865 130.289 389.653 129.858 389.35 129.542C389.047 129.227 388.597 129.072 388.011 129.072C387.399 129.072 386.936 129.272 386.614 129.665C386.292 130.064 386.131 130.553 386.131 131.145C386.131 131.905 386.286 132.523 386.601 133.012C386.916 133.502 387.367 134.004 387.96 134.519L390.754 136.985C391.674 137.757 392.466 138.672 393.123 139.715C393.78 140.757 394.108 142.019 394.108 143.494C394.108 144.562 393.87 145.515 393.4 146.346C392.93 147.176 392.273 147.827 391.436 148.297C390.599 148.766 389.62 148.998 388.494 148.998Z" fill="white"/>
<path d="M1.92436 163.514L316.793 165.445L1.92436 167.377C-0.59294 167.325 -0.689512 163.585 1.92436 163.514Z" fill="#FFC84C"/>
<defs>
<linearGradient id="paint0_linear_2358_37035" x1="0.835339" y1="130.333" x2="459.215" y2="130.333" gradientUnits="userSpaceOnUse">
<stop stop-color="#654590"/>
<stop offset="0.2482" stop-color="#5D4592"/>
<stop offset="0.6361" stop-color="#474696"/>
<stop offset="0.9972" stop-color="#2C479C"/>
</linearGradient>
</defs>
</svg>
