<svg width="96" height="97" viewBox="0 0 96 97" fill="none" xmlns="http://www.w3.org/2000/svg">
<rect y="0.191101" width="96" height="96" rx="16" fill="#FFCB64"/>
<path d="M83.6081 17.2852C79.5407 17.2852 76.2406 20.5807 76.2406 24.6528C76.2406 20.5854 72.9451 17.2852 68.873 17.2852C72.9405 17.2852 76.2406 13.9897 76.2406 9.91766C76.2406 13.9897 79.5361 17.2852 83.6081 17.2852Z" fill="white"/>
<path d="M41.6981 86.6232L33.8129 86.3736L20.8203 79.9259L43.5978 68.9855L60.2834 76.4177L41.6981 86.6232Z" fill="url(#paint0_linear_2415_27711)"/>
<path d="M43.5977 20.7484V71.9192L55.4024 78.5888L54.8847 26.6369L43.5977 20.7484Z" fill="url(#paint1_linear_2415_27711)"/>
<path d="M66.1711 21.0257V71.896C66.1711 72.6448 65.769 73.3335 65.1173 73.6986L56.4047 78.5888C55.7252 78.9678 54.8887 78.4778 54.8887 77.7013V26.734C54.8887 26.6739 54.921 26.6184 54.9765 26.5907L65.94 20.8871C66.0417 20.8316 66.1711 20.9056 66.1711 21.0257Z" fill="#2B4F8E"/>
<path d="M55.6336 27.0033L65.6866 21.748C66.3475 21.4014 66.3382 20.4585 65.6727 20.1211L55.8046 15.157C55.2268 14.8658 54.5474 14.8658 53.9743 15.157L44.1062 20.1211C43.4406 20.4539 43.436 21.4014 44.0923 21.748L54.1453 27.0033C54.6075 27.2483 55.1668 27.2483 55.6336 27.0033Z" fill="#1176A8"/>
<path d="M52.3516 73.224V80.305C52.3516 80.6239 52.1805 80.9197 51.8986 81.0768L42.1876 86.5124C41.6006 86.8405 40.875 86.4153 40.875 85.7405V79.6486L52.3516 73.224Z" fill="#D84E55"/>
<path d="M29.4072 73.224V80.2726C29.4072 80.61 29.5921 80.9243 29.8879 81.0907L39.4879 86.4661C40.1119 86.8174 40.8838 86.3645 40.8838 85.648V79.6486L29.4072 73.224Z" fill="#932E49"/>
<path d="M39.8906 86.5864L41.6978 86.6234L40.8798 85.5002L39.8906 86.5864Z" fill="#AA3A63"/>
<path d="M41.9518 79.5512L51.9216 73.9677C52.4993 73.6442 52.4901 72.8122 51.9123 72.4979L41.9241 67.0994C41.2724 66.7481 40.482 66.7481 39.8303 67.0994L29.842 72.4979C29.2597 72.8122 29.255 73.6442 29.8328 73.9677L39.8026 79.5512C40.4727 79.9256 41.2862 79.9256 41.9518 79.5512Z" fill="#EF7083"/>
<defs>
<linearGradient id="paint0_linear_2415_27711" x1="16.2218" y1="77.8054" x2="48.0333" y2="77.8054" gradientUnits="userSpaceOnUse">
<stop offset="0.00190774" stop-opacity="0"/>
<stop offset="1" stop-color="#1D1D1B" stop-opacity="0.3"/>
</linearGradient>
<linearGradient id="paint1_linear_2415_27711" x1="49.501" y1="30.3273" x2="49.501" y2="81.3202" gradientUnits="userSpaceOnUse">
<stop offset="0.1305" stop-color="#213577"/>
<stop offset="0.3695" stop-color="#1E316A"/>
<stop offset="0.8086" stop-color="#152549"/>
<stop offset="0.9972" stop-color="#111F38"/>
</linearGradient>
</defs>
</svg>
