<svg width="35" height="20" viewBox="0 0 35 20" fill="none" xmlns="http://www.w3.org/2000/svg">
<path d="M34.6657 13.3366L33.8769 14.3512H33.4167L33.5463 10.8389C33.5572 10.5179 33.5077 10.1979 33.4006 9.89748L30.9659 2.99232C30.8016 2.53105 30.5088 2.13359 30.1264 1.85262C29.744 1.57164 29.2901 1.42044 28.8247 1.41904H24.6508L23.8934 0.518577C23.7561 0.355357 23.5879 0.224779 23.3996 0.135409C23.2113 0.0460392 23.0073 -0.000151152 22.8009 4.79963e-07H20.718C20.4128 -0.000254262 20.1151 0.100901 19.8669 0.289128C19.6187 0.477356 19.4324 0.743237 19.3342 1.04944L19.2155 1.41904H0V2.8851H28.8276C29.0108 2.88542 29.1897 2.94459 29.3405 3.05479C29.4913 3.165 29.6071 3.32106 29.6725 3.50239L32.1072 10.4067C32.1493 10.5254 32.1684 10.6519 32.1633 10.7787L32.0132 14.862C32.0047 15.1089 31.906 15.3425 31.7379 15.5137C31.5698 15.6849 31.3455 15.7802 31.1123 15.7794H27.9282C27.7499 15.7796 27.5756 15.7239 27.4273 15.6191C27.2789 15.5143 27.1633 15.3652 27.095 15.1907L26.4912 13.6475C26.3343 13.244 26.0676 12.8992 25.7251 12.657C25.3825 12.4147 24.9797 12.2859 24.5678 12.2871H24.5612L5.85336 12.3643C5.46486 12.3641 5.08415 12.4798 4.75481 12.6981C4.42547 12.9164 4.1608 13.2286 3.99109 13.5989L3.6903 14.2447C3.61545 14.4045 3.50013 14.539 3.35724 14.6333C3.21434 14.7276 3.04951 14.7779 2.88116 14.7787H0V16.2447H2.88116C3.24969 16.243 3.61246 16.1477 3.93894 15.9665C4.26541 15.7854 4.54606 15.5238 4.75727 15.2038C4.51709 16.1252 4.61461 17.1088 5.03028 17.9572C5.44594 18.8056 6.14901 19.4562 6.99847 19.7784C7.84793 20.1006 8.78095 20.0705 9.61041 19.6944C10.4399 19.3182 11.1044 18.6237 11.4707 17.7501H9.84299C9.54763 18.1021 9.15824 18.3506 8.72649 18.4627C8.29474 18.5748 7.84102 18.5452 7.42552 18.3778C7.01002 18.2104 6.65237 17.9131 6.40002 17.5254C6.14766 17.1377 6.01252 16.6779 6.01252 16.2069C6.01252 15.7359 6.14766 15.2761 6.40002 14.8884C6.65237 14.5007 7.01002 14.2035 7.42552 14.0361C7.84102 13.8687 8.29474 13.839 8.72649 13.9511C9.15824 14.0632 9.54763 14.3117 9.84299 14.6637H11.4686C11.3386 14.3571 11.1708 14.0702 10.9697 13.8103L12.4809 13.8034C12.2771 14.0648 12.1076 14.3542 11.9769 14.6637H13.6047C13.8101 14.4187 14.0621 14.2226 14.3443 14.0883C14.6264 13.954 14.9322 13.8845 15.2415 13.8845C15.5508 13.8845 15.8566 13.954 16.1388 14.0883C16.4209 14.2226 16.673 14.4187 16.8784 14.6637H18.5069C18.3718 14.3453 18.1961 14.048 17.9847 13.7802L19.5425 13.7732C19.3284 14.0427 19.1507 14.3424 19.0145 14.6637H20.6452C20.9406 14.3115 21.3301 14.0627 21.762 13.9505C22.1939 13.8382 22.6479 13.8678 23.0636 14.0352C23.4793 14.2026 23.8371 14.5 24.0896 14.8879C24.3421 15.2757 24.4773 15.7357 24.4773 16.2069C24.4773 16.6781 24.3421 17.1381 24.0896 17.526C23.8371 17.9139 23.4793 18.2112 23.0636 18.3786C22.6479 18.546 22.1939 18.5756 21.762 18.4633C21.3301 18.3511 20.9406 18.1023 20.6452 17.7501H19.0167C19.3504 18.5426 19.9307 19.1896 20.6607 19.5831C21.3906 19.9767 22.226 20.0928 23.027 19.9121C23.8281 19.7314 24.5463 19.2649 25.0617 18.5904C25.577 17.916 25.8583 17.0746 25.8583 16.2069C25.8583 16.0716 25.8512 15.9363 25.8372 15.8018C26.0154 16.2315 26.3079 16.5968 26.679 16.8531C27.0502 17.1094 27.4837 17.2455 27.9267 17.2447H31.1123C31.5564 17.2461 31.9913 17.1099 32.3633 16.8528C32.7353 16.5958 33.0283 16.2291 33.2062 15.798H33.9301L34.6672 16.6367C34.693 16.6659 34.7265 16.6862 34.7633 16.695C34.8001 16.7038 34.8386 16.7007 34.8738 16.6861C34.9089 16.6714 34.9391 16.646 34.9604 16.613C34.9818 16.58 34.9933 16.5409 34.9934 16.5009L35 13.4662C35.0005 13.4248 34.9889 13.3842 34.9667 13.3501C34.9445 13.316 34.9129 13.2901 34.8762 13.2758C34.8395 13.2616 34.7995 13.2598 34.7618 13.2706C34.7241 13.2815 34.6905 13.3046 34.6657 13.3366Z" fill="#D84E55"/>
<path d="M15.2441 18.5273C14.9346 18.5275 14.6286 18.4581 14.3464 18.3236C14.0641 18.1892 13.8121 17.9926 13.6069 17.7472H11.9784C12.2594 18.416 12.7173 18.9842 13.2968 19.3829C13.8762 19.7817 14.5524 19.9939 15.2434 19.9939C15.9343 19.9939 16.6105 19.7817 17.19 19.3829C17.7694 18.9842 18.2274 18.416 18.5083 17.7472H16.8806C16.6755 17.9926 16.4235 18.189 16.1414 18.3235C15.8593 18.458 15.5535 18.5274 15.2441 18.5273Z" fill="#D84E55"/>
<path d="M22.9757 16.2039C22.9757 16.0095 22.9028 15.8231 22.7731 15.6857C22.6433 15.5482 22.4673 15.4709 22.2838 15.4709H8.20576C8.02226 15.4709 7.84628 15.5482 7.71653 15.6857C7.58677 15.8231 7.51388 16.0095 7.51388 16.2039C7.51388 16.3983 7.58677 16.5848 7.71653 16.7223C7.84628 16.8598 8.02226 16.937 8.20576 16.937H22.2816C22.3727 16.9373 22.4629 16.9186 22.5471 16.8819C22.6313 16.8452 22.7078 16.7912 22.7723 16.7231C22.8368 16.655 22.8879 16.5741 22.9228 16.485C22.9578 16.3959 22.9757 16.3004 22.9757 16.2039Z" fill="#D84E55"/>
<path d="M0 10.3448V6.26733H1.28678V7.45598L1.09483 7.11744C1.20858 6.8115 1.39342 6.5833 1.64935 6.43284C1.90529 6.27737 2.21573 6.19963 2.58067 6.19963V7.48607C2.51906 7.47604 2.46455 7.47102 2.41716 7.47102C2.3745 7.46601 2.3271 7.4635 2.27497 7.4635C2.00008 7.4635 1.77732 7.54375 1.6067 7.70424C1.43607 7.85971 1.35076 8.1155 1.35076 8.47159V10.3448H0Z" fill="#D84E55"/>
<path d="M5.1224 10.4125C4.66741 10.4125 4.26929 10.3223 3.92804 10.1417C3.59154 9.95614 3.3285 9.70537 3.13891 9.3894C2.95407 9.06842 2.86165 8.7048 2.86165 8.29856C2.86165 7.89231 2.9517 7.53121 3.1318 7.21524C3.31665 6.89426 3.57021 6.646 3.8925 6.47046C4.21479 6.2899 4.57736 6.19963 4.98022 6.19963C5.35938 6.19963 5.70536 6.28238 6.01817 6.44789C6.33098 6.60838 6.57981 6.84661 6.76465 7.16258C6.94949 7.47855 7.04191 7.86222 7.04191 8.3136C7.04191 8.36376 7.03954 8.42144 7.0348 8.48664C7.03006 8.55183 7.02532 8.61202 7.02058 8.66719H3.9707V7.91488H6.30254L5.79068 8.12553C5.79542 7.93996 5.76224 7.77947 5.69115 7.64405C5.62479 7.50864 5.53 7.40332 5.40677 7.32809C5.28829 7.25285 5.14847 7.21524 4.98733 7.21524C4.82618 7.21524 4.684 7.25285 4.56077 7.32809C4.44228 7.40332 4.34986 7.51115 4.28351 7.65158C4.21715 7.78699 4.18398 7.94748 4.18398 8.13305V8.35122C4.18398 8.55183 4.22189 8.72486 4.29773 8.87031C4.3783 9.01576 4.49205 9.1286 4.63897 9.20885C4.7859 9.28408 4.96126 9.32169 5.16506 9.32169C5.35464 9.32169 5.51578 9.29411 5.64849 9.23894C5.78594 9.17876 5.92101 9.08848 6.05372 8.96811L6.76465 9.75051C6.57981 9.96617 6.35231 10.1317 6.08216 10.247C5.812 10.3574 5.49209 10.4125 5.1224 10.4125Z" fill="#D84E55"/>
<path d="M9.34248 10.4125C8.99176 10.4125 8.67184 10.3273 8.38273 10.1568C8.09836 9.98121 7.87086 9.73797 7.70024 9.42702C7.52962 9.11105 7.44431 8.7349 7.44431 8.29856C7.44431 7.86724 7.52962 7.4961 7.70024 7.18515C7.87086 6.86918 8.09836 6.62593 8.38273 6.45541C8.67184 6.28489 8.99176 6.19963 9.34248 6.19963C9.67425 6.19963 9.95388 6.27486 10.1814 6.42532C10.4136 6.57578 10.589 6.80649 10.7075 7.11744C10.826 7.42839 10.8852 7.8221 10.8852 8.29856C10.8852 8.78505 10.8283 9.18377 10.7146 9.49472C10.6008 9.80568 10.4302 10.0364 10.2027 10.1868C9.97521 10.3373 9.68847 10.4125 9.34248 10.4125ZM9.62686 9.27656C9.77852 9.27656 9.9136 9.23894 10.0321 9.16371C10.1553 9.08848 10.2525 8.97814 10.3236 8.8327C10.3947 8.68223 10.4302 8.50419 10.4302 8.29856C10.4302 8.09293 10.3947 7.9199 10.3236 7.77947C10.2525 7.63402 10.1553 7.52368 10.0321 7.44845C9.9136 7.37322 9.77852 7.33561 9.62686 7.33561C9.47045 7.33561 9.33064 7.37322 9.20741 7.44845C9.08892 7.52368 8.99413 7.63402 8.92304 7.77947C8.85194 7.9199 8.8164 8.09293 8.8164 8.29856C8.8164 8.50419 8.85194 8.68223 8.92304 8.8327C8.99413 8.97814 9.08892 9.08848 9.20741 9.16371C9.33064 9.23894 9.47045 9.27656 9.62686 9.27656ZM10.4729 10.3448V9.64518L10.48 8.29856L10.4089 6.95193V4.76273H11.7596V10.3448H10.4729Z" fill="#D84E55"/>
<path d="M12.6927 10.3448V5.07869H14.9676C15.4226 5.07869 15.8137 5.15643 16.1407 5.31191C16.4724 5.46738 16.7284 5.69308 16.9085 5.98898C17.0886 6.27987 17.1786 6.62593 17.1786 7.02716C17.1786 7.42338 17.0886 7.76693 16.9085 8.05782C16.7284 8.3437 16.4724 8.56437 16.1407 8.71985C15.8137 8.87031 15.4226 8.94554 14.9676 8.94554H13.4747L14.1003 8.32113V10.3448H12.6927ZM15.771 10.3448L14.534 8.42645H16.034L17.2782 10.3448H15.771ZM14.1003 8.47911L13.4747 7.79451H14.8823C15.1762 7.79451 15.3942 7.72681 15.5364 7.59139C15.6833 7.45598 15.7568 7.2679 15.7568 7.02716C15.7568 6.78141 15.6833 6.59083 15.5364 6.45541C15.3942 6.32 15.1762 6.25229 14.8823 6.25229H13.4747L14.1003 5.56769V8.47911Z" fill="#D84E55"/>
<path d="M20.2097 10.3448V9.585L20.1173 9.39692V7.99764C20.1173 7.77195 20.0509 7.59891 19.9182 7.47855C19.7902 7.35316 19.5841 7.29047 19.2997 7.29047C19.1149 7.29047 18.9276 7.32307 18.7381 7.38827C18.5485 7.44845 18.3873 7.53372 18.2546 7.64405L17.7996 6.67358C18.0177 6.52312 18.2783 6.40777 18.5817 6.32752C18.8897 6.24226 19.1954 6.19963 19.4988 6.19963C20.1244 6.19963 20.6078 6.3526 20.9491 6.65853C21.295 6.95946 21.468 7.43341 21.468 8.08039V10.3448H20.2097ZM19.0722 10.4125C18.7641 10.4125 18.5035 10.3574 18.2902 10.247C18.0769 10.1367 17.9134 9.98623 17.7996 9.79565C17.6906 9.60506 17.6361 9.39191 17.6361 9.15619C17.6361 8.90542 17.6954 8.68976 17.8139 8.5092C17.9371 8.32364 18.1243 8.1832 18.3755 8.08791C18.6267 7.98761 18.9513 7.93745 19.3495 7.93745H20.2595V8.68223H19.5343C19.3163 8.68223 19.1623 8.71985 19.0722 8.79508C18.9869 8.87031 18.9442 8.97062 18.9442 9.096C18.9442 9.22139 18.9893 9.32169 19.0793 9.39692C19.1694 9.47216 19.2926 9.50977 19.449 9.50977C19.5959 9.50977 19.7286 9.47216 19.8471 9.39692C19.9703 9.31668 20.0604 9.19631 20.1173 9.03582L20.3021 9.56243C20.231 9.84329 20.0912 10.0564 19.8827 10.2019C19.6789 10.3423 19.4087 10.4125 19.0722 10.4125Z" fill="#D84E55"/>
<path d="M22.3206 10.3448V6.26733H23.6714V10.3448H22.3206ZM22.996 5.81595C22.7496 5.81595 22.5505 5.74323 22.3988 5.59778C22.2472 5.45234 22.1713 5.27178 22.1713 5.05612C22.1713 4.84046 22.2472 4.65991 22.3988 4.51446C22.5505 4.36902 22.7496 4.2963 22.996 4.2963C23.2425 4.2963 23.4415 4.36651 23.5932 4.50694C23.7449 4.64236 23.8207 4.81789 23.8207 5.03356C23.8207 5.25925 23.7449 5.44732 23.5932 5.59778C23.4463 5.74323 23.2472 5.81595 22.996 5.81595Z" fill="#D84E55"/>
<path d="M24.5492 10.3448V4.76273H25.9V10.3448H24.5492Z" fill="#D84E55"/>
</svg>
