<svg width="26" height="30" viewBox="0 0 26 30" fill="none" xmlns="http://www.w3.org/2000/svg">
<path fill-rule="evenodd" clip-rule="evenodd" d="M10.7142 11.301H10.6525C10.6091 11.301 10.5757 11.266 10.5757 11.2242V8.1685C10.5757 8.12511 10.6107 8.09174 10.6525 8.09174H10.7142V2.03868C10.7142 1.27767 11.3233 0.658509 12.0844 0.645158C13.8484 0.615118 15.4455 0.600098 16.8807 0.600098C18.316 0.600098 19.9131 0.615118 21.6771 0.645158C22.4381 0.658509 23.0473 1.27767 23.0473 2.03868V4.60376H23.0773C23.1207 4.60376 23.1541 4.63881 23.1541 4.68053V5.95723C23.1541 6.00062 23.119 6.034 23.0773 6.034H23.0473V8.12845H23.0773C23.099 8.12845 23.1157 8.14514 23.1157 8.16684V10.0994C23.1157 10.1211 23.099 10.1378 23.0773 10.1378H23.0389V24.0947C23.0389 24.8524 22.4348 25.4715 21.6771 25.4899C20.1785 25.5233 18.578 25.54 16.8774 25.54C15.1768 25.54 13.5763 25.5233 12.0777 25.4899C11.32 25.4732 10.7159 24.854 10.7159 24.0947V11.301H10.7142Z" fill="#0B2139"/>
<path fill-rule="evenodd" clip-rule="evenodd" d="M11.4586 25.1012C11.6556 25.2096 11.8408 25.2664 12.3798 25.2664H21.3501C21.8892 25.2664 22.0744 25.208 22.2713 25.1012C22.4482 25.0044 22.5934 24.8592 22.6902 24.6823C22.7987 24.4853 22.8555 24.2984 22.8555 23.761V2.33419C22.8555 1.79514 22.797 1.6099 22.6902 1.41297C22.5934 1.23607 22.4482 1.09087 22.2713 0.994077C22.0744 0.8856 21.8892 0.828857 21.3501 0.828857H12.3798C11.8408 0.828857 11.6556 0.887268 11.4586 0.994077C11.2817 1.09087 11.1365 1.23607 11.0397 1.41297C10.9313 1.6099 10.8745 1.79681 10.8745 2.33419V23.761C10.8745 24.3001 10.9329 24.4853 11.0397 24.6823C11.1365 24.8592 11.2817 25.0044 11.4586 25.1012Z" fill="#19335D"/>
<path d="M22.4914 1.53967C22.4146 1.40116 22.3011 1.286 22.1626 1.2109C22.004 1.12412 21.8572 1.07739 21.4266 1.07739H19.8095L19.7611 1.51631C19.731 1.78333 19.5057 1.98527 19.237 1.98527H14.4557C14.1736 1.98527 13.9433 1.76497 13.93 1.48293L13.9116 1.07739H12.2945C11.8639 1.07739 11.717 1.12412 11.5585 1.2109C11.42 1.28767 11.3048 1.40116 11.2297 1.53967C11.1429 1.69822 11.0962 1.84508 11.0962 2.27565V23.2953C11.0962 23.7259 11.1429 23.8727 11.2297 24.0313C11.3065 24.1698 11.42 24.2849 11.5585 24.36C11.717 24.4468 11.8639 24.4936 12.2945 24.4936H21.4266C21.8572 24.4936 22.004 24.4468 22.1626 24.36C22.3011 24.2833 22.4163 24.1698 22.4914 24.0313C22.5781 23.8727 22.6249 23.7259 22.6249 23.2953V2.27565C22.6232 1.84508 22.5781 1.69822 22.4914 1.53967Z" fill="#F4EFEF"/>
<path d="M14.8249 1.62822C14.9226 1.62822 15.0018 1.54902 15.0018 1.45132C15.0018 1.35362 14.9226 1.27441 14.8249 1.27441C14.7272 1.27441 14.6479 1.35362 14.6479 1.45132C14.6479 1.54902 14.7272 1.62822 14.8249 1.62822Z" fill="#0B2139"/>
<path d="M18.9069 1.62822C19.0046 1.62822 19.0838 1.54902 19.0838 1.45132C19.0838 1.35362 19.0046 1.27441 18.9069 1.27441C18.8092 1.27441 18.73 1.35362 18.73 1.45132C18.73 1.54902 18.8092 1.62822 18.9069 1.62822Z" fill="#0B2139"/>
<path d="M18.2662 1.59654H15.3957C15.3156 1.59654 15.2505 1.53145 15.2505 1.45135C15.2505 1.37124 15.3156 1.30615 15.3957 1.30615H18.2662C18.3463 1.30615 18.4114 1.37124 18.4114 1.45135C18.4114 1.53145 18.3463 1.59654 18.2662 1.59654Z" fill="#0B2139"/>
<path d="M19.7495 26.5679C19.7495 26.7482 21.0679 26.8934 22.6951 26.8934C24.3223 26.8934 25.6407 26.7465 25.6407 26.5679C25.6407 26.5646 25.6407 26.5613 25.639 26.5579V25.6768H19.7512V26.5546C19.7495 26.5613 19.7495 26.5646 19.7495 26.5679Z" fill="#F49B51"/>
<path d="M19.7495 25.6868C19.7495 25.867 21.0679 26.0122 22.6951 26.0122C24.3223 26.0122 25.6407 25.867 25.6407 25.6868C25.6407 25.5065 24.3223 25.3613 22.6951 25.3613C21.0679 25.3597 19.7495 25.5065 19.7495 25.6868Z" fill="#FFCB64"/>
<path d="M19.0518 25.5067C19.0518 25.6869 20.3702 25.8321 21.9973 25.8321C23.6245 25.8321 24.9429 25.6852 24.9429 25.5067C24.9429 25.5033 24.9429 25.5 24.9413 25.4967V24.6155H19.0534V25.4933C19.0534 25.4983 19.0518 25.5017 19.0518 25.5067Z" fill="#F49B51"/>
<path d="M19.0532 24.6238C19.0532 24.804 20.3716 24.9492 21.9988 24.9492C23.626 24.9492 24.9444 24.804 24.9444 24.6238C24.9444 24.4435 23.626 24.2983 21.9988 24.2983C20.3716 24.2983 19.0532 24.4435 19.0532 24.6238Z" fill="#FFCB64"/>
<path d="M19.749 24.4434C19.749 24.6237 21.0674 24.7689 22.6946 24.7689C24.3218 24.7689 25.6402 24.622 25.6402 24.4434C25.6402 24.4401 25.6402 24.4368 25.6385 24.4334V23.5522H19.7507V24.4301C19.749 24.4368 19.749 24.4401 19.749 24.4434Z" fill="#F49B51"/>
<path d="M22.6931 23.8877C24.3199 23.8877 25.6387 23.742 25.6387 23.5622C25.6387 23.3825 24.3199 23.2368 22.6931 23.2368C21.0663 23.2368 19.7476 23.3825 19.7476 23.5622C19.7476 23.742 21.0663 23.8877 22.6931 23.8877Z" fill="#FFCB64"/>
<path d="M18.7046 23.3822C18.7046 23.5624 20.023 23.7076 21.6502 23.7076C23.2773 23.7076 24.5958 23.5607 24.5958 23.3822C24.5958 23.3788 24.5958 23.3755 24.5941 23.3721V22.491H18.7063V23.3705C18.7046 23.3738 18.7046 23.3771 18.7046 23.3822Z" fill="#F49B51"/>
<path d="M21.6502 22.8247C23.277 22.8247 24.5958 22.679 24.5958 22.4993C24.5958 22.3195 23.277 22.1738 21.6502 22.1738C20.0234 22.1738 18.7046 22.3195 18.7046 22.4993C18.7046 22.679 20.0234 22.8247 21.6502 22.8247Z" fill="#FFCB64"/>
<path d="M21.6501 22.7178C22.9746 22.7178 24.0483 22.6199 24.0483 22.4991C24.0483 22.3784 22.9746 22.2805 21.6501 22.2805C20.3257 22.2805 19.252 22.3784 19.252 22.4991C19.252 22.6199 20.3257 22.7178 21.6501 22.7178Z" fill="#F49B51"/>
<path d="M15.0733 28.4923H0.832704C0.483906 28.4923 0.200195 28.2103 0.200195 27.8598V18.1652C0.200195 17.8164 0.482237 17.5327 0.832704 17.5327H15.0733C15.4221 17.5327 15.7058 17.8148 15.7058 18.1652V27.8598C15.7042 28.2103 15.4221 28.4923 15.0733 28.4923Z" fill="#D84E55"/>
<path d="M15.2353 18.6725V27.3557C15.2353 27.7229 14.9366 28.0216 14.5694 28.0216H13.5648V18.569H1.05646C0.90125 18.569 0.774414 18.4438 0.774414 18.2886C0.774414 18.1334 0.899581 18.0066 1.05646 18.0066H14.5694C14.9366 18.0066 15.2353 18.3053 15.2353 18.6725Z" fill="#992E40"/>
<path d="M10.8276 15.4765C9.25049 15.0626 7.63668 16.0072 7.22279 17.5859C6.80891 19.163 7.7535 20.7785 9.33227 21.1907C10.9094 21.6046 12.5248 20.66 12.9371 19.0813C13.3509 17.5042 12.4064 15.8903 10.8276 15.4765ZM12.3797 18.9361C12.2194 19.5502 11.8289 20.0659 11.2799 20.3863C10.7325 20.7067 10.0916 20.7952 9.47746 20.635C8.20911 20.3029 7.44809 19.0011 7.7802 17.7328C7.94041 17.1186 8.33093 16.603 8.88 16.2825C9.40904 15.9738 10.0232 15.8803 10.6173 16.0188C10.639 16.0238 10.6607 16.0289 10.6807 16.0355C11.9291 16.361 12.6851 17.626 12.3947 18.8743C12.3897 18.8943 12.3847 18.9144 12.3797 18.9361Z" fill="#FFCB64"/>
<path d="M12.3945 18.8726C12.3895 18.8943 12.3845 18.9143 12.3795 18.936C12.2193 19.5502 11.8287 20.0658 11.2797 20.3863C10.7323 20.7067 10.0914 20.7951 9.47727 20.6349C8.20892 20.3028 7.4479 19.0011 7.78001 17.7327C7.94023 17.1186 8.33075 16.6029 8.87981 16.2825C9.40885 15.9737 10.023 15.8803 10.6171 16.0188C10.6388 16.0238 10.6605 16.0288 10.6805 16.0355C11.9289 16.3609 12.6849 17.6243 12.3945 18.8726Z" fill="#F49B51"/>
<path d="M9.38736 17.0068H11.3316V17.0102C11.2165 17.1871 11.153 17.2805 11.138 17.2939H10.6173C10.6891 17.3773 10.7375 17.4791 10.7625 17.5993H11.3166C11.3233 17.601 11.3266 17.6026 11.3266 17.6076C11.2031 17.7929 11.1397 17.8863 11.1364 17.8863H10.7759C10.7675 17.9815 10.7225 18.0966 10.639 18.2318C10.5289 18.3686 10.4221 18.4554 10.3219 18.4972C10.1334 18.5873 9.95311 18.6323 9.78122 18.6323V18.6357C9.78122 18.649 10.1717 19.1113 10.9511 20.0242H10.4354C9.67608 19.1397 9.29557 18.6941 9.29557 18.6907V18.4221L9.29891 18.412C9.36566 18.4221 9.44577 18.4254 9.53589 18.4254C9.96146 18.4254 10.2268 18.2869 10.3303 18.0115C10.347 17.9715 10.3553 17.9297 10.3553 17.8863H9.19877C9.19377 17.8863 9.19043 17.883 9.19043 17.878C9.31893 17.6927 9.38402 17.5993 9.38569 17.5993H10.3036V17.596C10.2518 17.4891 10.15 17.4074 9.99817 17.3473C9.88969 17.3122 9.7929 17.2956 9.70778 17.2956H9.19377V17.2855C9.31893 17.0986 9.38235 17.0068 9.38736 17.0068Z" fill="#FFCB64"/>
<path d="M5.26692 12.9682C3.63641 12.9231 2.27961 14.2098 2.23455 15.8403C2.18949 17.4708 3.4762 18.8293 5.1067 18.8727C6.73721 18.9178 8.09568 17.6311 8.13907 16.0006C8.18413 14.3701 6.89742 13.0132 5.26692 12.9682ZM7.56331 15.9855C7.54662 16.6197 7.28293 17.2105 6.82065 17.6461C6.36004 18.0833 5.75757 18.3136 5.12172 18.2969C3.81165 18.2619 2.77527 17.1671 2.81031 15.8554C2.827 15.2212 3.09069 14.6304 3.5513 14.1948C3.99522 13.7743 4.57433 13.544 5.18347 13.544C5.20517 13.544 5.22686 13.544 5.25023 13.5456C6.53861 13.5807 7.56331 14.6404 7.56331 15.9221C7.56331 15.9421 7.56331 15.9638 7.56331 15.9855Z" fill="#FFCB64"/>
<path d="M7.56351 15.9204C7.56351 15.9421 7.56351 15.9638 7.56351 15.9855C7.54682 16.6197 7.28313 17.2105 6.82085 17.6461C6.36024 18.0833 5.75777 18.3136 5.12193 18.2969C3.81185 18.2619 2.7738 17.1671 2.81052 15.8554C2.8272 15.2212 3.09089 14.6304 3.5515 14.1948C3.99543 13.7743 4.57453 13.5439 5.18367 13.5439C5.20537 13.5439 5.22707 13.5439 5.25043 13.5456C6.54048 13.579 7.56351 14.6387 7.56351 15.9204Z" fill="#F49B51"/>
<path d="M4.49409 14.5938H6.43834V14.5971C6.32319 14.774 6.25977 14.8674 6.24475 14.8808H5.72573C5.79749 14.9642 5.84589 15.066 5.87092 15.1862H6.42499C6.43167 15.1879 6.435 15.1895 6.435 15.1945C6.31151 15.3798 6.24809 15.4733 6.24475 15.4733H5.88427C5.87593 15.5684 5.83087 15.6835 5.74742 15.8187C5.63728 15.9556 5.53047 16.0423 5.43033 16.0841C5.24175 16.1742 5.06151 16.2192 4.88961 16.2192V16.2226C4.88961 16.2359 5.28013 16.6982 6.0595 17.6111H5.54382C4.78447 16.7266 4.40397 16.281 4.40397 16.2777V16.009L4.40731 15.999C4.47406 16.009 4.55417 16.0123 4.64429 16.0123C5.06985 16.0123 5.33521 15.8738 5.43868 15.5984C5.45537 15.5584 5.46371 15.5166 5.46371 15.4733H4.30717C4.30217 15.4733 4.29883 15.4699 4.29883 15.4649C4.42733 15.2797 4.49242 15.1862 4.49409 15.1862H5.41031V15.1829C5.35857 15.0761 5.25677 14.9943 5.1049 14.9342C4.99642 14.8992 4.89963 14.8825 4.81451 14.8825H4.3005V14.8725C4.42566 14.6855 4.48908 14.5938 4.49409 14.5938Z" fill="#FFCB64"/>
<path d="M14.0818 29.4H0.814142C0.475357 29.4 0.20166 29.1263 0.20166 28.7875V19.193C0.20166 18.8543 0.475357 18.5806 0.814142 18.5806H14.0835C14.4223 18.5806 14.696 18.8543 14.696 19.193V28.7875C14.6943 29.1246 14.4206 29.4 14.0818 29.4Z" fill="#D84E55"/>
<path d="M15.6877 21.7683V24.8257C15.6877 25.2096 15.3773 25.52 14.9934 25.52H12.3482C11.5021 25.52 10.8179 24.8341 10.8179 23.9896C10.8179 23.5674 10.9898 23.1835 11.2668 22.9065C11.5438 22.6295 11.926 22.4576 12.3499 22.4576H14.9951C15.0151 22.4576 15.0335 22.4576 15.0535 22.4609C15.4073 22.4309 15.6877 22.1321 15.6877 21.7683Z" fill="#992E40"/>
<path d="M12.2079 24.704C12.6024 24.704 12.9222 24.3842 12.9222 23.9897C12.9222 23.5952 12.6024 23.2754 12.2079 23.2754C11.8134 23.2754 11.4937 23.5952 11.4937 23.9897C11.4937 24.3842 11.8134 24.704 12.2079 24.704Z" fill="white"/>
<path d="M15.9494 5.99052L15.8359 6.55627C14.8529 6.36435 13.8215 6.39272 12.8586 6.66975C12.3746 6.8066 11.9073 6.99519 11.4717 7.24218C11.0345 7.48918 10.6223 7.77956 10.2551 8.12168C9.88629 8.46214 9.55419 8.84264 9.27548 9.2582C8.99678 9.67542 8.76647 10.1244 8.59124 10.5933C8.54618 10.7101 8.50946 10.8303 8.46941 10.9504C8.43603 11.0706 8.39931 11.1908 8.37094 11.3126C8.36427 11.346 8.35425 11.3777 8.34758 11.4111L7.76514 11.3693C7.78016 11.3043 7.79518 11.2408 7.8102 11.1774C7.84024 11.0439 7.88196 10.9137 7.917 10.7819C7.9604 10.6517 8.00212 10.5232 8.04885 10.3947C8.24077 9.88236 8.4911 9.39338 8.79651 8.93777C9.10192 8.48383 9.4624 8.06828 9.86293 7.69779C10.2635 7.32563 10.7124 7.00687 11.1897 6.73985C11.6653 6.47115 12.176 6.26421 12.7017 6.11401C13.7531 5.81194 14.8779 5.78024 15.9494 5.99052Z" fill="#D84E55"/>
<path d="M8.86164 11.4796C8.5312 11.8334 8.23414 12.2506 7.98548 12.7212C7.70177 12.2723 7.46478 11.7649 7.28955 11.2125L7.79189 11.2977C7.79522 11.2676 7.8019 11.2376 7.80691 11.2075L7.81191 11.1858L7.81525 11.1675L8.39602 11.2075C8.39102 11.2242 8.38935 11.2426 8.38434 11.2609L8.37933 11.2943L8.376 11.3127C8.37099 11.341 8.36431 11.3677 8.36098 11.3944L8.86164 11.4796Z" fill="#D84E55"/>
<path d="M12.0027 11.5462C12.0477 13.2151 13.4362 14.5302 15.1051 14.4851C16.774 14.4401 18.0891 13.0516 18.044 11.3827C17.999 9.71377 16.6105 8.39869 14.9416 8.44375C13.271 8.48881 11.9559 9.87733 12.0027 11.5462ZM12.5901 11.4628C12.5901 10.1527 13.6365 9.06791 14.9549 9.03287C14.9783 9.03287 15 9.0312 15.0234 9.0312C15.6475 9.0312 16.2383 9.26651 16.6939 9.69709C17.1662 10.1443 17.4349 10.7468 17.4533 11.396C17.49 12.7361 16.4286 13.856 15.0884 13.8927C14.4392 13.911 13.8218 13.674 13.3511 13.2268C12.8788 12.7795 12.6101 12.1771 12.5918 11.5279C12.5901 11.5078 12.5901 11.4861 12.5901 11.4628Z" fill="#FFCB64"/>
<path d="M12.5903 11.4626C12.5903 11.4843 12.5903 11.5077 12.5903 11.5294C12.6087 12.1786 12.8774 12.7827 13.3497 13.2283C13.8203 13.6756 14.4378 13.9109 15.087 13.8942C16.4271 13.8575 17.4885 12.7376 17.4518 11.3975C17.4334 10.7483 17.1648 10.1442 16.6925 9.6986C16.2369 9.26803 15.6461 9.03271 15.0219 9.03271C14.9985 9.03271 14.9768 9.03272 14.9535 9.03438C13.6367 9.06776 12.5903 10.1525 12.5903 11.4626Z" fill="#F49B51"/>
<path d="M14.3126 10.106H16.3002V10.1093C16.1834 10.2895 16.1166 10.3863 16.1016 10.398H15.5709C15.6443 10.4831 15.6927 10.5883 15.7194 10.7101H16.2852C16.2919 10.7118 16.2952 10.7134 16.2952 10.7184C16.1684 10.9087 16.1033 11.0038 16.1016 11.0038H15.7345C15.7261 11.1023 15.6794 11.2191 15.5943 11.3576C15.4808 11.4961 15.3723 11.5863 15.2705 11.628C15.0769 11.7198 14.8933 11.7665 14.7164 11.7665V11.7698C14.7164 11.7832 15.1153 12.2572 15.913 13.1901H15.3857C14.608 12.2855 14.2191 11.8299 14.2191 11.8266V11.5512L14.2225 11.5412C14.2909 11.5512 14.3727 11.5562 14.4644 11.5562C14.9 11.5562 15.1704 11.4144 15.2772 11.1323C15.2939 11.0906 15.3022 11.0489 15.3022 11.0038H14.1206C14.1156 11.0038 14.1123 11.0005 14.1123 10.9955C14.2425 10.8052 14.3092 10.7101 14.3126 10.7101H15.2505V10.7068C15.1971 10.5983 15.0919 10.5132 14.9384 10.4531C14.8283 10.418 14.7281 10.3997 14.6413 10.3997H14.1156V10.3897C14.2441 10.2011 14.3092 10.106 14.3126 10.106Z" fill="#FFCB64"/>
<path d="M13.8616 11.8916C13.6146 12.0168 13.4461 12.2087 13.3292 12.449C13.2141 12.2087 13.0439 12.0151 12.7969 11.8899C13.0439 11.7648 13.2141 11.5728 13.3292 11.3325C13.4461 11.5728 13.6146 11.7664 13.8616 11.8916Z" fill="#FFE6A6"/>
<path d="M14.3187 13.0781C14.1751 13.1516 14.0767 13.2617 14.0099 13.4019C13.9432 13.2617 13.843 13.1499 13.7012 13.0764C13.8447 13.003 13.9432 12.8929 14.0099 12.7527C14.0767 12.8929 14.1751 13.0064 14.3187 13.0781Z" fill="#FFE6A6"/>
<path d="M18.6067 11.6864C18.8987 11.6864 19.1908 11.688 19.4828 11.6864C19.593 11.6864 19.6848 11.6012 19.6981 11.4961C19.7115 11.3793 19.6481 11.2791 19.5412 11.2508C19.5162 11.2441 19.4878 11.2424 19.4611 11.2424C18.8937 11.2424 18.3246 11.2424 17.7572 11.2424C17.6137 11.2424 17.5186 11.3309 17.5186 11.4627C17.5186 11.5979 17.6137 11.6864 17.7605 11.6864C18.0409 11.6864 18.323 11.6864 18.6067 11.6864Z" fill="#FFCB64"/>
<path d="M18.1225 10.817C18.3327 10.817 18.543 10.817 18.7533 10.817C18.8968 10.817 18.992 10.7285 18.9936 10.5967C18.9953 10.4598 18.9002 10.373 18.7516 10.373C18.3277 10.373 17.9055 10.373 17.4816 10.373C17.3398 10.373 17.2446 10.4632 17.2446 10.595C17.2446 10.7268 17.3398 10.8153 17.4833 10.817C17.6969 10.817 17.9088 10.817 18.1225 10.817Z" fill="#FFCB64"/>
<path d="M19.2573 12.5692C19.4008 12.5692 19.4959 12.4807 19.4976 12.3489C19.4993 12.212 19.4041 12.1252 19.2556 12.1252C18.8317 12.1252 18.9001 12.1252 18.4762 12.1252C18.3344 12.1252 18.2393 12.2154 18.2393 12.3472C18.2393 12.479 18.3344 12.5675 18.4779 12.5692C18.6915 12.5692 19.047 12.5692 19.2573 12.5692Z" fill="#FFCB64"/>
</svg>
