<svg width="86" height="57" viewBox="0 0 86 57" fill="none" xmlns="http://www.w3.org/2000/svg">
<path fill-rule="evenodd" clip-rule="evenodd" d="M81.2844 7.59925C79.1383 3.6647 76.379 1.41639 73.4153 1.1098C45.618 -1.49619 10.156 4.68666 2.90012 11.3805C-0.267956 14.2931 -0.830034 21.1402 1.16279 32.3307C2.54243 40.1486 4.68855 47.1491 4.73964 47.4557L5.19953 48.9886L14.0395 48.0177C14.7548 52.8209 18.8938 56.5 23.9014 56.5C29.3689 56.5 33.8655 52.0545 33.8655 46.5359C33.8655 46.2804 33.8655 46.076 33.8144 45.8205L54.7645 43.4189C54.7645 43.47 54.7645 43.5722 54.7645 43.6233C54.7645 49.0908 59.2101 53.5874 64.7287 53.5874C70.1961 53.5874 74.6928 49.1419 74.6928 43.6233C74.6928 42.8057 74.5906 41.9882 74.3862 41.2217L83.3283 40.1997L83.7882 39.2289C87.3651 31.8708 86.1387 16.4903 81.2844 7.59925ZM23.9014 52.5655C20.58 52.5655 17.8718 49.8573 17.8718 46.5359C17.8718 43.2145 20.58 40.5063 23.9014 40.5063C27.2227 40.5063 29.9309 43.2145 29.9309 46.5359C29.9309 49.8573 27.2227 52.5655 23.9014 52.5655ZM64.6776 49.704C61.3562 49.704 58.648 46.9958 58.648 43.6744C58.648 40.353 61.3562 37.6448 64.6776 37.6448C67.9989 37.6448 70.7071 40.353 70.7071 43.6744C70.7071 46.9958 67.9989 49.704 64.6776 49.704ZM80.6201 36.5718L72.4955 37.4916C71.8824 36.674 71.1159 36.0097 70.2983 35.4476C68.7143 34.3235 66.7726 33.7103 64.6776 33.7103C61.6117 33.7103 58.8013 35.141 57.0129 37.3383C56.4508 37.9514 55.9398 38.6668 55.4288 39.4333L32.7413 41.9882C32.5369 41.5794 32.2814 41.1706 32.026 40.8129C31.9749 40.7618 31.9749 40.7107 31.9238 40.6596C30.0842 38.2069 27.1716 36.5718 23.9014 36.5718C21.3465 36.5718 19.0471 37.5427 17.3097 39.0756C15.8279 40.3019 14.7037 41.9882 14.0395 44.0321L8.00991 44.6964C4.79074 33.5059 2.03145 17.5123 5.55721 14.242C10.4115 9.74536 35.2962 4.38007 59.6189 4.38007C64.1666 4.38007 68.6632 4.58447 73.0065 4.99325C74.6417 5.19764 76.379 6.78168 77.8608 9.48987C81.8465 16.7969 83.1239 29.9802 80.6201 36.5718ZM14.4994 21.8045C14.295 21.6512 13.9884 21.4979 13.5796 21.3446C13.1708 21.1913 12.7109 21.1402 12.1999 21.1402C11.5868 21.1402 11.0758 21.2424 10.6159 21.3957C10.2071 21.6001 9.84944 21.8045 9.54285 22.1111V30.1845H6.17039V18.2276L9.54285 18.0232V19.1985L10.6159 18.5342C10.9736 18.3298 11.3313 18.1765 11.7912 18.0232C12.251 17.8699 12.6087 17.8188 13.0175 17.8188C13.4263 17.8188 13.7329 17.8188 13.9373 17.8699C14.1928 17.921 14.3461 17.9721 14.4994 18.0232V21.8045ZM24.1058 23.133C23.9525 22.2133 23.5948 21.549 23.0838 21.0891C22.5728 20.6292 21.9597 20.4248 21.1932 20.4248C20.3245 20.4248 19.6602 20.6803 19.2004 21.1913C18.7405 21.7023 18.485 22.3666 18.3828 23.1841H24.1058V23.133ZM27.2738 24.7171H18.4339C18.6383 25.6879 18.996 26.4033 19.5581 26.8121C20.1201 27.2209 20.8355 27.4764 21.6531 27.4764C22.3173 27.4764 23.0327 27.3742 23.8503 27.1698C24.6679 26.9654 25.281 26.7099 25.7409 26.4033V29.4181C25.281 29.7247 24.6679 29.9802 23.7481 30.1334C22.8794 30.2867 22.1641 30.3889 21.6531 30.3889C19.5581 30.3889 17.8718 29.8269 16.6966 28.6516C15.5213 27.4764 14.9081 25.9434 14.9081 24.0017C14.9081 22.06 15.5213 20.4759 16.7477 19.3007C17.974 18.1254 19.4559 17.5122 21.2954 17.5122C23.1349 17.5122 24.5657 18.1765 25.6387 19.454C26.7118 20.7314 27.2738 22.5199 27.2738 24.7171ZM36.9314 26.5055V21.2424C36.727 20.9869 36.4204 20.7825 36.0116 20.6292C35.6028 20.4759 35.1429 20.3737 34.632 20.3737C33.7122 20.3737 32.9968 20.6292 32.588 21.1913C32.1282 21.7534 31.9238 22.622 31.9238 23.7973C31.9238 25.0237 32.1793 25.8923 32.6391 26.5055C33.099 27.1187 33.7633 27.3742 34.5809 27.3742C35.0918 27.3742 35.5517 27.272 35.9605 27.1187C36.3693 26.9654 36.6759 26.761 36.9314 26.5055ZM40.2527 30.1845H37.6978L36.9825 29.0604L35.194 30.0313C35.0407 30.1334 34.8363 30.1845 34.5298 30.2356C34.2232 30.2867 34.0188 30.2867 33.8144 30.2867C32.0771 30.2867 30.7485 29.7247 29.8287 28.4983C28.909 27.3231 28.4491 25.8412 28.4491 24.0528C28.4491 22.1111 29.0112 20.5781 30.0842 19.454C31.2084 18.3298 32.6391 17.7677 34.4276 17.7677C34.9385 17.7677 35.3984 17.8188 35.8072 17.8699C36.216 17.9721 36.5737 18.0743 36.9314 18.3298V13.0667H40.2527V30.1845ZM51.6987 24.7682C51.6987 23.8995 51.4432 23.2352 50.9833 22.8264C50.5234 22.4177 49.8591 22.2133 49.0927 22.2133H46.7422V27.3231H49.3993C50.1657 27.3231 50.7789 27.1187 51.1366 26.6588C51.4943 26.25 51.6987 25.5857 51.6987 24.7682ZM51.0855 18.2787C51.0855 17.6144 50.8811 17.0524 50.4723 16.6436C50.0635 16.2348 49.5015 16.0304 48.7861 16.0304H46.7422V20.6292H48.9905C49.6548 20.6292 50.1657 20.4248 50.5234 20.0161C50.9322 19.5562 51.0855 18.9941 51.0855 18.2787ZM55.4799 25.228C55.4799 26.7099 55.02 27.9362 54.0492 28.8049C53.0783 29.7247 51.852 30.1334 50.3701 30.1334H43.0631V13.1178H50.2168C51.5454 13.1178 52.6695 13.4755 53.4871 14.242C54.3558 15.0084 54.7645 16.0304 54.7645 17.359C54.7645 18.432 54.5091 19.2496 53.9981 19.9139C53.4871 20.5781 52.7206 20.9358 51.6987 21.0891C52.7206 21.2424 53.5893 21.7023 54.3558 22.4177C55.1222 23.133 55.4799 24.0528 55.4799 25.228ZM68.7654 30.1845H65.3929V28.856L63.9622 29.6736C63.5534 29.878 63.1446 30.0823 62.7358 30.1845C62.3271 30.2867 61.8161 30.3889 61.3562 30.3889C60.1809 30.3889 59.2612 30.0313 58.5458 29.3159C57.8815 28.6005 57.5238 27.6296 57.5238 26.4033V18.2787H60.8963V25.6368C60.8963 26.0967 61.0496 26.4544 61.3562 26.8121C61.6628 27.1698 62.1738 27.3231 62.7869 27.3231C63.4001 27.3231 63.9111 27.2209 64.3199 26.9654C64.7798 26.7099 65.0863 26.5055 65.2907 26.25V18.2276H68.6632V30.1845H68.7654ZM80.5179 26.0967C80.5179 27.3742 80.058 28.4472 79.1383 29.2648C78.2185 30.0313 77.0433 30.44 75.6636 30.44C74.9994 30.44 74.2329 30.3889 73.3642 30.2356C72.4445 30.0823 71.678 29.8269 70.9626 29.4692V26.4544C71.5247 26.761 72.1379 27.0165 72.8532 27.272C73.5686 27.4764 74.3351 27.6296 75.3059 27.6296C75.9702 27.6296 76.4812 27.5275 76.89 27.3742C77.2988 27.1698 77.5031 26.8632 77.5031 26.3522C77.5031 26.0456 77.3499 25.739 76.9922 25.5346C76.6345 25.3302 76.0724 25.1769 75.2037 25.1258C73.6708 25.0237 72.6488 24.6149 72.0357 24.0017C71.4225 23.3885 71.1159 22.5709 71.1159 21.549C71.1159 20.3737 71.5758 19.454 72.4955 18.6875C73.4153 17.921 74.5906 17.5633 75.9191 17.5633C76.5323 17.5633 77.1455 17.6144 77.8097 17.7166C78.474 17.8188 79.0361 17.921 79.5471 18.1254V21.1913C78.9339 20.9358 78.3718 20.7314 77.8097 20.6292C77.2477 20.527 76.5834 20.4248 75.9191 20.4248C75.357 20.4248 74.9482 20.527 74.6417 20.6803C74.3351 20.8847 74.1818 21.0891 74.1818 21.2935C74.1818 21.7534 74.3862 22.06 74.8461 22.1622C75.2548 22.3155 75.7147 22.4177 76.2257 22.4177C77.6564 22.5199 78.7806 22.8775 79.496 23.4907C80.1602 24.155 80.5179 25.0237 80.5179 26.0967Z" fill="#D84E55"/>
</svg>
