<svg width="16" height="18" viewBox="0 0 16 18" fill="none" xmlns="http://www.w3.org/2000/svg">
<path d="M0.206937 7.73272C-0.0787504 8.03264 -0.067207 8.50738 0.232719 8.79306C0.532646 9.07875 1.00738 9.06721 1.29307 8.76728L7.24756 2.516V17.25C7.24756 17.6642 7.58334 18 7.99756 18C8.41177 18 8.74756 17.6642 8.74756 17.25V2.51565L14.7024 8.76728C14.9881 9.06721 15.4628 9.07875 15.7627 8.79306C16.0627 8.50738 16.0742 8.03264 15.7885 7.73272L8.72181 0.313787C8.56079 0.144741 8.35537 0.0447664 8.14184 0.0138645C8.09515 0.00476646 8.04691 0 7.99756 0C7.94786 0 7.8993 0.00483322 7.8523 0.0140553C7.63924 0.0451765 7.43433 0.145086 7.27364 0.313787L0.206937 7.73272Z" fill="#3E3E52"/>
</svg>
