<svg width="92" height="22" viewBox="0 0 92 22" fill="none" xmlns="http://www.w3.org/2000/svg">
<path d="M7.63389 0.857357C7.56195 0.893496 7.49102 0.932734 7.42208 0.974036L1.89614 4.27096C0.783163 4.93489 0.0917969 6.17189 0.0917969 7.49974V14.0946C0.0917969 15.4225 0.783163 16.6595 1.89614 17.3234L7.42208 20.6203C7.96958 20.9477 8.59401 21.1201 9.22643 21.1201C9.29636 21.1201 9.3653 21.118 9.43823 21.1129L9.49718 21.1087C9.54813 21.1046 9.59909 21.0994 9.65004 21.0933C9.67302 21.0902 9.696 21.0881 9.71498 21.085C10.1806 21.0189 10.6231 20.863 11.0298 20.6203L16.5557 17.3234C16.6246 17.2821 16.6936 17.2377 16.7595 17.1923C17.6827 16.5531 18.2771 15.4886 18.3511 14.3435C18.3561 14.2619 18.3591 14.1772 18.3591 14.0946V7.49974C18.3591 7.42024 18.3561 7.33763 18.3511 7.25606C18.3491 7.22405 18.3461 7.19308 18.3421 7.15384L18.3401 7.13525C18.3361 7.09498 18.3331 7.05368 18.3271 7.01032C18.3221 6.97521 18.3171 6.9401 18.3111 6.905L18.3061 6.87609C18.3011 6.84201 18.2951 6.80794 18.2891 6.77489C18.2811 6.73153 18.2711 6.68816 18.2612 6.64583L18.2582 6.6324C18.2522 6.60246 18.2452 6.57355 18.2372 6.54257C18.2252 6.49404 18.2102 6.44655 18.1962 6.39905L18.1932 6.38975C18.1862 6.36497 18.1782 6.33916 18.1712 6.31748C18.1532 6.26275 18.1343 6.20906 18.1143 6.1564C18.1073 6.13575 18.0993 6.1151 18.0923 6.09651C18.0693 6.03869 18.0453 5.98293 18.0204 5.92821C18.0134 5.91169 18.0064 5.89516 17.9994 5.88174C17.9724 5.82289 17.9424 5.7661 17.9125 5.70827C17.9055 5.69382 17.8985 5.68039 17.8935 5.67317C17.8615 5.61431 17.8275 5.55649 17.7926 5.49867L17.7756 5.47078C17.7396 5.41399 17.7007 5.35617 17.6607 5.29835L17.6477 5.27976C17.6107 5.22814 17.5718 5.17754 17.5318 5.12798L17.4978 5.08151L17.4689 5.05157C17.2061 4.74077 16.8994 4.4785 16.5547 4.27303L11.0278 0.975069C10.9518 0.929637 10.8739 0.887302 10.788 0.844967C10.77 0.835674 10.752 0.827415 10.7301 0.817089C10.6671 0.787145 10.6042 0.759266 10.5372 0.73242C10.5182 0.725192 10.5003 0.717964 10.4853 0.712801C10.4143 0.685955 10.3424 0.660142 10.2665 0.636393L10.2365 0.627098C10.1756 0.608512 10.1156 0.591993 10.0557 0.577537L9.92179 0.531071H9.83787C9.09055 0.397873 8.31326 0.512487 7.63289 0.858391L7.63389 0.857357Z" fill="url(#paint0_linear_13320_25347)"/>
<path d="M7.63389 0.475519C7.56195 0.511658 7.49102 0.550895 7.42208 0.592197L1.89614 3.88913C0.783163 4.55306 0.0917969 5.79005 0.0917969 7.11791V13.7128C0.0917969 15.0407 0.783163 16.2776 1.89614 16.9416L7.42208 20.2385C7.96958 20.5658 8.59401 20.7383 9.22643 20.7383C9.29636 20.7383 9.3653 20.7362 9.43823 20.731L9.49718 20.7269C9.54813 20.7228 9.59909 20.7176 9.65004 20.7114C9.67302 20.7083 9.696 20.7062 9.71498 20.7032C10.1806 20.6371 10.6231 20.4812 11.0298 20.2385L16.5557 16.9416C16.6246 16.9003 16.6936 16.8559 16.7595 16.8104C17.6827 16.1713 18.2771 15.1067 18.3511 13.9616C18.3561 13.8801 18.3591 13.7954 18.3591 13.7128V7.11791C18.3591 7.0384 18.3561 6.9558 18.3511 6.87422C18.3491 6.84222 18.3461 6.81124 18.3421 6.772L18.3401 6.75342C18.3361 6.71315 18.3331 6.67185 18.3271 6.62848C18.3221 6.59337 18.3171 6.55827 18.3111 6.52316L18.3061 6.49425C18.3011 6.46017 18.2951 6.4261 18.2891 6.39306C18.2811 6.34969 18.2711 6.30633 18.2612 6.26399L18.2582 6.25057C18.2522 6.22062 18.2452 6.19171 18.2372 6.16074C18.2252 6.11221 18.2102 6.06471 18.1962 6.01721L18.1932 6.00792C18.1862 5.98314 18.1782 5.95732 18.1712 5.93564C18.1532 5.88091 18.1343 5.82722 18.1143 5.77456C18.1073 5.75391 18.0993 5.73326 18.0923 5.71467C18.0693 5.65685 18.0453 5.60109 18.0204 5.54637C18.0134 5.52985 18.0064 5.51333 17.9994 5.4999C17.9724 5.44105 17.9424 5.38426 17.9125 5.32643C17.9055 5.31198 17.8985 5.29856 17.8935 5.29133C17.8615 5.23247 17.8275 5.17465 17.7926 5.11683L17.7756 5.08895C17.7396 5.03216 17.7007 4.97434 17.6607 4.91651L17.6477 4.89793C17.6107 4.8463 17.5718 4.7957 17.5318 4.74614L17.4978 4.69968L17.4689 4.66973C17.2061 4.35894 16.8994 4.09667 16.5547 3.89119L11.0278 0.593231C10.9518 0.547799 10.8739 0.505463 10.788 0.463129C10.77 0.453836 10.752 0.445576 10.7301 0.435251C10.6671 0.405307 10.6042 0.377427 10.5372 0.350581C10.5182 0.343353 10.5003 0.336125 10.4853 0.330962C10.4143 0.304116 10.3424 0.278303 10.2665 0.254555L10.2365 0.245262C10.1756 0.226676 10.1156 0.210154 10.0557 0.195699L9.92179 0.149236H9.83787C9.09055 0.0160372 8.31326 0.130648 7.63289 0.476552L7.63389 0.475519Z" fill="url(#paint1_linear_13320_25347)"/>
<g style="mix-blend-mode:multiply">
<path d="M18.3522 6.87486C18.3502 6.84285 18.3472 6.81188 18.3432 6.77264L18.3412 6.75405C18.3372 6.71378 18.3342 6.67248 18.3282 6.62911C18.3232 6.59401 18.3183 6.5589 18.3123 6.52379L18.3073 6.49488C18.3023 6.46081 18.2963 6.42673 18.2903 6.39369C18.2823 6.35032 18.2723 6.30696 18.2623 6.26462L18.2593 6.2512C18.2533 6.22126 18.2463 6.19234 18.2383 6.16137C18.2263 6.11284 18.2113 6.06534 18.1974 6.01785L18.1944 6.00855C18.1874 5.98377 18.1794 5.95796 18.1724 5.93627C18.1544 5.88155 18.1354 5.82786 18.1154 5.7752C18.1084 5.75454 18.1005 5.73389 18.0935 5.71531C18.0705 5.65748 18.0465 5.60173 18.0215 5.547C18.0145 5.53048 18.0075 5.51396 18.0005 5.50054C17.9736 5.44168 17.9436 5.38489 17.9136 5.32707C17.9066 5.31261 17.8996 5.29919 17.8946 5.29196C17.8627 5.23311 17.8287 5.17529 17.7937 5.11746L17.7767 5.08958C17.7408 5.03279 17.7018 4.97497 17.6619 4.91715L17.6489 4.89856C17.6119 4.84694 17.5729 4.79634 17.533 4.74678L17.499 4.70031L17.47 4.67037C17.2073 4.35957 16.9006 4.0973 16.5559 3.89183L11.0289 0.593867C10.953 0.548435 10.8751 0.506099 10.7892 0.463765C10.7712 0.454472 10.7532 0.446212 10.7312 0.435887C10.6683 0.405943 10.6053 0.378063 10.5384 0.351217C10.5194 0.343989 10.5014 0.336761 10.4864 0.331598C10.4155 0.304752 10.3436 0.278939 10.2676 0.255191L10.2377 0.245895C10.1767 0.227309 10.1168 0.21079 10.0568 0.196335L9.92294 0.149869H9.83902C9.63621 0.11373 9.4304 0.0961784 9.22559 0.097211V20.741C9.29552 20.741 9.36446 20.7389 9.43739 20.7337L9.49634 20.7296C9.54729 20.7255 9.59824 20.7203 9.6492 20.7141C9.67218 20.711 9.69515 20.7089 9.71414 20.7059C10.1797 20.6398 10.6223 20.4839 11.0289 20.2412L16.5549 16.9443C16.6238 16.903 16.6927 16.8586 16.7587 16.8131C17.6818 16.174 18.2763 15.1094 18.3502 13.9643C18.3552 13.8828 18.3582 13.7981 18.3582 13.7155V7.12061C18.3582 7.0411 18.3552 6.9585 18.3502 6.87692L18.3522 6.87486Z" fill="url(#paint2_linear_13320_25347)"/>
</g>
<path d="M8.79104 3.56494L2.81152 6.76274V14.2363L9.13873 18.1166L15.2232 14.2002V7.33787L8.79104 3.56494Z" fill="white"/>
<path d="M9.22656 3.81982V18.0597L15.2231 14.2V7.33772L9.22656 3.81982Z" fill="#DFE1E5"/>
<path d="M17.0553 7.37798C17.0553 7.35113 17.0513 7.32325 17.0483 7.29021V7.27472C17.0434 7.23961 17.0414 7.20554 17.0354 7.16734C17.0314 7.13636 17.0274 7.10745 17.0224 7.07647L17.0174 7.05169C17.0124 7.02175 17.0084 6.99387 17.0024 6.96496C16.9954 6.92778 16.9864 6.89061 16.9784 6.85447L16.9754 6.84312C16.9694 6.8173 16.9644 6.79252 16.9574 6.76568C16.9464 6.72437 16.9344 6.6841 16.9225 6.6428L16.9195 6.63454C16.9135 6.61286 16.9065 6.59118 16.9005 6.57362C16.8845 6.52613 16.8685 6.47966 16.8515 6.43526C16.8455 6.41667 16.8385 6.40015 16.8325 6.38363C16.8136 6.33407 16.7926 6.28657 16.7716 6.23908C16.7656 6.22462 16.7586 6.2112 16.7526 6.19881C16.7296 6.14821 16.7047 6.09865 16.6787 6.05012C16.6727 6.03773 16.6667 6.02637 16.6627 6.02018C16.6347 5.96958 16.6058 5.91898 16.5758 5.87045L16.5608 5.84671C16.5298 5.79818 16.4959 5.74862 16.4619 5.69905L16.4499 5.68253C16.4189 5.63813 16.385 5.59476 16.351 5.5514L16.321 5.51113L16.296 5.48532C16.0702 5.21789 15.8075 4.99382 15.5118 4.81726L15.0861 4.56325L10.7701 1.98704C10.7052 1.9478 10.6392 1.91167 10.5653 1.87553C10.5493 1.8683 10.5343 1.86004 10.5153 1.85178C10.4614 1.827 10.4074 1.80325 10.3505 1.7795C10.3345 1.7733 10.3185 1.76711 10.3065 1.76195C10.2456 1.7382 10.1836 1.71755 10.1187 1.69586L10.0927 1.68863C10.0408 1.67314 9.98882 1.65869 9.93786 1.6463L9.82197 1.60603H9.75003C9.10962 1.49245 8.44123 1.59054 7.85777 1.88688C7.79582 1.91889 7.73488 1.95193 7.67593 1.98704L6.02545 2.97209L2.93528 4.81726C1.98015 5.38722 1.3877 6.44868 1.3877 7.58758V13.2449C1.3877 14.3849 1.98015 15.4453 2.93528 16.0152L7.67593 18.8444C7.98465 19.0282 8.32034 19.1552 8.66902 19.2213C8.85186 19.2564 9.03769 19.274 9.22451 19.274C9.28446 19.274 9.34341 19.2709 9.40635 19.2678L9.46829 19.2647C9.50626 19.2626 9.54422 19.2585 9.58119 19.2533C9.60417 19.2502 9.62615 19.2482 9.64413 19.2451C10.0438 19.1883 10.4244 19.0551 10.7721 18.8475L11.1198 18.639L14.4757 16.6368L15.5128 16.0173C15.5727 15.9822 15.6316 15.945 15.6886 15.9048C16.4809 15.3565 16.9914 14.4427 17.0543 13.4607C17.0593 13.3915 17.0613 13.3182 17.0613 13.247V7.58965C17.0613 7.52047 17.0583 7.45026 17.0543 7.38004L17.0553 7.37798ZM12.1149 14.9104L9.21253 13.2955L6.33716 14.9042C6.19729 14.9827 6.03044 14.8598 6.05842 14.6977C6.21927 13.7312 6.6179 11.3492 6.6179 11.3492L4.29803 9.00734C4.18513 8.89376 4.24708 8.69448 4.40393 8.67073L7.55704 8.18956L9.06366 5.17142C9.1346 5.02893 9.33242 5.02893 9.40335 5.17142L10.894 8.18853L14.0351 8.66866C14.191 8.69241 14.2539 8.89066 14.141 9.00424L11.8461 11.3399L12.3936 14.7018C12.4196 14.864 12.2547 14.9858 12.1149 14.9084V14.9104Z" fill="#E80505"/>
<path d="M17.0554 7.37787C17.0554 7.35102 17.0514 7.32314 17.0484 7.2901V7.27462C17.0434 7.23951 17.0414 7.20544 17.0355 7.16723C17.0315 7.13626 17.0275 7.10734 17.0225 7.07637L17.0175 7.05158C17.0125 7.02164 17.0085 6.99376 17.0025 6.96485C16.9955 6.92768 16.9865 6.89051 16.9785 6.85437L16.9755 6.84301C16.9695 6.8172 16.9645 6.79242 16.9575 6.76557C16.9465 6.72427 16.9345 6.684 16.9226 6.6427L16.9196 6.63444C16.9136 6.61275 16.9066 6.59107 16.9006 6.57352C16.8846 6.52602 16.8686 6.47955 16.8516 6.43515C16.8456 6.41657 16.8386 6.40005 16.8326 6.38352C16.8137 6.33396 16.7927 6.28647 16.7717 6.23897C16.7657 6.22451 16.7587 6.21109 16.7527 6.1987C16.7297 6.14811 16.7048 6.09854 16.6788 6.05001C16.6728 6.03762 16.6668 6.02626 16.6628 6.02007C16.6348 5.96947 16.6058 5.91888 16.5759 5.87035L16.5609 5.8466C16.5299 5.79807 16.4959 5.74851 16.462 5.69895L16.45 5.68243C16.419 5.63803 16.385 5.59466 16.3511 5.55129L16.3211 5.51102L16.2961 5.48521C16.0703 5.21778 15.8076 4.99372 15.5118 4.81715L15.0862 4.56314L10.7702 1.98693C10.7053 1.9477 10.6393 1.91156 10.5654 1.87542C10.5494 1.86819 10.5344 1.85993 10.5154 1.85167C10.4615 1.82689 10.4075 1.80314 10.3506 1.77939C10.3346 1.77319 10.3186 1.767 10.3066 1.76184C10.2457 1.73809 10.1837 1.71744 10.1188 1.69575L10.0928 1.68852C10.0409 1.67304 9.98891 1.65858 9.93796 1.64619L9.82206 1.60592H9.75013C9.57629 1.57495 9.40045 1.56152 9.22461 1.56152V5.06599C9.29455 5.0629 9.36448 5.098 9.40145 5.17235L10.8921 8.18945L14.0332 8.66959C14.1891 8.69334 14.252 8.89159 14.1391 9.00517L11.8442 11.3408L12.3917 14.7028C12.4177 14.8649 12.2528 14.9867 12.113 14.9093L9.22461 13.3026V19.2728C9.28455 19.2728 9.3435 19.2697 9.40644 19.2666L9.46839 19.2635C9.50635 19.2615 9.54432 19.2573 9.58128 19.2522C9.60426 19.2491 9.62624 19.247 9.64423 19.2439C10.0439 19.1871 10.4245 19.0539 10.7722 18.8464L11.1199 18.6378L14.4758 16.6357L15.5128 16.0162C15.5728 15.9811 15.6317 15.9439 15.6887 15.9036C16.481 15.3553 16.9915 14.4415 17.0544 13.4596C17.0594 13.3904 17.0614 13.3171 17.0614 13.2458V7.58851C17.0614 7.51933 17.0584 7.44912 17.0544 7.3789L17.0554 7.37787Z" fill="url(#paint3_linear_13320_25347)"/>
<path d="M1.83326 13.8377V8.18033C1.83326 7.04039 2.42572 5.97996 3.38085 5.41L6.47101 3.56483L8.1215 2.57978C8.18045 2.54467 8.24139 2.5106 8.30334 2.48066C8.8868 2.18431 9.55419 2.08519 10.1956 2.19877H10.2675L10.3834 2.23904C10.4354 2.25143 10.4873 2.26589 10.5383 2.28138L10.5643 2.2886C10.6292 2.30925 10.6911 2.33094 10.7521 2.35469C10.7641 2.35985 10.7811 2.36501 10.7961 2.37224C10.853 2.39599 10.908 2.41974 10.9609 2.44452C10.9799 2.45278 10.9949 2.46104 11.0109 2.46827C11.0848 2.50441 11.1507 2.54054 11.2157 2.57978L15.5317 5.15496L15.9573 5.41C16.2031 5.55662 16.4249 5.73835 16.6217 5.94795C16.6067 5.92214 16.5917 5.8953 16.5768 5.86948L16.5618 5.84573C16.5308 5.7972 16.4968 5.74764 16.4629 5.69808L16.4509 5.68156C16.4199 5.63716 16.3859 5.59379 16.352 5.55042L16.322 5.51015L16.297 5.48434C16.0712 5.21691 15.8085 4.99285 15.5127 4.81628L15.0871 4.56227L10.7711 1.98606C10.7061 1.94683 10.6402 1.91069 10.5663 1.87455C10.5503 1.86732 10.5353 1.85906 10.5163 1.8508C10.4624 1.82602 10.4084 1.80227 10.3515 1.77852C10.3355 1.77233 10.3195 1.76613 10.3075 1.76097C10.2466 1.73722 10.1846 1.71657 10.1197 1.69489L10.0937 1.68766C10.0417 1.67217 9.98979 1.65772 9.93884 1.64532L9.82294 1.60505H9.75101C9.1106 1.49147 8.44221 1.58957 7.85874 1.88591C7.7968 1.91792 7.73586 1.95096 7.67691 1.98606L6.02642 2.97112L2.93625 4.81628C1.98113 5.38625 1.38867 6.44771 1.38867 7.58661V13.2439C1.38867 14.0917 1.71737 14.896 2.27786 15.4866C1.99212 14.9962 1.83127 14.4272 1.83127 13.8366L1.83326 13.8377Z" fill="#AA0E0E"/>
<path d="M15.6896 15.5319C15.6336 15.5722 15.5737 15.6094 15.5137 15.6445L14.4767 16.264L11.1208 18.2661L10.7731 18.4747C10.4254 18.6833 10.0447 18.8165 9.64511 18.8722C9.62712 18.8753 9.60514 18.8774 9.58216 18.8805C9.5442 18.8856 9.50723 18.8898 9.46927 18.8918L9.40732 18.8949C9.34438 18.8991 9.28544 18.9011 9.22549 18.9011C9.03866 18.9011 8.85283 18.8836 8.67 18.8485C8.32232 18.7824 7.98563 18.6554 7.67691 18.4716L2.93625 15.6424C1.98113 15.0724 1.38867 14.011 1.38867 12.8721V13.2428C1.38867 14.3827 1.98113 15.4431 2.93625 16.0131L7.67691 18.8423C7.98563 19.0261 8.32132 19.1531 8.67 19.2191C8.85283 19.2543 9.03866 19.2718 9.22549 19.2718C9.28544 19.2718 9.34438 19.2687 9.40732 19.2656L9.46927 19.2625C9.50723 19.2605 9.5452 19.2563 9.58216 19.2512C9.60514 19.2481 9.62712 19.246 9.64511 19.2429C10.0447 19.1861 10.4254 19.0529 10.7731 18.8454L11.1208 18.6368L14.4767 16.6347L15.5137 16.0151C15.5737 15.98 15.6326 15.9429 15.6896 15.9026C16.4818 15.3543 16.9924 14.4405 17.0553 13.4586C17.0603 13.3894 17.0623 13.3161 17.0623 13.2448V12.8741C17.0623 12.9454 17.0593 13.0187 17.0553 13.0879C16.9924 14.0698 16.4818 14.9847 15.6896 15.5319Z" fill="white"/>
<path d="M15.6897 15.5318C15.6337 15.5721 15.5738 15.6092 15.5138 15.6444L14.4768 16.2639L11.1208 18.266L10.7732 18.4746C10.4255 18.6831 10.0448 18.8163 9.6452 18.8721C9.62722 18.8752 9.60524 18.8773 9.58226 18.8804C9.54429 18.8855 9.50733 18.8897 9.46936 18.8917L9.40742 18.8948C9.34447 18.8989 9.28553 18.901 9.22559 18.901V19.2717C9.28553 19.2717 9.34447 19.2686 9.40742 19.2655L9.46936 19.2624C9.50733 19.2603 9.54529 19.2562 9.58226 19.251C9.60524 19.2479 9.62722 19.2459 9.6452 19.2428C10.0448 19.186 10.4255 19.0528 10.7732 18.8453L11.1208 18.6367L14.4768 16.6346L15.5138 16.015C15.5738 15.9799 15.6327 15.9428 15.6897 15.9025C16.4819 15.3542 16.9925 14.4404 17.0554 13.4584C17.0604 13.3893 17.0624 13.316 17.0624 13.2447V12.874C17.0624 12.9453 17.0594 13.0186 17.0554 13.0878C16.9925 14.0697 16.4819 14.9846 15.6897 15.5318Z" fill="#FFEC00"/>
<path d="M9.22559 19.369C9.03176 19.369 8.83894 19.3505 8.65411 19.3154C8.29344 19.2472 7.94875 19.1161 7.63205 18.9271L2.89139 16.0979C1.90829 15.5114 1.29785 14.418 1.29785 13.245V7.58767C1.29785 6.41469 1.90829 5.32122 2.89139 4.73473L7.63205 1.90452C7.677 1.87767 7.72196 1.85186 7.76792 1.82811L7.81987 1.80126C8.41733 1.49873 9.10969 1.39547 9.76809 1.51215L9.95891 1.55242C10.0139 1.56584 10.0678 1.5803 10.1208 1.59579L10.1467 1.60301C10.2157 1.62573 10.2786 1.64741 10.3416 1.67116L10.3545 1.67632C10.3655 1.68045 10.3775 1.68458 10.3885 1.68975C10.4465 1.7135 10.5014 1.73828 10.5564 1.76306C10.5753 1.77235 10.5913 1.77958 10.6083 1.78784C10.6842 1.82501 10.7532 1.86322 10.8201 1.90349L15.5628 4.73267C15.8665 4.9144 16.1382 5.14569 16.37 5.42035L16.399 5.45132L16.429 5.49159C16.462 5.53289 16.4959 5.57833 16.5289 5.62376L16.5399 5.63821C16.5768 5.69191 16.6108 5.7425 16.6428 5.79206L16.6588 5.81684C16.6897 5.86744 16.7197 5.91907 16.7477 5.97069C16.7477 5.97069 16.7537 5.97999 16.7587 5.99135L16.7647 6.00167C16.7907 6.05123 16.8166 6.10286 16.8406 6.15552L16.8596 6.19579C16.8816 6.24432 16.9025 6.29388 16.9225 6.34448C16.9295 6.361 16.9355 6.37958 16.9425 6.39817C16.9595 6.4436 16.9765 6.49007 16.9925 6.5386L17.0114 6.60262C17.0264 6.65321 17.0384 6.69451 17.0504 6.73685C17.0574 6.76679 17.0634 6.7926 17.0694 6.81842L17.0714 6.82771C17.0804 6.86592 17.0884 6.90412 17.0964 6.94232C17.1024 6.97227 17.1074 7.00221 17.1114 7.03319L17.1174 7.07036C17.1213 7.09824 17.1253 7.12508 17.1293 7.15193C17.1333 7.17981 17.1363 7.20769 17.1383 7.23454L17.1423 7.281C17.1463 7.31197 17.1483 7.34089 17.1493 7.3698C17.1543 7.44827 17.1563 7.51848 17.1563 7.58457V13.2419C17.1563 13.3121 17.1533 13.3854 17.1483 13.4618C17.0834 14.4737 16.5579 15.4144 15.7416 15.9792C15.6897 16.0164 15.6307 16.0546 15.5608 16.0959L10.8201 18.9251C10.4625 19.1388 10.0718 19.2771 9.65819 19.335C9.6502 19.336 9.63721 19.3381 9.62322 19.3401L9.59624 19.3432C9.55628 19.3494 9.51532 19.3536 9.47536 19.3556L9.41341 19.3587C9.34947 19.3629 9.28853 19.3649 9.22658 19.3649L9.22559 19.369ZM6.05149 3.06717L2.98331 4.89891C2.05716 5.45132 1.48168 6.48181 1.48168 7.58663V13.244C1.48168 14.3498 2.05716 15.3793 2.98331 15.9317L7.72396 18.7609C8.02269 18.9395 8.34639 19.0624 8.68708 19.1264C8.86192 19.1605 9.04275 19.177 9.22559 19.177C9.28353 19.177 9.34148 19.1739 9.40242 19.1708L9.46437 19.1677C9.49933 19.1656 9.5343 19.1615 9.56927 19.1563L9.60024 19.1522C9.61123 19.1512 9.62022 19.1501 9.62921 19.1481C10.0219 19.0923 10.3905 18.9633 10.7272 18.7619L15.4679 15.9317C15.5338 15.8935 15.5888 15.8573 15.6367 15.8233C16.406 15.2915 16.9016 14.4046 16.9625 13.4515C16.9675 13.3792 16.9695 13.309 16.9695 13.244V7.58663C16.9695 7.52365 16.9675 7.45757 16.9625 7.38322V7.38013C16.9625 7.35534 16.9585 7.33056 16.9555 7.29959L16.9515 7.25622C16.9495 7.23144 16.9465 7.20666 16.9425 7.17981C16.9395 7.15193 16.9355 7.12715 16.9315 7.10134L16.9255 7.06829C16.9205 7.03628 16.9165 7.00944 16.9105 6.98259C16.9035 6.94645 16.8956 6.91031 16.8876 6.87521L16.8846 6.86488C16.8786 6.83803 16.8736 6.81429 16.8676 6.78847C16.8576 6.75027 16.8456 6.71 16.8336 6.66973L16.8126 6.60158C16.7976 6.55718 16.7817 6.51175 16.7657 6.46838C16.7597 6.45083 16.7527 6.43431 16.7467 6.41882C16.7277 6.37029 16.7077 6.32383 16.6877 6.27943L16.6688 6.23916C16.6468 6.19166 16.6228 6.14313 16.5978 6.09666L16.5858 6.07292C16.5559 6.01923 16.5279 5.96966 16.4989 5.92216L16.4849 5.89945C16.455 5.85298 16.422 5.80445 16.389 5.75489L16.379 5.74147C16.3471 5.69707 16.3151 5.65473 16.2821 5.61343L16.2342 5.55458C16.0114 5.29024 15.7556 5.07238 15.4689 4.90201L10.7262 2.07179C10.6633 2.03359 10.5983 1.99848 10.5274 1.96337C10.5124 1.95614 10.4974 1.94892 10.4794 1.94066C10.4265 1.91691 10.3735 1.89316 10.3176 1.86941C10.3076 1.86528 10.2986 1.86218 10.2906 1.85909L10.2746 1.85289C10.2157 1.83018 10.1557 1.80952 10.0928 1.78887L10.0688 1.78165C10.0189 1.76719 9.96791 1.75273 9.91795 1.74034L9.73312 1.70111C9.13467 1.59475 8.50325 1.68252 7.95175 1.94788L7.8988 1.97473C7.83986 2.00364 7.78091 2.03565 7.72296 2.07076L6.0505 3.0682L6.05149 3.06717Z" fill="#FFDA00"/>
<path d="M9.22654 20.834C8.57814 20.834 7.93773 20.6564 7.37624 20.3219L1.8503 17.025C0.70935 16.3445 0 15.0755 0 13.7136V7.11869C0 5.75676 0.70935 4.48776 1.8503 3.80731L7.37624 0.510384C7.44718 0.468049 7.52011 0.427779 7.59304 0.390608C8.28641 0.0374761 9.08967 -0.081267 9.85397 0.0550294L10.0758 0.101492C10.1407 0.11698 10.2027 0.134534 10.2646 0.15312L10.2946 0.162412C10.3725 0.187193 10.4454 0.211976 10.5194 0.240887C10.5333 0.24605 10.5533 0.253279 10.5723 0.261539C10.6412 0.289418 10.7062 0.318329 10.7701 0.348273C10.7921 0.358598 10.8111 0.366858 10.8301 0.376151C10.917 0.419518 10.9979 0.462885 11.0758 0.50935L16.6028 3.80731C16.9555 4.01795 17.2712 4.28641 17.5399 4.60547L17.5739 4.64161L17.6079 4.68807C17.6458 4.73557 17.6858 4.78823 17.7238 4.84089L17.7377 4.86051C17.7797 4.91936 17.8187 4.97822 17.8556 5.03708L17.8736 5.06599C17.9096 5.12484 17.9446 5.1837 17.9775 5.24462C17.9815 5.25184 17.9895 5.2663 17.9975 5.28179C18.0275 5.33858 18.0575 5.39743 18.0854 5.45835C18.0924 5.47281 18.0994 5.49036 18.1074 5.50688C18.1324 5.56161 18.1574 5.61943 18.1803 5.67829C18.1883 5.69791 18.1963 5.71959 18.2033 5.74127C18.2233 5.79393 18.2433 5.84866 18.2613 5.90545C18.2683 5.92817 18.2763 5.95398 18.2842 5.98082L18.2872 5.99012C18.3022 6.03865 18.3162 6.08718 18.3292 6.13674C18.3372 6.16875 18.3442 6.19972 18.3512 6.22967L18.3542 6.24206C18.3642 6.28543 18.3742 6.32982 18.3832 6.37422C18.3901 6.4083 18.3961 6.44444 18.4011 6.47955L18.4061 6.50742C18.4121 6.54356 18.4181 6.5797 18.4231 6.61584C18.4291 6.66127 18.4331 6.70257 18.4361 6.74491L18.4381 6.76246C18.4421 6.8017 18.4451 6.83474 18.4471 6.86778C18.4521 6.95245 18.4551 7.03609 18.4551 7.11766V13.7125C18.4551 13.7983 18.4521 13.884 18.4471 13.9686C18.3712 15.1426 17.7607 16.2351 16.8146 16.8897C16.7467 16.9372 16.6757 16.9826 16.6048 17.025L11.0788 20.3219C10.6622 20.5707 10.2086 20.7308 9.73008 20.7989C9.7111 20.802 9.68712 20.8051 9.66315 20.8072C9.61119 20.8134 9.55924 20.8185 9.50629 20.8227L9.44634 20.8268C9.36542 20.832 9.29448 20.834 9.22854 20.834H9.22654ZM7.67497 0.560978C7.60503 0.597117 7.5351 0.635322 7.46816 0.674559L1.94222 3.97148C0.858212 4.61889 0.184831 5.82388 0.184831 7.11766V13.7125C0.184831 15.0063 0.858212 16.2123 1.94222 16.8587L7.46816 20.1556C8.00167 20.4747 8.61011 20.643 9.22555 20.643C9.29348 20.643 9.36142 20.6409 9.43235 20.6368L9.4903 20.6327C9.53926 20.6286 9.58921 20.6234 9.63917 20.6172C9.66214 20.6141 9.68313 20.612 9.70211 20.6089C10.1567 20.5449 10.5883 20.3921 10.9839 20.1556L16.5099 16.8587C16.5768 16.8185 16.6437 16.7751 16.7087 16.7307C17.6079 16.1081 18.1873 15.0703 18.2593 13.9552C18.2643 13.8757 18.2673 13.7931 18.2673 13.7125V7.11766C18.2673 7.04022 18.2643 6.95968 18.2593 6.88017C18.2573 6.8492 18.2543 6.81925 18.2503 6.78208L18.2483 6.76246C18.2453 6.72323 18.2413 6.68296 18.2353 6.64062C18.2313 6.60655 18.2253 6.57247 18.2193 6.53943L18.2143 6.50949C18.2093 6.47541 18.2043 6.44237 18.1973 6.4114C18.1893 6.36906 18.1793 6.32776 18.1703 6.28646L18.1674 6.27304C18.1614 6.24309 18.1544 6.21521 18.1474 6.1863C18.1354 6.13984 18.1214 6.09337 18.1074 6.04691L18.1044 6.03658C18.0974 6.0118 18.0904 5.98805 18.0834 5.9674C18.0664 5.91371 18.0475 5.86105 18.0275 5.81045C18.0195 5.7898 18.0125 5.76915 18.0055 5.7516C17.9835 5.69584 17.9595 5.64112 17.9356 5.58846C17.9286 5.57194 17.9216 5.55645 17.9156 5.54302C17.8886 5.48623 17.8606 5.43048 17.8317 5.37472C17.8247 5.36026 17.8177 5.34787 17.8147 5.34168C17.7827 5.28282 17.7497 5.22603 17.7158 5.17131L17.6988 5.14343C17.6648 5.0887 17.6268 5.03294 17.5869 4.97719L17.5729 4.95757C17.5369 4.90801 17.5 4.85844 17.461 4.80991L17.428 4.76448L17.403 4.73867C17.1433 4.43097 16.8436 4.1749 16.5079 3.97562L10.9809 0.677656C10.907 0.633256 10.8311 0.591953 10.7481 0.550651C10.7302 0.542391 10.7132 0.53413 10.6922 0.523804C10.6303 0.494893 10.5683 0.467014 10.5034 0.440168C10.4854 0.43294 10.4684 0.425712 10.4544 0.420549C10.3845 0.393703 10.3145 0.368922 10.2406 0.346206L10.2116 0.336913C10.1527 0.31936 10.0937 0.302839 10.0358 0.288383L9.82 0.242951C9.09666 0.114915 8.33336 0.227465 7.67497 0.562011V0.560978Z" fill="#FFDA00"/>
<path d="M23.1377 8.6772V7.02163H24.3104V4.91162H26.313V7.02163H28.0294V8.6772H26.313V12.3361C26.313 12.7511 26.3942 13.0317 26.5567 13.1792C26.7191 13.3268 26.9283 13.3999 27.1857 13.3999C27.3192 13.3999 27.4554 13.3926 27.5931 13.3765C27.7307 13.3604 27.867 13.3341 28.0005 13.2932L28.2868 14.8567C28.0101 14.9473 27.7403 15.0116 27.4788 15.0467C27.2159 15.0818 26.9668 15.1007 26.7273 15.1007C25.907 15.1007 25.3 14.8933 24.9036 14.4783C24.5086 14.0633 24.3104 13.3648 24.3104 12.3829V8.6772H23.1377Z" fill="#D61D1A"/>
<path d="M30.646 7.02164V8.13071C30.8938 7.71572 31.1938 7.40448 31.5475 7.19698C31.9013 6.98949 32.2729 6.88574 32.6624 6.88574C32.8537 6.88574 33.0107 6.89304 33.1345 6.90912C33.2584 6.92373 33.3685 6.94273 33.4635 6.96173L33.2199 8.89054C32.9914 8.82917 32.7092 8.79994 32.3761 8.79994C32.1573 8.79994 31.9467 8.82771 31.7471 8.88324C31.5476 8.93876 31.3659 9.04251 31.2035 9.19448C31.0314 9.35667 30.9048 9.53933 30.8249 9.74097C30.7437 9.94408 30.7038 10.1516 30.7038 10.3635V14.9488H28.7012V7.0231H30.646V7.02164Z" fill="#D61D1A"/>
<path d="M36.1665 4.10645V6.01919H34.1074V4.10645H36.1665ZM36.1376 7.02159V14.9473H34.135V7.02159H36.1376Z" fill="#D61D1A"/>
<path d="M39.2993 7.02137V8.06907C39.8719 7.20841 40.6537 6.77881 41.6447 6.77881C42.6357 6.77881 43.4615 7.15289 43.9763 7.9025C44.4911 8.6521 44.7485 9.67934 44.7485 10.9842C44.7485 11.6125 44.6741 12.1839 44.5269 12.6997C44.3796 13.2155 44.1649 13.6583 43.8827 14.028C43.6019 14.3976 43.2606 14.684 42.8601 14.8857C42.4595 15.0873 42.0067 15.1896 41.5016 15.1896C41.1299 15.1896 40.7597 15.1195 40.3936 14.9777C40.0261 14.836 39.6806 14.5525 39.3571 14.1273V17.8929H37.3545V7.02137H39.2993ZM39.4631 12.2832C39.5443 12.5916 39.6751 12.8429 39.8568 13.0343C40.0481 13.217 40.2408 13.3353 40.4362 13.3909C40.6317 13.4464 40.8299 13.4742 41.0295 13.4742C41.2483 13.4742 41.4589 13.4289 41.6585 13.3368C41.858 13.2462 42.0328 13.1015 42.1801 12.9043C42.3274 12.707 42.4444 12.4513 42.5311 12.1371C42.6164 11.823 42.6605 11.4445 42.6605 10.9988C42.6605 10.5532 42.6206 10.144 42.5394 9.82985C42.4582 9.51569 42.3467 9.25998 42.2035 9.06271C42.0604 8.86544 41.8911 8.7237 41.6956 8.63749C41.5002 8.55128 41.2924 8.5089 41.0735 8.5089C40.8258 8.5089 40.611 8.54397 40.4294 8.61558C40.2477 8.68718 40.0715 8.79823 39.8994 8.95019C39.7081 9.14307 39.5677 9.38564 39.4769 9.67934C39.386 9.97305 39.3406 10.3471 39.3406 10.803V11.0456C39.3406 11.5614 39.3805 11.9749 39.4617 12.2832H39.4631Z" fill="#D61D1A"/>
<path d="M49.4681 4.10645C50.2691 4.10645 50.9298 4.20581 51.4487 4.40307C51.969 4.60034 52.3764 4.85897 52.6709 5.17752C52.9668 5.49607 53.1719 5.85115 53.2862 6.23983C53.4004 6.62998 53.4582 7.01136 53.4582 7.38689C53.4582 8.08536 53.3385 8.67277 53.1004 9.14767C52.8622 9.62403 52.4617 10.0229 51.8988 10.3473L53.973 14.9487H51.6703L49.9539 10.8792H47.9513V14.9487H45.8481V4.1079H49.4667L49.4681 4.10645ZM50.4398 8.88173C50.6586 8.80574 50.8334 8.69907 50.9614 8.56318C51.0908 8.42582 51.1789 8.26217 51.2257 8.06928C51.2739 7.8764 51.2973 7.66453 51.2973 7.43219C51.2973 7.23931 51.2684 7.0552 51.2119 6.87839C51.1541 6.70158 51.0564 6.54377 50.9188 6.40788C50.7798 6.27052 50.5898 6.16531 50.3462 6.08933C50.1026 6.01334 49.7956 5.97535 49.424 5.97535H47.9513V8.99717H49.6098C49.9429 8.99717 50.2196 8.95917 50.4398 8.88319V8.88173Z" fill="#D61D1A"/>
<path d="M60.0001 14.4999C59.4619 14.9602 58.6774 15.1911 57.6478 15.1911C56.4077 15.1911 55.4759 14.8272 54.8524 14.0981C54.2275 13.3689 53.915 12.3373 53.915 11.0003C53.915 10.3325 54.0059 9.7378 54.1862 9.21614C54.3679 8.69448 54.6225 8.25173 54.9515 7.88788C55.2804 7.52404 55.6741 7.24787 56.131 7.06083C56.5894 6.87379 57.0945 6.78027 57.6464 6.78027C58.7902 6.78027 59.6518 7.12951 60.2285 7.82797C60.8053 8.52644 61.0943 9.46747 61.0943 10.6525V11.503H55.9163C55.9356 12.14 56.0884 12.6398 56.3747 12.9993C56.6609 13.3587 57.0904 13.5384 57.6616 13.5384C58.453 13.5384 58.9196 13.1848 59.0627 12.4761H61.0076C60.8741 13.3675 60.5382 14.0426 59.9987 14.5029L60.0001 14.4999ZM58.7847 8.82891C58.5315 8.52498 58.1392 8.37301 57.6051 8.37301C57.3381 8.37301 57.1041 8.41831 56.9046 8.51036C56.705 8.60096 56.5357 8.72516 56.3967 8.88298C56.259 9.03933 56.1517 9.22198 56.0746 9.42947C55.9989 9.63697 55.9549 9.862 55.9452 10.1046H59.1632C59.1632 9.55807 59.0366 9.13285 58.7847 8.82891Z" fill="#D61D1A"/>
<path d="M63.254 7.02148L64.2987 12.2746L65.7287 7.0814H67.474L68.8325 12.2746L69.8772 7.02148H71.9652L69.7918 14.9472H67.847L66.5174 9.72329L65.1727 14.9472H63.2567L61.082 7.02148H63.2567H63.254Z" fill="#D61D1A"/>
<path d="M75.8037 14.8112C75.4362 15.0333 74.9627 15.1458 74.3805 15.1458C74.046 15.1458 73.7295 15.1005 73.4294 15.0084C73.1294 14.9164 72.8665 14.7761 72.6421 14.5832C72.4178 14.3903 72.2388 14.1448 72.1053 13.8468C71.9718 13.5487 71.9058 13.1907 71.9058 12.7757C71.9058 12.2292 72.02 11.7835 72.2485 11.4386C72.477 11.0938 72.777 10.8264 73.15 10.6335C73.5216 10.4406 73.9387 10.3047 74.4012 10.2229C74.8636 10.1411 75.333 10.0914 75.8106 10.0709L76.7685 10.0256V9.63111C76.7685 9.14599 76.6419 8.81137 76.39 8.62871C76.1368 8.44606 75.8395 8.35547 75.4968 8.35547C74.7053 8.35547 74.2525 8.67401 74.1383 9.31257L72.3077 9.12991C72.4412 8.29994 72.7839 7.70084 73.3372 7.33115C73.8905 6.96146 74.6338 6.77734 75.5683 6.77734C76.1409 6.77734 76.6268 6.85041 77.0273 6.99799C77.4278 7.14557 77.7499 7.35453 77.9922 7.62778C78.2358 7.90103 78.412 8.23273 78.5221 8.62287C78.6322 9.01302 78.6872 9.44993 78.6872 9.93651V14.9471H76.7988V13.9447C76.5029 14.2997 76.1712 14.5876 75.8051 14.8097L75.8037 14.8112ZM75.8684 11.4562C75.4486 11.4766 75.11 11.5219 74.8526 11.5935C74.5952 11.6637 74.397 11.7528 74.2594 11.8595C74.1217 11.9662 74.0282 12.0889 73.98 12.2321C73.9318 12.3738 73.9084 12.5302 73.9084 12.7026C73.9084 12.9656 73.9937 13.1731 74.1658 13.3251C74.3378 13.4771 74.576 13.553 74.8815 13.553C75.3963 13.553 75.8161 13.4259 76.1395 13.1731C76.3212 13.0314 76.4685 12.8517 76.5827 12.6339C76.697 12.4162 76.7548 12.1459 76.7548 11.8215V11.4123L75.8684 11.4576V11.4562Z" fill="#D61D1A"/>
<path d="M81.7608 7.02164V8.13071C82.0085 7.71572 82.3086 7.40448 82.6623 7.19698C83.0147 6.98949 83.3877 6.88574 83.7772 6.88574C83.9685 6.88574 84.1254 6.89304 84.2493 6.90912C84.3732 6.92373 84.4833 6.94273 84.5782 6.96173L84.3346 8.89054C84.1061 8.82917 83.824 8.79994 83.4909 8.79994C83.272 8.79994 83.0615 8.82771 82.8619 8.88324C82.6623 8.93876 82.4806 9.04251 82.3182 9.19448C82.1461 9.35667 82.0195 9.53933 81.9397 9.74097C81.8585 9.94408 81.8186 10.1516 81.8186 10.3635V14.9488H79.8159V7.0231H81.7608V7.02164Z" fill="#D61D1A"/>
<path d="M87.7386 15.1913C86.6898 15.1913 85.908 14.8172 85.3932 14.0676C84.8785 13.318 84.6211 12.2805 84.6211 10.9552C84.6211 10.3371 84.6954 9.77308 84.8427 9.26165C84.99 8.75022 85.2033 8.31039 85.4786 7.9407C85.7552 7.57101 86.0938 7.28461 86.4944 7.08296C86.8949 6.88131 87.3477 6.77902 87.8529 6.77902C88.2245 6.77902 88.5947 6.84916 88.9609 6.99236C89.3284 7.1341 89.6738 7.40736 89.9973 7.81212V4.10645H91.9999V14.9473H90.0551V13.8996C89.4825 14.7602 88.7104 15.1898 87.7386 15.1898V15.1913ZM89.8913 9.67956C89.8101 9.37562 89.6793 9.12722 89.4977 8.9358C89.3256 8.75315 89.137 8.63479 88.9319 8.57926C88.7269 8.52373 88.5245 8.49597 88.3236 8.49597C88.1047 8.49597 87.8969 8.54127 87.7015 8.63332C87.506 8.72392 87.334 8.86566 87.1867 9.05854C87.0394 9.25142 86.9224 9.50421 86.8357 9.81838C86.7504 10.1325 86.7063 10.5066 86.7063 10.9421C86.7063 11.4184 86.7462 11.8144 86.8274 12.1344C86.9087 12.453 87.0201 12.7116 87.1633 12.9089C87.3064 13.1061 87.473 13.2479 87.6643 13.3341C87.8556 13.4203 88.0593 13.4627 88.2795 13.4627C88.7558 13.4627 89.1467 13.3165 89.4522 13.0228C89.6435 12.8197 89.7839 12.5743 89.8748 12.2864C89.9656 11.9985 90.011 11.6259 90.011 11.17V10.8968C90.011 10.3912 89.9711 9.98642 89.8899 9.68248L89.8913 9.67956Z" fill="#D61D1A"/>
<defs>
<linearGradient id="paint0_linear_13320_25347" x1="0.357553" y1="10.4807" x2="20.3827" y2="11.1536" gradientUnits="userSpaceOnUse">
<stop stop-color="#EE3824"/>
<stop offset="0.99" stop-color="#6F0C00"/>
</linearGradient>
<linearGradient id="paint1_linear_13320_25347" x1="0.0917969" y1="10.4169" x2="18.3601" y2="10.4169" gradientUnits="userSpaceOnUse">
<stop offset="0.03" stop-color="#FFEC00"/>
<stop offset="1" stop-color="#F7C71C"/>
</linearGradient>
<linearGradient id="paint2_linear_13320_25347" x1="8.47128" y1="10.2317" x2="25.9254" y2="13.3666" gradientUnits="userSpaceOnUse">
<stop offset="0.03" stop-color="#FFC200"/>
<stop offset="1" stop-color="#FFC200" stop-opacity="0"/>
</linearGradient>
<linearGradient id="paint3_linear_13320_25347" x1="8.19578" y1="10.3074" x2="17.6795" y2="11.163" gradientUnits="userSpaceOnUse">
<stop offset="0.03" stop-color="#D41717"/>
<stop offset="1" stop-color="#D81616" stop-opacity="0"/>
</linearGradient>
</defs>
</svg>
