<svg width="91" height="91" viewBox="0 0 91 91" fill="none" xmlns="http://www.w3.org/2000/svg">
<path d="M59.1689 70.4029C53.3291 70.4817 47.4847 70.4122 41.6495 70.1756C40.208 70.12 38.7665 70.0689 37.3297 69.9715C36.1146 69.8927 35.0104 69.6051 34.2296 68.6033C32.6587 66.5951 33.1069 63.6684 33.1762 61.303C33.5365 49.7079 33.3795 38.0943 33.2593 26.4992C33.2455 24.9454 33.2871 23.3917 33.2316 21.8426C33.1854 20.4558 33.0145 18.9809 33.4026 17.6266C33.7906 16.2723 34.7147 15.4513 36.073 15.2194C37.556 14.969 39.0761 15.1916 40.5684 14.9736L39.6905 14.3011C39.5889 15.9151 39.6443 17.877 41.0858 18.916C41.9359 19.5328 43.0078 19.5746 44.0196 19.5977C45.1838 19.6256 46.3481 19.6349 47.517 19.6209C48.6859 19.607 49.8455 19.5746 51.0098 19.5235C52.1048 19.4725 53.3614 19.5467 54.4195 19.2313C55.3019 18.967 55.9533 18.2805 56.3137 17.4503C56.7619 16.4207 56.6787 15.3122 56.6417 14.2176L55.9487 14.9133C58.0555 14.751 60.8091 14.0414 62.44 15.8409C63.1884 16.6665 63.4518 17.8399 63.5534 18.9206C63.6874 20.3306 63.6412 21.7637 63.6273 23.1783C63.5858 29.384 63.2346 35.5805 63.1607 41.7862C63.1191 45.3064 63.1699 48.8267 63.4056 52.3377C63.4656 53.2282 64.8517 53.2328 64.7916 52.3377C64.3481 45.7656 64.5698 39.1749 64.787 32.5982C64.8979 29.3052 64.9995 26.0122 65.018 22.7192C65.0272 20.2239 65.2906 17.186 63.632 15.1081C61.7192 12.7056 58.6099 13.3132 55.9487 13.5173C55.5837 13.5451 55.2418 13.8141 55.2557 14.213C55.2834 15.0988 55.4128 16.0589 55.0524 16.8938C54.692 17.7286 54.0868 17.942 53.2644 18.0023C51.3517 18.1414 49.4343 18.211 47.517 18.2295C46.5791 18.2388 45.6366 18.2342 44.6987 18.2202C43.8671 18.2063 42.8368 18.313 42.0791 17.9002C40.8733 17.2509 41.0073 15.4513 41.0812 14.2965C41.1135 13.7956 40.6146 13.5683 40.2034 13.6239C37.6762 13.9857 34.7239 13.1555 32.9313 15.5116C31.3004 17.659 31.8825 20.5625 31.8641 23.0624C31.8225 29.1568 31.9611 35.2511 31.9888 41.3455C32.0165 47.4399 32.0027 53.6456 31.8363 59.7957C31.7624 62.4997 31.2727 65.57 32.3723 68.1302C32.8158 69.1599 33.5365 70.0968 34.516 70.6626C35.6941 71.3444 37.1079 71.3444 38.4292 71.4093C45.3363 71.7572 52.2572 71.8778 59.1735 71.7804C60.0652 71.7665 60.0652 70.3751 59.1735 70.389L59.1689 70.4029Z" fill="#231F20"/>
<path d="M37.6592 65.2055C44.3399 65.6369 51.0344 65.7436 57.7244 65.5348C58.6161 65.507 58.6161 64.1156 57.7244 64.1434C51.0344 64.3521 44.3399 64.2455 37.6592 63.8141C36.7675 63.7585 36.7722 65.1499 37.6592 65.2055Z" fill="#231F20"/>
<path d="M55.3242 23.571C51.6928 21.252 46.7262 20.9087 42.8591 22.8382C38.5717 24.9763 36.1692 30.5141 36.7606 35.1707C37.0517 37.4619 38.0958 39.6233 39.7267 41.2605C41.5378 43.0832 43.9449 44.0526 46.4674 44.3448C51.0598 44.8828 56.5624 43.0508 58.7431 38.6678C59.9951 36.154 60.2354 33.1393 59.7364 30.3982C59.2374 27.6571 57.7313 25.1618 55.3196 23.5663C54.5711 23.0701 53.8781 24.276 54.6219 24.7676C56.5162 26.0245 57.7128 27.8426 58.2487 30.0457C58.7847 32.2488 58.7107 34.6049 58.027 36.7523C56.701 40.9265 52.335 42.9951 48.2046 43.0461C45.8899 43.074 43.5106 42.5081 41.6348 41.0982C40.0455 39.9015 38.8858 38.1484 38.3684 36.2236C37.7862 34.0622 38.0773 31.7432 38.8443 29.6607C39.5558 27.7267 40.7801 25.8112 42.5034 24.647C46.0424 22.2584 51.0922 22.5135 54.6219 24.7676C55.375 25.25 56.0727 24.0441 55.3196 23.5663L55.3242 23.571Z" fill="#231F20"/>
<path d="M50.417 39.6434C50.5464 38.9059 50.3662 38.1453 49.7656 37.6537C49.2019 37.1899 48.495 37.009 47.7789 37.1156C47.0628 37.2223 46.513 37.6954 46.2543 38.354C45.8708 39.3373 46.4391 40.5292 47.3446 40.9977C47.9822 41.3316 48.7076 41.3641 49.3498 41.0348C49.8764 40.7658 50.2969 40.2231 50.417 39.6434C50.4909 39.2863 50.3154 38.8735 49.9319 38.7853C49.5854 38.7065 49.1557 38.892 49.0772 39.2723C49.0587 39.3558 49.0263 39.43 49.0079 39.5089C49.0079 39.5089 49.0725 39.3744 49.0356 39.4347C49.0263 39.4532 49.0171 39.4718 49.0079 39.4903C48.9848 39.5321 48.957 39.5692 48.9339 39.6109C48.897 39.6712 48.9801 39.5506 48.9801 39.5506C48.9663 39.5645 48.9524 39.5831 48.9386 39.597C48.9108 39.6295 48.8831 39.6573 48.8554 39.6851C48.8369 39.7037 48.726 39.7918 48.8184 39.7269C48.9108 39.6619 48.7815 39.7501 48.7538 39.7686C48.7122 39.7918 48.6706 39.815 48.629 39.8382C48.569 39.8753 48.7029 39.8104 48.7029 39.8104C48.6845 39.815 48.666 39.8243 48.6475 39.8335C48.6105 39.8475 48.569 39.8567 48.532 39.8706C48.5135 39.8753 48.4904 39.8799 48.4719 39.8846C48.3749 39.9077 48.5089 39.8753 48.5366 39.8799C48.495 39.8706 48.4396 39.8846 48.3934 39.8846C48.3472 39.8846 48.2871 39.866 48.2455 39.8753C48.2548 39.8753 48.3749 39.9031 48.3056 39.8799C48.2825 39.8706 48.2548 39.8706 48.2317 39.8614C48.1762 39.8475 48.1208 39.8243 48.0654 39.8104C47.9914 39.7872 48.1162 39.8243 48.1162 39.8335C48.1162 39.8335 48.0561 39.8011 48.0469 39.8011C48.0099 39.7825 47.973 39.7593 47.936 39.7361C47.9129 39.7222 47.7974 39.6387 47.8852 39.7037C47.973 39.7686 47.8482 39.6712 47.8251 39.648C47.7928 39.6202 47.7651 39.5877 47.7373 39.5553C47.7235 39.5413 47.7096 39.5228 47.6958 39.5089C47.6449 39.4579 47.7373 39.5692 47.7373 39.5645C47.6958 39.4857 47.6357 39.4115 47.5941 39.3326C47.5248 39.1935 47.6265 39.4393 47.5895 39.328C47.5756 39.2863 47.5618 39.2491 47.5525 39.2074C47.5433 39.1657 47.5341 39.1286 47.5248 39.0868C47.5017 38.9755 47.5341 39.2445 47.5248 39.0868C47.5248 39.0451 47.5248 39.0033 47.5248 38.9616C47.5248 38.943 47.5294 38.9198 47.5248 38.9013C47.5248 38.9013 47.4971 39.0544 47.5156 38.9848C47.5341 38.9198 47.5479 38.8549 47.5664 38.79C47.6034 38.6648 47.5387 38.8595 47.5341 38.8549C47.5341 38.8549 47.5664 38.79 47.5664 38.7853C47.5895 38.739 47.6265 38.6926 47.6496 38.6462C47.668 38.6091 47.5248 38.79 47.6034 38.7111C47.6218 38.6926 47.6357 38.674 47.6542 38.6555C47.6727 38.6369 47.6865 38.623 47.705 38.6045C47.7142 38.5952 47.7235 38.5905 47.7327 38.5813C47.7974 38.521 47.6449 38.6555 47.6496 38.6462C47.6588 38.6137 47.7512 38.5766 47.7789 38.5627C47.7974 38.5488 47.8205 38.5395 47.8436 38.5303C47.9545 38.4746 47.8159 38.5627 47.7743 38.5581C47.8066 38.5627 47.8806 38.521 47.9129 38.5117C47.9637 38.4978 48.0145 38.4839 48.0654 38.4746C48.0977 38.47 48.1993 38.456 48.0561 38.4746C47.9129 38.4931 48.0145 38.4792 48.0515 38.4746C48.1069 38.4746 48.1578 38.47 48.2132 38.47C48.264 38.47 48.3149 38.4746 48.3611 38.4792C48.4812 38.4885 48.2917 38.4839 48.2779 38.4653C48.2871 38.4746 48.3472 38.4792 48.3657 38.4792C48.4719 38.5024 48.5736 38.5395 48.6798 38.572C48.7214 38.5859 48.5043 38.4885 48.6059 38.5395C48.629 38.5488 48.6521 38.5627 48.6752 38.572C48.7214 38.5952 48.7676 38.623 48.8138 38.6555C48.8369 38.6694 48.86 38.6879 48.8831 38.7065C48.9016 38.7204 48.7353 38.5813 48.8277 38.6648C48.8693 38.7019 48.9108 38.7436 48.9524 38.7853C48.9709 38.8085 48.9894 38.8317 49.0079 38.8503C49.0217 38.8642 48.897 38.6926 48.9663 38.7993C48.9986 38.8503 49.0263 38.8967 49.0541 38.9477C49.1188 39.0729 49.0032 38.8039 49.0356 38.8967C49.0448 38.9245 49.0541 38.9523 49.0633 38.9801C49.0726 39.008 49.0772 39.0404 49.0864 39.0683C49.0956 39.1007 49.1095 39.2213 49.091 39.0822C49.0726 38.943 49.091 39.0636 49.091 39.1007C49.091 39.1378 49.091 39.1657 49.091 39.1981C49.091 39.2306 49.091 39.2677 49.0864 39.3002C49.0864 39.3929 49.1188 39.1054 49.0864 39.2677C49.0541 39.4579 49.0587 39.6341 49.1557 39.8057C49.2389 39.9495 49.4052 40.0886 49.5715 40.1257C49.9088 40.2046 50.3569 40.0237 50.4262 39.6387L50.417 39.6434Z" fill="#231F20"/>
<path d="M46.0547 32.6469C46.0639 33.5003 46.4058 34.3444 47.1312 34.8268C47.8565 35.3091 48.7159 35.2303 49.3904 34.7665C50.6609 33.8899 50.7487 32.2341 50.7533 30.8195C50.7533 30.1006 50.7118 29.3864 50.6702 28.6721C50.6286 27.9578 50.6609 27.2853 50.5454 26.6082C50.3884 25.7038 49.8201 24.9107 48.9099 24.6556C47.9998 24.4005 47.1681 24.7993 46.6461 25.5043C45.9623 26.4273 46.124 27.6703 46.1055 28.7556C46.087 30.0542 46.0778 31.3483 46.0593 32.6469C46.0454 33.5421 47.4315 33.5421 47.4453 32.6469C47.4731 30.8659 47.4777 29.0803 47.5193 27.2992C47.5331 26.7983 47.6209 26.1908 48.1707 26.0006C48.6789 25.8243 49.0578 26.3113 49.164 26.7473C49.2888 27.2436 49.2426 27.7723 49.2657 28.2825C49.2888 28.7927 49.3257 29.3307 49.3488 29.8594C49.3904 30.8891 49.4736 32.0718 49.0901 33.0504C49.0254 33.2081 48.933 33.3519 48.799 33.4771C48.6189 33.6441 48.3786 33.7971 48.1245 33.76C47.6348 33.6905 47.45 33.0782 47.4453 32.6515C47.4361 31.7564 46.0501 31.7564 46.0593 32.6515L46.0547 32.6469Z" fill="#231F20"/>
<path d="M47.468 28.0659L47.4495 28.0567L47.699 28.3071L47.7544 28.4324V28.8034C47.7683 28.7106 47.699 28.9008 47.6805 28.9333C47.6019 29.0399 47.6943 28.9193 47.7036 28.9101C47.7452 28.8591 47.7914 28.808 47.8329 28.7617C47.9253 28.655 48.0177 28.5529 48.1148 28.4509C48.3042 28.2468 48.4982 28.0428 48.6969 27.848C49.0989 27.4537 49.5147 27.0827 49.9536 26.7348C50.0829 26.6328 50.1569 26.4009 50.1569 26.2432C50.1569 26.0716 50.0829 25.8675 49.9536 25.7516C49.8242 25.6356 49.6486 25.5382 49.4638 25.5475C49.2698 25.5568 49.1266 25.631 48.9741 25.7516C48.4659 26.1551 47.9854 26.591 47.528 27.0502C47.3016 27.2821 47.0799 27.5187 46.8673 27.7645C46.7426 27.9036 46.5994 28.0474 46.507 28.2097C46.2991 28.5622 46.3915 29.0863 46.7703 29.2811C47.0937 29.4481 47.5373 29.3785 47.7174 29.0307C47.8838 28.7153 47.8145 28.2561 47.468 28.0799V28.0659Z" fill="#231F20"/>
<path d="M47.8587 31.6997C48.6857 30.7814 49.5497 29.8909 50.446 29.0375C50.7093 28.787 50.7186 28.3047 50.446 28.0542C50.1734 27.8038 49.7483 27.7852 49.4665 28.0542C48.5702 28.9076 47.7062 29.7935 46.8792 30.7165C46.6344 30.9855 46.5928 31.4354 46.8792 31.6997C47.1426 31.9456 47.6 31.9873 47.8587 31.6997Z" fill="#231F20"/>
<path d="M48.157 34.3096C48.716 33.7901 49.2889 33.2938 49.8849 32.8208C50.0143 32.7187 50.0882 32.4868 50.0882 32.3291C50.0882 32.1575 50.0143 31.9535 49.8849 31.8375C49.7556 31.7215 49.58 31.6241 49.3952 31.6334L49.2104 31.6566C49.0949 31.6891 48.9932 31.7494 48.9055 31.8375C48.3095 32.3106 47.732 32.8069 47.1775 33.3263C46.9096 33.5768 46.9096 34.0638 47.1775 34.3096C47.464 34.5739 47.8752 34.5739 48.157 34.3096Z" fill="#231F20"/>
<path d="M47.7427 40.3723C48.4403 39.941 49.0779 39.3983 49.5999 38.7583C49.7201 38.6098 49.8032 38.4661 49.8032 38.2666C49.8032 38.095 49.7293 37.8909 49.5999 37.775C49.4706 37.659 49.295 37.5616 49.1102 37.5709C48.9393 37.5802 48.736 37.6359 48.6205 37.775C48.2924 38.1785 47.9182 38.5449 47.5116 38.8649L47.6502 38.7583C47.4562 38.9067 47.2529 39.0458 47.045 39.1757C46.8926 39.2684 46.7724 39.4215 46.7262 39.5931C46.68 39.7647 46.7031 39.9827 46.7955 40.1311C46.9942 40.4419 47.4146 40.5857 47.7427 40.3816V40.3723Z" fill="#231F20"/>
<path d="M69.0778 39.3775C69.0408 35.6856 69.1933 31.9891 69.281 28.2972C69.3226 26.4559 69.3688 24.61 69.3734 22.7687C69.3734 21.8643 69.355 20.9645 69.4058 20.0601C69.4843 18.6501 69.5074 17.3051 69.0269 15.9554C68.2046 13.6364 66.6522 11.5771 64.5547 10.2784C62.6466 9.09572 60.4104 8.70149 58.202 8.58554C55.4808 8.44176 52.7364 8.52061 50.0105 8.52988C46.989 8.53916 43.9674 8.56699 40.9459 8.59482C38.317 8.61801 35.6189 8.43248 33.1564 9.54098C31.0681 10.4779 29.2709 12.245 28.2914 14.3228C27.0855 16.883 27.2611 19.7122 27.3766 22.4626C27.506 25.5376 27.5845 28.6126 27.6122 31.6876C27.6677 37.7496 27.4459 43.7929 27.238 49.8502C27.1364 52.8279 27.1548 55.8055 27.0486 58.7831C26.9423 61.7607 26.7852 64.5018 27.275 67.331C27.7139 69.8912 28.7072 72.623 30.7909 74.2927C32.6297 75.7676 34.9028 76.2129 37.2036 76.25C38.3863 76.2685 39.5645 76.199 40.7472 76.185C42.0593 76.1665 43.3714 76.2221 44.6789 76.2314C47.4833 76.25 50.2878 76.2082 53.0922 76.2129C54.4366 76.2129 55.7811 76.2268 57.1255 76.2593C58.0172 76.2824 58.0172 74.891 57.1255 74.8678C51.8494 74.7426 46.5593 74.8122 41.2785 74.7936C39.0747 74.7844 36.8109 75.0858 34.6348 74.6035C32.2185 74.0701 30.4721 72.4885 29.5296 70.2112C28.4854 67.7021 28.2914 64.9702 28.3284 62.2802C28.3653 59.5901 28.467 56.6681 28.5178 53.8621C28.6287 48.0831 28.9567 42.318 29.0029 36.539C29.026 33.6171 29.0029 30.6951 28.9382 27.7731C28.8735 24.8512 28.6194 22.0451 28.6749 19.1927C28.7257 16.7021 29.4048 14.4063 31.1836 12.6114C32.9623 10.8164 35.1754 10.1161 37.6286 10.0187C40.3314 9.91202 43.0573 9.97231 45.7647 9.95376C48.6707 9.93521 51.5814 9.92593 54.4874 9.93057C56.7005 9.93057 58.9782 9.85636 61.1496 10.3851C63.3211 10.9138 65.2338 12.18 66.5136 14.0538C67.2159 15.0788 67.8211 16.2893 68.0151 17.5277C68.2092 18.766 67.9689 20.1528 67.9828 21.4515C67.9967 23.0052 67.9689 24.5543 67.9412 26.1081C67.8673 29.8649 67.7425 33.6171 67.6963 37.3739C67.6871 38.0464 67.6825 38.7236 67.6917 39.3961C67.701 40.2912 69.087 40.2912 69.0778 39.3961V39.3775Z" fill="#231F20"/>
<path d="M27.3638 64.4297C24.8458 64.3972 22.6143 62.491 22.3648 59.9354C22.2401 58.6739 23.0486 57.4123 23.9541 56.5821C24.8042 55.8076 26.0378 55.4411 27.1697 55.622C27.544 55.6823 27.909 55.5246 28.0245 55.135C28.1169 54.8057 27.909 54.3373 27.5393 54.277C25.9916 54.0312 24.4392 54.3976 23.2103 55.3948C21.9813 56.3919 20.8864 58.1266 20.9649 59.7453C21.1359 63.1403 24.0142 65.7793 27.3638 65.8211C28.2555 65.8304 28.2555 64.439 27.3638 64.4297Z" fill="#231F20"/>
<path d="M27.2696 52.6562C26.0361 52.6005 24.7101 52.5263 23.8138 51.5663C23.1069 50.8056 22.839 49.7435 22.8944 48.7231C23.0284 46.2557 25.1398 44.47 27.5838 44.7344C27.958 44.7762 28.2768 44.3866 28.2768 44.0387C28.2768 43.6306 27.958 43.3847 27.5838 43.343C25.0658 43.074 22.7327 44.6092 21.8595 46.9607C21.1249 48.9318 21.4991 51.4318 23.1393 52.8464C24.2943 53.8435 25.8097 53.9827 27.2696 54.0522C28.1613 54.094 28.1613 52.7026 27.2696 52.6608V52.6562Z" fill="#231F20"/>
<path d="M17.2402 22.969C19.0744 24.6201 20.696 26.4892 22.0636 28.5485C22.2715 28.8593 22.6734 28.9938 23.0107 28.799C23.3202 28.6181 23.4681 28.1589 23.2602 27.8482C21.8279 25.6915 20.137 23.7157 18.2196 21.9857C17.9424 21.7352 17.5128 21.7121 17.2402 21.9857C16.9861 22.2408 16.9583 22.7185 17.2402 22.969Z" fill="#231F20"/>
<path d="M14.1734 33.5367C15.333 33.5182 16.4927 33.5367 17.6523 33.5831C18.2067 33.6063 18.7658 33.6388 19.3202 33.6805C19.5974 33.699 19.8746 33.7222 20.1518 33.7501C20.3135 33.764 20.4752 33.7779 20.6369 33.7964C20.7062 33.8011 20.7755 33.8104 20.8448 33.815C20.7801 33.7733 20.7894 33.7825 20.8679 33.8382L20.6184 33.5877L20.6508 33.648L20.5815 33.11L20.5676 33.1796C20.4983 33.5506 20.6693 33.931 21.0527 34.0376C21.39 34.1304 21.8335 33.9217 21.9075 33.5506C21.9814 33.1518 21.8659 32.7993 21.5009 32.5859C21.2191 32.4236 20.8772 32.4236 20.5676 32.3958C19.8515 32.3262 19.1354 32.2705 18.4146 32.2288C17.0009 32.1453 15.5871 32.1175 14.1688 32.1407C13.2771 32.1546 13.2771 33.546 14.1688 33.5321L14.1734 33.5367Z" fill="#231F20"/>
<path d="M18.0835 43.5626C19.5481 41.7167 21.2252 40.0285 23.0871 38.586C23.3828 38.3588 23.5399 37.9877 23.3366 37.6352C23.1656 37.343 22.6851 37.1529 22.3895 37.3848C20.4259 38.9014 18.6472 40.6314 17.1087 42.5747C16.8777 42.8669 16.8222 43.2705 17.1087 43.558C17.3489 43.7992 17.8525 43.8548 18.0881 43.558L18.0835 43.5626Z" fill="#231F20"/>
<path d="M53.6005 47.9972C54.2981 46.7032 55.1482 45.2793 56.5897 44.7228C58.1282 44.1291 59.6112 45.0428 60.8864 45.8359C61.6487 46.309 62.3463 45.1031 61.584 44.6347C59.9808 43.6421 58.1282 42.6774 56.2154 43.3824C54.3027 44.0874 53.2817 45.6504 52.3946 47.2969C51.9696 48.0854 53.1662 48.7903 53.5912 47.9972H53.6005Z" fill="#231F20"/>
<path d="M58.1593 17.7276C58.6767 17.6626 59.1942 17.6255 59.7163 17.6673C59.7948 17.6766 59.7902 17.6766 59.6932 17.6673C59.7301 17.6719 59.7625 17.6812 59.7994 17.6858C59.8502 17.6951 59.9057 17.709 59.9565 17.7229C60.0258 17.7415 60.0905 17.76 60.1598 17.7832C60.2014 17.7971 60.34 17.8667 60.1875 17.7925C60.2984 17.8482 60.4 17.9038 60.5017 17.9734C60.3584 17.876 60.5109 17.9873 60.5433 18.0151C60.5895 18.0615 60.631 18.1079 60.6726 18.1543C60.571 18.0383 60.6726 18.1589 60.6957 18.1914C60.7327 18.2517 60.765 18.3166 60.802 18.3815C60.8759 18.516 60.7743 18.2795 60.8158 18.414C60.8389 18.4836 60.862 18.5531 60.8805 18.6227C60.9129 18.7479 60.936 18.8778 60.9544 19.003C60.9267 18.8268 60.9544 19.017 60.9544 19.0448C60.9637 19.119 60.9683 19.1978 60.9729 19.2767C61.0145 19.8611 61.0191 20.4455 61.1392 21.0252C61.2132 21.3824 61.6521 21.6235 61.994 21.5122C62.3682 21.3916 62.5576 21.0391 62.4791 20.6542C62.4652 20.58 62.4514 20.5058 62.4375 20.4316C62.4236 20.3527 62.4283 20.3573 62.4375 20.4455C62.4375 20.4084 62.4283 20.3666 62.4236 20.3295C62.4098 20.1765 62.4005 20.0188 62.3913 19.8611C62.3774 19.5689 62.3636 19.2813 62.3312 18.9891C62.2527 18.3027 62.0771 17.658 61.6105 17.1246C60.7512 16.1553 59.3235 16.1877 58.1547 16.3362C57.7943 16.3825 57.4432 16.6237 57.4616 17.0319C57.4755 17.3704 57.7712 17.7786 58.1547 17.7276H58.1593Z" fill="#231F20"/>
<path d="M61.1875 22.8292C61.1875 23.6316 61.1875 24.4293 61.1875 25.2317C61.1875 25.5935 61.5063 25.946 61.8805 25.9274C62.2547 25.9089 62.5735 25.6213 62.5735 25.2317C62.5735 24.4293 62.5735 23.6316 62.5735 22.8292C62.5735 22.4675 62.2547 22.115 61.8805 22.1335C61.5063 22.1521 61.1875 22.4396 61.1875 22.8292Z" fill="#231F20"/>
<path d="M34.2206 37.9201C35.2925 41.4821 37.8197 44.5432 41.1369 46.2222C41.9316 46.6257 42.6338 45.4244 41.8345 45.0209C38.8361 43.4996 36.5307 40.7864 35.5558 37.549C35.2971 36.6956 33.9619 37.0574 34.2206 37.9201Z" fill="#231F20"/>
<path d="M43.6937 47.1936L45.0427 47.3281C45.2091 47.3466 45.417 47.24 45.5325 47.124C45.6526 47.0034 45.745 46.804 45.7357 46.6324C45.7265 46.4608 45.6711 46.266 45.5325 46.1407L45.3939 46.0341C45.2876 45.9691 45.1675 45.9413 45.0427 45.9413L43.6937 45.8068C43.5273 45.7882 43.3194 45.8949 43.2039 46.0109C43.0838 46.1315 42.9914 46.3309 43.0006 46.5025C43.0099 46.6741 43.0653 46.8689 43.2039 46.9941L43.3425 47.1008C43.4488 47.1657 43.5689 47.1936 43.6937 47.1936Z" fill="#231F20"/>
<path d="M41.9892 74.5249C40.5338 74.5249 39.0554 74.5388 37.6185 74.7846C37.309 74.8356 36.8562 74.8959 36.5929 75.0954C36.3295 75.2948 36.1909 75.5545 36.2741 75.8792C36.5882 77.1036 37.0595 78.291 37.6786 79.3902C38.2561 80.4152 38.963 81.5886 40.118 82.0153C40.6909 82.2287 41.3146 82.2333 41.9152 82.238C42.6822 82.2426 43.4491 82.2472 44.216 82.2519C45.676 82.2611 47.1313 82.2751 48.5913 82.2936C54.4681 82.3586 60.3449 82.4513 66.2217 82.493C67.8156 82.507 69.4003 82.493 70.9942 82.391C72.5882 82.289 74.2791 82.1638 75.9285 82.1777C76.2473 82.1777 76.4968 81.955 76.5984 81.6675C77.042 80.3503 76.8664 78.88 76.7694 77.5211C76.6539 75.9024 76.7232 74.2744 76.7463 72.6511C76.7971 68.95 76.8803 65.2534 76.9218 61.5523C76.9403 59.8223 76.9357 58.0923 77.0235 56.3669C77.1113 54.6416 77.2175 53.0461 77.1621 51.3811C77.0558 48.3153 76.1826 45.231 74.8151 42.4899C74.062 40.9826 73.1056 39.5262 71.9414 38.311C70.9757 37.2999 69.8115 36.5625 68.3839 36.5625C68.0096 36.5625 67.6908 36.8825 67.6908 37.2582V54.0526C67.6908 54.8735 67.6908 55.6944 67.6955 56.52L68.7396 55.9171C65.7134 54.4839 64.0225 51.548 62.0173 49.0203C61.1626 47.9443 60.1739 46.8172 58.9173 46.205C57.5405 45.5325 56.1221 45.7273 54.944 46.7152C53.5487 47.8932 52.6801 49.8088 52.1534 51.5202C51.5898 53.3569 51.4465 55.3048 51.7561 57.2018C52.0656 59.0988 52.8788 60.8195 54.0615 62.2805C54.5882 62.9298 55.2073 63.4214 55.8772 63.913C56.427 64.3166 56.9814 64.734 57.1246 65.439C57.3187 66.3805 57.4019 67.3452 57.6144 68.2867C57.8269 69.2282 58.0718 70.077 58.4183 70.935C59.1621 72.7763 60.2802 74.3904 61.7679 75.7076L62.2576 74.5203C59.6287 74.7614 57.0138 74.8913 54.3757 74.8264C51.0446 74.7429 47.7181 74.6594 44.387 74.5805C43.5831 74.562 42.7838 74.5388 41.9799 74.5203C41.0882 74.4971 41.0882 75.8885 41.9799 75.9117C44.1236 75.9627 46.2674 76.0183 48.4111 76.0694C51.7053 76.1528 55.0271 76.3708 58.3213 76.1992C59.6334 76.1297 60.9455 76.0323 62.253 75.9117C62.7981 75.8606 63.2324 75.1603 62.7427 74.7243C60.2848 72.5444 59.1945 69.6503 58.6724 66.464C58.5476 65.708 58.5292 64.9056 58.1365 64.2238C57.7899 63.6255 57.2401 63.1988 56.695 62.7953C55.3551 61.812 54.3664 60.6061 53.715 59.0524C52.3243 55.7315 52.9573 51.7706 54.9255 48.8209C55.6462 47.7448 56.7597 46.7847 58.0995 47.346C59.2638 47.8329 60.1693 48.9229 60.9362 49.883C63.0661 52.5359 64.8356 55.597 68.0327 57.1137C68.4947 57.3317 69.0815 57.0766 69.0769 56.5107C69.0353 50.9219 69.0723 45.3284 69.0723 39.7396V37.2489L68.3792 37.9446C69.562 37.9446 70.4398 38.7006 71.1975 39.554C72.1631 40.6393 72.9624 41.887 73.6092 43.1856C74.8982 45.769 75.6975 48.6956 75.7714 51.5805C75.813 53.176 75.7067 54.7668 75.6282 56.3577C75.5497 57.9485 75.5497 59.5069 75.5312 61.0885C75.4942 64.5948 75.4157 68.1012 75.3649 71.6076C75.3418 73.37 75.2309 75.151 75.3325 76.9088C75.4157 78.3281 75.716 79.9097 75.2494 81.2872L75.9193 80.777C73.1795 80.7491 70.4537 81.1156 67.7093 81.1016C64.965 81.0877 62.1744 81.0553 59.407 81.0228C53.8397 80.9579 48.2771 80.8744 42.7099 80.8373C42.0354 80.8373 41.2084 80.9486 40.5662 80.6935C39.9794 80.4616 39.6052 79.8633 39.2771 79.3577C38.5102 78.1658 37.9558 76.8671 37.6 75.4942L37.2813 76.2781C37.4199 76.1714 37.1196 76.3152 37.2859 76.2734C37.5169 76.2131 37.7386 76.1528 37.9743 76.1111C39.2679 75.8931 40.6539 75.9024 41.9799 75.9024C42.8716 75.9024 42.8716 74.511 41.9799 74.511L41.9892 74.5249Z" fill="#231F20"/>
</svg>
