<svg width="91" height="91" viewBox="0 0 91 91" fill="none" xmlns="http://www.w3.org/2000/svg">
<path d="M34.0573 37.7356C32.9059 38.138 31.7629 38.5617 30.6414 39.0326C29.6483 39.4478 28.6595 39.8844 27.8376 40.595C26.4293 41.8107 26.241 43.6813 26.3566 45.4278C26.4165 46.3139 26.5449 47.1957 26.5877 48.0818C26.6391 49.199 26.562 50.3334 26.5492 51.4506C26.5149 53.9205 26.5363 56.3989 26.806 58.8603C27.2726 63.1023 28.4498 67.3872 31.0652 70.8331C33.6806 74.279 37.2464 76.5819 40.8763 78.7051C42.7598 79.8052 44.7246 80.9695 46.9761 80.3018C49.0009 79.7025 50.9571 78.4654 52.6693 77.2625C56.1195 74.8397 59.163 71.6421 61.1449 67.9009C62.1979 65.9104 62.8956 63.7872 63.191 61.5528C63.5163 59.13 63.4949 56.6643 63.4907 54.2287C63.4864 51.793 63.4264 49.2375 63.3494 46.7419C63.3109 45.5434 63.3109 44.3362 63.221 43.142C63.1653 42.3886 63.0326 41.6395 62.6816 40.9631C61.924 39.4906 60.3016 39.0026 58.8248 38.5617C56.4148 37.8426 54.0091 37.1235 51.5992 36.4043C50.3963 36.0447 49.1978 35.6723 47.9906 35.3299C46.8691 35.0131 45.6962 34.752 44.5191 34.8248C43.3419 34.8976 42.2118 35.2486 41.0818 35.5739C39.8875 35.9163 38.6932 36.2631 37.5032 36.6226C36.3132 36.9822 35.196 37.3418 34.0573 37.7356C33.2825 38.0053 33.6164 39.2466 34.3998 38.9727C36.5872 38.2193 38.8045 37.5644 41.0261 36.9266C42.1006 36.6183 43.1964 36.2331 44.3179 36.1261C45.4394 36.0191 46.5609 36.2631 47.6482 36.567C49.8784 37.1962 52.0914 37.8897 54.3088 38.5489C55.4603 38.8913 56.616 39.2381 57.7675 39.5805C58.6407 39.8416 59.5739 40.0385 60.3872 40.4709C61.6158 41.1215 61.9068 42.2644 61.9582 43.5786C62.0524 45.8987 62.1123 48.2187 62.1594 50.5388C62.2065 52.8589 62.2236 55.2389 62.1722 57.5889C62.1209 59.939 61.971 62.0793 61.299 64.2367C60.1047 68.0678 57.5492 71.4195 54.6042 74.0863C53.1445 75.409 51.5392 76.5691 49.8313 77.5493C48.9709 78.0416 48.0805 78.5296 47.1559 78.8892C46.1115 79.2915 45.1355 79.3301 44.0782 78.9448C43.1236 78.5938 42.2418 78.0245 41.3686 77.5108C40.4953 76.9971 39.6777 76.5049 38.8516 75.9741C37.1779 74.8997 35.5684 73.731 34.1301 72.3527C31.1765 69.5232 29.43 65.9147 28.5825 61.9423C27.6407 57.5205 27.8762 53.043 27.8804 48.5569C27.8804 46.9431 27.4609 45.3293 27.645 43.7113C27.7349 42.9151 28.0174 42.1788 28.6124 41.6224C29.3487 40.9289 30.3418 40.5351 31.2664 40.1541C32.298 39.7303 33.3468 39.3408 34.4041 38.9727C35.1788 38.703 34.845 37.4616 34.0616 37.7356H34.0573Z" fill="#231F20"/>
<path d="M44.7484 35.7949C44.7141 35.5595 44.7441 35.7607 44.7484 35.8805C44.7527 36.0004 44.7655 36.1331 44.7698 36.2615C44.7869 36.6168 44.7955 36.9764 44.804 37.3317C44.8297 38.4446 44.8426 39.5618 44.8468 40.6748C44.8682 44.0265 44.8597 47.3825 44.8468 50.7342C44.8297 54.7108 44.804 58.6918 44.7741 62.6685C44.7484 66.2213 44.7141 69.7742 44.6842 73.3271C44.6671 75.4032 44.6414 77.4836 44.6328 79.5597C44.6328 79.6624 44.6328 79.7651 44.6328 79.8679C44.6328 80.694 45.917 80.694 45.917 79.8679C45.917 78.0315 45.9427 76.1951 45.9598 74.363C45.9898 70.9129 46.0197 67.4627 46.0497 64.0083C46.0797 60.0273 46.1096 56.0421 46.1267 52.0569C46.1439 48.5639 46.1567 45.071 46.1396 41.5823C46.131 39.6774 46.1995 37.734 46.0283 35.8292C46.0154 35.7007 46.0026 35.5723 45.9812 35.4482C45.8613 34.6349 44.6242 34.9816 44.7441 35.7906L44.7484 35.7949Z" fill="#231F20"/>
<path d="M27.7212 57.7773C31.8134 57.7474 35.9099 57.7602 40.0022 57.7559C45.9222 57.7474 51.8423 57.7431 57.7581 57.7345C59.4446 57.7345 61.1354 57.7345 62.822 57.7217C63.6482 57.7174 63.6482 56.4332 62.822 56.4375C58.7298 56.4675 54.6332 56.4546 50.541 56.4589C44.6209 56.4675 38.7009 56.4718 32.7851 56.4803C31.0986 56.4803 29.4077 56.4803 27.7212 56.4932C26.895 56.4974 26.895 57.7816 27.7212 57.7773Z" fill="#231F20"/>
<path d="M62.9987 50.3912C65.7811 50.3313 68.5891 50.3741 71.3672 50.1601C73.7258 49.9803 76.1486 49.4409 77.955 47.8143C79.526 46.3932 80.4035 44.3085 80.5491 42.2153C80.6946 40.1221 79.9755 37.939 78.6314 36.2439C77.1161 34.339 74.8773 33.0334 72.493 32.584L72.9425 33.0334C72.035 29.5876 71.0162 26.1117 68.221 23.6932C65.4258 21.2747 61.5775 20.4571 57.832 20.5213C56.9117 20.5384 55.9914 20.5941 55.0753 20.6668C54.7885 20.6882 54.1036 20.868 53.8725 20.7396C53.7184 20.654 53.5429 20.2431 53.4401 20.0932C53.2775 19.8535 53.1148 19.6138 52.9479 19.3784C51.7664 17.7004 50.4566 16.1037 48.8813 14.781C45.765 12.1827 41.9168 10.6674 37.8631 10.5133C33.8093 10.3592 30.0767 11.5535 26.802 13.7408C23.6986 15.8084 20.8477 18.6892 19.341 22.1479C18.6047 23.8345 18.2922 25.6152 17.7357 27.3531C17.5774 27.8454 17.2863 28.0979 16.824 28.3291C16.0791 28.7015 15.3001 28.9712 14.5852 29.4035C11.7515 31.1115 10.1206 34.476 9.64542 37.6693C9.08467 41.4106 10.1291 45.1732 13.0656 47.6645C16.0963 50.2414 20.1072 51.0119 23.994 50.785C25.0341 50.7251 26.0658 50.5924 27.0931 50.4298C27.9064 50.3013 27.5597 49.0643 26.7507 49.1927C22.9752 49.7962 18.8401 49.792 15.4499 47.8015C14.0587 46.9839 12.8259 45.8581 11.9912 44.4669C11.0623 42.9216 10.7199 41.0895 10.7712 39.3045C10.8226 37.5195 11.3448 35.6232 12.1924 33.9623C12.8088 32.7552 13.5921 31.638 14.7136 30.8461C15.33 30.4094 16.0064 30.0584 16.7041 29.7674C17.3034 29.5148 17.9241 29.2794 18.3778 28.7914C18.7417 28.4019 18.9215 27.9096 19.0542 27.4002C19.2596 26.6126 19.448 25.8249 19.6748 25.0459C20.2056 23.2138 20.9547 21.5358 22.0634 19.9819C23.1164 18.5094 24.4092 17.1996 25.8089 16.0566C28.6427 13.7451 32.0586 12.1527 35.727 11.8488C39.5796 11.5321 43.4235 12.5166 46.6254 14.6868C48.2392 15.7827 49.6304 17.161 50.8375 18.6892C51.4625 19.4811 52.0318 20.3073 52.5926 21.1463C52.8109 21.4759 53.0121 21.8183 53.3973 21.9681C53.8083 22.1265 54.292 22.0152 54.72 21.981C58.153 21.6942 61.8515 21.5358 65.0277 23.1068C66.6201 23.8944 68.0369 25.063 69.0471 26.527C69.9675 27.8582 70.5539 29.3693 71.0162 30.9103C71.2602 31.7279 71.4785 32.554 71.6968 33.3802C71.7482 33.5814 71.9323 33.7868 72.1463 33.8296C75.9046 34.5402 79.2649 37.6222 79.282 41.6246C79.2906 43.4909 78.6014 45.3872 77.2616 46.7099C75.7291 48.221 73.5289 48.709 71.4528 48.8759C68.649 49.1028 65.811 49.0514 62.9987 49.1156C62.1725 49.1327 62.1725 50.4169 62.9987 50.3998V50.3912Z" fill="#231F20"/>
<path d="M13.2405 38.9477C13.1891 40.0949 13.4716 41.2721 13.7755 42.3722C14.0409 43.3311 14.5032 44.1915 15.1967 44.9063C15.8174 45.5484 16.5879 46.0578 17.3969 46.4259C17.8207 46.6186 18.2573 46.7855 18.7025 46.9139C18.9251 46.9781 19.1519 47.0338 19.3788 47.0851C19.473 47.1065 19.5672 47.1237 19.6613 47.1408C19.7855 47.1622 19.8454 47.2307 19.794 47.1322L19.7084 46.8069V46.8925C19.7726 47.7144 21.0568 47.7187 20.9969 46.8925C20.9241 45.8181 19.6057 45.8609 18.8181 45.6083C18.0304 45.3558 17.2128 44.9662 16.5579 44.4226C15.903 43.879 15.3593 43.1598 15.0939 42.3166C14.7558 41.255 14.4733 40.0693 14.5203 38.9477C14.5546 38.1216 13.2704 38.1216 13.2362 38.9477H13.2405Z" fill="#231F20"/>
<path d="M58.5362 36.2274C59.5165 36.6726 60.4967 37.1264 61.4727 37.5801C62.3331 37.9825 63.3861 38.3206 64.0625 39.0098C65.4194 40.3882 65.124 42.5841 64.8801 44.3135C64.833 44.6602 64.9657 44.9984 65.3295 45.1054C65.6291 45.191 66.0701 44.9984 66.1214 44.6559C66.4168 42.5413 66.6693 40.2041 65.2439 38.4148C64.5633 37.5587 63.5616 37.1478 62.5985 36.6983C61.4641 36.1675 60.3255 35.641 59.1869 35.123C58.8701 34.9775 58.4977 35.0331 58.3093 35.3542C58.1467 35.6281 58.2237 36.0904 58.5405 36.2317L58.5362 36.2274Z" fill="#231F20"/>
<path d="M46.8159 47.5568C46.94 48.5841 47.0642 49.6115 47.1883 50.6388C47.2268 50.9727 47.4537 51.298 47.8304 51.2809C48.1429 51.2681 48.5153 50.9941 48.4725 50.6388C48.3483 49.6115 48.2242 48.5841 48.1001 47.5568C48.0615 47.2229 47.8347 46.8976 47.458 46.9147C47.1455 46.9276 46.7731 47.2015 46.8159 47.5568Z" fill="#231F20"/>
<path d="M47.0911 52.3071V53.7411C47.0868 54.1777 47.044 54.6358 47.0954 55.0681C47.2281 56.1126 48.6064 55.8814 49.3598 55.9028C51.2561 55.9542 53.1524 56.0013 55.0487 56.0526C55.8749 56.074 55.8749 54.7899 55.0487 54.7685C53.8587 54.7385 52.6687 54.7042 51.4744 54.6743C50.8923 54.6572 50.3058 54.6443 49.7237 54.6272C49.4326 54.6186 49.1415 54.6101 48.8504 54.6058C48.7049 54.6058 48.5593 54.5972 48.4138 54.593C48.341 54.593 48.2683 54.593 48.1955 54.5887C48.0285 54.5758 48.0029 54.5801 48.1142 54.5972L48.3453 54.8284C48.4266 54.9654 48.3667 54.7599 48.3667 54.6786V54.3918C48.3667 54.152 48.3667 53.9123 48.3667 53.6726V52.3071C48.3753 51.481 47.0911 51.481 47.0868 52.3071H47.0911Z" fill="#231F20"/>
<path d="M39.1314 59.792L42.4874 59.6294C42.5473 59.6294 42.6115 59.6294 42.6714 59.6208C42.8812 59.5823 42.2862 59.441 42.3076 59.2356C42.2947 59.364 42.3204 59.5095 42.329 59.6379C42.3418 59.9119 42.359 60.1858 42.3718 60.4641C42.4018 61.042 42.4317 61.6156 42.4617 62.1934C42.4788 62.5273 42.7442 62.8527 43.1038 62.8355C43.4377 62.8227 43.763 62.553 43.7459 62.1934C43.7116 61.5514 43.6817 60.9093 43.6474 60.2672C43.6303 59.9419 43.6217 59.6122 43.596 59.2869C43.5661 58.8888 43.4077 58.4993 42.9796 58.3794C42.68 58.2938 42.3247 58.358 42.0165 58.3752L41.0791 58.4222L39.1271 58.5164C38.7932 58.5335 38.4679 58.7989 38.485 59.1585C38.4979 59.4924 38.7675 59.8177 39.1271 59.8006L39.1314 59.792Z" fill="#231F20"/>
<path d="M42.2109 63.8693C42.2109 64.4258 42.2109 64.9823 42.2109 65.5387C42.2109 65.8726 42.5063 66.1979 42.853 66.1808C43.1998 66.1637 43.4951 65.8983 43.4951 65.5387C43.4951 64.9823 43.4951 64.4258 43.4951 63.8693C43.4951 63.5354 43.1998 63.2101 42.853 63.2272C42.5063 63.2443 42.2109 63.5097 42.2109 63.8693Z" fill="#231F20"/>
<path d="M42.3438 67.3302V68.7428C42.3438 68.9055 42.4165 69.081 42.5321 69.1965C42.6477 69.3121 42.8275 69.3935 42.9858 69.3849C43.1442 69.3763 43.324 69.325 43.4396 69.1965C43.5552 69.0681 43.6279 68.9183 43.6279 68.7428V67.3302C43.6279 67.1675 43.5552 66.992 43.4396 66.8765C43.324 66.7609 43.1442 66.6796 42.9858 66.6881C42.8275 66.6967 42.6477 66.748 42.5321 66.8765C42.4165 67.0049 42.3438 67.1547 42.3438 67.3302Z" fill="#231F20"/>
<path d="M37.7538 58.664C36.8977 58.4842 36.0159 58.4328 35.1427 58.5398C34.9672 58.5612 34.8216 58.5955 34.6889 58.7282C34.5776 58.8395 34.492 59.0235 34.5006 59.1819C34.5092 59.3403 34.5605 59.5201 34.6889 59.6356C34.8045 59.7427 34.98 59.8454 35.1427 59.824C35.5408 59.7726 35.9431 59.7555 36.3455 59.7726C36.5467 59.7812 36.7436 59.7983 36.9448 59.8197C37.0775 59.8326 36.8121 59.7983 36.9576 59.8197C37.0047 59.8283 37.0475 59.8326 37.0946 59.8411C37.2016 59.8582 37.3087 59.8796 37.4114 59.901C37.741 59.9695 38.122 59.8069 38.2033 59.4516C38.2761 59.1305 38.1048 58.7367 37.7538 58.6597V58.664Z" fill="#231F20"/>
<path d="M53.4547 73.9424C56.5324 71.892 58.8054 68.7714 59.7942 65.2014C60.0168 64.4052 58.7755 64.0628 58.5571 64.859C57.6625 68.0994 55.6078 70.9631 52.8083 72.8294C52.1234 73.2875 52.7655 74.4004 53.4547 73.9381V73.9424Z" fill="#231F20"/>
<path d="M35.0282 41.019C34.0951 41.1346 33.1747 41.3229 32.2844 41.6268C31.394 41.9308 30.525 42.2561 29.9686 43.018C29.4934 43.673 29.3821 44.5162 29.3607 45.2996C29.335 46.2413 29.3693 47.1873 29.3907 48.1291C29.4121 48.9552 30.6963 48.9552 30.6749 48.1291C30.6535 47.3029 30.6406 46.4768 30.6406 45.6463C30.6406 45.0385 30.6406 44.3579 30.9702 43.8228C31.2998 43.2877 32.096 43.0437 32.6825 42.8468C33.4444 42.59 34.232 42.4016 35.0282 42.3032C35.3707 42.2604 35.6703 42.0378 35.6703 41.6611C35.6703 41.3486 35.375 40.9762 35.0282 41.019Z" fill="#231F20"/>
</svg>
