<svg width="91" height="91" viewBox="0 0 91 91" fill="none" xmlns="http://www.w3.org/2000/svg">
<path d="M19.9983 16.0301C17.3415 15.5948 14.7347 16.8256 13.0886 18.912C11.3224 21.1585 10.7721 24.0004 10.602 26.7923C10.3968 30.1196 10.5419 33.4568 10.682 36.7891C10.8221 40.1213 10.8721 43.3185 10.9222 46.5857L11.0723 56.5825C11.1123 59.3043 10.9622 62.2413 12.148 64.773C13.1987 67.0195 15.3251 68.2103 17.6717 68.7307C20.2635 69.306 23.0203 69.3461 25.6621 69.4361C28.9293 69.5462 32.1965 69.5112 35.4638 69.4712C38.751 69.4311 42.0382 69.5562 45.3254 69.4361C46.9465 69.3761 48.5576 69.201 50.1737 69.1409C51.7898 69.0809 53.4809 69.1009 55.132 69.1559C58.1791 69.256 61.2262 69.4211 64.2682 69.5762C69.3416 69.8314 75.3257 69.7163 78.3527 64.8781C79.9238 62.3664 79.7737 59.2643 79.7086 56.4223C79.6336 53.1051 79.5585 49.7829 79.4835 46.4656C79.3334 39.7461 79.1833 33.0215 79.0282 26.302C78.9731 23.8603 78.798 21.3787 77.4471 19.2572C76.0962 17.1358 73.7746 15.945 71.2429 15.93C69.842 15.92 68.456 16.1651 67.0501 16.1301C66.0844 16.1051 66.0844 17.6061 67.0501 17.6311C69.6218 17.6962 72.2886 16.8606 74.6002 18.3967C76.3514 19.5624 77.1519 21.7189 77.4021 23.7203C77.5722 25.0612 77.5272 26.4421 77.5572 27.793C77.5922 29.3691 77.6272 30.9451 77.6623 32.5212C77.7323 35.6733 77.8024 38.8255 77.8724 41.9826C77.9424 45.1397 78.0125 48.2868 78.0825 51.444C78.1476 54.406 78.4128 57.438 78.1626 60.395C78.0475 61.7359 77.7273 63.0718 76.9868 64.2076C76.2963 65.2783 75.2656 66.1639 74.1649 66.7994C72.0935 67.9902 69.5818 68.1703 67.2452 68.1703C61.5464 68.1703 55.8625 67.4348 50.1537 67.6449C48.6126 67.7 47.0816 67.8651 45.5456 67.9301C44.0095 67.9952 42.4985 67.9952 40.9725 67.9902C37.9054 67.9752 34.8383 68.0002 31.7713 68.0152C28.7042 68.0302 25.5571 67.9802 22.455 67.785C20.3335 67.6499 18.052 67.5749 16.0857 66.6643C13.8041 65.6086 12.9285 63.3971 12.6984 61.0154C12.4182 58.1235 12.5333 55.1715 12.4882 52.2695C12.4382 49.1424 12.3932 46.0153 12.3431 42.8882C12.2931 39.7611 12.133 36.709 12.0379 33.6169C11.9429 30.5248 11.8028 27.5528 12.3081 24.6159C12.7384 22.0891 13.8341 19.5374 16.1407 18.2015C17.1714 17.6011 18.3872 17.2909 19.578 17.486C20.5237 17.6411 20.9289 16.1952 19.9783 16.0401L19.9983 16.0301Z" fill="#231F20"/>
<path d="M37.3975 68.9489C37.4425 70.0247 36.8971 71.1304 36.627 72.1611C36.3568 73.1918 36.1516 74.1424 35.9665 75.1431C35.5813 77.2145 35.3161 79.3059 35.0459 81.3973C34.9258 82.353 36.4268 82.343 36.5469 81.3973C36.8171 79.2859 37.0923 77.1695 37.5026 75.0781C37.6977 74.0774 37.9228 73.0867 38.198 72.1061C38.4832 71.0704 38.9435 70.0397 38.8985 68.9489C38.8585 67.9883 37.3575 67.9833 37.3975 68.9489Z" fill="#231F20"/>
<path d="M51.1501 68.7454C51.7905 70.8769 52.6211 73.0433 52.8713 75.2648C53.1064 77.3512 53.0014 79.4777 53.6618 81.4991C53.962 82.4147 55.413 82.0194 55.1078 81.0988C54.4423 79.0674 54.5924 76.916 54.3122 74.8195C54.017 72.608 53.2315 70.4716 52.5911 68.3452C52.3159 67.4245 50.8649 67.8148 51.1451 68.7454H51.1501Z" fill="#231F20"/>
<path d="M31.8258 82.2198C40.7718 82.3199 49.7179 82.4099 58.6639 82.495C59.6296 82.505 59.6296 81.004 58.6639 80.994C49.7179 80.9089 40.7718 80.8189 31.8258 80.7188C30.8601 80.7088 30.8601 82.2098 31.8258 82.2198Z" fill="#231F20"/>
<path d="M44.3629 63.5915C43.9926 63.5615 43.5973 63.5415 43.2721 63.3764C43.2421 63.3613 43.072 63.2463 43.137 63.3013C43.097 63.2713 43.057 63.2313 43.027 63.1912C43.037 63.2012 43.072 63.2613 43.027 63.1912C43.0019 63.1562 42.9119 62.9761 42.9419 63.0561C42.9269 63.0211 42.9169 62.9811 42.9119 62.9461C42.8869 62.816 42.9269 63.0461 42.9119 62.921C42.8969 62.796 42.9019 63.0211 42.9119 62.901C42.9119 62.821 42.9019 62.891 42.8969 62.901C42.8969 62.901 42.9569 62.786 42.9219 62.851C42.8819 62.921 43.0069 62.7759 42.9369 62.831C42.8769 62.876 43.087 62.7509 43.0169 62.7809C42.9419 62.816 43.087 62.7609 43.102 62.7559C43.152 62.7409 43.2021 62.7309 43.2521 62.7209C43.3372 62.7009 43.2621 62.7209 43.2471 62.7209C43.2971 62.7159 43.3522 62.7109 43.4072 62.7059C43.4873 62.7059 43.5673 62.7009 43.6474 62.7009C43.8925 62.7009 44.1377 62.7159 44.3829 62.7259C44.8832 62.7459 45.3886 62.7659 45.8889 62.786C46.1391 62.796 46.3892 62.806 46.6394 62.816C46.7194 62.816 46.8045 62.826 46.8846 62.831C46.8846 62.831 47.0146 62.846 46.9496 62.836C46.8896 62.826 47.0747 62.861 47.0947 62.866C47.1698 62.886 47.2498 62.906 47.3249 62.9361C47.2148 62.891 47.4599 63.0211 47.4049 62.9861C47.3499 62.9511 47.4399 63.0261 47.4449 63.0311C47.3999 62.9461 47.4599 63.0611 47.4599 63.0711C47.4549 63.0511 47.4299 62.9861 47.4499 63.0661C47.47 63.1462 47.485 62.9611 47.4499 63.1212C47.4249 63.2463 47.485 63.0962 47.4299 63.2162C47.4299 63.2162 47.3849 63.3313 47.4099 63.2713C47.4399 63.2012 47.3649 63.3413 47.3599 63.3563C47.3199 63.4264 47.3499 63.3814 47.3599 63.3663C47.3349 63.3964 47.3098 63.4264 47.2798 63.4564C47.1848 63.5515 47.2398 63.5114 47.1247 63.5815C46.7595 63.7916 46.2942 63.7566 45.8639 63.7366C45.2835 63.7066 44.7031 63.6565 44.1227 63.6165C43.7174 63.5865 43.3722 63.9818 43.3722 64.367C43.3722 64.7973 43.7174 65.0875 44.1227 65.1175C44.7981 65.1626 45.4786 65.2376 46.1541 65.2476C46.7745 65.2576 47.4449 65.1676 47.9753 64.8173C49.066 64.0968 49.3512 62.4107 48.1054 61.6752C47.57 61.36 46.9296 61.34 46.3292 61.315C45.6587 61.2899 44.9883 61.2599 44.3228 61.2349C43.7624 61.2099 43.1771 61.1649 42.6367 61.345C42.0463 61.5351 41.556 61.9954 41.4459 62.6258C41.3208 63.3764 41.6961 64.1118 42.3015 64.5471C42.9069 64.9824 43.6574 65.0525 44.3729 65.1075C44.7781 65.1375 45.1234 64.7373 45.1234 64.357C45.1234 63.9217 44.7781 63.6365 44.3729 63.6065L44.3629 63.5915Z" fill="#231F20"/>
<path d="M12.1355 58.1544C20.0909 58.0394 28.0562 58.1694 36.0166 58.2395C46.1835 58.3295 56.3504 58.4446 66.5122 58.5397C70.4149 58.5747 74.3225 58.6147 78.2252 58.6147C79.1908 58.6147 79.1908 57.1137 78.2252 57.1137C70.0496 57.1137 61.8691 56.9986 53.6936 56.9136C43.5867 56.8085 33.4849 56.6984 23.3781 56.6484C19.6306 56.6284 15.878 56.6034 12.1305 56.6584C11.1648 56.6734 11.1648 58.1744 12.1305 58.1594L12.1355 58.1544Z" fill="#231F20"/>
<path d="M20.6169 56.7155C20.5618 47.2541 20.5018 37.7927 20.4468 28.3313C20.4167 23.6932 20.1666 19.025 20.4117 14.3869C20.4568 13.5063 20.3467 12.1804 20.9321 11.4499C21.4775 10.7645 22.5332 10.4943 23.3487 10.3342C25.1449 9.98394 27.0112 10.1941 28.8224 10.2141C33.3955 10.2741 37.9736 10.124 42.5467 10.139C44.8983 10.144 47.2499 10.1641 49.6015 10.1891C51.2126 10.2091 52.8036 10.094 54.4097 10.029C55.8957 9.96893 57.5769 9.89388 58.9728 10.4993C59.7733 10.8445 60.3537 11.55 60.9741 12.1354C61.8147 12.9359 62.6603 13.7365 63.5009 14.532C65.137 16.0831 66.8431 17.5891 68.3591 19.2552C69.0646 20.0257 69.7551 20.7862 69.7901 21.882C69.8251 22.9777 69.7351 24.1485 69.7101 25.2743C69.4999 34.7607 69.7901 44.2521 69.7501 53.7385C69.7501 54.8993 69.7351 56.0551 69.7201 57.2159C69.7051 58.1815 71.2061 58.1815 71.2211 57.2159C71.3512 47.3542 71.0309 37.4925 71.166 27.6309C71.181 26.39 71.2061 25.1492 71.2411 23.9083C71.2711 22.8326 71.4462 21.6368 71.081 20.6011C70.7408 19.6355 70.0203 18.8499 69.3398 18.1094C68.5643 17.2689 67.7337 16.4833 66.9032 15.6928C65.127 14.0067 63.3508 12.3255 61.5746 10.6394C60.9241 10.024 60.3287 9.44858 59.4931 9.09834C58.7677 8.79313 57.9971 8.65804 57.2116 8.57298C55.5555 8.39787 53.8844 8.54797 52.2282 8.64303C50.1969 8.75811 48.1555 8.66805 46.1191 8.65304C41.2458 8.61801 36.3725 8.62802 31.4992 8.68306C29.4779 8.70808 27.4565 8.60801 25.4401 8.64303C23.6339 8.67305 21.4524 8.8882 20.0515 10.1691C19.286 10.8695 19.0858 11.8302 18.9958 12.8209C18.8857 14.0217 18.8357 15.2325 18.8157 16.4383C18.7756 18.8249 18.8557 21.2065 18.8857 23.5931C19.0208 33.3848 19.0058 43.1814 19.0658 52.973L19.0858 56.7155C19.0909 57.6812 20.5919 57.6812 20.5869 56.7155H20.6169Z" fill="#231F20"/>
<path d="M58.5608 9.81018L58.4257 16.1144C58.3907 17.7555 58.1505 19.6068 59.6465 20.6975C60.8824 21.5981 62.5485 21.5881 64.0095 21.6582C66.1059 21.7582 68.2023 21.8633 70.2987 21.9634C71.2644 22.0084 71.2594 20.5074 70.2987 20.4624C68.4675 20.3723 66.6312 20.2823 64.8 20.1972C63.4991 20.1322 61.808 20.2873 60.6472 19.5668C60.0768 19.2165 59.9117 18.6612 59.8967 18.0207C59.8717 17.1601 59.9267 16.2996 59.9467 15.439L60.0718 9.81018C60.0918 8.84452 58.5908 8.84452 58.5708 9.81018H58.5608Z" fill="#231F20"/>
<path d="M25.4333 17.2772C28.5204 17.5123 31.6175 17.5223 34.7096 17.3072C35.6652 17.2422 35.6752 15.7361 34.7096 15.8062C31.6225 16.0213 28.5204 16.0163 25.4333 15.7762C24.4676 15.7011 24.4727 17.2021 25.4333 17.2772Z" fill="#231F20"/>
<path d="M25.4236 22.8595C28.5958 22.6193 31.7729 22.4592 34.9551 22.3841C35.9207 22.3591 35.9207 20.8581 34.9551 20.8831C31.7729 20.9582 28.5958 21.1183 25.4236 21.3584C24.468 21.4335 24.458 22.9345 25.4236 22.8595Z" fill="#231F20"/>
<path d="M47.3958 29.2308C47.8612 28.7504 48.3215 28.06 48.9669 27.8148C49.6123 27.5696 49.9376 27.9349 50.0476 28.5253C50.1577 29.1157 50.1177 29.8011 50.1227 30.4216C50.1277 31.2821 50.1277 32.1377 50.1177 32.9983C50.0977 34.5944 50.0526 36.1905 49.9726 37.7815C49.9326 38.5571 49.8925 39.3326 49.8375 40.1081C49.8125 40.5184 49.7825 40.9237 49.7524 41.3339C49.7324 41.6241 49.7875 42.0994 49.6073 42.3446C48.9669 43.2152 47.5059 41.6592 47.1056 41.2289C46.3401 40.4083 45.5896 39.5427 44.5389 39.0824C43.8284 38.7672 43.0379 38.6021 42.2824 38.452C41.4068 38.2769 40.4712 38.0967 39.5756 38.1768C38.73 38.2518 38.0595 38.6871 38.0395 39.6078C38.0195 40.5284 38.5349 41.459 38.9351 42.2546C39.3054 42.9951 40.221 44.3009 39.7557 45.1115C39.2553 45.9871 38.4748 44.5211 38.2947 44.1208C37.9345 43.3303 37.7343 42.4647 37.5542 41.6191C37.4441 41.0938 37.3641 40.5634 37.1539 40.0631C36.8737 39.3926 36.3884 38.9373 35.793 38.537C34.7823 37.8566 33.8367 37.1761 33.3363 36.0103C32.876 34.9446 32.9461 33.6437 33.6716 32.7081C34.5472 31.5773 36.1783 31.5923 37.4741 31.5723C38.6149 31.5523 39.7507 31.6074 40.8915 31.5773C43.198 31.5173 45.8748 31.1771 47.3958 29.2258C47.9812 28.4752 46.9305 27.4045 46.3351 28.165C44.8641 30.0513 42.1723 30.0863 39.9858 30.0863C37.5892 30.0863 34.312 29.591 32.5958 31.6624C30.7346 33.9039 31.5702 37.0861 33.6516 38.8573C34.1319 39.2675 34.6873 39.5577 35.1926 39.938C35.858 40.4383 35.9331 41.1638 36.0882 41.9243C36.2883 42.89 36.5385 43.8456 36.9388 44.7462C37.3391 45.6468 37.9445 46.5725 38.9301 46.8226C40.3761 47.1929 41.4418 45.812 41.3518 44.4711C41.2767 43.3053 40.5963 42.2596 40.0959 41.2389C39.8808 40.7986 39.6606 40.3333 39.5606 39.8479C39.5606 39.8479 39.4955 39.5427 39.5105 39.6428C39.5255 39.7629 39.3604 39.6778 39.5706 39.6828C41.4218 39.7278 43.6583 39.913 45.0593 41.2639C45.9299 42.0994 46.6503 43.1351 47.7461 43.6955C48.9019 44.2909 50.573 44.1658 51.0633 42.7649C51.3435 41.9594 51.2885 40.9637 51.3485 40.1181C51.4136 39.1374 51.4686 38.1568 51.5086 37.1761C51.5987 35.1297 51.6387 33.0884 51.6337 31.042C51.6337 29.646 51.9089 27.5296 50.573 26.604C48.9219 25.4582 47.4008 27.0743 46.3351 28.175C45.6647 28.8705 46.7254 29.9312 47.3958 29.2358V29.2308Z" fill="#231F20"/>
<path d="M55.6755 31.8812C55.7105 31.8312 55.8606 31.6461 55.7105 31.8312C55.7506 31.7812 55.7906 31.7311 55.8306 31.6861C55.9157 31.586 56.0057 31.486 56.0958 31.3909C56.1959 31.2908 56.2959 31.1958 56.401 31.1007C56.446 31.0607 56.4961 31.0157 56.5461 30.9756C56.5711 30.9556 56.6011 30.9306 56.6262 30.9106C56.7262 30.8305 56.5161 30.9906 56.5911 30.9356C56.8063 30.7805 57.0264 30.6304 57.2616 30.5003C57.3767 30.4353 57.4968 30.3752 57.6168 30.3202C57.6469 30.3052 57.6819 30.2902 57.7119 30.2751C57.792 30.2401 57.5268 30.3502 57.6669 30.2952C57.7319 30.2701 57.797 30.2451 57.862 30.2201C58.0471 30.1501 58.2072 30.05 58.3123 29.8749C58.4074 29.7148 58.4474 29.4746 58.3874 29.2945C58.2723 28.9342 57.857 28.629 57.4617 28.7691C56.2059 29.2244 55.1502 30.03 54.3746 31.1157C54.2696 31.2658 54.2496 31.521 54.2996 31.6961C54.3496 31.8712 54.4797 32.0614 54.6448 32.1464C55.0301 32.3516 55.4254 32.2215 55.6705 31.8762L55.6755 31.8812Z" fill="#231F20"/>
<path d="M56.4072 35.4334C57.4479 35.5435 58.4986 35.5685 59.5443 35.5034C59.9346 35.4784 60.3148 35.1732 60.2948 34.7529C60.2798 34.3677 59.9646 33.9774 59.5443 34.0024C58.4986 34.0675 57.4479 34.0424 56.4072 33.9324C56.0169 33.8923 55.6417 34.3076 55.6567 34.6829C55.6767 35.1232 55.9869 35.3884 56.4072 35.4334Z" fill="#231F20"/>
<path d="M54.7167 38.4762C55.5973 39.1817 56.4779 39.8921 57.3585 40.5976C57.5186 40.7277 57.6737 40.8178 57.8888 40.8178C58.0739 40.8178 58.2941 40.7377 58.4192 40.5976C58.6693 40.3224 58.7444 39.7971 58.4192 39.5369C57.5386 38.8314 56.658 38.1209 55.7774 37.4155C55.6173 37.2854 55.4622 37.1953 55.247 37.1953C55.0619 37.1953 54.8418 37.2754 54.7167 37.4155C54.4665 37.6906 54.3915 38.216 54.7167 38.4762Z" fill="#231F20"/>
<path d="M14.6274 59.9257C14.2472 61.6819 14.6625 63.6132 15.9533 64.9141C16.5587 65.5245 17.3393 65.9848 18.1748 66.205C18.5751 66.31 19.0054 66.3701 19.4157 66.3601C19.5958 66.3601 19.7809 66.3301 19.961 66.3301C19.9961 66.3301 20.0311 66.3301 20.0661 66.3301C20.1211 66.3301 20.1111 66.3301 20.0361 66.3251C20.1211 66.3501 20.1211 66.3451 20.0361 66.315C19.896 66.1449 19.861 66.1149 19.926 66.23C20.1061 66.5902 20.6215 66.6953 20.9517 66.5002C21.322 66.285 21.402 65.8347 21.2219 65.4745C20.8016 64.6339 19.846 64.8991 19.1005 64.8491C18.8453 64.834 18.455 64.744 18.1448 64.6189C17.9297 64.5338 17.5244 64.2987 17.3343 64.1486C16.1835 63.233 15.7732 61.6919 16.0684 60.326C16.1535 59.9307 15.9483 59.5155 15.5431 59.4004C15.1678 59.2953 14.7075 59.5255 14.6174 59.9257H14.6274Z" fill="#231F20"/>
<path d="M72.6258 56.3223C73.8366 56.5074 75.0274 56.4924 76.2332 56.2623C76.4684 56.2172 76.7135 55.9721 76.7586 55.7369C77.0938 53.8206 77.1889 51.8793 76.9887 49.938C76.9487 49.5327 76.6735 49.1875 76.2382 49.1875C75.863 49.1875 75.4477 49.5327 75.4877 49.938C75.6728 51.7342 75.6228 53.5555 75.3076 55.3367L75.8329 54.8113C74.9123 54.9864 73.9517 55.0164 73.0261 54.8713C72.6258 54.8113 72.2205 54.9714 72.1004 55.3967C72.0054 55.7519 72.2205 56.2573 72.6258 56.3223Z" fill="#231F20"/>
<path d="M76.8448 48.0626V45.556C76.8448 45.1657 76.4995 44.7854 76.0943 44.8054C75.689 44.8255 75.3438 45.1357 75.3438 45.556V48.0626C75.3438 48.4529 75.689 48.8332 76.0943 48.8132C76.4995 48.7931 76.8448 48.4829 76.8448 48.0626Z" fill="#231F20"/>
<path d="M17.574 20.5704C16.068 20.9006 15.0373 22.1815 14.547 23.5825C14.0116 25.1185 13.9916 26.8847 14.0016 28.5008C14.0116 29.4664 15.5126 29.4664 15.5026 28.5008C15.4926 27.1249 15.5026 25.6739 15.8829 24.343C16.1781 23.2873 16.8385 22.2716 17.9693 22.0214C18.9099 21.8163 18.5147 20.3653 17.569 20.5754L17.574 20.5704Z" fill="#231F20"/>
<path d="M33.3835 37.2155C35.3798 35.3092 37.4663 33.498 39.6377 31.7969L38.577 30.7362C38.532 30.7762 38.4819 30.8162 38.4369 30.8562C38.1267 31.1214 38.1667 31.6468 38.4369 31.917C38.7421 32.2222 39.1874 32.1821 39.4976 31.917C39.5427 31.8769 39.5927 31.8369 39.6377 31.7969C39.9479 31.5317 39.9079 31.0063 39.6377 30.7362C39.3225 30.4209 38.8972 30.486 38.577 30.7362C36.4055 32.4373 34.3191 34.2485 32.3228 36.1548C31.6223 36.8253 32.688 37.886 33.3835 37.2155Z" fill="#231F20"/>
<path d="M35.8195 39.5235C39.507 37.1069 42.8493 34.1899 45.7212 30.8476C46.3467 30.1171 45.2909 29.0514 44.6605 29.7869C41.8686 33.0341 38.6464 35.881 35.064 38.2326C34.2585 38.758 35.009 40.0589 35.8195 39.5285V39.5235Z" fill="#231F20"/>
<path d="M37.9684 43.2933C38.4737 42.7129 38.979 42.1275 39.4844 41.5471C39.6145 41.397 39.7045 41.2219 39.7045 41.0168C39.7045 40.8317 39.6245 40.6115 39.4844 40.4864C39.3443 40.3613 39.1542 40.2563 38.954 40.2663C38.7539 40.2763 38.5538 40.3363 38.4237 40.4864C37.9183 41.0668 37.413 41.6522 36.9076 42.2326C36.7776 42.3827 36.6875 42.5578 36.6875 42.763C36.6875 42.9481 36.7676 43.1682 36.9076 43.2933C37.0477 43.4184 37.2379 43.5235 37.438 43.5135C37.6381 43.5035 37.8383 43.4434 37.9684 43.2933Z" fill="#231F20"/>
<path d="M41.9796 39.1716C42.57 38.416 43.2905 37.7906 44.016 37.1702C44.8215 36.4747 45.6321 35.7793 46.4376 35.0838C48.0537 33.6929 49.6698 32.3019 51.2859 30.916C52.0214 30.2856 50.9557 29.2298 50.2252 29.8553C48.6091 31.2462 46.993 32.6371 45.3769 34.0231C44.5914 34.6985 43.8058 35.374 43.0203 36.0494C42.2348 36.7249 41.5243 37.3353 40.9139 38.1108C40.6637 38.4311 40.6037 38.8613 40.9139 39.1716C41.174 39.4317 41.7244 39.4918 41.9746 39.1716H41.9796Z" fill="#231F20"/>
<path d="M39.2652 45.2236C39.6755 44.8383 40.0808 44.448 40.4911 44.0628C40.6262 43.9327 40.7112 43.7175 40.7112 43.5324C40.7112 43.3473 40.6312 43.1271 40.4911 43.0021C40.351 42.877 40.1608 42.7719 39.9607 42.7819C39.7606 42.7919 39.5805 42.862 39.4304 43.0021L38.2045 44.1628C38.0694 44.2929 37.9844 44.5081 37.9844 44.6932C37.9844 44.8783 38.0644 45.0985 38.2045 45.2236C38.3446 45.3486 38.5347 45.4537 38.7349 45.4437C38.935 45.4337 39.1151 45.3637 39.2652 45.2236Z" fill="#231F20"/>
<path d="M46.4288 40.4639C47.9948 39.1731 49.5609 37.8822 51.132 36.5913C51.4372 36.3412 51.4121 35.7858 51.132 35.5306C50.8067 35.2354 50.3965 35.2654 50.0712 35.5306C48.5052 36.8215 46.9391 38.1124 45.3681 39.4032C45.0629 39.6534 45.0879 40.2088 45.3681 40.4639C45.6933 40.7591 46.1036 40.7291 46.4288 40.4639Z" fill="#231F20"/>
<path d="M48.1587 42.3186L49.4545 41.3079L50.09 40.8126L50.4102 40.5624L50.5803 40.4323L50.6654 40.3673C50.5353 40.4924 50.3702 40.5274 50.165 40.4824L49.8348 40.2872L49.8498 40.3022L49.6547 39.972V39.992C49.6547 39.8569 49.6547 39.7268 49.6547 39.5918L50.125 39.1364H50.5253H50.5103C50.6604 39.2465 50.8105 39.3616 50.9606 39.4767L50.9506 39.4617C50.7454 39.1264 50.2701 38.9713 49.9249 39.1915C49.5796 39.4116 49.4345 39.8619 49.6547 40.2172C49.9199 40.6475 50.5503 40.7525 50.9005 40.3573C51.2508 39.962 51.1857 39.3916 50.7454 39.1064C50.5453 38.9763 50.2751 38.9663 50.055 39.0314C49.8598 39.0864 49.7197 39.2165 49.5646 39.3366L49.0743 39.7168L47.103 41.2529C46.9629 41.3629 46.8828 41.6131 46.8828 41.7832C46.8828 41.9684 46.9629 42.1885 47.103 42.3136C47.2431 42.4387 47.4332 42.5437 47.6333 42.5337C47.8435 42.5237 47.9986 42.4437 48.1637 42.3136L48.1587 42.3186Z" fill="#231F20"/>
</svg>
