<svg width="106" height="100" viewBox="0 0 106 100" fill="none" xmlns="http://www.w3.org/2000/svg">
<g style="mix-blend-mode:multiply" opacity="0.19">
<path d="M46.9089 99.0712C67.4268 99.0712 84.0599 97.9195 84.0599 96.4987C84.0599 95.078 67.4268 93.9263 46.9089 93.9263C26.3909 93.9263 9.75781 95.078 9.75781 96.4987C9.75781 97.9195 26.3909 99.0712 46.9089 99.0712Z" fill="#1D62AF"></path>
</g>
<path d="M68.817 41.0689C72.0094 39.6797 72.9294 34.8539 70.872 30.2903C68.8145 25.7266 64.5587 23.1532 61.3663 24.5425C58.1739 25.9317 57.2538 30.7574 59.3113 35.3211C61.3687 39.8847 65.6246 42.4581 68.817 41.0689Z" fill="#BA2026"></path>
<path d="M15.2797 36.9512L14.0969 37.3968L9.65253 39.0216C2.50368 41.6335 -1.02194 49.2099 1.78018 55.9457C4.58805 62.6815 12.6556 66.0213 19.8045 63.4093L24.2431 61.7846L25.4432 61.3615L15.2797 36.9512Z" fill="#808080"></path>
<path d="M54.538 11.7905L53.6193 12.7721C47.4063 19.4294 40.1125 25.0283 32.0349 29.3409C26.0582 32.5258 19.8606 35.2931 13.4881 37.6224L8.98057 39.2641C6.48214 40.1312 4.29854 41.7012 2.70168 43.7787C1.10482 45.8561 0.165261 48.3492 0 50.9474L3.07774 49.8191C3.39388 49.7026 3.74334 49.709 4.05488 49.8369C4.36642 49.9647 4.6166 50.2045 4.75442 50.5074C4.81436 50.6586 4.84251 50.8201 4.83718 50.9823C4.83184 51.1445 4.79313 51.3039 4.72338 51.451C4.65362 51.5981 4.55427 51.7297 4.43131 51.8381C4.30836 51.9464 4.16434 52.0291 4.00795 52.0813L0.160778 53.4973C0.249585 54.0406 0.374259 54.5777 0.534011 55.1051L3.87588 53.8809C4.19343 53.7611 4.54569 53.7657 4.85988 53.8938C5.17407 54.0219 5.42616 54.2636 5.56405 54.5692C5.62399 54.7204 5.65214 54.8819 5.64681 55.0441C5.64147 55.2063 5.60276 55.3657 5.53301 55.5128C5.46325 55.6599 5.3639 55.7915 5.24094 55.8999C5.11798 56.0082 4.97397 56.0909 4.81758 56.1431L1.47571 57.3617C1.73904 57.8537 2.03441 58.3286 2.35998 58.7833L4.14002 58.1345C4.45756 58.0147 4.80983 58.0193 5.12402 58.1474C5.4382 58.2755 5.69029 58.5173 5.82818 58.8228C5.88812 58.974 5.91628 59.1355 5.91094 59.2977C5.90561 59.4599 5.86689 59.6193 5.79714 59.7664C5.72739 59.9135 5.62804 60.0451 5.50508 60.1535C5.38212 60.2618 5.2381 60.3446 5.08171 60.3967L4.09408 60.7521C6.07821 62.554 8.53264 63.7792 11.1838 64.2911C13.835 64.8031 16.5789 64.5818 19.1095 63.6518L23.6113 62.0045C30.0225 59.6626 36.592 57.7625 43.2721 56.318C52.4166 54.3653 61.8197 53.8587 71.1268 54.8174L72.5163 54.9584L54.538 11.7905Z" fill="#E8E8E8"></path>
<path d="M28.7734 61.6492L29.2558 65.4797C29.2778 65.6834 29.2291 65.8884 29.1176 66.0615C29.006 66.2345 28.8382 66.3655 28.6414 66.433L28.4863 66.4895L26.2642 62.5687L28.7734 61.6492Z" fill="#BA2026"></path>
<path d="M25.96 85.8L14.8721 66.2357L26.7524 61.8975L29.7842 69.8574C31.3986 74.0357 33.3995 78.0598 35.7616 81.8792C35.8603 82.0581 35.9179 82.2561 35.9304 82.4592C35.9429 82.6623 35.9099 82.8657 35.8339 83.0549C35.7578 83.2442 35.6405 83.4148 35.4901 83.5548C35.3397 83.6947 35.16 83.8006 34.9635 83.865L27.8836 86.4544C27.5364 86.5905 27.1509 86.5992 26.7977 86.4791C26.4445 86.3589 26.1471 86.1179 25.96 85.8Z" fill="#262626"></path>
<path d="M12.6557 66.2243L2.38888 41.5602C2.31887 41.4016 2.28274 41.2305 2.28271 41.0576C2.28269 40.8847 2.31879 40.7137 2.38876 40.555C2.45873 40.3964 2.56109 40.2535 2.6895 40.1353C2.81792 40.0171 2.96966 39.9261 3.13534 39.8678L18.7537 34.1587C19.0699 34.0425 19.4199 34.0531 19.7282 34.1882C20.0365 34.3233 20.2784 34.572 20.4017 34.8808L30.6742 59.5449C30.7415 59.7042 30.7754 59.8752 30.7738 60.0476C30.7722 60.2201 30.7352 60.3905 30.665 60.5485C30.5947 60.7066 30.4927 60.849 30.365 60.9674C30.2374 61.0858 30.0867 61.1776 29.922 61.2373L14.3094 66.9351C13.9938 67.0522 13.6442 67.0433 13.3352 66.9105C13.0262 66.7777 12.7823 66.5314 12.6557 66.2243Z" fill="#DE1F26"></path>
<path d="M71.5345 54.9133L53.9237 12.603C53.7963 12.2979 53.7327 11.9709 53.7365 11.6412C53.7403 11.3115 53.8116 10.986 53.946 10.6839C54.0805 10.3818 54.2754 10.1094 54.5191 9.88277C54.7629 9.65617 55.0505 9.48001 55.3649 9.36479L55.4683 9.33094C56.0765 9.10607 56.7501 9.12354 57.3455 9.37963C57.9408 9.63572 58.4108 10.1102 58.6551 10.7018L76.2717 53.0122C76.3981 53.3177 76.4609 53.6449 76.4563 53.9746C76.4517 54.3044 76.3798 54.6298 76.2448 54.9317C76.1099 55.2337 75.9147 55.5059 75.6708 55.7324C75.4269 55.9589 75.1392 56.135 74.8247 56.2504L74.7271 56.2842C74.1179 56.5063 73.4446 56.4876 72.8492 56.2319C72.2537 55.9762 71.7824 55.5035 71.5345 54.9133Z" fill="#E01F26"></path>
<g style="mix-blend-mode:multiply" opacity="0.17">
<path d="M35.7616 81.8792C33.3995 78.0598 31.3986 74.0357 29.7841 69.8574L28.5037 66.4726L28.6415 66.4218C28.8383 66.3542 29.0061 66.2233 29.1177 66.0502C29.2292 65.8771 29.2779 65.6721 29.2559 65.4684L28.7735 61.6379L29.922 61.2148C30.0804 61.1606 30.2263 61.0758 30.3509 60.9654C30.4755 60.855 30.5764 60.7212 30.6476 60.5719C30.7188 60.4226 30.7588 60.2608 30.7653 60.0961C30.7719 59.9313 30.7448 59.7669 30.6856 59.6126C34.8352 58.3452 39.0308 57.247 43.2722 56.3181C52.4167 54.3653 61.8199 53.8588 71.1269 54.8175L71.5174 54.857C71.787 55.4602 72.2834 55.9377 72.9029 56.19C73.5223 56.4423 74.217 56.4498 74.842 56.2109C75.1506 56.1084 75.4349 55.9455 75.6777 55.7322C75.9205 55.5188 76.1168 55.2593 76.2547 54.9693C76.3926 54.6793 76.4693 54.3649 76.4801 54.0451C76.4909 53.7252 76.4357 53.4065 76.3177 53.1081L70.6733 39.5688C72.2121 37.5097 72.4418 34.0402 71.0178 30.6272L1.78017 55.9457C1.94095 56.3237 2.11895 56.696 2.30844 57.074L1.46436 57.3843C1.72769 57.8764 2.02306 58.3512 2.34863 58.8059L3.19271 58.5013C3.69961 59.2116 4.27661 59.8711 4.91533 60.4701L4.08273 60.7748C6.2429 62.7594 8.97428 64.0401 11.9034 64.4417L12.6499 66.2356C12.7903 66.5475 13.0477 66.7943 13.3685 66.9246C13.6893 67.0549 14.0489 67.0586 14.3725 66.9352L15.1017 66.67L25.9599 85.8225C26.1462 86.1339 26.4387 86.3705 26.7855 86.4903C27.1324 86.6101 27.5112 86.6053 27.8548 86.4769L34.9348 83.8875C35.1369 83.827 35.3228 83.7228 35.4787 83.5826C35.6346 83.4424 35.7567 83.2697 35.8359 83.0772C35.9152 82.8847 35.9496 82.6772 35.9368 82.4699C35.9239 82.2627 35.8641 82.0608 35.7616 81.8792Z" fill="#231F20"></path>
</g>
<path d="M67.4233 19.1582L68.3937 18.4361L78.8328 10.6509L72.5452 9.3365L83.3346 0L69.1689 9.86115L74.9512 10.5945" fill="white"></path>
<path d="M81.4854 41.3796L82.5649 41.6955L94.0662 45.0803L92.5905 40.8888L105.654 43.9126L90.6726 39.0723L92.4699 42.7617" fill="white"></path>
</svg>