<?xml version="1.0" encoding="UTF-8"?>
<svg width="29px" height="35px" viewBox="0 0 29 35" version="1.1" xmlns="http://www.w3.org/2000/svg" xmlns:xlink="http://www.w3.org/1999/xlink">
    <!-- Generator: Sketch 50.2 (55047) - http://www.bohemiancoding.com/sketch -->
    <title>Group 8</title>
    <desc>Created with Sketch.</desc>
    <defs></defs>
    <g id="Web" stroke="none" stroke-width="1" fill="none" fill-rule="evenodd">
        <g id="03.-Bag" transform="translate(-23.000000, -103.000000)" fill="#3E4152">
            <g id="Group-9" transform="translate(11.000000, 87.000000)">
                <g id="Group-8" transform="translate(12.000000, 16.000000)">
                    <path d="M21.297202,15.8717318 C20.6168076,15.8717318 20.0669449,16.4294703 20.0669449,17.1153233 C20.0669449,17.8011123 20.6168076,18.3588508 21.297202,18.3588508 C21.97608,18.3588508 22.5259427,17.8011123 22.5259427,17.1153233 C22.5259427,16.4294703 21.97608,15.8717318 21.297202,15.8717318" id="Fill-1"></path>
                    <path d="M26.802217,24.4793683 C26.5393216,24.7762796 26.1275089,24.8755268 25.4215264,25.0241421 C24.8573847,25.1431876 24.2168575,25.2773693 23.5380427,25.603531 L23.3714349,25.6841294 L23.2551821,25.8275078 C22.3277508,26.9756201 21.0865634,27.9659843 19.6679011,28.6940525 L19.1383826,28.9654814 L19.6792105,32.5600942 L15.4262562,32.5600942 L14.3265307,30.142908 L13.7857028,30.1558089 C13.0673368,30.1740745 12.3324174,30.1390761 11.6192954,30.0493449 L11.0239425,29.9744944 L9.84637821,32.5604774 L5.59380305,32.5604774 L6.25233682,28.1807644 L5.82769847,27.8873019 C3.16601656,26.0475887 1.64019956,23.3646577 1.64019956,20.5235954 C1.64019956,15.2102308 6.92552854,10.8875499 13.422729,10.8875499 C14.4261669,10.8875499 15.4258771,10.9917147 16.3946919,11.1970427 L16.8753717,11.3000579 L17.1908967,10.9206323 C18.5170623,9.32846224 20.0432584,8.5197957 21.7251952,8.5197957 C22.5198837,8.5197957 23.200278,8.70155727 23.672302,8.87718774 L21.4660906,13.4659329 L21.950498,13.8826561 C23.3657486,15.098466 24.3725983,16.5952208 24.8607965,18.2090412 L24.9912649,18.6363661 L25.6103739,18.8181277 C26.8206658,19.1667702 27.3212475,19.3116174 27.3212475,21.9671501 C27.3212475,23.2464424 27.1471211,24.0919594 26.802217,24.4793683 M26.2869773,17.2912922 C25.7337028,15.7269037 24.7772715,14.2780482 23.4895198,13.0511895 L25.350827,9.17793096 C25.4907725,8.8878533 25.5087791,8.54489489 25.4038357,8.23846762 C25.296681,7.93587229 25.0826876,7.69369384 24.7979316,7.55836258 C24.2518597,7.29753537 23.1269251,6.86299366 21.7259534,6.86299366 C20.2997725,6.86299366 18.2259251,7.32908499 16.2611908,9.48435823 C15.3303477,9.31556139 14.377644,9.22921506 13.4234871,9.22921506 C9.19605795,9.22921506 5.42037168,10.8837818 2.95802527,13.4621648 C2.6989207,13.2295023 2.54431721,13.0017575 2.52479434,12.8055623 C2.49206667,12.497283 2.78389891,12.1451918 3.03441089,11.9049293 L3.03213638,11.9049293 C3.19008845,11.7528652 3.28789237,11.5399372 3.28789237,11.3054227 C3.28789237,10.8468675 2.92119085,10.4761914 2.46761569,10.4761914 C2.25021046,10.4761914 2.05049586,10.5625377 1.90347407,10.7039362 C1.89968322,10.7077681 1.89595556,10.711153 1.89292288,10.7146018 C1.89102745,10.7165177 1.88913203,10.7202858 1.88540436,10.7222018 C1.14486187,11.4415203 0.811267102,12.202607 0.894728976,12.983492 C0.961700654,13.6199129 1.30091852,14.2069019 1.90347407,14.7334739 C0.695014379,16.4279567 2.52723312e-05,18.4086852 2.52723312e-05,20.5232122 C2.52723312e-05,23.7623489 1.62554161,26.8068233 4.47973551,28.9506646 L3.92273333,32.6482926 C3.86296427,33.0501351 3.9739098,33.4496785 4.22777037,33.7488889 C4.4801146,34.0461834 4.8554719,34.2165131 5.25641743,34.2165131 L9.94114946,34.2165131 C10.4948031,34.2165131 11.0660841,33.8477529 11.2966309,33.3379137 L12.0172083,31.7571117 C12.438119,31.7936428 12.8626941,31.8137605 13.285437,31.8175925 L13.9767617,33.3379137 C14.2083826,33.8473697 14.7782105,34.2161299 15.3336963,34.2161299 L20.0165961,34.2161299 C20.4174784,34.2161299 20.7928357,34.0458002 21.0470754,33.7485058 C21.3009359,33.4496785 21.4118815,33.049752 21.3521124,32.6479094 L20.9365089,29.8859128 C22.2773325,29.1228463 23.4643107,28.1435308 24.3985656,27.0299698 C24.8502453,26.8356905 25.311339,26.7402753 25.7555002,26.64486 C27.633424,26.2487016 28.9614218,25.6818941 28.9614218,21.9660005 C28.9614218,18.4911357 27.9109773,17.7866979 26.2869773,17.2912922" id="Fill-3"></path>
                    <path d="M16.7049856,12.6109318 L16.7030902,12.6109318 L16.6997416,12.6109318 C14.5585434,12.1543565 12.2688702,12.1562086 10.1408767,12.6109318 L10.1389813,12.6109318 L10.1351904,12.6109318 C9.82680479,12.6770966 9.59436253,12.9538264 9.59436253,13.287652 C9.59436253,13.6693768 9.89939956,13.9768898 10.2762732,13.9768898 C10.3251752,13.9768898 10.3725608,13.971589 10.4176719,13.9624562 C12.3647786,13.54618 14.4622558,13.5442641 16.4236414,13.9624562 C16.4688157,13.971589 16.5162013,13.9768898 16.5632078,13.9768898 C16.9407765,13.9768898 17.2469508,13.6689936 17.2469508,13.287652 C17.2473298,12.9538264 17.0133712,12.6770966 16.7049856,12.6109318" id="Fill-6"></path>
                    <path d="M13.4212316,1.61956838 C14.7455017,1.61956838 15.8237458,2.70879661 15.8237458,4.04812263 C15.8237458,5.38674613 14.7458808,6.47635755 13.4212316,6.47635755 C12.0965824,6.47635755 11.0190333,5.38712932 11.0190333,4.04812263 C11.0190333,2.70879661 12.0965824,1.61956838 13.4212316,1.61956838 M13.4212316,8.09362677 C15.6274429,8.09362677 17.4241161,6.27831025 17.4241161,4.0478033 C17.423737,1.81576358 15.6274429,0 13.4212316,0 C11.2131248,0 9.4172098,1.81576358 9.4172098,4.0478033 C9.4168939,6.27831025 11.2131248,8.09362677 13.4212316,8.09362677" id="Fill-8"></path>
                </g>
            </g>
        </g>
    </g>
</svg>